<svg width="91" height="32" viewBox="0 0 91 32" fill="none" xmlns="http://www.w3.org/2000/svg">
    <g clip-path="url(#clip0_145_1344)">
        <path d="M61.5496 21.5312C61.7185 21.3622 61.9509 21.2637 62.1973 21.2637H84.5438C84.9521 21.2637 85.1563 21.7565 84.8677 22.0452L80.4533 26.4595C80.2843 26.6285 80.052 26.7271 79.8055 26.7271H57.4591C57.0507 26.7271 56.8465 26.2343 57.1352 25.9456L61.5496 21.5312Z" fill="url(#paint0_linear_145_1344)"/>
        <path d="M61.5496 5.05074C61.7256 4.88177 61.9579 4.7832 62.1973 4.7832H84.5438C84.9521 4.7832 85.1563 5.27604 84.8677 5.5647L80.4533 9.97908C80.2843 10.1481 80.052 10.2466 79.8055 10.2466H57.4591C57.0507 10.2466 56.8465 9.75378 57.1352 9.46512L61.5496 5.05074Z" fill="url(#paint1_linear_145_1344)"/>
        <path d="M80.4533 13.2265C80.2843 13.0576 80.052 12.959 79.8055 12.959H57.4591C57.0507 12.959 56.8465 13.4518 57.1352 13.7405L61.5496 18.1549C61.7185 18.3238 61.9509 18.4224 62.1973 18.4224H84.5438C84.9521 18.4224 85.1563 17.9296 84.8677 17.6409L80.4533 13.2265Z" fill="url(#paint2_linear_145_1344)"/>
    </g>
    <path d="M38 16L53 16" stroke="#444444" stroke-dasharray="1 2"/>
    <path fill-rule="evenodd" clip-rule="evenodd" d="M20.4474 0.00129206C21.0519 0.00541726 21.2458 0.0157382 21.4893 0.0487477C21.6544 0.0714442 21.8855 0.110641 22.0051 0.133338C22.1247 0.158097 22.3373 0.21174 22.4797 0.253C22.622 0.294268 22.8345 0.366475 22.9541 0.41393C23.0738 0.461386 23.2471 0.539788 23.3421 0.587236C23.4349 0.632629 23.5732 0.711032 23.6495 0.756417C23.7278 0.803872 23.8785 0.909096 23.9858 0.989561C24.0931 1.07003 24.2787 1.23302 24.3984 1.35268C24.5181 1.47234 24.6832 1.65803 24.7636 1.76532C24.844 1.87261 24.9679 2.05829 25.0401 2.17796C25.1102 2.29762 25.2051 2.47093 25.2485 2.56584C25.2918 2.65868 25.3227 2.74327 25.3165 2.75565C25.3103 2.76803 25.267 2.7639 25.1969 2.74327C25.1391 2.7247 24.9555 2.67931 24.7904 2.64217C24.6253 2.60297 24.3509 2.54933 24.1818 2.52044C24.0105 2.49156 23.7464 2.45443 23.5938 2.43792C23.4411 2.41935 23.1811 2.39666 23.0161 2.38427C22.8448 2.3719 21.6915 2.36364 20.3236 2.36364C18.931 2.36364 17.8045 2.3719 17.6311 2.38427C17.4661 2.39666 17.1793 2.42554 16.9916 2.44823C16.8038 2.47093 16.5253 2.51426 16.3726 2.54314C16.2199 2.56996 15.927 2.63598 15.7227 2.6855C15.5185 2.73708 15.3472 2.77215 15.341 2.76596C15.3348 2.75978 15.3616 2.68756 15.3988 2.60503C15.4359 2.52251 15.5226 2.35539 15.5948 2.2316C15.6649 2.10987 15.7929 1.91387 15.8795 1.79833C15.9661 1.68485 16.1024 1.5198 16.1807 1.43521C16.2612 1.35062 16.4036 1.21445 16.4984 1.13398C16.5934 1.05146 16.7646 0.923543 16.8781 0.84514C16.9916 0.7688 17.2247 0.638817 17.3939 0.556289C17.5651 0.473762 17.8292 0.364412 17.9819 0.314902C18.1346 0.263321 18.3718 0.197294 18.508 0.166347C18.6442 0.135401 18.8773 0.0941407 19.0238 0.0714442C19.1703 0.0508103 19.3849 0.0239885 19.4983 0.0136756C19.6118 0.00335464 20.0389 -0.00283313 20.4474 0.00129206ZM20.2205 4.51761C22.3785 4.52173 22.7108 4.52586 22.9748 4.55681C23.1399 4.57744 23.4143 4.61458 23.5835 4.64347C23.7547 4.67235 24.0414 4.73218 24.223 4.77757C24.4046 4.82296 24.7017 4.91168 24.8832 4.97151C25.0648 5.03341 25.3165 5.12625 25.4403 5.17989C25.5641 5.23354 25.82 5.35526 26.0077 5.45017C26.1954 5.54508 26.4698 5.69982 26.6164 5.79266C26.7628 5.88756 26.9918 6.04437 27.1218 6.14134C27.2518 6.23831 27.4561 6.4013 27.5757 6.50446C27.6954 6.60761 27.9326 6.83456 28.1018 7.00784C28.2731 7.18324 28.5 7.43702 28.6094 7.57323C28.7166 7.70936 28.8714 7.91364 28.9519 8.02708C29.0323 8.1406 29.1747 8.35924 29.2675 8.51195C29.3604 8.66458 29.5089 8.93486 29.5976 9.11026C29.6864 9.28566 29.8101 9.55181 29.872 9.69826C29.934 9.84478 30.0268 10.0882 30.0783 10.2347C30.1278 10.3812 30.2084 10.6371 30.2558 10.8021C30.3012 10.9672 30.3672 11.2271 30.4002 11.3797C30.4332 11.5325 30.4848 11.811 30.5137 11.9987C30.5426 12.1865 30.5777 12.4506 30.5921 12.5868C30.6127 12.7786 30.6189 13.5255 30.6189 19.0239L30.555 19.158C30.5199 19.2323 30.4456 19.3416 30.3899 19.4035C30.3177 19.4819 30.2414 19.5376 29.9422 19.6841L20.3876 19.6903C13.1334 19.6944 10.8061 19.6903 10.7195 19.6717C10.6576 19.6593 10.5544 19.6222 10.4925 19.5913C10.4306 19.5603 10.3295 19.4881 10.2676 19.4344C10.1913 19.3643 10.1356 19.2859 10.0077 19.026L10.0015 16.0756C9.99736 14.0537 10.0015 13.0159 10.018 12.7827C10.0304 12.595 10.0593 12.2979 10.0799 12.1225C10.1026 11.9471 10.1438 11.6686 10.1727 11.5036C10.2016 11.3385 10.2656 11.0373 10.3172 10.833C10.3667 10.6288 10.4513 10.3275 10.5028 10.1625C10.5565 9.99741 10.6596 9.71063 10.7339 9.52294C10.8082 9.33516 10.9485 9.0195 11.0475 8.82142C11.1486 8.62333 11.2869 8.36336 11.3591 8.24373C11.4313 8.12402 11.553 7.93426 11.6293 7.82074C11.7077 7.7073 11.8563 7.50302 11.9615 7.36689C12.0667 7.23274 12.2978 6.9728 12.4732 6.7933C12.6486 6.61174 12.9003 6.37448 13.0302 6.26513C13.1602 6.15578 13.3604 5.99897 13.4738 5.91851C13.5873 5.83805 13.7916 5.70394 13.9277 5.62142C14.0639 5.53889 14.3011 5.4089 14.4539 5.33256C14.6065 5.25623 14.8479 5.14688 14.9903 5.09118C15.1326 5.03547 15.3637 4.95088 15.5061 4.90549C15.6484 4.8601 15.8568 4.7982 15.9703 4.76932C16.0838 4.7425 16.2983 4.69504 16.4448 4.66616C16.5934 4.63933 16.8347 4.60014 16.9813 4.58157C17.1298 4.563 17.365 4.54031 17.5074 4.53206C17.6497 4.52173 18.8691 4.51555 20.2205 4.51761ZM19.6428 7.18118C19.552 7.19974 19.3849 7.24512 19.2714 7.28224C19.1579 7.32151 18.9722 7.39783 18.8588 7.45558C18.7453 7.51127 18.5637 7.61654 18.4564 7.68873C18.3306 7.7733 18.1676 7.91157 18.0005 8.07864C17.8148 8.26436 17.6992 8.40049 17.5919 8.56351C17.5094 8.68941 17.4042 8.86886 17.3567 8.96588C17.3114 9.06282 17.2433 9.23401 17.2041 9.34754C17.167 9.46098 17.1153 9.65494 17.0885 9.78076C17.0514 9.9706 17.0431 10.0738 17.0452 10.3998C17.0452 10.7257 17.0534 10.8289 17.0926 11.0084C17.1194 11.128 17.1628 11.2993 17.1917 11.3901C17.2185 11.4809 17.2969 11.6665 17.3629 11.8027C17.429 11.9389 17.528 12.1143 17.5796 12.1947C17.6332 12.2752 17.7405 12.4134 17.8148 12.5042C17.8911 12.595 18.0211 12.7291 18.1036 12.8033C18.1861 12.8777 18.3285 12.9911 18.4213 13.0571C18.5142 13.1252 18.6648 13.2181 18.7556 13.2676C18.8464 13.3191 19.0238 13.3975 19.1476 13.445C19.2734 13.4925 19.4715 13.5523 19.5912 13.5791C19.7109 13.6059 19.9192 13.6348 20.0554 13.6451C20.1915 13.6554 20.4061 13.6575 20.53 13.6492C20.6537 13.641 20.8353 13.6183 20.9322 13.5977C21.0292 13.5791 21.1963 13.5337 21.3036 13.5007C21.4109 13.4657 21.5821 13.3996 21.6853 13.3501C21.7885 13.3026 21.937 13.2243 22.0154 13.1748C22.0959 13.1273 22.2341 13.0282 22.3249 12.9581C22.4156 12.888 22.5745 12.7435 22.6756 12.6363C22.7788 12.5289 22.9335 12.335 23.0202 12.205C23.1068 12.0751 23.2162 11.8894 23.2616 11.7924C23.307 11.6954 23.3709 11.5345 23.406 11.4313C23.4411 11.3282 23.4885 11.1528 23.5153 11.0393C23.5546 10.8619 23.5608 10.7711 23.5628 10.3998C23.5628 10.0593 23.5546 9.92729 23.5256 9.78076C23.505 9.67969 23.4596 9.50636 23.4246 9.3991C23.3895 9.29185 23.3173 9.10613 23.2596 8.9865C23.2038 8.86679 23.0986 8.68116 23.0264 8.57382C22.9541 8.46657 22.8324 8.30561 22.7541 8.21898C22.6777 8.13235 22.5436 8.00026 22.459 7.92395C22.3744 7.84969 22.2218 7.73205 22.1185 7.66398C22.0154 7.59385 21.84 7.49477 21.7266 7.43908C21.6131 7.38545 21.4171 7.30707 21.2933 7.2678C21.1695 7.22862 20.9776 7.18118 20.8704 7.16261C20.7631 7.14405 20.5444 7.12342 20.3855 7.1193C20.2267 7.11517 20.0327 7.1193 19.9523 7.12961C19.8738 7.13992 19.7336 7.16261 19.6428 7.18118ZM20.303 21.8009C28.6733 21.7989 29.7689 21.803 29.8968 21.8319C29.9773 21.8484 30.0948 21.8917 30.1629 21.9288C30.229 21.9659 30.328 22.0444 30.3837 22.1022C30.4394 22.162 30.5158 22.2734 30.6189 22.49L30.623 25.461C30.6292 28.399 30.6292 28.4341 30.5859 28.6074C30.5632 28.7044 30.5137 28.8488 30.4766 28.9271C30.4394 29.0056 30.3693 29.1314 30.3198 29.2057C30.2682 29.28 30.1774 29.3914 30.1134 29.4533C30.0515 29.5152 29.9402 29.6101 29.8658 29.6637C29.7916 29.7173 29.6616 29.7917 29.577 29.8329C29.4924 29.8721 29.348 29.9257 29.0922 30H11.5344L11.3756 29.9526C11.2869 29.9278 11.1527 29.8783 11.0764 29.8432C10.998 29.8082 10.8722 29.738 10.7917 29.6843C10.7133 29.6307 10.5916 29.5317 10.5235 29.4636C10.4554 29.3955 10.3564 29.28 10.3068 29.2057C10.2573 29.1314 10.1872 29.0056 10.15 28.9271C10.1129 28.8488 10.0634 28.7044 10.0407 28.6074C9.99736 28.4341 9.99736 28.399 10.0077 22.49L10.0758 22.3497C10.1108 22.2734 10.1872 22.162 10.2429 22.1022C10.2986 22.0444 10.4017 21.9639 10.474 21.9247C10.5462 21.8855 10.6617 21.8422 10.7298 21.8278C10.8288 21.8071 12.7393 21.8009 20.303 21.8009Z" fill="#E33E3F"/>
    <defs>
        <linearGradient id="paint0_linear_145_1344" x1="82.409" y1="2.14486" x2="66.9435" y2="31.7676" gradientUnits="userSpaceOnUse">
            <stop stop-color="#00FFA3"/>
            <stop offset="1" stop-color="#DC1FFF"/>
        </linearGradient>
        <linearGradient id="paint1_linear_145_1344" x1="75.6467" y1="-1.38436" x2="60.1811" y2="28.2384" gradientUnits="userSpaceOnUse">
            <stop stop-color="#00FFA3"/>
            <stop offset="1" stop-color="#DC1FFF"/>
        </linearGradient>
        <linearGradient id="paint2_linear_145_1344" x1="79.0063" y1="0.357366" x2="63.5408" y2="29.9801" gradientUnits="userSpaceOnUse">
            <stop stop-color="#00FFA3"/>
            <stop offset="1" stop-color="#DC1FFF"/>
        </linearGradient>
        <clipPath id="clip0_145_1344">
            <rect width="28" height="21.9452" fill="white" transform="translate(57 4.7832)"/>
        </clipPath>
    </defs>
</svg>
