<svg width="40" height="40" viewBox="0 0 40 40" fill="none" xmlns="http://www.w3.org/2000/svg">
    <path fill-rule="evenodd" clip-rule="evenodd" d="M20.1694 0.00162871C20.9315 0.00682871 21.1759 0.0198388 21.4828 0.0614488C21.6909 0.0900588 21.9822 0.139469 22.133 0.168079C22.2838 0.199289 22.5517 0.266909 22.7312 0.318919C22.9106 0.370939 23.1785 0.461959 23.3293 0.521779C23.4802 0.581599 23.6986 0.680429 23.8183 0.740239C23.9353 0.797459 24.1096 0.896289 24.2058 0.953499C24.3046 1.01332 24.4945 1.14596 24.6297 1.24739C24.765 1.34882 24.999 1.55428 25.1499 1.70512C25.3007 1.85596 25.5088 2.09003 25.6102 2.22527C25.7116 2.36051 25.8677 2.59457 25.9587 2.74542C26.0471 2.89626 26.1668 3.11472 26.2214 3.23436C26.276 3.35139 26.315 3.45802 26.3072 3.47363C26.2994 3.48923 26.2448 3.48403 26.1564 3.45802C26.0835 3.43461 25.8521 3.3774 25.644 3.33058C25.4359 3.28117 25.09 3.21355 24.8768 3.17714C24.6609 3.14073 24.328 3.09392 24.1356 3.07311C23.9431 3.0497 23.6154 3.0211 23.4074 3.00549C23.1915 2.98989 21.7377 2.97948 20.0134 2.97948C18.2579 2.97948 16.8379 2.98989 16.6194 3.00549C16.4114 3.0211 16.0499 3.05751 15.8132 3.08611C15.5765 3.11472 15.2254 3.16934 15.033 3.20575C14.8405 3.23956 14.4712 3.32278 14.2137 3.3852C13.9563 3.45022 13.7404 3.49443 13.7326 3.48663C13.7248 3.47883 13.7586 3.3878 13.8054 3.28377C13.8522 3.17974 13.9615 2.96908 14.0525 2.81304C14.1409 2.65959 14.3022 2.41252 14.4114 2.26688C14.5206 2.12384 14.6923 1.91578 14.7911 1.80915C14.8925 1.70252 15.072 1.53087 15.1916 1.42944C15.3113 1.32541 15.5271 1.16417 15.6702 1.06534C15.8132 0.969109 16.1071 0.805259 16.3203 0.701229C16.5362 0.597199 16.8691 0.459359 17.0616 0.396949C17.254 0.331929 17.5531 0.248699 17.7247 0.209689C17.8964 0.170679 18.1903 0.118669 18.3749 0.0900588C18.5596 0.0640488 18.8301 0.0302387 18.9731 0.0172387C19.1161 0.00422869 19.6545 -0.00357129 20.1694 0.00162871ZM19.8834 5.69466C22.6037 5.69986 23.0225 5.70506 23.3554 5.74407C23.5634 5.77008 23.9093 5.8169 24.1226 5.85331C24.3384 5.88972 24.6999 5.96514 24.9288 6.02235C25.1577 6.07957 25.5322 6.1914 25.761 6.26682C25.9899 6.34485 26.3072 6.46188 26.4632 6.5295C26.6193 6.59712 26.9418 6.75056 27.1784 6.8702C27.4151 6.98983 27.761 7.18489 27.9457 7.30192C28.1303 7.42155 28.419 7.61921 28.5828 7.74145C28.7467 7.86368 29.0042 8.06914 29.155 8.19918C29.3059 8.32921 29.6049 8.61529 29.8182 8.83371C30.0341 9.05481 30.3201 9.37471 30.458 9.54641C30.5932 9.71801 30.7883 9.97551 30.8897 10.1185C30.9911 10.2616 31.1706 10.5372 31.2876 10.7297C31.4047 10.9221 31.5919 11.2628 31.7037 11.4839C31.8156 11.705 31.9716 12.0405 32.0496 12.2251C32.1277 12.4098 32.2447 12.7167 32.3097 12.9013C32.3721 13.086 32.4736 13.4085 32.5334 13.6165C32.5906 13.8246 32.6738 14.1523 32.7154 14.3447C32.757 14.5372 32.8221 14.8883 32.8585 15.1249C32.8949 15.3616 32.9391 15.6945 32.9573 15.8662C32.9833 16.108 32.9911 17.0495 32.9911 23.9805L32.9105 24.1495C32.8663 24.2432 32.7726 24.381 32.7024 24.459C32.6114 24.5578 32.5152 24.6281 32.1381 24.8127L20.094 24.8205C10.9498 24.8257 8.01617 24.8205 7.90693 24.7971C7.82891 24.7815 7.69888 24.7347 7.62085 24.6957C7.54283 24.6567 7.41539 24.5656 7.33737 24.498C7.24114 24.4096 7.17092 24.3108 7.00968 23.9831L7.00188 20.264C6.99667 17.7153 7.00188 16.4071 7.02268 16.1132C7.03829 15.8766 7.0747 15.5021 7.1007 15.281C7.12931 15.0599 7.18133 14.7088 7.21774 14.5008C7.25415 14.2927 7.33477 13.913 7.39979 13.6555C7.46221 13.3981 7.56884 13.0183 7.63386 12.8103C7.70148 12.6022 7.83151 12.2407 7.92514 12.0041C8.01877 11.7674 8.19562 11.3695 8.32045 11.1198C8.44789 10.8701 8.62214 10.5424 8.71317 10.3916C8.80419 10.2407 8.95764 10.0015 9.05386 9.85841C9.15269 9.71541 9.33994 9.45791 9.47258 9.28631C9.60522 9.11721 9.8965 8.78954 10.1176 8.56328C10.3386 8.33441 10.6559 8.03533 10.8198 7.89749C10.9836 7.75965 11.2359 7.56199 11.3789 7.46056C11.522 7.35914 11.7794 7.19009 11.9511 7.08606C12.1227 6.98203 12.4218 6.81818 12.6143 6.72195C12.8067 6.62573 13.111 6.48789 13.2905 6.41767C13.4699 6.34745 13.7612 6.24082 13.9407 6.1836C14.1201 6.12638 14.3828 6.04836 14.5258 6.01195C14.6689 5.97814 14.9393 5.91832 15.124 5.88191C15.3113 5.8481 15.6155 5.79869 15.8002 5.77528C15.9874 5.75188 16.2839 5.72327 16.4634 5.71287C16.6428 5.69986 18.1799 5.69206 19.8834 5.69466ZM19.1552 9.05221C19.0407 9.07561 18.8301 9.13281 18.687 9.17961C18.544 9.22911 18.3099 9.32531 18.1669 9.39811C18.0238 9.46831 17.795 9.60101 17.6597 9.69201C17.5011 9.79861 17.2956 9.97291 17.085 10.1835C16.8509 10.4176 16.7052 10.5892 16.57 10.7947C16.466 10.9534 16.3333 11.1796 16.2735 11.3019C16.2163 11.4241 16.1305 11.6399 16.0811 11.783C16.0343 11.926 15.9692 12.1705 15.9354 12.3291C15.8886 12.5684 15.8782 12.6985 15.8808 13.1094C15.8808 13.5203 15.8912 13.6503 15.9406 13.8766C15.9744 14.0274 16.0291 14.2433 16.0655 14.3577C16.0993 14.4722 16.1981 14.7062 16.2813 14.8779C16.3646 15.0495 16.4894 15.2706 16.5544 15.372C16.622 15.4734 16.7573 15.6477 16.8509 15.7621C16.9471 15.8766 17.111 16.0456 17.215 16.1392C17.319 16.2329 17.4985 16.3759 17.6155 16.4591C17.7325 16.5449 17.9224 16.662 18.0368 16.7244C18.1513 16.7894 18.3749 16.8882 18.531 16.9481C18.6896 17.0079 18.9393 17.0833 19.0901 17.1171C19.241 17.1509 19.5036 17.1873 19.6753 17.2003C19.8469 17.2133 20.1174 17.2159 20.2735 17.2055C20.4295 17.1951 20.6584 17.1665 20.7806 17.1405C20.9028 17.1171 21.1135 17.0599 21.2487 17.0183C21.384 16.9741 21.5998 16.8908 21.7299 16.8284C21.8599 16.7686 22.0472 16.6698 22.146 16.6074C22.2474 16.5476 22.4217 16.4227 22.5361 16.3343C22.6505 16.2459 22.8508 16.0638 22.9782 15.9286C23.1083 15.7933 23.3033 15.5489 23.4126 15.385C23.5218 15.2212 23.6596 14.9871 23.7169 14.8649C23.7741 14.7426 23.8547 14.5398 23.8989 14.4097C23.9431 14.2797 24.0029 14.0586 24.0367 13.9156C24.0862 13.6919 24.094 13.5775 24.0966 13.1094C24.0966 12.6802 24.0862 12.5138 24.0497 12.3291C24.0237 12.2017 23.9665 11.9832 23.9223 11.848C23.8781 11.7128 23.7871 11.4787 23.7143 11.3279C23.644 11.177 23.5114 10.943 23.4204 10.8077C23.3293 10.6725 23.1759 10.4696 23.0771 10.3604C22.9808 10.2512 22.8118 10.0847 22.7052 9.98851C22.5985 9.89491 22.4061 9.74661 22.276 9.66081C22.146 9.57241 21.9249 9.44751 21.7819 9.37731C21.6389 9.30971 21.3918 9.21091 21.2357 9.16141C21.0797 9.11201 20.8378 9.05221 20.7026 9.02881C20.5674 9.00541 20.2917 8.97941 20.0914 8.97421C19.8912 8.96901 19.6467 8.97421 19.5453 8.98721C19.4464 9.00021 19.2696 9.02881 19.1552 9.05221ZM19.9874 27.4811C30.5386 27.4785 31.9196 27.4837 32.0808 27.5201C32.1823 27.5409 32.3305 27.5955 32.4163 27.6423C32.4996 27.6891 32.6244 27.788 32.6946 27.8608C32.7648 27.9362 32.8611 28.0766 32.9911 28.3497L32.9963 32.0948C33.0041 35.7983 33.0041 35.8425 32.9495 36.0609C32.9209 36.1832 32.8585 36.3652 32.8117 36.464C32.7648 36.5629 32.6764 36.7215 32.614 36.8151C32.549 36.9088 32.4345 37.0492 32.3539 37.1272C32.2759 37.2053 32.1355 37.3249 32.0418 37.3925C31.9482 37.4601 31.7844 37.5538 31.6777 37.6058C31.5711 37.6552 31.389 37.7228 31.0666 37.8164H8.93423L8.73397 37.7566C8.62214 37.7254 8.45309 37.663 8.35686 37.6188C8.25804 37.5746 8.09939 37.4861 7.99796 37.4185C7.89913 37.3509 7.74569 37.2261 7.65986 37.1402C7.57404 37.0544 7.4492 36.9088 7.38679 36.8151C7.32437 36.7215 7.23594 36.5629 7.18913 36.464C7.14232 36.3652 7.0799 36.1832 7.05129 36.0609C6.99667 35.8425 6.99667 35.7983 7.00968 28.3497L7.0955 28.1729C7.13972 28.0766 7.23594 27.9362 7.30616 27.8608C7.37638 27.788 7.50642 27.6865 7.59745 27.6371C7.68847 27.5877 7.83411 27.5331 7.91994 27.5149C8.04477 27.4889 10.4531 27.4811 19.9874 27.4811Z" fill="#E33E3F"/>
</svg>