<svg width="40" height="40" viewBox="0 0 40 40" fill="none" xmlns="http://www.w3.org/2000/svg">
<g clip-path="url(#clip0_13_527)">
<path d="M32.6962 0H7.30383C3.2525 0 0 3.2525 0 7.30383V32.6962C0 36.7475 3.2525 40 7.30383 40H32.6962C36.6905 40 40 36.7475 40 32.6962V7.30383C40 3.2525 36.7475 0 32.6962 0ZM26.5335 9.98571C29.5007 9.98571 31.8973 12.3823 31.8973 15.3495C31.8973 16.2625 31.669 17.1184 31.2696 17.9173C30.5849 17.4037 29.8431 16.9472 29.0442 16.6619C29.2725 16.2625 29.3866 15.806 29.3866 15.3495C29.3866 13.8089 28.1313 12.5535 26.5906 12.5535C25.0499 12.5535 23.7946 13.8089 23.7946 15.3495C23.7946 15.806 23.9087 16.2625 24.137 16.6619C23.3381 16.9472 22.5393 17.3466 21.9115 17.9173C21.4551 17.1184 21.2839 16.2625 21.2839 15.3495C21.1698 12.3823 23.5663 9.98571 26.5335 9.98571ZM13.4665 30.0143C10.4993 30.0143 8.10269 27.6177 8.10269 24.6505H10.6705C10.6705 26.1911 11.9258 27.4465 13.4665 27.4465C15.0071 27.4465 16.2625 26.1911 16.2625 24.6505H18.8302C18.8302 27.6177 16.4337 30.0143 13.4665 30.0143ZM13.4665 22.4822C10.0428 22.4822 7.2468 19.6862 7.2468 16.2625C7.2468 12.8388 10.0428 9.98571 13.4665 9.98571C16.8902 9.98571 19.7432 12.7817 19.7432 16.2625C19.6862 19.6862 16.8902 22.4822 13.4665 22.4822ZM26.5335 30.0143C23.1098 30.0143 20.2568 27.2183 20.2568 23.7946C20.2568 20.3138 23.0528 17.5178 26.5335 17.5178C29.9572 17.5178 32.7532 20.3138 32.7532 23.7946C32.7532 27.2183 29.9572 30.0143 26.5335 30.0143ZM30.2425 23.7375C30.2425 25.7917 28.5877 27.3894 26.5335 27.3894C24.4793 27.3894 22.8245 25.7347 22.8245 23.7375C22.8245 21.6833 24.4793 20.0285 26.5335 20.0285C28.5877 20.0856 30.2425 21.7403 30.2425 23.7375ZM17.1184 16.2625C17.1184 18.3167 15.4636 19.9715 13.4094 19.9715C11.3552 19.9715 9.7004 18.3167 9.7004 16.2625C9.7004 14.2083 11.3552 12.5535 13.4094 12.5535C15.5207 12.5535 17.1184 14.2083 17.1184 16.2625Z" fill="#D9B432"/>
</g>
<defs>
<clipPath id="clip0_13_527">
<rect width="40" height="40" fill="white"/>
</clipPath>
</defs>
</svg>
