<svg width="91" height="32" viewBox="0 0 91 32" fill="none" xmlns="http://www.w3.org/2000/svg">
    <g clip-path="url(#clip0_145_1329)">
        <path d="M61.5496 21.5312C61.7185 21.3622 61.9509 21.2637 62.1973 21.2637H84.5438C84.9521 21.2637 85.1563 21.7565 84.8677 22.0452L80.4533 26.4595C80.2843 26.6285 80.052 26.7271 79.8055 26.7271H57.4591C57.0507 26.7271 56.8465 26.2343 57.1352 25.9456L61.5496 21.5312Z" fill="url(#paint0_linear_145_1329)"/>
        <path d="M61.5496 5.05074C61.7256 4.88177 61.9579 4.7832 62.1973 4.7832H84.5438C84.9521 4.7832 85.1563 5.27604 84.8677 5.5647L80.4533 9.97908C80.2843 10.1481 80.052 10.2466 79.8055 10.2466H57.4591C57.0507 10.2466 56.8465 9.75378 57.1352 9.46512L61.5496 5.05074Z" fill="url(#paint1_linear_145_1329)"/>
        <path d="M80.4533 13.2265C80.2843 13.0576 80.052 12.959 79.8055 12.959H57.4591C57.0507 12.959 56.8465 13.4518 57.1352 13.7405L61.5496 18.1549C61.7185 18.3238 61.9509 18.4224 62.1973 18.4224H84.5438C84.9521 18.4224 85.1563 17.9296 84.8677 17.6409L80.4533 13.2265Z" fill="url(#paint2_linear_145_1329)"/>
    </g>
    <path d="M38 16L53 16" stroke="#444444" stroke-dasharray="1 2"/>
    <path d="M31.0349 28.5272L24.8977 26.6999L20.2696 29.4665L17.0405 29.4651L12.4096 26.6999L6.27523 28.5272L4.40918 22.228L6.27523 15.2367L4.40918 9.32589L6.27523 2L15.8606 7.72682H21.4493L31.0349 2L32.9009 9.32589L31.0349 15.2367L32.9009 22.228L31.0349 28.5272Z" fill="#FF5C16"/>
    <path d="M6.27637 2L15.8619 7.73085L15.4808 11.6639L6.27637 2ZM12.4109 22.2306L16.6285 25.4435L12.4109 26.6998V22.2306ZM16.2914 16.919L15.4808 11.6665L10.2922 15.2384L10.2893 15.2369V15.2396L10.3055 18.9161L12.4095 16.9192L16.2914 16.919ZM31.0348 2L21.4492 7.73085L21.8292 11.6639L31.0348 2ZM24.9005 22.2306L20.6827 25.4435L24.9005 26.6998V22.2306ZM27.0204 15.2394V15.2367L27.0192 15.2382L21.8306 11.6665L21.02 16.919H24.9003L27.0057 18.9157L27.0204 15.2394Z" fill="#FF5C16"/>
    <path d="M12.4096 26.6983L6.27523 28.5257L4.40918 22.2291H12.4096V26.6983ZM16.2901 16.916L17.4619 24.5095L15.8379 20.2873L10.3029 18.9142L12.4082 16.9162H16.2901V16.916ZM24.9003 26.6983L31.0349 28.5257L32.9009 22.2291H24.9003V26.6983ZM21.02 16.916L19.8482 24.5095L21.4721 20.2873L27.0072 18.9142L24.9005 16.9162H21.02V16.916Z" fill="#E34807"/>
    <path d="M4.40918 22.2297L6.27523 15.2384H10.288L10.3027 18.9162L15.8381 20.2893L17.4619 24.5113L16.6271 25.4411L12.4096 22.2283H4.40918V22.2297ZM32.9009 22.2297L31.0349 15.2384H27.0219L27.0072 18.9162L21.4723 20.2893L19.8482 24.5113L20.6828 25.4411L24.9005 22.2283H32.9009V22.2297ZM21.4493 7.72852H15.8606L15.4811 11.6616L17.4621 24.5073H19.8482L21.8304 11.6616L21.4493 7.72852Z" fill="#FF8D5D"/>
    <path d="M6.27523 2L4.40918 9.32589L6.27523 15.2367H10.288L15.4795 11.6639L6.27523 2ZM15.1303 18.4427H13.3124L12.3226 19.413L15.8393 20.2848L15.1303 18.4415V18.4427ZM31.0349 2L32.9009 9.32589L31.0349 15.2367H27.0219L21.8307 11.6639L31.0349 2ZM22.1824 18.4427H24.0029L24.9928 19.4142L21.4721 20.2877L22.1824 18.4413V18.4427ZM20.2682 26.9606L20.683 25.4421L19.8482 24.5122H17.4603L16.6257 25.4421L17.0403 26.9606" fill="#661800"/>
    <path d="M20.2678 26.9609V29.4683H17.04V26.9609H20.2678Z" fill="#C0C4CD"/>
    <path d="M12.4111 26.6939L17.0432 29.4632V26.9558L16.6285 25.4375L12.4111 26.6939ZM24.9007 26.6939L20.2684 29.4632V26.9558L20.6831 25.4375L24.9007 26.6939Z" fill="#E7EBF6"/>
    <defs>
        <linearGradient id="paint0_linear_145_1329" x1="82.409" y1="2.14486" x2="66.9435" y2="31.7676" gradientUnits="userSpaceOnUse">
            <stop stop-color="#00FFA3"/>
            <stop offset="1" stop-color="#DC1FFF"/>
        </linearGradient>
        <linearGradient id="paint1_linear_145_1329" x1="75.6467" y1="-1.38436" x2="60.1811" y2="28.2384" gradientUnits="userSpaceOnUse">
            <stop stop-color="#00FFA3"/>
            <stop offset="1" stop-color="#DC1FFF"/>
        </linearGradient>
        <linearGradient id="paint2_linear_145_1329" x1="79.0063" y1="0.357366" x2="63.5408" y2="29.9801" gradientUnits="userSpaceOnUse">
            <stop stop-color="#00FFA3"/>
            <stop offset="1" stop-color="#DC1FFF"/>
        </linearGradient>
        <clipPath id="clip0_145_1329">
            <rect width="28" height="21.9452" fill="white" transform="translate(57 4.7832)"/>
        </clipPath>
    </defs>
</svg>
