<svg width="91" height="32" viewBox="0 0 91 32" fill="none" xmlns="http://www.w3.org/2000/svg">
    <g clip-path="url(#clip0_145_1330)">
        <path d="M61.5496 21.5312C61.7185 21.3622 61.9509 21.2637 62.1973 21.2637H84.5438C84.9521 21.2637 85.1563 21.7565 84.8677 22.0452L80.4533 26.4595C80.2843 26.6285 80.052 26.7271 79.8055 26.7271H57.4591C57.0507 26.7271 56.8465 26.2343 57.1352 25.9456L61.5496 21.5312Z" fill="url(#paint0_linear_145_1330)"/>
        <path d="M61.5496 5.05074C61.7256 4.88177 61.9579 4.7832 62.1973 4.7832H84.5438C84.9521 4.7832 85.1563 5.27604 84.8677 5.5647L80.4533 9.97908C80.2843 10.1481 80.052 10.2466 79.8055 10.2466H57.4591C57.0507 10.2466 56.8465 9.75378 57.1352 9.46512L61.5496 5.05074Z" fill="url(#paint1_linear_145_1330)"/>
        <path d="M80.4533 13.2265C80.2843 13.0576 80.052 12.959 79.8055 12.959H57.4591C57.0507 12.959 56.8465 13.4518 57.1352 13.7405L61.5496 18.1549C61.7185 18.3238 61.9509 18.4224 62.1973 18.4224H84.5438C84.9521 18.4224 85.1563 17.9296 84.8677 17.6409L80.4533 13.2265Z" fill="url(#paint2_linear_145_1330)"/>
    </g>
    <path d="M38 16L53 16" stroke="#444444" stroke-dasharray="1 2"/>
    <path d="M16.7772 20.6667C17.0842 20.6667 17.3333 20.916 17.3333 21.2228V28.4453C17.333 28.7518 17.084 29 16.7772 29H9.5561C9.24938 29 9.00036 28.7518 9 28.4453V21.2228C9 20.916 9.24915 20.6667 9.5561 20.6667H16.7772Z" fill="black"/>
    <path d="M33.4439 20.6667C33.7508 20.6667 34 20.916 34 21.2228V28.4453C33.9996 28.7518 33.7506 29 33.4439 29H26.2228C25.916 29 25.667 28.7518 25.6667 28.4453V21.2228C25.6667 20.916 25.9158 20.6667 26.2228 20.6667H33.4439Z" fill="black"/>
    <path d="M25.1146 12.3333C25.4208 12.3337 25.669 12.5818 25.6694 12.8881V20.1106C25.6694 20.4171 25.421 20.6663 25.1146 20.6667H17.8921C17.5855 20.6667 17.336 20.4174 17.336 20.1106V12.8881C17.3364 12.5816 17.5857 12.3333 17.8921 12.3333H25.1146Z" fill="black"/>
    <path d="M16.7772 4C17.0842 4 17.3333 4.24915 17.3333 4.5561V11.7772C17.3333 12.084 17.0842 12.3333 16.7772 12.3333H9.5561C9.24915 12.3333 9 12.084 9 11.7772V4.5561C9 4.24915 9.24915 4 9.5561 4H16.7772Z" fill="black"/>
    <path d="M33.4439 4C33.7508 4 34 4.24915 34 4.5561V11.7772C34 12.084 33.7508 12.3333 33.4439 12.3333H26.2228C25.9158 12.3333 25.6667 12.084 25.6667 11.7772V4.5561C25.6667 4.24915 25.9158 4 26.2228 4H33.4439Z" fill="black"/>
    <defs>
        <linearGradient id="paint0_linear_145_1330" x1="82.409" y1="2.14486" x2="66.9435" y2="31.7676" gradientUnits="userSpaceOnUse">
            <stop stop-color="#00FFA3"/>
            <stop offset="1" stop-color="#DC1FFF"/>
        </linearGradient>
        <linearGradient id="paint1_linear_145_1330" x1="75.6467" y1="-1.38436" x2="60.1811" y2="28.2384" gradientUnits="userSpaceOnUse">
            <stop stop-color="#00FFA3"/>
            <stop offset="1" stop-color="#DC1FFF"/>
        </linearGradient>
        <linearGradient id="paint2_linear_145_1330" x1="79.0063" y1="0.357366" x2="63.5408" y2="29.9801" gradientUnits="userSpaceOnUse">
            <stop stop-color="#00FFA3"/>
            <stop offset="1" stop-color="#DC1FFF"/>
        </linearGradient>
        <clipPath id="clip0_145_1330">
            <rect width="28" height="21.9452" fill="white" transform="translate(57 4.7832)"/>
        </clipPath>
    </defs>
</svg>
