<svg width="40" height="40" viewBox="0 0 40 40" fill="none" xmlns="http://www.w3.org/2000/svg">
<g clip-path="url(#clip0_4133_878)">
<path d="M20 38C29.9411 38 38 29.9411 38 20C38 10.0589 29.9411 2 20 2C10.0589 2 2 10.0589 2 20C2 29.9411 10.0589 38 20 38Z" fill="white"/>
<path d="M22.6025 17H17.4024C17.1816 17 17.0024 17.179 17.0024 17.3999V22.6C17.0024 22.8209 17.1816 23 17.4024 23H22.6025C22.8233 23 23.0025 22.8209 23.0025 22.6V17.3999C23.0025 17.179 22.8233 17 22.6025 17Z" fill="black"/>
<path d="M16.5999 11H11.4C11.179 11 11 11.179 11 11.4V16.6C11 16.8209 11.179 17.0001 11.4 17.0001H16.5999C16.8209 17.0001 16.9999 16.8209 16.9999 16.6V11.4C16.9999 11.179 16.8209 11 16.5999 11Z" fill="black"/>
<path d="M28.5999 11H23.4C23.179 11 23 11.179 23 11.4V16.6C23 16.8209 23.179 17.0001 23.4 17.0001H28.5999C28.8209 17.0001 28.9999 16.8209 28.9999 16.6V11.4C28.9999 11.179 28.8209 11 28.5999 11Z" fill="black"/>
<path d="M16.5999 23H11.4C11.179 23 11 23.1791 11 23.4V28.6001C11 28.821 11.179 29.0001 11.4 29.0001H16.5999C16.8209 29.0001 16.9999 28.821 16.9999 28.6001V23.4C16.9999 23.1791 16.8209 23 16.5999 23Z" fill="black"/>
<path d="M28.5999 23H23.4C23.179 23 23 23.1791 23 23.4V28.6001C23 28.821 23.179 29.0001 23.4 29.0001H28.5999C28.8209 29.0001 28.9999 28.821 28.9999 28.6001V23.4C28.9999 23.1791 28.8209 23 28.5999 23Z" fill="black"/>
<path d="M22 31C22 35.9706 26.0294 40 31 40C35.9706 40 40 35.9706 40 31C40 26.0294 35.9706 22 31 22C26.0294 22 22 26.0294 22 31Z" fill="#07060E"/>
<path d="M34.9345 26C34.5641 26 34.2203 26.192 34.0263 26.5077L31.936 29.6111C31.8679 29.7134 31.8956 29.8513 31.9978 29.9194C32.0807 29.9746 32.1904 29.9678 32.2659 29.9029L34.3234 28.1182C34.3576 28.0875 34.4103 28.0906 34.4411 28.1248C34.455 28.1405 34.4624 28.1607 34.4624 28.1815V33.7689C34.4624 33.8151 34.4251 33.8521 34.379 33.8521C34.3542 33.8521 34.3308 33.8413 34.3151 33.8222L28.0957 26.3772C27.8931 26.1382 27.5957 26.0003 27.2826 26H27.0652C26.4769 26 26 26.4769 26 27.0653V34.9347C26 35.5231 26.4769 36 27.0652 36C27.4356 36 27.7794 35.808 27.9734 35.4923L30.0637 32.3889C30.1318 32.2866 30.1042 32.1487 30.0019 32.0806C29.919 32.0254 29.8093 32.0322 29.7338 32.0971L27.6763 33.8818C27.6421 33.9125 27.5894 33.9094 27.5586 33.8752C27.5447 33.8595 27.5373 33.8393 27.5376 33.8185V28.2296C27.5376 28.1835 27.5749 28.1464 27.621 28.1464C27.6455 28.1464 27.6692 28.1573 27.6849 28.1764L33.9035 35.6228C34.106 35.8618 34.4035 35.9997 34.7166 36H34.9339C35.5222 36.0003 35.9994 35.5236 36 34.9353V27.0653C36 26.4769 35.5231 26 34.9348 26H34.9345Z" fill="white"/>
</g>
<defs>
<clipPath id="clip0_4133_878">
<rect width="40" height="40" fill="white"/>
</clipPath>
</defs>
</svg>
