<svg width="40" height="40" viewBox="0 0 40 40" fill="none" xmlns="http://www.w3.org/2000/svg">
<g clip-path="url(#clip0_4004_13793)">
<path d="M20 38C29.9411 38 38 29.9411 38 20C38 10.0589 29.9411 2 20 2C10.0589 2 2 10.0589 2 20C2 29.9411 10.0589 38 20 38Z" fill="white"/>
<path d="M22.6025 17H17.4024C17.1816 17 17.0024 17.179 17.0024 17.3999V22.6C17.0024 22.8209 17.1816 23 17.4024 23H22.6025C22.8233 23 23.0025 22.8209 23.0025 22.6V17.3999C23.0025 17.179 22.8233 17 22.6025 17Z" fill="black"/>
<path d="M16.5999 11H11.4C11.179 11 11 11.179 11 11.4V16.6C11 16.8209 11.179 17.0001 11.4 17.0001H16.5999C16.8209 17.0001 16.9999 16.8209 16.9999 16.6V11.4C16.9999 11.179 16.8209 11 16.5999 11Z" fill="black"/>
<path d="M28.5999 11H23.4C23.179 11 23 11.179 23 11.4V16.6C23 16.8209 23.179 17.0001 23.4 17.0001H28.5999C28.8209 17.0001 28.9999 16.8209 28.9999 16.6V11.4C28.9999 11.179 28.8209 11 28.5999 11Z" fill="black"/>
<path d="M16.5999 23H11.4C11.179 23 11 23.1791 11 23.4V28.6001C11 28.821 11.179 29.0001 11.4 29.0001H16.5999C16.8209 29.0001 16.9999 28.821 16.9999 28.6001V23.4C16.9999 23.1791 16.8209 23 16.5999 23Z" fill="black"/>
<path d="M28.5999 23H23.4C23.179 23 23 23.1791 23 23.4V28.6001C23 28.821 23.179 29.0001 23.4 29.0001H28.5999C28.8209 29.0001 28.9999 28.821 28.9999 28.6001V23.4C28.9999 23.1791 28.8209 23 28.5999 23Z" fill="black"/>
<path d="M22 31C22 35.9706 26.0294 40 31 40C35.9706 40 40 35.9706 40 31C40 26.0294 35.9706 22 31 22C26.0294 22 22 26.0294 22 31Z" fill="#07060E"/>
<path d="M26.9321 33.8329C27.0061 33.759 27.1078 33.7158 27.2157 33.7158H36.9983C37.1771 33.7158 37.2665 33.9316 37.1401 34.0579L35.2076 35.9904C35.1336 36.0644 35.0319 36.1075 34.9241 36.1075H25.1414C24.9626 36.1075 24.8732 35.8918 24.9996 35.7654L26.9321 33.8329Z" fill="url(#paint0_linear_4004_13793)"/>
<path d="M26.9321 26.6171C27.0092 26.5431 27.1109 26.5 27.2157 26.5H36.9983C37.1771 26.5 37.2665 26.7157 37.1401 26.8421L35.2076 28.7746C35.1336 28.8486 35.0319 28.8917 34.9241 28.8917H25.1414C24.9626 28.8917 24.8732 28.676 24.9996 28.5496L26.9321 26.6171Z" fill="url(#paint1_linear_4004_13793)"/>
<path d="M35.2076 30.204C35.1336 30.13 35.0319 30.0869 34.9241 30.0869H25.1414C24.9626 30.0869 24.8732 30.3026 24.9996 30.429L26.9321 32.3615C27.0061 32.4355 27.1078 32.4786 27.2157 32.4786H36.9983C37.1771 32.4786 37.2665 32.2629 37.1401 32.1365L35.2076 30.204Z" fill="url(#paint2_linear_4004_13793)"/>
</g>
<defs>
<linearGradient id="paint0_linear_4004_13793" x1="36.0638" y1="-7.12079" x2="10.3099" y2="5.15933" gradientUnits="userSpaceOnUse">
<stop stop-color="#00FFA3"/>
<stop offset="1" stop-color="#DC1FFF"/>
</linearGradient>
<linearGradient id="paint1_linear_4004_13793" x1="33.1034" y1="15.6542" x2="7.34958" y2="27.9343" gradientUnits="userSpaceOnUse">
<stop stop-color="#00FFA3"/>
<stop offset="1" stop-color="#DC1FFF"/>
</linearGradient>
<linearGradient id="paint2_linear_4004_13793" x1="34.6328" y1="24.571" x2="27.8624" y2="37.539" gradientUnits="userSpaceOnUse">
<stop stop-color="#00FFA3"/>
<stop offset="1" stop-color="#DC1FFF"/>
</linearGradient>
<clipPath id="clip0_4004_13793">
<rect width="40" height="40" fill="white"/>
</clipPath>
</defs>
</svg>
