<svg width="41" height="40" viewBox="0 0 41 40" fill="none" xmlns="http://www.w3.org/2000/svg">
    <path d="M13.577 25.6667C13.9945 25.6667 14.3333 26.0057 14.3333 26.423V36.2456C14.3328 36.6624 13.9942 37 13.577 37H3.75629C3.33916 37 3.0005 36.6624 3 36.2456V26.423C3 26.0057 3.33885 25.6667 3.75629 25.6667H13.577Z" fill="black"/>
    <path d="M36.2437 25.6667C36.6612 25.6667 37 26.0057 37 26.423V36.2456C36.9995 36.6624 36.6608 37 36.2437 37H26.423C26.0058 37 25.6672 36.6624 25.6667 36.2456V26.423C25.6667 26.0057 26.0055 25.6667 26.423 25.6667H36.2437Z" fill="black"/>
    <path d="M24.9159 14.3333C25.3322 14.3338 25.6699 14.6713 25.6704 15.0878V24.9104C25.6704 25.3273 25.3326 25.6662 24.9159 25.6667H15.0933C14.6762 25.6667 14.337 25.3276 14.337 24.9104V15.0878C14.3375 14.6709 14.6766 14.3333 15.0933 14.3333H24.9159Z" fill="black"/>
    <path d="M13.577 3C13.9945 3 14.3333 3.33885 14.3333 3.75629V13.577C14.3333 13.9943 13.9945 14.3333 13.577 14.3333H3.75629C3.33885 14.3333 3 13.9943 3 13.577V3.75629C3 3.33885 3.33885 3 3.75629 3H13.577Z" fill="black"/>
    <path d="M36.2437 3C36.6612 3 37 3.33885 37 3.75629V13.577C37 13.9943 36.6612 14.3333 36.2437 14.3333H26.423C26.0055 14.3333 25.6667 13.9943 25.6667 13.577V3.75629C25.6667 3.33885 26.0055 3 26.423 3H36.2437Z" fill="black"/>
</svg>
