<svg width="40" height="40" viewBox="0 0 40 40" fill="none" xmlns="http://www.w3.org/2000/svg">
    <path d="M4.73307 36.7718C9.83759 36.7718 13.6736 32.1679 15.9628 28.5299C15.6845 29.3348 15.5297 30.1397 15.5297 30.9122C15.5297 33.0373 16.7054 34.5504 19.0254 34.5504C22.2119 34.5504 25.6148 31.6528 27.378 28.5299C27.2542 28.9806 27.1924 29.3991 27.1924 29.7855C27.1924 31.2664 27.9968 32.2002 29.6364 32.2002C34.8027 32.2002 39.9998 22.7026 39.9998 14.3963C39.9998 7.92508 36.8444 2.22656 28.9249 2.22656C15.0037 2.22656 0 19.8694 0 31.2664C0 35.7417 2.32017 36.7718 4.73307 36.7718ZM24.1299 13.688C24.1299 12.0783 24.9961 10.9514 26.2644 10.9514C27.5019 10.9514 28.368 12.0783 28.368 13.688C28.368 15.2978 27.5019 16.4569 26.2644 16.4569C24.9961 16.4569 24.1299 15.2978 24.1299 13.688ZM30.75 13.688C30.75 12.0783 31.6162 10.9514 32.8846 10.9514C34.122 10.9514 34.9882 12.0783 34.9882 13.688C34.9882 15.2978 34.122 16.4569 32.8846 16.4569C31.6162 16.4569 30.75 15.2978 30.75 13.688Z" fill="#AB9FF2"/>
</svg>
