<svg width="91" height="32" viewBox="0 0 91 32" fill="none" xmlns="http://www.w3.org/2000/svg">
    <g clip-path="url(#clip0_145_1358)">
        <path d="M61.5496 21.5312C61.7185 21.3622 61.9509 21.2637 62.1973 21.2637H84.5438C84.9521 21.2637 85.1563 21.7565 84.8677 22.0452L80.4533 26.4595C80.2843 26.6285 80.052 26.7271 79.8055 26.7271H57.4591C57.0507 26.7271 56.8465 26.2343 57.1352 25.9456L61.5496 21.5312Z" fill="url(#paint0_linear_145_1358)"/>
        <path d="M61.5496 5.05074C61.7256 4.88177 61.9579 4.7832 62.1973 4.7832H84.5438C84.9521 4.7832 85.1563 5.27604 84.8677 5.5647L80.4533 9.97908C80.2843 10.1481 80.052 10.2466 79.8055 10.2466H57.4591C57.0507 10.2466 56.8465 9.75378 57.1352 9.46512L61.5496 5.05074Z" fill="url(#paint1_linear_145_1358)"/>
        <path d="M80.4533 13.2265C80.2843 13.0576 80.052 12.959 79.8055 12.959H57.4591C57.0507 12.959 56.8465 13.4518 57.1352 13.7405L61.5496 18.1549C61.7185 18.3238 61.9509 18.4224 62.1973 18.4224H84.5438C84.9521 18.4224 85.1563 17.9296 84.8677 17.6409L80.4533 13.2265Z" fill="url(#paint2_linear_145_1358)"/>
    </g>
    <path d="M38 16L53 16" stroke="#444444" stroke-dasharray="1 2"/>
    <path d="M6.66815 29.8626C10.6242 29.8626 13.5971 26.2945 15.3713 23.475C15.1555 24.0988 15.0356 24.7226 15.0356 25.3214C15.0356 26.9683 15.9467 28.1409 17.7447 28.1409C20.2143 28.1409 22.8516 25.8953 24.2181 23.475C24.1221 23.8243 24.0742 24.1487 24.0742 24.4481C24.0742 25.5958 24.6976 26.3196 25.9683 26.3196C29.9723 26.3196 34 18.9589 34 12.5215C34 7.50622 31.5545 3.08984 25.4169 3.08984C14.628 3.08984 3 16.7631 3 25.5958C3 29.0642 4.79814 29.8626 6.66815 29.8626ZM21.7007 11.9725C21.7007 10.725 22.372 9.85165 23.355 9.85165C24.314 9.85165 24.9853 10.725 24.9853 11.9725C24.9853 13.2201 24.314 14.1184 23.355 14.1184C22.372 14.1184 21.7007 13.2201 21.7007 11.9725ZM26.8314 11.9725C26.8314 10.725 27.5027 9.85165 28.4857 9.85165C29.4447 9.85165 30.116 10.725 30.116 11.9725C30.116 13.2201 29.4447 14.1184 28.4857 14.1184C27.5027 14.1184 26.8314 13.2201 26.8314 11.9725Z" fill="#AB9FF2"/>
    <defs>
        <linearGradient id="paint0_linear_145_1358" x1="82.409" y1="2.14486" x2="66.9435" y2="31.7676" gradientUnits="userSpaceOnUse">
            <stop stop-color="#00FFA3"/>
            <stop offset="1" stop-color="#DC1FFF"/>
        </linearGradient>
        <linearGradient id="paint1_linear_145_1358" x1="75.6467" y1="-1.38436" x2="60.1811" y2="28.2384" gradientUnits="userSpaceOnUse">
            <stop stop-color="#00FFA3"/>
            <stop offset="1" stop-color="#DC1FFF"/>
        </linearGradient>
        <linearGradient id="paint2_linear_145_1358" x1="79.0063" y1="0.357366" x2="63.5408" y2="29.9801" gradientUnits="userSpaceOnUse">
            <stop stop-color="#00FFA3"/>
            <stop offset="1" stop-color="#DC1FFF"/>
        </linearGradient>
        <clipPath id="clip0_145_1358">
            <rect width="28" height="21.9452" fill="white" transform="translate(57 4.7832)"/>
        </clipPath>
    </defs>
</svg>
