<svg width="40" height="40" viewBox="0 0 40 40" fill="none" xmlns="http://www.w3.org/2000/svg">
    <path d="M39.4134 22.329C40.9615 18.8563 33.2629 9.10755 25.8991 5.09089C21.2548 1.95288 16.4432 2.37128 15.439 3.75201C13.3052 6.7645 22.5518 9.35859 28.7442 12.3292C27.4053 12.915 26.1501 13.961 25.4388 15.258C23.1376 12.7476 18.0749 10.572 12.1336 12.3292C8.11699 13.5008 4.81162 16.3041 3.51457 20.4881C3.22169 20.3625 2.84513 20.2789 2.51041 20.2789C1.12968 20.2789 0 21.4086 0 22.7893C0 24.17 1.12968 25.2997 2.51041 25.2997C2.76145 25.2997 3.55641 25.1323 3.55641 25.1323L16.4432 25.216C11.2968 33.4167 7.19651 34.5882 7.19651 36.0108C7.19651 37.4333 11.0876 37.0568 12.552 36.5129C19.5812 34.0024 27.1124 26.0947 28.4095 23.8353C33.8487 24.5466 38.4093 24.5884 39.4134 22.329Z" fill="url(#paint0_linear_137_746)"/>
    <path fill-rule="evenodd" clip-rule="evenodd" d="M28.7862 12.3299C29.079 12.2044 29.0372 11.786 28.9535 11.4513C28.7862 10.6982 25.6481 7.60199 22.7193 6.22127C18.7027 4.33846 15.7739 4.42214 15.3555 5.30078C16.1504 6.97439 19.9579 8.52247 23.8909 10.1961C25.5226 10.8655 27.2381 11.5768 28.7862 12.3299Z" fill="url(#paint1_linear_137_746)"/>
    <path fill-rule="evenodd" clip-rule="evenodd" d="M23.6813 29.1483C22.8863 28.8554 21.9658 28.5626 20.9198 28.3115C22.0077 26.345 22.2587 23.3744 21.2127 21.5334C19.7483 18.9393 17.9073 17.5586 13.5978 17.5586C11.2548 17.5586 4.89505 18.3536 4.76953 23.6673C4.76953 24.2112 4.76953 24.7133 4.81137 25.2153H16.4429C14.8949 27.6839 13.4304 29.5249 12.1334 30.9056C13.6815 31.2822 14.9367 31.6169 16.1082 31.9516C17.1961 32.2445 18.2421 32.4955 19.2881 32.7884C20.878 31.6169 22.3842 30.3617 23.6813 29.1483Z" fill="url(#paint2_linear_137_746)"/>
    <path d="M3.34628 24.5878C3.80652 28.6044 6.10773 30.1944 10.7938 30.6546C15.4799 31.1148 18.1577 30.822 21.7141 31.1148C24.6848 31.3659 27.3625 32.914 28.3249 32.37C29.2035 31.9098 28.7014 30.1944 27.5299 29.1065C25.9818 27.6839 23.848 26.7216 20.1242 26.3451C20.8773 24.2949 20.6681 21.4079 19.4966 19.8598C17.823 17.6005 14.7268 16.5963 10.7938 17.0147C6.69349 17.5168 2.76052 19.567 3.34628 24.5878Z" fill="url(#paint3_linear_137_746)"/>
    <defs>
        <linearGradient id="paint0_linear_137_746" x1="11.708" y1="19.0889" x2="39.1327" y2="26.866" gradientUnits="userSpaceOnUse">
            <stop stop-color="#8797FF"/>
            <stop offset="1" stop-color="#AAA8FF"/>
        </linearGradient>
        <linearGradient id="paint1_linear_137_746" x1="33.4966" y1="19.7036" x2="13.7084" y2="-0.132959" gradientUnits="userSpaceOnUse">
            <stop stop-color="#3B22A0"/>
            <stop offset="1" stop-color="#5156D8" stop-opacity="0"/>
        </linearGradient>
        <linearGradient id="paint2_linear_137_746" x1="24.2273" y1="29.8653" x2="5.2186" y2="18.9366" gradientUnits="userSpaceOnUse">
            <stop stop-color="#3B1E8F"/>
            <stop offset="1" stop-color="#6A6FFB" stop-opacity="0"/>
        </linearGradient>
        <linearGradient id="paint3_linear_137_746" x1="10.3823" y1="21.3437" x2="23.2308" y2="37.6691" gradientUnits="userSpaceOnUse">
            <stop stop-color="#8898FF"/>
            <stop offset="0.9839" stop-color="#5F47F1"/>
        </linearGradient>
    </defs>
</svg>
