<svg width="41" height="40" viewBox="0 0 41 40" fill="none" xmlns="http://www.w3.org/2000/svg">
    <path d="M8.79748 12.7728C15.4009 6.30752 26.1072 6.30752 32.7106 12.7728L33.5053 13.5508C33.8354 13.8741 33.8354 14.3982 33.5053 14.7214L30.7866 17.3832C30.6215 17.5448 30.3538 17.5448 30.1889 17.3832L29.0952 16.3124C24.4885 11.802 17.0195 11.802 12.4129 16.3124L11.2417 17.4591C11.0766 17.6206 10.809 17.6206 10.644 17.4591L7.92505 14.7974C7.59495 14.4742 7.59495 13.9501 7.92505 13.6269L8.79748 12.7728ZM38.3329 18.2775L40.7524 20.6466C41.0827 20.9698 41.0827 21.4939 40.7524 21.8172L29.8425 32.4993C29.5123 32.8225 28.977 32.8225 28.6469 32.4993L20.9036 24.9179C20.8211 24.837 20.6871 24.837 20.6046 24.9179L12.8615 32.4993C12.5314 32.8225 11.9961 32.8225 11.6658 32.4993L0.755387 21.8172C0.425288 21.4939 0.425288 20.9698 0.755387 20.6466L3.1751 18.2777C3.5052 17.9544 4.04054 17.9544 4.37077 18.2777L12.114 25.8591C12.1967 25.9399 12.3305 25.9399 12.413 25.8591L20.156 18.2777C20.4861 17.9544 21.0214 17.9544 21.3517 18.2777L29.0951 25.8591C29.1776 25.9399 29.3114 25.9399 29.3939 25.8591L37.1372 18.2778C37.4674 17.9542 38.0028 17.9542 38.3329 18.2775Z" fill="url(#paint0_radial_137_1103)"/>
    <defs>
        <radialGradient id="paint0_radial_137_1103" cx="0" cy="0" r="1" gradientUnits="userSpaceOnUse" gradientTransform="translate(0.507812 20.3328) scale(40.4925 24.818)">
            <stop stop-color="#5D9DF6"/>
            <stop offset="1" stop-color="#006FFF"/>
        </radialGradient>
    </defs>
</svg>
