<svg width="40" height="40" viewBox="0 0 40 40" fill="none" xmlns="http://www.w3.org/2000/svg">
<g clip-path="url(#clip0_1670_12946)">
<mask id="mask0_1670_12946" style="mask-type:alpha" maskUnits="userSpaceOnUse" x="0" y="0" width="40" height="40">
<path d="M28 0H12C5.37258 0 0 5.37258 0 12V28C0 34.6274 5.37258 40 12 40H28C34.6274 40 40 34.6274 40 28V12C40 5.37258 34.6274 0 28 0Z" fill="url(#paint0_linear_1670_12946)"/>
</mask>
<g mask="url(#mask0_1670_12946)">
<path d="M28 0H12C5.37258 0 0 5.37258 0 12V28C0 34.6274 5.37258 40 12 40H28C34.6274 40 40 34.6274 40 28V12C40 5.37258 34.6274 0 28 0Z" fill="url(#paint1_linear_1670_12946)"/>
<g opacity="0.3">
<path d="M0 0.4V1.2H0.1V2H0V2.8H0.1V3.6H0V4.4H0.1V5.2H0V6H0.1V6.8H0V7.6H0.1V7.9H0.4V8H1.2V7.9H2V8H2.8V7.9H3.6V8H4.4V7.9H5.2V8H6V7.9H6.8V8H7.6V7.9H7.9V7.6H8.1V7.9H8.4V8H9.2V7.9H10V8H10.8V7.9H11.6V8H12.4V7.9H13.2V8H14V7.9H14.8V8H15.6V7.9H15.9V7.6H16.1V7.9H16.4V8H17.2V7.9H18V8H18.8V7.9H19.6V8H20.4V7.9H21.2V8H22V7.9H22.8V8H23.6V7.9H23.9V7.6H24.1V7.9H24.4V8H25.2V7.9H26V8H26.8V7.9H27.6V8H28.4V7.9H29.2V8H30V7.9H30.8V8H31.6V7.9H31.9V7.6H32.1V7.9H32.4V8H33.2V7.9H34V8H34.8V7.9H35.6V8H36.4V7.9H37.2V8H38V7.9H38.8V8H39.6V7.9H39.9V7.6H40V6.8H39.9V6H40V5.2H39.9V4.4H40V3.6H39.9V2.8H40V2H39.9V1.2H40V0.4H39.9V0.1H39.6V0H38.8V0.1H38V0H37.2V0.1H36.4V0H35.6V0.1H34.8V0H34V0.1H33.2V0H32.4V0.1H32.1V0.4H31.9V0.1H31.6V0H30.8V0.1H30V0H29.2V0.1H28.4V0H27.6V0.1H26.8V0H26V0.1H25.2V0H24.4V0.1H24.1V0.4H23.9V0.1H23.6V0H22.8V0.1H22V0H21.2V0.1H20.4V0H19.6V0.1H18.8V0H18V0.1H17.2V0H16.4V0.1H16.1V0.4H15.9V0.1H15.6V0H14.8V0.1H14V0H13.2V0.1H12.4V0H11.6V0.1H10.8V0H10V0.1H9.2V0H8.4V0.1H8.1V0.4H7.9V0.1H7.6V0H6.8V0.1H6V0H5.2V0.1H4.4V0H3.6V0.1H2.8V0H2V0.1H1.2V0H0.399999V0.1H0.1V0.4H0ZM7.9 1.2V2H8.1V1.2H7.9ZM7.9 2.8V3.6H8.1V2.8H7.9ZM7.9 4.4V5.2H8.1V4.4H7.9ZM7.9 6V6.8H8.1V6H7.9ZM15.9 1.2V2H16.1V1.2H15.9ZM15.9 2.8V3.6H16.1V2.8H15.9ZM15.9 4.4V5.2H16.1V4.4H15.9ZM15.9 6V6.8H16.1V6H15.9ZM23.9 1.2V2H24.1V1.2H23.9ZM23.9 2.8V3.6H24.1V2.8H23.9ZM23.9 4.4V5.2H24.1V4.4H23.9ZM23.9 6V6.8H24.1V6H23.9ZM31.9 1.2V2H32.1V1.2H31.9ZM31.9 2.8V3.6H32.1V2.8H31.9ZM31.9 4.4V5.2H32.1V4.4H31.9ZM31.9 6V6.8H32.1V6H31.9Z" stroke="white" stroke-width="0.2" stroke-dasharray="0.8 0.8"/>
<path d="M0 8.4V9.2H0.1V10H0V10.8H0.1V11.6H0V12.4H0.1V13.2H0V14H0.1V14.8H0V15.6H0.1V15.9H0.4V16H1.2V15.9H2V16H2.8V15.9H3.6V16H4.4V15.9H5.2V16H6V15.9H6.8V16H7.6V15.9H7.9V15.6H8.1V15.9H8.4V16H9.2V15.9H10V16H10.8V15.9H11.6V16H12.4V15.9H13.2V16H14V15.9H14.8V16H15.6V15.9H15.9V15.6H16.1V15.9H16.4V16H17.2V15.9H18V16H18.8V15.9H19.6V16H20.4V15.9H21.2V16H22V15.9H22.8V16H23.6V15.9H23.9V15.6H24.1V15.9H24.4V16H25.2V15.9H26V16H26.8V15.9H27.6V16H28.4V15.9H29.2V16H30V15.9H30.8V16H31.6V15.9H31.9V15.6H32.1V15.9H32.4V16H33.2V15.9H34V16H34.8V15.9H35.6V16H36.4V15.9H37.2V16H38V15.9H38.8V16H39.6V15.9H39.9V15.6H40V14.8H39.9V14H40V13.2H39.9V12.4H40V11.6H39.9V10.8H40V10H39.9V9.2H40V8.4H39.9V8.1H39.6V8H38.8V8.1H38V8H37.2V8.1H36.4V8H35.6V8.1H34.8V8H34V8.1H33.2V8H32.4V8.1H32.1V8.4H31.9V8.1H31.6V8H30.8V8.1H30V8H29.2V8.1H28.4V8H27.6V8.1H26.8V8H26V8.1H25.2V8H24.4V8.1H24.1V8.4H23.9V8.1H23.6V8H22.8V8.1H22V8H21.2V8.1H20.4V8H19.6V8.1H18.8V8H18V8.1H17.2V8H16.4V8.1H16.1V8.4H15.9V8.1H15.6V8H14.8V8.1H14V8H13.2V8.1H12.4V8H11.6V8.1H10.8V8H10V8.1H9.2V8H8.4V8.1H8.1V8.4H7.9V8.1H7.6V8H6.8V8.1H6V8H5.2V8.1H4.4V8H3.6V8.1H2.8V8H2V8.1H1.2V8H0.399999V8.1H0.1V8.4H0ZM7.9 9.2V10H8.1V9.2H7.9ZM7.9 10.8V11.6H8.1V10.8H7.9ZM7.9 12.4V13.2H8.1V12.4H7.9ZM7.9 14V14.8H8.1V14H7.9ZM15.9 9.2V10H16.1V9.2H15.9ZM15.9 10.8V11.6H16.1V10.8H15.9ZM15.9 12.4V13.2H16.1V12.4H15.9ZM15.9 14V14.8H16.1V14H15.9ZM23.9 9.2V10H24.1V9.2H23.9ZM23.9 10.8V11.6H24.1V10.8H23.9ZM23.9 12.4V13.2H24.1V12.4H23.9ZM23.9 14V14.8H24.1V14H23.9ZM31.9 9.2V10H32.1V9.2H31.9ZM31.9 10.8V11.6H32.1V10.8H31.9ZM31.9 12.4V13.2H32.1V12.4H31.9ZM31.9 14V14.8H32.1V14H31.9Z" stroke="white" stroke-width="0.2" stroke-dasharray="0.8 0.8"/>
<path d="M0 16.4V17.2H0.1V18H0V18.8H0.1V19.6H0V20.4H0.1V21.2H0V22H0.1V22.8H0V23.6H0.1V23.9H0.4V24H1.2V23.9H2V24H2.8V23.9H3.6V24H4.4V23.9H5.2V24H6V23.9H6.8V24H7.6V23.9H7.9V23.6H8.1V23.9H8.4V24H9.2V23.9H10V24H10.8V23.9H11.6V24H12.4V23.9H13.2V24H14V23.9H14.8V24H15.6V23.9H15.9V23.6H16.1V23.9H16.4V24H17.2V23.9H18V24H18.8V23.9H19.6V24H20.4V23.9H21.2V24H22V23.9H22.8V24H23.6V23.9H23.9V23.6H24.1V23.9H24.4V24H25.2V23.9H26V24H26.8V23.9H27.6V24H28.4V23.9H29.2V24H30V23.9H30.8V24H31.6V23.9H31.9V23.6H32.1V23.9H32.4V24H33.2V23.9H34V24H34.8V23.9H35.6V24H36.4V23.9H37.2V24H38V23.9H38.8V24H39.6V23.9H39.9V23.6H40V22.8H39.9V22H40V21.2H39.9V20.4H40V19.6H39.9V18.8H40V18H39.9V17.2H40V16.4H39.9V16.1H39.6V16H38.8V16.1H38V16H37.2V16.1H36.4V16H35.6V16.1H34.8V16H34V16.1H33.2V16H32.4V16.1H32.1V16.4H31.9V16.1H31.6V16H30.8V16.1H30V16H29.2V16.1H28.4V16H27.6V16.1H26.8V16H26V16.1H25.2V16H24.4V16.1H24.1V16.4H23.9V16.1H23.6V16H22.8V16.1H22V16H21.2V16.1H20.4V16H19.6V16.1H18.8V16H18V16.1H17.2V16H16.4V16.1H16.1V16.4H15.9V16.1H15.6V16H14.8V16.1H14V16H13.2V16.1H12.4V16H11.6V16.1H10.8V16H10V16.1H9.2V16H8.4V16.1H8.1V16.4H7.9V16.1H7.6V16H6.8V16.1H6V16H5.2V16.1H4.4V16H3.6V16.1H2.8V16H2V16.1H1.2V16H0.399999V16.1H0.1V16.4H0ZM7.9 17.2V18H8.1V17.2H7.9ZM7.9 18.8V19.6H8.1V18.8H7.9ZM7.9 20.4V21.2H8.1V20.4H7.9ZM7.9 22V22.8H8.1V22H7.9ZM15.9 17.2V18H16.1V17.2H15.9ZM15.9 18.8V19.6H16.1V18.8H15.9ZM15.9 20.4V21.2H16.1V20.4H15.9ZM15.9 22V22.8H16.1V22H15.9ZM23.9 17.2V18H24.1V17.2H23.9ZM23.9 18.8V19.6H24.1V18.8H23.9ZM23.9 20.4V21.2H24.1V20.4H23.9ZM23.9 22V22.8H24.1V22H23.9ZM31.9 17.2V18H32.1V17.2H31.9ZM31.9 18.8V19.6H32.1V18.8H31.9ZM31.9 20.4V21.2H32.1V20.4H31.9ZM31.9 22V22.8H32.1V22H31.9Z" stroke="white" stroke-width="0.2" stroke-dasharray="0.8 0.8"/>
<path d="M0 24.4V25.2H0.1V26H0V26.8H0.1V27.6H0V28.4H0.1V29.2H0V30H0.1V30.8H0V31.6H0.1V31.9H0.4V32H1.2V31.9H2V32H2.8V31.9H3.6V32H4.4V31.9H5.2V32H6V31.9H6.8V32H7.6V31.9H7.9V31.6H8.1V31.9H8.4V32H9.2V31.9H10V32H10.8V31.9H11.6V32H12.4V31.9H13.2V32H14V31.9H14.8V32H15.6V31.9H15.9V31.6H16.1V31.9H16.4V32H17.2V31.9H18V32H18.8V31.9H19.6V32H20.4V31.9H21.2V32H22V31.9H22.8V32H23.6V31.9H23.9V31.6H24.1V31.9H24.4V32H25.2V31.9H26V32H26.8V31.9H27.6V32H28.4V31.9H29.2V32H30V31.9H30.8V32H31.6V31.9H31.9V31.6H32.1V31.9H32.4V32H33.2V31.9H34V32H34.8V31.9H35.6V32H36.4V31.9H37.2V32H38V31.9H38.8V32H39.6V31.9H39.9V31.6H40V30.8H39.9V30H40V29.2H39.9V28.4H40V27.6H39.9V26.8H40V26H39.9V25.2H40V24.4H39.9V24.1H39.6V24H38.8V24.1H38V24H37.2V24.1H36.4V24H35.6V24.1H34.8V24H34V24.1H33.2V24H32.4V24.1H32.1V24.4H31.9V24.1H31.6V24H30.8V24.1H30V24H29.2V24.1H28.4V24H27.6V24.1H26.8V24H26V24.1H25.2V24H24.4V24.1H24.1V24.4H23.9V24.1H23.6V24H22.8V24.1H22V24H21.2V24.1H20.4V24H19.6V24.1H18.8V24H18V24.1H17.2V24H16.4V24.1H16.1V24.4H15.9V24.1H15.6V24H14.8V24.1H14V24H13.2V24.1H12.4V24H11.6V24.1H10.8V24H10V24.1H9.2V24H8.4V24.1H8.1V24.4H7.9V24.1H7.6V24H6.8V24.1H6V24H5.2V24.1H4.4V24H3.6V24.1H2.8V24H2V24.1H1.2V24H0.399999V24.1H0.1V24.4H0ZM7.9 25.2V26H8.1V25.2H7.9ZM7.9 26.8V27.6H8.1V26.8H7.9ZM7.9 28.4V29.2H8.1V28.4H7.9ZM7.9 30V30.8H8.1V30H7.9ZM15.9 25.2V26H16.1V25.2H15.9ZM15.9 26.8V27.6H16.1V26.8H15.9ZM15.9 28.4V29.2H16.1V28.4H15.9ZM15.9 30V30.8H16.1V30H15.9ZM23.9 25.2V26H24.1V25.2H23.9ZM23.9 26.8V27.6H24.1V26.8H23.9ZM23.9 28.4V29.2H24.1V28.4H23.9ZM23.9 30V30.8H24.1V30H23.9ZM31.9 25.2V26H32.1V25.2H31.9ZM31.9 26.8V27.6H32.1V26.8H31.9ZM31.9 28.4V29.2H32.1V28.4H31.9ZM31.9 30V30.8H32.1V30H31.9Z" stroke="white" stroke-width="0.2" stroke-dasharray="0.8 0.8"/>
<path d="M0 32.4V33.2H0.1V34H0V34.8H0.1V35.6H0V36.4H0.1V37.2H0V38H0.1V38.8H0V39.6H0.1V39.9H0.4V40H1.2V39.9H2V40H2.8V39.9H3.6V40H4.4V39.9H5.2V40H6V39.9H6.8V40H7.6V39.9H7.9V39.6H8.1V39.9H8.4V40H9.2V39.9H10V40H10.8V39.9H11.6V40H12.4V39.9H13.2V40H14V39.9H14.8V40H15.6V39.9H15.9V39.6H16.1V39.9H16.4V40H17.2V39.9H18V40H18.8V39.9H19.6V40H20.4V39.9H21.2V40H22V39.9H22.8V40H23.6V39.9H23.9V39.6H24.1V39.9H24.4V40H25.2V39.9H26V40H26.8V39.9H27.6V40H28.4V39.9H29.2V40H30V39.9H30.8V40H31.6V39.9H31.9V39.6H32.1V39.9H32.4V40H33.2V39.9H34V40H34.8V39.9H35.6V40H36.4V39.9H37.2V40H38V39.9H38.8V40H39.6V39.9H39.9V39.6H40V38.8H39.9V38H40V37.2H39.9V36.4H40V35.6H39.9V34.8H40V34H39.9V33.2H40V32.4H39.9V32.1H39.6V32H38.8V32.1H38V32H37.2V32.1H36.4V32H35.6V32.1H34.8V32H34V32.1H33.2V32H32.4V32.1H32.1V32.4H31.9V32.1H31.6V32H30.8V32.1H30V32H29.2V32.1H28.4V32H27.6V32.1H26.8V32H26V32.1H25.2V32H24.4V32.1H24.1V32.4H23.9V32.1H23.6V32H22.8V32.1H22V32H21.2V32.1H20.4V32H19.6V32.1H18.8V32H18V32.1H17.2V32H16.4V32.1H16.1V32.4H15.9V32.1H15.6V32H14.8V32.1H14V32H13.2V32.1H12.4V32H11.6V32.1H10.8V32H10V32.1H9.2V32H8.4V32.1H8.1V32.4H7.9V32.1H7.6V32H6.8V32.1H6V32H5.2V32.1H4.4V32H3.6V32.1H2.8V32H2V32.1H1.2V32H0.399999V32.1H0.1V32.4H0ZM7.9 33.2V34H8.1V33.2H7.9ZM7.9 34.8V35.6H8.1V34.8H7.9ZM7.9 36.4V37.2H8.1V36.4H7.9ZM7.9 38V38.8H8.1V38H7.9ZM15.9 33.2V34H16.1V33.2H15.9ZM15.9 34.8V35.6H16.1V34.8H15.9ZM15.9 36.4V37.2H16.1V36.4H15.9ZM15.9 38V38.8H16.1V38H15.9ZM23.9 33.2V34H24.1V33.2H23.9ZM23.9 34.8V35.6H24.1V34.8H23.9ZM23.9 36.4V37.2H24.1V36.4H23.9ZM23.9 38V38.8H24.1V38H23.9ZM31.9 33.2V34H32.1V33.2H31.9ZM31.9 34.8V35.6H32.1V34.8H31.9ZM31.9 36.4V37.2H32.1V36.4H31.9ZM31.9 38V38.8H32.1V38H31.9Z" stroke="white" stroke-width="0.2" stroke-dasharray="0.8 0.8"/>
</g>
<g filter="url(#filter0_d_1670_12946)">
<path fill-rule="evenodd" clip-rule="evenodd" d="M10.3136 18.8753H13.2529C13.7882 15.6932 16.5561 13.2687 19.8903 13.2683C19.8906 13.2683 19.8908 13.2683 19.8911 13.2683L27.043 13.257C25.2681 11.4036 22.7688 10.2495 20 10.2495C14.9953 10.2495 10.8713 14.02 10.3136 18.8753ZM28.6543 15.5039L19.892 15.5178H19.8911C17.8042 15.5178 16.0502 16.9442 15.5512 18.8753H29.6864C29.548 17.6711 29.1904 16.5337 28.6543 15.5039ZM29.6864 21.1247H15.5512C16.0502 23.0558 17.8042 24.4823 19.8911 24.4823H28.6615C29.1936 23.4562 29.5487 22.3235 29.6864 21.1247ZM27.0538 26.7317H19.8911C16.5566 26.7317 13.7882 24.3071 13.2529 21.1247H10.3136C10.8713 25.98 14.9953 29.7505 20 29.7505C22.7744 29.7505 25.2783 28.5917 27.0538 26.7317ZM8 20C8 13.3726 13.3726 8 20 8C26.6274 8 32 13.3726 32 20C32 26.6274 26.6274 32 20 32C13.3726 32 8 26.6274 8 20Z" fill="url(#paint2_linear_1670_12946)"/>
</g>
</g>
</g>
<defs>
<filter id="filter0_d_1670_12946" x="4" y="8" width="32" height="32" filterUnits="userSpaceOnUse" color-interpolation-filters="sRGB">
<feFlood flood-opacity="0" result="BackgroundImageFix"/>
<feColorMatrix in="SourceAlpha" type="matrix" values="0 0 0 0 0 0 0 0 0 0 0 0 0 0 0 0 0 0 127 0" result="hardAlpha"/>
<feOffset dy="4"/>
<feGaussianBlur stdDeviation="2"/>
<feComposite in2="hardAlpha" operator="out"/>
<feColorMatrix type="matrix" values="0 0 0 0 0 0 0 0 0 0 0 0 0 0 0 0 0 0 0.25 0"/>
<feBlend mode="normal" in2="BackgroundImageFix" result="effect1_dropShadow_1670_12946"/>
<feBlend mode="normal" in="SourceGraphic" in2="effect1_dropShadow_1670_12946" result="shape"/>
</filter>
<linearGradient id="paint0_linear_1670_12946" x1="40" y1="40" x2="0" y2="0" gradientUnits="userSpaceOnUse">
<stop stop-color="#0098FF"/>
<stop offset="1" stop-color="#5ADAFF"/>
</linearGradient>
<linearGradient id="paint1_linear_1670_12946" x1="40" y1="40" x2="0" y2="0" gradientUnits="userSpaceOnUse">
<stop stop-color="#0098FF"/>
<stop offset="1" stop-color="#5ADAFF"/>
</linearGradient>
<linearGradient id="paint2_linear_1670_12946" x1="10.4192" y1="15.4389" x2="33.5715" y2="22.4402" gradientUnits="userSpaceOnUse">
<stop stop-color="white"/>
<stop offset="0.9839" stop-color="#D6DCFF"/>
</linearGradient>
<clipPath id="clip0_1670_12946">
<rect width="40" height="40" fill="white"/>
</clipPath>
</defs>
</svg>
