<svg width="264" height="219" viewBox="0 0 264 219" fill="none" xmlns="http://www.w3.org/2000/svg">
<g opacity="0.4">
<path d="M0 3.44882C0 1.54409 1.54506 0 3.45098 0H13.8039C15.7098 0 17.2549 1.54409 17.2549 3.44882V13.7953C17.2549 15.7 15.7098 17.2441 13.8039 17.2441H3.45098C1.54506 17.2441 0 15.7 0 13.7953V3.44882Z" fill="url(#paint0_radial_34_437)"/>
<path d="M22.4314 3.44882C22.4314 1.54409 23.9764 0 25.8824 0H36.2353C38.1412 0 39.6863 1.54409 39.6863 3.44882V13.7953C39.6863 15.7 38.1412 17.2441 36.2353 17.2441H25.8824C23.9764 17.2441 22.4314 15.7 22.4314 13.7953V3.44882Z" fill="url(#paint1_radial_34_437)"/>
<path d="M44.8627 3.44882C44.8627 1.54409 46.4078 0 48.3137 0H58.6667C60.5726 0 62.1176 1.54409 62.1176 3.44882V13.7953C62.1176 15.7 60.5726 17.2441 58.6667 17.2441H48.3137C46.4078 17.2441 44.8627 15.7 44.8627 13.7953V3.44882Z" fill="url(#paint2_radial_34_437)"/>
<path d="M134.588 3.44882C134.588 1.54409 136.133 0 138.039 0H148.392C150.298 0 151.843 1.54409 151.843 3.44882V13.7953C151.843 15.7 150.298 17.2441 148.392 17.2441H138.039C136.133 17.2441 134.588 15.7 134.588 13.7953V3.44882Z" fill="url(#paint3_radial_34_437)"/>
<path d="M157.02 3.44882C157.02 1.54409 158.565 0 160.471 0H170.824C172.729 0 174.275 1.54409 174.275 3.44882V13.7953C174.275 15.7 172.729 17.2441 170.824 17.2441H160.471C158.565 17.2441 157.02 15.7 157.02 13.7953V3.44882Z" fill="url(#paint4_radial_34_437)"/>
<path d="M201.882 3.44882C201.882 1.54409 203.427 0 205.333 0H215.686C217.592 0 219.137 1.54409 219.137 3.44882V13.7953C219.137 15.7 217.592 17.2441 215.686 17.2441H205.333C203.427 17.2441 201.882 15.7 201.882 13.7953V3.44882Z" fill="url(#paint5_radial_34_437)"/>
<path d="M246.745 3.44882C246.745 1.54409 248.29 0 250.196 0H260.549C262.455 0 264 1.54409 264 3.44882V13.7953C264 15.7 262.455 17.2441 260.549 17.2441H250.196C248.29 17.2441 246.745 15.7 246.745 13.7953V3.44882Z" fill="url(#paint6_radial_34_437)"/>
<path d="M0 25.8661C0 23.9614 1.54506 22.4173 3.45098 22.4173H13.8039C15.7098 22.4173 17.2549 23.9614 17.2549 25.8661V36.2126C17.2549 38.1173 15.7098 39.6614 13.8039 39.6614H3.45098C1.54506 39.6614 0 38.1173 0 36.2126V25.8661Z" fill="url(#paint7_radial_34_437)"/>
<path d="M67.2941 25.8661C67.2941 23.9614 68.8392 22.4173 70.7451 22.4173H81.098C83.004 22.4173 84.549 23.9614 84.549 25.8661V36.2126C84.549 38.1173 83.004 39.6614 81.098 39.6614H70.7451C68.8392 39.6614 67.2941 38.1173 67.2941 36.2126V25.8661Z" fill="url(#paint8_radial_34_437)"/>
<path d="M89.7255 25.8661C89.7255 23.9614 91.2705 22.4173 93.1765 22.4173H103.529C105.435 22.4173 106.98 23.9614 106.98 25.8661V36.2126C106.98 38.1173 105.435 39.6614 103.529 39.6614H93.1765C91.2705 39.6614 89.7255 38.1173 89.7255 36.2126V25.8661Z" fill="url(#paint9_radial_34_437)"/>
<path d="M134.588 25.8661C134.588 23.9614 136.133 22.4173 138.039 22.4173H148.392C150.298 22.4173 151.843 23.9614 151.843 25.8661V36.2126C151.843 38.1173 150.298 39.6614 148.392 39.6614H138.039C136.133 39.6614 134.588 38.1173 134.588 36.2126V25.8661Z" fill="url(#paint10_radial_34_437)"/>
<path d="M157.02 25.8661C157.02 23.9614 158.565 22.4173 160.471 22.4173H170.824C172.729 22.4173 174.275 23.9614 174.275 25.8661V36.2126C174.275 38.1173 172.729 39.6614 170.824 39.6614H160.471C158.565 39.6614 157.02 38.1173 157.02 36.2126V25.8661Z" fill="url(#paint11_radial_34_437)"/>
<path d="M179.451 25.8661C179.451 23.9614 180.996 22.4173 182.902 22.4173H193.255C195.161 22.4173 196.706 23.9614 196.706 25.8661V36.2126C196.706 38.1173 195.161 39.6614 193.255 39.6614H182.902C180.996 39.6614 179.451 38.1173 179.451 36.2126V25.8661Z" fill="url(#paint12_radial_34_437)"/>
<path d="M246.745 25.8661C246.745 23.9614 248.29 22.4173 250.196 22.4173H260.549C262.455 22.4173 264 23.9614 264 25.8661V36.2126C264 38.1173 262.455 39.6614 260.549 39.6614H250.196C248.29 39.6614 246.745 38.1173 246.745 36.2126V25.8661Z" fill="url(#paint13_radial_34_437)"/>
<path d="M0 48.2835C0 46.3787 1.54506 44.8346 3.45098 44.8346H13.8039C15.7098 44.8346 17.2549 46.3787 17.2549 48.2835V58.6299C17.2549 60.5347 15.7098 62.0787 13.8039 62.0787H3.45098C1.54506 62.0787 0 60.5347 0 58.6299V48.2835Z" fill="url(#paint14_radial_34_437)"/>
<path d="M22.4314 48.2835C22.4314 46.3787 23.9764 44.8346 25.8824 44.8346H36.2353C38.1412 44.8346 39.6863 46.3787 39.6863 48.2835V58.6299C39.6863 60.5347 38.1412 62.0787 36.2353 62.0787H25.8824C23.9764 62.0787 22.4314 60.5347 22.4314 58.6299V48.2835Z" fill="url(#paint15_radial_34_437)"/>
<path d="M44.8627 48.2835C44.8627 46.3787 46.4078 44.8346 48.3137 44.8346H58.6667C60.5726 44.8346 62.1176 46.3787 62.1176 48.2835V58.6299C62.1176 60.5347 60.5726 62.0787 58.6667 62.0787H48.3137C46.4078 62.0787 44.8627 60.5347 44.8627 58.6299V48.2835Z" fill="url(#paint16_radial_34_437)"/>
<path d="M89.7255 48.2835C89.7255 46.3787 91.2705 44.8346 93.1765 44.8346H103.529C105.435 44.8346 106.98 46.3787 106.98 48.2835V58.6299C106.98 60.5347 105.435 62.0787 103.529 62.0787H93.1765C91.2705 62.0787 89.7255 60.5347 89.7255 58.6299V48.2835Z" fill="url(#paint17_radial_34_437)"/>
<path d="M134.588 48.2835C134.588 46.3787 136.133 44.8346 138.039 44.8346H148.392C150.298 44.8346 151.843 46.3787 151.843 48.2835V58.6299C151.843 60.5347 150.298 62.0787 148.392 62.0787H138.039C136.133 62.0787 134.588 60.5347 134.588 58.6299V48.2835Z" fill="url(#paint18_radial_34_437)"/>
<path d="M179.451 48.2835C179.451 46.3787 180.996 44.8346 182.902 44.8346H193.255C195.161 44.8346 196.706 46.3787 196.706 48.2835V58.6299C196.706 60.5347 195.161 62.0787 193.255 62.0787H182.902C180.996 62.0787 179.451 60.5347 179.451 58.6299V48.2835Z" fill="url(#paint19_radial_34_437)"/>
<path d="M201.882 48.2835C201.882 46.3787 203.427 44.8346 205.333 44.8346H215.686C217.592 44.8346 219.137 46.3787 219.137 48.2835V58.6299C219.137 60.5347 217.592 62.0787 215.686 62.0787H205.333C203.427 62.0787 201.882 60.5347 201.882 58.6299V48.2835Z" fill="url(#paint20_radial_34_437)"/>
<path d="M224.314 48.2835C224.314 46.3787 225.859 44.8346 227.765 44.8346H238.118C240.024 44.8346 241.569 46.3787 241.569 48.2835V58.6299C241.569 60.5347 240.024 62.0787 238.118 62.0787H227.765C225.859 62.0787 224.314 60.5347 224.314 58.6299V48.2835Z" fill="url(#paint21_radial_34_437)"/>
<path d="M246.745 48.2835C246.745 46.3787 248.29 44.8346 250.196 44.8346H260.549C262.455 44.8346 264 46.3787 264 48.2835V58.6299C264 60.5347 262.455 62.0787 260.549 62.0787H250.196C248.29 62.0787 246.745 60.5347 246.745 58.6299V48.2835Z" fill="url(#paint22_radial_34_437)"/>
<path d="M22.4314 70.7008C22.4314 68.7961 23.9764 67.252 25.8824 67.252H36.2353C38.1412 67.252 39.6863 68.7961 39.6863 70.7008V81.0472C39.6863 82.952 38.1412 84.4961 36.2353 84.4961H25.8824C23.9764 84.4961 22.4314 82.952 22.4314 81.0472V70.7008Z" fill="url(#paint23_radial_34_437)"/>
<path d="M44.8627 70.7008C44.8627 68.7961 46.4078 67.252 48.3137 67.252H58.6667C60.5726 67.252 62.1176 68.7961 62.1176 70.7008V81.0472C62.1176 82.952 60.5726 84.4961 58.6667 84.4961H48.3137C46.4078 84.4961 44.8627 82.952 44.8627 81.0472V70.7008Z" fill="url(#paint24_radial_34_437)"/>
<path d="M67.2941 70.7008C67.2941 68.7961 68.8392 67.252 70.7451 67.252H81.098C83.004 67.252 84.549 68.7961 84.549 70.7008V81.0472C84.549 82.952 83.004 84.4961 81.098 84.4961H70.7451C68.8392 84.4961 67.2941 82.952 67.2941 81.0472V70.7008Z" fill="url(#paint25_radial_34_437)"/>
<path d="M89.7255 70.7008C89.7255 68.7961 91.2705 67.252 93.1765 67.252H103.529C105.435 67.252 106.98 68.7961 106.98 70.7008V81.0472C106.98 82.952 105.435 84.4961 103.529 84.4961H93.1765C91.2705 84.4961 89.7255 82.952 89.7255 81.0472V70.7008Z" fill="url(#paint26_radial_34_437)"/>
<path d="M157.02 70.7008C157.02 68.7961 158.565 67.252 160.471 67.252H170.824C172.729 67.252 174.275 68.7961 174.275 70.7008V81.0472C174.275 82.952 172.729 84.4961 170.824 84.4961H160.471C158.565 84.4961 157.02 82.952 157.02 81.0472V70.7008Z" fill="url(#paint27_radial_34_437)"/>
<path d="M179.451 70.7008C179.451 68.7961 180.996 67.252 182.902 67.252H193.255C195.161 67.252 196.706 68.7961 196.706 70.7008V81.0472C196.706 82.952 195.161 84.4961 193.255 84.4961H182.902C180.996 84.4961 179.451 82.952 179.451 81.0472V70.7008Z" fill="url(#paint28_radial_34_437)"/>
<path d="M224.314 70.7008C224.314 68.7961 225.859 67.252 227.765 67.252H238.118C240.024 67.252 241.569 68.7961 241.569 70.7008V81.0472C241.569 82.952 240.024 84.4961 238.118 84.4961H227.765C225.859 84.4961 224.314 82.952 224.314 81.0472V70.7008Z" fill="url(#paint29_radial_34_437)"/>
<path d="M22.4314 93.1181C22.4314 91.2134 23.9764 89.6693 25.8824 89.6693H36.2353C38.1412 89.6693 39.6863 91.2134 39.6863 93.1181V103.465C39.6863 105.369 38.1412 106.913 36.2353 106.913H25.8824C23.9764 106.913 22.4314 105.369 22.4314 103.465V93.1181Z" fill="url(#paint30_radial_34_437)"/>
<path d="M44.8627 93.1181C44.8627 91.2134 46.4078 89.6693 48.3137 89.6693H58.6667C60.5726 89.6693 62.1176 91.2134 62.1176 93.1181V103.465C62.1176 105.369 60.5726 106.913 58.6667 106.913H48.3137C46.4078 106.913 44.8627 105.369 44.8627 103.465V93.1181Z" fill="url(#paint31_radial_34_437)"/>
<path d="M89.7255 93.1181C89.7255 91.2134 91.2705 89.6693 93.1765 89.6693H103.529C105.435 89.6693 106.98 91.2134 106.98 93.1181V103.465C106.98 105.369 105.435 106.913 103.529 106.913H93.1765C91.2705 106.913 89.7255 105.369 89.7255 103.465V93.1181Z" fill="url(#paint32_radial_34_437)"/>
<path d="M112.157 93.1181C112.157 91.2134 113.702 89.6693 115.608 89.6693H125.961C127.867 89.6693 129.412 91.2134 129.412 93.1181V103.465C129.412 105.369 127.867 106.913 125.961 106.913H115.608C113.702 106.913 112.157 105.369 112.157 103.465V93.1181Z" fill="url(#paint33_radial_34_437)"/>
<path d="M179.451 93.1181C179.451 91.2134 180.996 89.6693 182.902 89.6693H193.255C195.161 89.6693 196.706 91.2134 196.706 93.1181V103.465C196.706 105.369 195.161 106.913 193.255 106.913H182.902C180.996 106.913 179.451 105.369 179.451 103.465V93.1181Z" fill="url(#paint34_radial_34_437)"/>
<path d="M201.882 93.1181C201.882 91.2134 203.427 89.6693 205.333 89.6693H215.686C217.592 89.6693 219.137 91.2134 219.137 93.1181V103.465C219.137 105.369 217.592 106.913 215.686 106.913H205.333C203.427 106.913 201.882 105.369 201.882 103.465V93.1181Z" fill="url(#paint35_radial_34_437)"/>
<path d="M22.4314 115.535C22.4314 113.631 23.9764 112.087 25.8824 112.087H36.2353C38.1412 112.087 39.6863 113.631 39.6863 115.535V125.882C39.6863 127.787 38.1412 129.331 36.2353 129.331H25.8824C23.9764 129.331 22.4314 127.787 22.4314 125.882V115.535Z" fill="url(#paint36_radial_34_437)"/>
<path d="M67.2941 115.535C67.2941 113.631 68.8392 112.087 70.7451 112.087H81.098C83.004 112.087 84.549 113.631 84.549 115.535V125.882C84.549 127.787 83.004 129.331 81.098 129.331H70.7451C68.8392 129.331 67.2941 127.787 67.2941 125.882V115.535Z" fill="url(#paint37_radial_34_437)"/>
<path d="M89.7255 115.535C89.7255 113.631 91.2705 112.087 93.1765 112.087H103.529C105.435 112.087 106.98 113.631 106.98 115.535V125.882C106.98 127.787 105.435 129.331 103.529 129.331H93.1765C91.2705 129.331 89.7255 127.787 89.7255 125.882V115.535Z" fill="url(#paint38_radial_34_437)"/>
<path d="M134.588 115.535C134.588 113.631 136.133 112.087 138.039 112.087H148.392C150.298 112.087 151.843 113.631 151.843 115.535V125.882C151.843 127.787 150.298 129.331 148.392 129.331H138.039C136.133 129.331 134.588 127.787 134.588 125.882V115.535Z" fill="url(#paint39_radial_34_437)"/>
<path d="M157.02 115.535C157.02 113.631 158.565 112.087 160.471 112.087H170.824C172.729 112.087 174.275 113.631 174.275 115.535V125.882C174.275 127.787 172.729 129.331 170.824 129.331H160.471C158.565 129.331 157.02 127.787 157.02 125.882V115.535Z" fill="url(#paint40_radial_34_437)"/>
<path d="M179.451 115.535C179.451 113.631 180.996 112.087 182.902 112.087H193.255C195.161 112.087 196.706 113.631 196.706 115.535V125.882C196.706 127.787 195.161 129.331 193.255 129.331H182.902C180.996 129.331 179.451 127.787 179.451 125.882V115.535Z" fill="url(#paint41_radial_34_437)"/>
<path d="M201.882 115.535C201.882 113.631 203.427 112.087 205.333 112.087H215.686C217.592 112.087 219.137 113.631 219.137 115.535V125.882C219.137 127.787 217.592 129.331 215.686 129.331H205.333C203.427 129.331 201.882 127.787 201.882 125.882V115.535Z" fill="url(#paint42_radial_34_437)"/>
<path d="M224.314 115.535C224.314 113.631 225.859 112.087 227.765 112.087H238.118C240.024 112.087 241.569 113.631 241.569 115.535V125.882C241.569 127.787 240.024 129.331 238.118 129.331H227.765C225.859 129.331 224.314 127.787 224.314 125.882V115.535Z" fill="url(#paint43_radial_34_437)"/>
<path d="M246.745 115.535C246.745 113.631 248.29 112.087 250.196 112.087H260.549C262.455 112.087 264 113.631 264 115.535V125.882C264 127.787 262.455 129.331 260.549 129.331H250.196C248.29 129.331 246.745 127.787 246.745 125.882V115.535Z" fill="url(#paint44_radial_34_437)"/>
<path d="M0 137.953C0 136.048 1.54506 134.504 3.45098 134.504H13.8039C15.7098 134.504 17.2549 136.048 17.2549 137.953V148.299C17.2549 150.204 15.7098 151.748 13.8039 151.748H3.45098C1.54506 151.748 0 150.204 0 148.299V137.953Z" fill="url(#paint45_radial_34_437)"/>
<path d="M22.4314 137.953C22.4314 136.048 23.9764 134.504 25.8824 134.504H36.2353C38.1412 134.504 39.6863 136.048 39.6863 137.953V148.299C39.6863 150.204 38.1412 151.748 36.2353 151.748H25.8824C23.9764 151.748 22.4314 150.204 22.4314 148.299V137.953Z" fill="url(#paint46_radial_34_437)"/>
<path d="M44.8627 137.953C44.8627 136.048 46.4078 134.504 48.3137 134.504H58.6667C60.5726 134.504 62.1176 136.048 62.1176 137.953V148.299C62.1176 150.204 60.5726 151.748 58.6667 151.748H48.3137C46.4078 151.748 44.8627 150.204 44.8627 148.299V137.953Z" fill="url(#paint47_radial_34_437)"/>
<path d="M67.2941 137.953C67.2941 136.048 68.8392 134.504 70.7451 134.504H81.098C83.004 134.504 84.549 136.048 84.549 137.953V148.299C84.549 150.204 83.004 151.748 81.098 151.748H70.7451C68.8392 151.748 67.2941 150.204 67.2941 148.299V137.953Z" fill="url(#paint48_radial_34_437)"/>
<path d="M134.588 137.953C134.588 136.048 136.133 134.504 138.039 134.504H148.392C150.298 134.504 151.843 136.048 151.843 137.953V148.299C151.843 150.204 150.298 151.748 148.392 151.748H138.039C136.133 151.748 134.588 150.204 134.588 148.299V137.953Z" fill="url(#paint49_radial_34_437)"/>
<path d="M179.451 137.953C179.451 136.048 180.996 134.504 182.902 134.504H193.255C195.161 134.504 196.706 136.048 196.706 137.953V148.299C196.706 150.204 195.161 151.748 193.255 151.748H182.902C180.996 151.748 179.451 150.204 179.451 148.299V137.953Z" fill="url(#paint50_radial_34_437)"/>
<path d="M201.882 137.953C201.882 136.048 203.427 134.504 205.333 134.504H215.686C217.592 134.504 219.137 136.048 219.137 137.953V148.299C219.137 150.204 217.592 151.748 215.686 151.748H205.333C203.427 151.748 201.882 150.204 201.882 148.299V137.953Z" fill="url(#paint51_radial_34_437)"/>
<path d="M224.314 137.953C224.314 136.048 225.859 134.504 227.765 134.504H238.118C240.024 134.504 241.569 136.048 241.569 137.953V148.299C241.569 150.204 240.024 151.748 238.118 151.748H227.765C225.859 151.748 224.314 150.204 224.314 148.299V137.953Z" fill="url(#paint52_radial_34_437)"/>
<path d="M246.745 137.953C246.745 136.048 248.29 134.504 250.196 134.504H260.549C262.455 134.504 264 136.048 264 137.953V148.299C264 150.204 262.455 151.748 260.549 151.748H250.196C248.29 151.748 246.745 150.204 246.745 148.299V137.953Z" fill="url(#paint53_radial_34_437)"/>
<path d="M44.8627 160.37C44.8627 158.465 46.4078 156.921 48.3137 156.921H58.6667C60.5726 156.921 62.1176 158.465 62.1176 160.37V170.717C62.1176 172.621 60.5726 174.165 58.6667 174.165H48.3137C46.4078 174.165 44.8627 172.621 44.8627 170.717V160.37Z" fill="url(#paint54_radial_34_437)"/>
<path d="M67.2941 160.37C67.2941 158.465 68.8392 156.921 70.7451 156.921H81.098C83.004 156.921 84.549 158.465 84.549 160.37V170.717C84.549 172.621 83.004 174.165 81.098 174.165H70.7451C68.8392 174.165 67.2941 172.621 67.2941 170.717V160.37Z" fill="url(#paint55_radial_34_437)"/>
<path d="M89.7255 160.37C89.7255 158.465 91.2705 156.921 93.1765 156.921H103.529C105.435 156.921 106.98 158.465 106.98 160.37V170.717C106.98 172.621 105.435 174.165 103.529 174.165H93.1765C91.2705 174.165 89.7255 172.621 89.7255 170.717V160.37Z" fill="url(#paint56_radial_34_437)"/>
<path d="M157.02 160.37C157.02 158.465 158.565 156.921 160.471 156.921H170.824C172.729 156.921 174.275 158.465 174.275 160.37V170.717C174.275 172.621 172.729 174.165 170.824 174.165H160.471C158.565 174.165 157.02 172.621 157.02 170.717V160.37Z" fill="url(#paint57_radial_34_437)"/>
<path d="M179.451 160.37C179.451 158.465 180.996 156.921 182.902 156.921H193.255C195.161 156.921 196.706 158.465 196.706 160.37V170.717C196.706 172.621 195.161 174.165 193.255 174.165H182.902C180.996 174.165 179.451 172.621 179.451 170.717V160.37Z" fill="url(#paint58_radial_34_437)"/>
<path d="M224.314 160.37C224.314 158.465 225.859 156.921 227.765 156.921H238.118C240.024 156.921 241.569 158.465 241.569 160.37V170.717C241.569 172.621 240.024 174.165 238.118 174.165H227.765C225.859 174.165 224.314 172.621 224.314 170.717V160.37Z" fill="url(#paint59_radial_34_437)"/>
<path d="M246.745 160.37C246.745 158.465 248.29 156.921 250.196 156.921H260.549C262.455 156.921 264 158.465 264 160.37V170.717C264 172.621 262.455 174.165 260.549 174.165H250.196C248.29 174.165 246.745 172.621 246.745 170.717V160.37Z" fill="url(#paint60_radial_34_437)"/>
<path d="M0 182.787C0 180.883 1.54506 179.339 3.45098 179.339H13.8039C15.7098 179.339 17.2549 180.883 17.2549 182.787V193.134C17.2549 195.039 15.7098 196.583 13.8039 196.583H3.45098C1.54506 196.583 0 195.039 0 193.134V182.787Z" fill="url(#paint61_radial_34_437)"/>
<path d="M44.8627 182.787C44.8627 180.883 46.4078 179.339 48.3137 179.339H58.6667C60.5726 179.339 62.1176 180.883 62.1176 182.787V193.134C62.1176 195.039 60.5726 196.583 58.6667 196.583H48.3137C46.4078 196.583 44.8627 195.039 44.8627 193.134V182.787Z" fill="url(#paint62_radial_34_437)"/>
<path d="M67.2941 182.787C67.2941 180.883 68.8392 179.339 70.7451 179.339H81.098C83.004 179.339 84.549 180.883 84.549 182.787V193.134C84.549 195.039 83.004 196.583 81.098 196.583H70.7451C68.8392 196.583 67.2941 195.039 67.2941 193.134V182.787Z" fill="url(#paint63_radial_34_437)"/>
<path d="M89.7255 182.787C89.7255 180.883 91.2705 179.339 93.1765 179.339H103.529C105.435 179.339 106.98 180.883 106.98 182.787V193.134C106.98 195.039 105.435 196.583 103.529 196.583H93.1765C91.2705 196.583 89.7255 195.039 89.7255 193.134V182.787Z" fill="url(#paint64_radial_34_437)"/>
<path d="M179.451 182.787C179.451 180.883 180.996 179.339 182.902 179.339H193.255C195.161 179.339 196.706 180.883 196.706 182.787V193.134C196.706 195.039 195.161 196.583 193.255 196.583H182.902C180.996 196.583 179.451 195.039 179.451 193.134V182.787Z" fill="url(#paint65_radial_34_437)"/>
<path d="M201.882 182.787C201.882 180.883 203.427 179.339 205.333 179.339H215.686C217.592 179.339 219.137 180.883 219.137 182.787V193.134C219.137 195.039 217.592 196.583 215.686 196.583H205.333C203.427 196.583 201.882 195.039 201.882 193.134V182.787Z" fill="url(#paint66_radial_34_437)"/>
<path d="M224.314 182.787C224.314 180.883 225.859 179.339 227.765 179.339H238.118C240.024 179.339 241.569 180.883 241.569 182.787V193.134C241.569 195.039 240.024 196.583 238.118 196.583H227.765C225.859 196.583 224.314 195.039 224.314 193.134V182.787Z" fill="url(#paint67_radial_34_437)"/>
<path d="M246.745 182.787C246.745 180.883 248.29 179.339 250.196 179.339H260.549C262.455 179.339 264 180.883 264 182.787V193.134C264 195.039 262.455 196.583 260.549 196.583H250.196C248.29 196.583 246.745 195.039 246.745 193.134V182.787Z" fill="url(#paint68_radial_34_437)"/>
<path d="M0 205.205C0 203.3 1.54506 201.756 3.45098 201.756H13.8039C15.7098 201.756 17.2549 203.3 17.2549 205.205V215.551C17.2549 217.456 15.7098 219 13.8039 219H3.45098C1.54506 219 0 217.456 0 215.551V205.205Z" fill="url(#paint69_radial_34_437)"/>
<path d="M22.4314 205.205C22.4314 203.3 23.9764 201.756 25.8824 201.756H36.2353C38.1412 201.756 39.6863 203.3 39.6863 205.205V215.551C39.6863 217.456 38.1412 219 36.2353 219H25.8824C23.9764 219 22.4314 217.456 22.4314 215.551V205.205Z" fill="url(#paint70_radial_34_437)"/>
<path d="M89.7255 205.205C89.7255 203.3 91.2705 201.756 93.1765 201.756H103.529C105.435 201.756 106.98 203.3 106.98 205.205V215.551C106.98 217.456 105.435 219 103.529 219H93.1765C91.2705 219 89.7255 217.456 89.7255 215.551V205.205Z" fill="url(#paint71_radial_34_437)"/>
<path d="M112.157 205.205C112.157 203.3 113.702 201.756 115.608 201.756H125.961C127.867 201.756 129.412 203.3 129.412 205.205V215.551C129.412 217.456 127.867 219 125.961 219H115.608C113.702 219 112.157 217.456 112.157 215.551V205.205Z" fill="url(#paint72_radial_34_437)"/>
<path d="M157.02 205.205C157.02 203.3 158.565 201.756 160.471 201.756H170.824C172.729 201.756 174.275 203.3 174.275 205.205V215.551C174.275 217.456 172.729 219 170.824 219H160.471C158.565 219 157.02 217.456 157.02 215.551V205.205Z" fill="url(#paint73_radial_34_437)"/>
<path d="M179.451 205.205C179.451 203.3 180.996 201.756 182.902 201.756H193.255C195.161 201.756 196.706 203.3 196.706 205.205V215.551C196.706 217.456 195.161 219 193.255 219H182.902C180.996 219 179.451 217.456 179.451 215.551V205.205Z" fill="url(#paint74_radial_34_437)"/>
<path d="M246.745 205.205C246.745 203.3 248.29 201.756 250.196 201.756H260.549C262.455 201.756 264 203.3 264 205.205V215.551C264 217.456 262.455 219 260.549 219H250.196C248.29 219 246.745 217.456 246.745 215.551V205.205Z" fill="url(#paint75_radial_34_437)"/>
</g>
<defs>
<radialGradient id="paint0_radial_34_437" cx="0" cy="0" r="1" gradientUnits="userSpaceOnUse" gradientTransform="translate(150.386 88.2608) rotate(128.008) scale(156.944 147.617)">
<stop stop-color="#E1F2FF" stop-opacity="0.3"/>
<stop offset="0.51" stop-color="#B9CEFF" stop-opacity="0.05"/>
<stop offset="1" stop-color="#FFF4F4" stop-opacity="0"/>
</radialGradient>
<radialGradient id="paint1_radial_34_437" cx="0" cy="0" r="1" gradientUnits="userSpaceOnUse" gradientTransform="translate(150.386 88.2608) rotate(128.008) scale(156.944 147.617)">
<stop stop-color="#E1F2FF" stop-opacity="0.3"/>
<stop offset="0.51" stop-color="#B9CEFF" stop-opacity="0.05"/>
<stop offset="1" stop-color="#FFF4F4" stop-opacity="0"/>
</radialGradient>
<radialGradient id="paint2_radial_34_437" cx="0" cy="0" r="1" gradientUnits="userSpaceOnUse" gradientTransform="translate(150.386 88.2608) rotate(128.008) scale(156.944 147.617)">
<stop stop-color="#E1F2FF" stop-opacity="0.3"/>
<stop offset="0.51" stop-color="#B9CEFF" stop-opacity="0.05"/>
<stop offset="1" stop-color="#FFF4F4" stop-opacity="0"/>
</radialGradient>
<radialGradient id="paint3_radial_34_437" cx="0" cy="0" r="1" gradientUnits="userSpaceOnUse" gradientTransform="translate(150.386 88.2608) rotate(128.008) scale(156.944 147.617)">
<stop stop-color="#E1F2FF" stop-opacity="0.3"/>
<stop offset="0.51" stop-color="#B9CEFF" stop-opacity="0.05"/>
<stop offset="1" stop-color="#FFF4F4" stop-opacity="0"/>
</radialGradient>
<radialGradient id="paint4_radial_34_437" cx="0" cy="0" r="1" gradientUnits="userSpaceOnUse" gradientTransform="translate(150.386 88.2608) rotate(128.008) scale(156.944 147.617)">
<stop stop-color="#E1F2FF" stop-opacity="0.3"/>
<stop offset="0.51" stop-color="#B9CEFF" stop-opacity="0.05"/>
<stop offset="1" stop-color="#FFF4F4" stop-opacity="0"/>
</radialGradient>
<radialGradient id="paint5_radial_34_437" cx="0" cy="0" r="1" gradientUnits="userSpaceOnUse" gradientTransform="translate(150.386 88.2608) rotate(128.008) scale(156.944 147.617)">
<stop stop-color="#E1F2FF" stop-opacity="0.3"/>
<stop offset="0.51" stop-color="#B9CEFF" stop-opacity="0.05"/>
<stop offset="1" stop-color="#FFF4F4" stop-opacity="0"/>
</radialGradient>
<radialGradient id="paint6_radial_34_437" cx="0" cy="0" r="1" gradientUnits="userSpaceOnUse" gradientTransform="translate(150.386 88.2608) rotate(128.008) scale(156.944 147.617)">
<stop stop-color="#E1F2FF" stop-opacity="0.3"/>
<stop offset="0.51" stop-color="#B9CEFF" stop-opacity="0.05"/>
<stop offset="1" stop-color="#FFF4F4" stop-opacity="0"/>
</radialGradient>
<radialGradient id="paint7_radial_34_437" cx="0" cy="0" r="1" gradientUnits="userSpaceOnUse" gradientTransform="translate(150.386 88.2608) rotate(128.008) scale(156.944 147.617)">
<stop stop-color="#E1F2FF" stop-opacity="0.3"/>
<stop offset="0.51" stop-color="#B9CEFF" stop-opacity="0.05"/>
<stop offset="1" stop-color="#FFF4F4" stop-opacity="0"/>
</radialGradient>
<radialGradient id="paint8_radial_34_437" cx="0" cy="0" r="1" gradientUnits="userSpaceOnUse" gradientTransform="translate(150.386 88.2608) rotate(128.008) scale(156.944 147.617)">
<stop stop-color="#E1F2FF" stop-opacity="0.3"/>
<stop offset="0.51" stop-color="#B9CEFF" stop-opacity="0.05"/>
<stop offset="1" stop-color="#FFF4F4" stop-opacity="0"/>
</radialGradient>
<radialGradient id="paint9_radial_34_437" cx="0" cy="0" r="1" gradientUnits="userSpaceOnUse" gradientTransform="translate(150.386 88.2608) rotate(128.008) scale(156.944 147.617)">
<stop stop-color="#E1F2FF" stop-opacity="0.3"/>
<stop offset="0.51" stop-color="#B9CEFF" stop-opacity="0.05"/>
<stop offset="1" stop-color="#FFF4F4" stop-opacity="0"/>
</radialGradient>
<radialGradient id="paint10_radial_34_437" cx="0" cy="0" r="1" gradientUnits="userSpaceOnUse" gradientTransform="translate(150.386 88.2608) rotate(128.008) scale(156.944 147.617)">
<stop stop-color="#E1F2FF" stop-opacity="0.3"/>
<stop offset="0.51" stop-color="#B9CEFF" stop-opacity="0.05"/>
<stop offset="1" stop-color="#FFF4F4" stop-opacity="0"/>
</radialGradient>
<radialGradient id="paint11_radial_34_437" cx="0" cy="0" r="1" gradientUnits="userSpaceOnUse" gradientTransform="translate(150.386 88.2608) rotate(128.008) scale(156.944 147.617)">
<stop stop-color="#E1F2FF" stop-opacity="0.3"/>
<stop offset="0.51" stop-color="#B9CEFF" stop-opacity="0.05"/>
<stop offset="1" stop-color="#FFF4F4" stop-opacity="0"/>
</radialGradient>
<radialGradient id="paint12_radial_34_437" cx="0" cy="0" r="1" gradientUnits="userSpaceOnUse" gradientTransform="translate(150.386 88.2608) rotate(128.008) scale(156.944 147.617)">
<stop stop-color="#E1F2FF" stop-opacity="0.3"/>
<stop offset="0.51" stop-color="#B9CEFF" stop-opacity="0.05"/>
<stop offset="1" stop-color="#FFF4F4" stop-opacity="0"/>
</radialGradient>
<radialGradient id="paint13_radial_34_437" cx="0" cy="0" r="1" gradientUnits="userSpaceOnUse" gradientTransform="translate(150.386 88.2608) rotate(128.008) scale(156.944 147.617)">
<stop stop-color="#E1F2FF" stop-opacity="0.3"/>
<stop offset="0.51" stop-color="#B9CEFF" stop-opacity="0.05"/>
<stop offset="1" stop-color="#FFF4F4" stop-opacity="0"/>
</radialGradient>
<radialGradient id="paint14_radial_34_437" cx="0" cy="0" r="1" gradientUnits="userSpaceOnUse" gradientTransform="translate(150.386 88.2608) rotate(128.008) scale(156.944 147.617)">
<stop stop-color="#E1F2FF" stop-opacity="0.3"/>
<stop offset="0.51" stop-color="#B9CEFF" stop-opacity="0.05"/>
<stop offset="1" stop-color="#FFF4F4" stop-opacity="0"/>
</radialGradient>
<radialGradient id="paint15_radial_34_437" cx="0" cy="0" r="1" gradientUnits="userSpaceOnUse" gradientTransform="translate(150.386 88.2608) rotate(128.008) scale(156.944 147.617)">
<stop stop-color="#E1F2FF" stop-opacity="0.3"/>
<stop offset="0.51" stop-color="#B9CEFF" stop-opacity="0.05"/>
<stop offset="1" stop-color="#FFF4F4" stop-opacity="0"/>
</radialGradient>
<radialGradient id="paint16_radial_34_437" cx="0" cy="0" r="1" gradientUnits="userSpaceOnUse" gradientTransform="translate(150.386 88.2608) rotate(128.008) scale(156.944 147.617)">
<stop stop-color="#E1F2FF" stop-opacity="0.3"/>
<stop offset="0.51" stop-color="#B9CEFF" stop-opacity="0.05"/>
<stop offset="1" stop-color="#FFF4F4" stop-opacity="0"/>
</radialGradient>
<radialGradient id="paint17_radial_34_437" cx="0" cy="0" r="1" gradientUnits="userSpaceOnUse" gradientTransform="translate(150.386 88.2608) rotate(128.008) scale(156.944 147.617)">
<stop stop-color="#E1F2FF" stop-opacity="0.3"/>
<stop offset="0.51" stop-color="#B9CEFF" stop-opacity="0.05"/>
<stop offset="1" stop-color="#FFF4F4" stop-opacity="0"/>
</radialGradient>
<radialGradient id="paint18_radial_34_437" cx="0" cy="0" r="1" gradientUnits="userSpaceOnUse" gradientTransform="translate(150.386 88.2608) rotate(128.008) scale(156.944 147.617)">
<stop stop-color="#E1F2FF" stop-opacity="0.3"/>
<stop offset="0.51" stop-color="#B9CEFF" stop-opacity="0.05"/>
<stop offset="1" stop-color="#FFF4F4" stop-opacity="0"/>
</radialGradient>
<radialGradient id="paint19_radial_34_437" cx="0" cy="0" r="1" gradientUnits="userSpaceOnUse" gradientTransform="translate(150.386 88.2608) rotate(128.008) scale(156.944 147.617)">
<stop stop-color="#E1F2FF" stop-opacity="0.3"/>
<stop offset="0.51" stop-color="#B9CEFF" stop-opacity="0.05"/>
<stop offset="1" stop-color="#FFF4F4" stop-opacity="0"/>
</radialGradient>
<radialGradient id="paint20_radial_34_437" cx="0" cy="0" r="1" gradientUnits="userSpaceOnUse" gradientTransform="translate(150.386 88.2608) rotate(128.008) scale(156.944 147.617)">
<stop stop-color="#E1F2FF" stop-opacity="0.3"/>
<stop offset="0.51" stop-color="#B9CEFF" stop-opacity="0.05"/>
<stop offset="1" stop-color="#FFF4F4" stop-opacity="0"/>
</radialGradient>
<radialGradient id="paint21_radial_34_437" cx="0" cy="0" r="1" gradientUnits="userSpaceOnUse" gradientTransform="translate(150.386 88.2608) rotate(128.008) scale(156.944 147.617)">
<stop stop-color="#E1F2FF" stop-opacity="0.3"/>
<stop offset="0.51" stop-color="#B9CEFF" stop-opacity="0.05"/>
<stop offset="1" stop-color="#FFF4F4" stop-opacity="0"/>
</radialGradient>
<radialGradient id="paint22_radial_34_437" cx="0" cy="0" r="1" gradientUnits="userSpaceOnUse" gradientTransform="translate(150.386 88.2608) rotate(128.008) scale(156.944 147.617)">
<stop stop-color="#E1F2FF" stop-opacity="0.3"/>
<stop offset="0.51" stop-color="#B9CEFF" stop-opacity="0.05"/>
<stop offset="1" stop-color="#FFF4F4" stop-opacity="0"/>
</radialGradient>
<radialGradient id="paint23_radial_34_437" cx="0" cy="0" r="1" gradientUnits="userSpaceOnUse" gradientTransform="translate(150.386 88.2608) rotate(128.008) scale(156.944 147.617)">
<stop stop-color="#E1F2FF" stop-opacity="0.3"/>
<stop offset="0.51" stop-color="#B9CEFF" stop-opacity="0.05"/>
<stop offset="1" stop-color="#FFF4F4" stop-opacity="0"/>
</radialGradient>
<radialGradient id="paint24_radial_34_437" cx="0" cy="0" r="1" gradientUnits="userSpaceOnUse" gradientTransform="translate(150.386 88.2608) rotate(128.008) scale(156.944 147.617)">
<stop stop-color="#E1F2FF" stop-opacity="0.3"/>
<stop offset="0.51" stop-color="#B9CEFF" stop-opacity="0.05"/>
<stop offset="1" stop-color="#FFF4F4" stop-opacity="0"/>
</radialGradient>
<radialGradient id="paint25_radial_34_437" cx="0" cy="0" r="1" gradientUnits="userSpaceOnUse" gradientTransform="translate(150.386 88.2608) rotate(128.008) scale(156.944 147.617)">
<stop stop-color="#E1F2FF" stop-opacity="0.3"/>
<stop offset="0.51" stop-color="#B9CEFF" stop-opacity="0.05"/>
<stop offset="1" stop-color="#FFF4F4" stop-opacity="0"/>
</radialGradient>
<radialGradient id="paint26_radial_34_437" cx="0" cy="0" r="1" gradientUnits="userSpaceOnUse" gradientTransform="translate(150.386 88.2608) rotate(128.008) scale(156.944 147.617)">
<stop stop-color="#E1F2FF" stop-opacity="0.3"/>
<stop offset="0.51" stop-color="#B9CEFF" stop-opacity="0.05"/>
<stop offset="1" stop-color="#FFF4F4" stop-opacity="0"/>
</radialGradient>
<radialGradient id="paint27_radial_34_437" cx="0" cy="0" r="1" gradientUnits="userSpaceOnUse" gradientTransform="translate(150.386 88.2608) rotate(128.008) scale(156.944 147.617)">
<stop stop-color="#E1F2FF" stop-opacity="0.3"/>
<stop offset="0.51" stop-color="#B9CEFF" stop-opacity="0.05"/>
<stop offset="1" stop-color="#FFF4F4" stop-opacity="0"/>
</radialGradient>
<radialGradient id="paint28_radial_34_437" cx="0" cy="0" r="1" gradientUnits="userSpaceOnUse" gradientTransform="translate(150.386 88.2608) rotate(128.008) scale(156.944 147.617)">
<stop stop-color="#E1F2FF" stop-opacity="0.3"/>
<stop offset="0.51" stop-color="#B9CEFF" stop-opacity="0.05"/>
<stop offset="1" stop-color="#FFF4F4" stop-opacity="0"/>
</radialGradient>
<radialGradient id="paint29_radial_34_437" cx="0" cy="0" r="1" gradientUnits="userSpaceOnUse" gradientTransform="translate(150.386 88.2608) rotate(128.008) scale(156.944 147.617)">
<stop stop-color="#E1F2FF" stop-opacity="0.3"/>
<stop offset="0.51" stop-color="#B9CEFF" stop-opacity="0.05"/>
<stop offset="1" stop-color="#FFF4F4" stop-opacity="0"/>
</radialGradient>
<radialGradient id="paint30_radial_34_437" cx="0" cy="0" r="1" gradientUnits="userSpaceOnUse" gradientTransform="translate(150.386 88.2608) rotate(128.008) scale(156.944 147.617)">
<stop stop-color="#E1F2FF" stop-opacity="0.3"/>
<stop offset="0.51" stop-color="#B9CEFF" stop-opacity="0.05"/>
<stop offset="1" stop-color="#FFF4F4" stop-opacity="0"/>
</radialGradient>
<radialGradient id="paint31_radial_34_437" cx="0" cy="0" r="1" gradientUnits="userSpaceOnUse" gradientTransform="translate(150.386 88.2608) rotate(128.008) scale(156.944 147.617)">
<stop stop-color="#E1F2FF" stop-opacity="0.3"/>
<stop offset="0.51" stop-color="#B9CEFF" stop-opacity="0.05"/>
<stop offset="1" stop-color="#FFF4F4" stop-opacity="0"/>
</radialGradient>
<radialGradient id="paint32_radial_34_437" cx="0" cy="0" r="1" gradientUnits="userSpaceOnUse" gradientTransform="translate(150.386 88.2608) rotate(128.008) scale(156.944 147.617)">
<stop stop-color="#E1F2FF" stop-opacity="0.3"/>
<stop offset="0.51" stop-color="#B9CEFF" stop-opacity="0.05"/>
<stop offset="1" stop-color="#FFF4F4" stop-opacity="0"/>
</radialGradient>
<radialGradient id="paint33_radial_34_437" cx="0" cy="0" r="1" gradientUnits="userSpaceOnUse" gradientTransform="translate(150.386 88.2608) rotate(128.008) scale(156.944 147.617)">
<stop stop-color="#E1F2FF" stop-opacity="0.3"/>
<stop offset="0.51" stop-color="#B9CEFF" stop-opacity="0.05"/>
<stop offset="1" stop-color="#FFF4F4" stop-opacity="0"/>
</radialGradient>
<radialGradient id="paint34_radial_34_437" cx="0" cy="0" r="1" gradientUnits="userSpaceOnUse" gradientTransform="translate(150.386 88.2608) rotate(128.008) scale(156.944 147.617)">
<stop stop-color="#E1F2FF" stop-opacity="0.3"/>
<stop offset="0.51" stop-color="#B9CEFF" stop-opacity="0.05"/>
<stop offset="1" stop-color="#FFF4F4" stop-opacity="0"/>
</radialGradient>
<radialGradient id="paint35_radial_34_437" cx="0" cy="0" r="1" gradientUnits="userSpaceOnUse" gradientTransform="translate(150.386 88.2608) rotate(128.008) scale(156.944 147.617)">
<stop stop-color="#E1F2FF" stop-opacity="0.3"/>
<stop offset="0.51" stop-color="#B9CEFF" stop-opacity="0.05"/>
<stop offset="1" stop-color="#FFF4F4" stop-opacity="0"/>
</radialGradient>
<radialGradient id="paint36_radial_34_437" cx="0" cy="0" r="1" gradientUnits="userSpaceOnUse" gradientTransform="translate(150.386 88.2608) rotate(128.008) scale(156.944 147.617)">
<stop stop-color="#E1F2FF" stop-opacity="0.3"/>
<stop offset="0.51" stop-color="#B9CEFF" stop-opacity="0.05"/>
<stop offset="1" stop-color="#FFF4F4" stop-opacity="0"/>
</radialGradient>
<radialGradient id="paint37_radial_34_437" cx="0" cy="0" r="1" gradientUnits="userSpaceOnUse" gradientTransform="translate(150.386 88.2608) rotate(128.008) scale(156.944 147.617)">
<stop stop-color="#E1F2FF" stop-opacity="0.3"/>
<stop offset="0.51" stop-color="#B9CEFF" stop-opacity="0.05"/>
<stop offset="1" stop-color="#FFF4F4" stop-opacity="0"/>
</radialGradient>
<radialGradient id="paint38_radial_34_437" cx="0" cy="0" r="1" gradientUnits="userSpaceOnUse" gradientTransform="translate(150.386 88.2608) rotate(128.008) scale(156.944 147.617)">
<stop stop-color="#E1F2FF" stop-opacity="0.3"/>
<stop offset="0.51" stop-color="#B9CEFF" stop-opacity="0.05"/>
<stop offset="1" stop-color="#FFF4F4" stop-opacity="0"/>
</radialGradient>
<radialGradient id="paint39_radial_34_437" cx="0" cy="0" r="1" gradientUnits="userSpaceOnUse" gradientTransform="translate(150.386 88.2608) rotate(128.008) scale(156.944 147.617)">
<stop stop-color="#E1F2FF" stop-opacity="0.3"/>
<stop offset="0.51" stop-color="#B9CEFF" stop-opacity="0.05"/>
<stop offset="1" stop-color="#FFF4F4" stop-opacity="0"/>
</radialGradient>
<radialGradient id="paint40_radial_34_437" cx="0" cy="0" r="1" gradientUnits="userSpaceOnUse" gradientTransform="translate(150.386 88.2608) rotate(128.008) scale(156.944 147.617)">
<stop stop-color="#E1F2FF" stop-opacity="0.3"/>
<stop offset="0.51" stop-color="#B9CEFF" stop-opacity="0.05"/>
<stop offset="1" stop-color="#FFF4F4" stop-opacity="0"/>
</radialGradient>
<radialGradient id="paint41_radial_34_437" cx="0" cy="0" r="1" gradientUnits="userSpaceOnUse" gradientTransform="translate(150.386 88.2608) rotate(128.008) scale(156.944 147.617)">
<stop stop-color="#E1F2FF" stop-opacity="0.3"/>
<stop offset="0.51" stop-color="#B9CEFF" stop-opacity="0.05"/>
<stop offset="1" stop-color="#FFF4F4" stop-opacity="0"/>
</radialGradient>
<radialGradient id="paint42_radial_34_437" cx="0" cy="0" r="1" gradientUnits="userSpaceOnUse" gradientTransform="translate(150.386 88.2608) rotate(128.008) scale(156.944 147.617)">
<stop stop-color="#E1F2FF" stop-opacity="0.3"/>
<stop offset="0.51" stop-color="#B9CEFF" stop-opacity="0.05"/>
<stop offset="1" stop-color="#FFF4F4" stop-opacity="0"/>
</radialGradient>
<radialGradient id="paint43_radial_34_437" cx="0" cy="0" r="1" gradientUnits="userSpaceOnUse" gradientTransform="translate(150.386 88.2608) rotate(128.008) scale(156.944 147.617)">
<stop stop-color="#E1F2FF" stop-opacity="0.3"/>
<stop offset="0.51" stop-color="#B9CEFF" stop-opacity="0.05"/>
<stop offset="1" stop-color="#FFF4F4" stop-opacity="0"/>
</radialGradient>
<radialGradient id="paint44_radial_34_437" cx="0" cy="0" r="1" gradientUnits="userSpaceOnUse" gradientTransform="translate(150.386 88.2608) rotate(128.008) scale(156.944 147.617)">
<stop stop-color="#E1F2FF" stop-opacity="0.3"/>
<stop offset="0.51" stop-color="#B9CEFF" stop-opacity="0.05"/>
<stop offset="1" stop-color="#FFF4F4" stop-opacity="0"/>
</radialGradient>
<radialGradient id="paint45_radial_34_437" cx="0" cy="0" r="1" gradientUnits="userSpaceOnUse" gradientTransform="translate(150.386 88.2608) rotate(128.008) scale(156.944 147.617)">
<stop stop-color="#E1F2FF" stop-opacity="0.3"/>
<stop offset="0.51" stop-color="#B9CEFF" stop-opacity="0.05"/>
<stop offset="1" stop-color="#FFF4F4" stop-opacity="0"/>
</radialGradient>
<radialGradient id="paint46_radial_34_437" cx="0" cy="0" r="1" gradientUnits="userSpaceOnUse" gradientTransform="translate(150.386 88.2608) rotate(128.008) scale(156.944 147.617)">
<stop stop-color="#E1F2FF" stop-opacity="0.3"/>
<stop offset="0.51" stop-color="#B9CEFF" stop-opacity="0.05"/>
<stop offset="1" stop-color="#FFF4F4" stop-opacity="0"/>
</radialGradient>
<radialGradient id="paint47_radial_34_437" cx="0" cy="0" r="1" gradientUnits="userSpaceOnUse" gradientTransform="translate(150.386 88.2608) rotate(128.008) scale(156.944 147.617)">
<stop stop-color="#E1F2FF" stop-opacity="0.3"/>
<stop offset="0.51" stop-color="#B9CEFF" stop-opacity="0.05"/>
<stop offset="1" stop-color="#FFF4F4" stop-opacity="0"/>
</radialGradient>
<radialGradient id="paint48_radial_34_437" cx="0" cy="0" r="1" gradientUnits="userSpaceOnUse" gradientTransform="translate(150.386 88.2608) rotate(128.008) scale(156.944 147.617)">
<stop stop-color="#E1F2FF" stop-opacity="0.3"/>
<stop offset="0.51" stop-color="#B9CEFF" stop-opacity="0.05"/>
<stop offset="1" stop-color="#FFF4F4" stop-opacity="0"/>
</radialGradient>
<radialGradient id="paint49_radial_34_437" cx="0" cy="0" r="1" gradientUnits="userSpaceOnUse" gradientTransform="translate(150.386 88.2608) rotate(128.008) scale(156.944 147.617)">
<stop stop-color="#E1F2FF" stop-opacity="0.3"/>
<stop offset="0.51" stop-color="#B9CEFF" stop-opacity="0.05"/>
<stop offset="1" stop-color="#FFF4F4" stop-opacity="0"/>
</radialGradient>
<radialGradient id="paint50_radial_34_437" cx="0" cy="0" r="1" gradientUnits="userSpaceOnUse" gradientTransform="translate(150.386 88.2608) rotate(128.008) scale(156.944 147.617)">
<stop stop-color="#E1F2FF" stop-opacity="0.3"/>
<stop offset="0.51" stop-color="#B9CEFF" stop-opacity="0.05"/>
<stop offset="1" stop-color="#FFF4F4" stop-opacity="0"/>
</radialGradient>
<radialGradient id="paint51_radial_34_437" cx="0" cy="0" r="1" gradientUnits="userSpaceOnUse" gradientTransform="translate(150.386 88.2608) rotate(128.008) scale(156.944 147.617)">
<stop stop-color="#E1F2FF" stop-opacity="0.3"/>
<stop offset="0.51" stop-color="#B9CEFF" stop-opacity="0.05"/>
<stop offset="1" stop-color="#FFF4F4" stop-opacity="0"/>
</radialGradient>
<radialGradient id="paint52_radial_34_437" cx="0" cy="0" r="1" gradientUnits="userSpaceOnUse" gradientTransform="translate(150.386 88.2608) rotate(128.008) scale(156.944 147.617)">
<stop stop-color="#E1F2FF" stop-opacity="0.3"/>
<stop offset="0.51" stop-color="#B9CEFF" stop-opacity="0.05"/>
<stop offset="1" stop-color="#FFF4F4" stop-opacity="0"/>
</radialGradient>
<radialGradient id="paint53_radial_34_437" cx="0" cy="0" r="1" gradientUnits="userSpaceOnUse" gradientTransform="translate(150.386 88.2608) rotate(128.008) scale(156.944 147.617)">
<stop stop-color="#E1F2FF" stop-opacity="0.3"/>
<stop offset="0.51" stop-color="#B9CEFF" stop-opacity="0.05"/>
<stop offset="1" stop-color="#FFF4F4" stop-opacity="0"/>
</radialGradient>
<radialGradient id="paint54_radial_34_437" cx="0" cy="0" r="1" gradientUnits="userSpaceOnUse" gradientTransform="translate(150.386 88.2608) rotate(128.008) scale(156.944 147.617)">
<stop stop-color="#E1F2FF" stop-opacity="0.3"/>
<stop offset="0.51" stop-color="#B9CEFF" stop-opacity="0.05"/>
<stop offset="1" stop-color="#FFF4F4" stop-opacity="0"/>
</radialGradient>
<radialGradient id="paint55_radial_34_437" cx="0" cy="0" r="1" gradientUnits="userSpaceOnUse" gradientTransform="translate(150.386 88.2608) rotate(128.008) scale(156.944 147.617)">
<stop stop-color="#E1F2FF" stop-opacity="0.3"/>
<stop offset="0.51" stop-color="#B9CEFF" stop-opacity="0.05"/>
<stop offset="1" stop-color="#FFF4F4" stop-opacity="0"/>
</radialGradient>
<radialGradient id="paint56_radial_34_437" cx="0" cy="0" r="1" gradientUnits="userSpaceOnUse" gradientTransform="translate(150.386 88.2608) rotate(128.008) scale(156.944 147.617)">
<stop stop-color="#E1F2FF" stop-opacity="0.3"/>
<stop offset="0.51" stop-color="#B9CEFF" stop-opacity="0.05"/>
<stop offset="1" stop-color="#FFF4F4" stop-opacity="0"/>
</radialGradient>
<radialGradient id="paint57_radial_34_437" cx="0" cy="0" r="1" gradientUnits="userSpaceOnUse" gradientTransform="translate(150.386 88.2608) rotate(128.008) scale(156.944 147.617)">
<stop stop-color="#E1F2FF" stop-opacity="0.3"/>
<stop offset="0.51" stop-color="#B9CEFF" stop-opacity="0.05"/>
<stop offset="1" stop-color="#FFF4F4" stop-opacity="0"/>
</radialGradient>
<radialGradient id="paint58_radial_34_437" cx="0" cy="0" r="1" gradientUnits="userSpaceOnUse" gradientTransform="translate(150.386 88.2608) rotate(128.008) scale(156.944 147.617)">
<stop stop-color="#E1F2FF" stop-opacity="0.3"/>
<stop offset="0.51" stop-color="#B9CEFF" stop-opacity="0.05"/>
<stop offset="1" stop-color="#FFF4F4" stop-opacity="0"/>
</radialGradient>
<radialGradient id="paint59_radial_34_437" cx="0" cy="0" r="1" gradientUnits="userSpaceOnUse" gradientTransform="translate(150.386 88.2608) rotate(128.008) scale(156.944 147.617)">
<stop stop-color="#E1F2FF" stop-opacity="0.3"/>
<stop offset="0.51" stop-color="#B9CEFF" stop-opacity="0.05"/>
<stop offset="1" stop-color="#FFF4F4" stop-opacity="0"/>
</radialGradient>
<radialGradient id="paint60_radial_34_437" cx="0" cy="0" r="1" gradientUnits="userSpaceOnUse" gradientTransform="translate(150.386 88.2608) rotate(128.008) scale(156.944 147.617)">
<stop stop-color="#E1F2FF" stop-opacity="0.3"/>
<stop offset="0.51" stop-color="#B9CEFF" stop-opacity="0.05"/>
<stop offset="1" stop-color="#FFF4F4" stop-opacity="0"/>
</radialGradient>
<radialGradient id="paint61_radial_34_437" cx="0" cy="0" r="1" gradientUnits="userSpaceOnUse" gradientTransform="translate(150.386 88.2608) rotate(128.008) scale(156.944 147.617)">
<stop stop-color="#E1F2FF" stop-opacity="0.3"/>
<stop offset="0.51" stop-color="#B9CEFF" stop-opacity="0.05"/>
<stop offset="1" stop-color="#FFF4F4" stop-opacity="0"/>
</radialGradient>
<radialGradient id="paint62_radial_34_437" cx="0" cy="0" r="1" gradientUnits="userSpaceOnUse" gradientTransform="translate(150.386 88.2608) rotate(128.008) scale(156.944 147.617)">
<stop stop-color="#E1F2FF" stop-opacity="0.3"/>
<stop offset="0.51" stop-color="#B9CEFF" stop-opacity="0.05"/>
<stop offset="1" stop-color="#FFF4F4" stop-opacity="0"/>
</radialGradient>
<radialGradient id="paint63_radial_34_437" cx="0" cy="0" r="1" gradientUnits="userSpaceOnUse" gradientTransform="translate(150.386 88.2608) rotate(128.008) scale(156.944 147.617)">
<stop stop-color="#E1F2FF" stop-opacity="0.3"/>
<stop offset="0.51" stop-color="#B9CEFF" stop-opacity="0.05"/>
<stop offset="1" stop-color="#FFF4F4" stop-opacity="0"/>
</radialGradient>
<radialGradient id="paint64_radial_34_437" cx="0" cy="0" r="1" gradientUnits="userSpaceOnUse" gradientTransform="translate(150.386 88.2608) rotate(128.008) scale(156.944 147.617)">
<stop stop-color="#E1F2FF" stop-opacity="0.3"/>
<stop offset="0.51" stop-color="#B9CEFF" stop-opacity="0.05"/>
<stop offset="1" stop-color="#FFF4F4" stop-opacity="0"/>
</radialGradient>
<radialGradient id="paint65_radial_34_437" cx="0" cy="0" r="1" gradientUnits="userSpaceOnUse" gradientTransform="translate(150.386 88.2608) rotate(128.008) scale(156.944 147.617)">
<stop stop-color="#E1F2FF" stop-opacity="0.3"/>
<stop offset="0.51" stop-color="#B9CEFF" stop-opacity="0.05"/>
<stop offset="1" stop-color="#FFF4F4" stop-opacity="0"/>
</radialGradient>
<radialGradient id="paint66_radial_34_437" cx="0" cy="0" r="1" gradientUnits="userSpaceOnUse" gradientTransform="translate(150.386 88.2608) rotate(128.008) scale(156.944 147.617)">
<stop stop-color="#E1F2FF" stop-opacity="0.3"/>
<stop offset="0.51" stop-color="#B9CEFF" stop-opacity="0.05"/>
<stop offset="1" stop-color="#FFF4F4" stop-opacity="0"/>
</radialGradient>
<radialGradient id="paint67_radial_34_437" cx="0" cy="0" r="1" gradientUnits="userSpaceOnUse" gradientTransform="translate(150.386 88.2608) rotate(128.008) scale(156.944 147.617)">
<stop stop-color="#E1F2FF" stop-opacity="0.3"/>
<stop offset="0.51" stop-color="#B9CEFF" stop-opacity="0.05"/>
<stop offset="1" stop-color="#FFF4F4" stop-opacity="0"/>
</radialGradient>
<radialGradient id="paint68_radial_34_437" cx="0" cy="0" r="1" gradientUnits="userSpaceOnUse" gradientTransform="translate(150.386 88.2608) rotate(128.008) scale(156.944 147.617)">
<stop stop-color="#E1F2FF" stop-opacity="0.3"/>
<stop offset="0.51" stop-color="#B9CEFF" stop-opacity="0.05"/>
<stop offset="1" stop-color="#FFF4F4" stop-opacity="0"/>
</radialGradient>
<radialGradient id="paint69_radial_34_437" cx="0" cy="0" r="1" gradientUnits="userSpaceOnUse" gradientTransform="translate(150.386 88.2608) rotate(128.008) scale(156.944 147.617)">
<stop stop-color="#E1F2FF" stop-opacity="0.3"/>
<stop offset="0.51" stop-color="#B9CEFF" stop-opacity="0.05"/>
<stop offset="1" stop-color="#FFF4F4" stop-opacity="0"/>
</radialGradient>
<radialGradient id="paint70_radial_34_437" cx="0" cy="0" r="1" gradientUnits="userSpaceOnUse" gradientTransform="translate(150.386 88.2608) rotate(128.008) scale(156.944 147.617)">
<stop stop-color="#E1F2FF" stop-opacity="0.3"/>
<stop offset="0.51" stop-color="#B9CEFF" stop-opacity="0.05"/>
<stop offset="1" stop-color="#FFF4F4" stop-opacity="0"/>
</radialGradient>
<radialGradient id="paint71_radial_34_437" cx="0" cy="0" r="1" gradientUnits="userSpaceOnUse" gradientTransform="translate(150.386 88.2608) rotate(128.008) scale(156.944 147.617)">
<stop stop-color="#E1F2FF" stop-opacity="0.3"/>
<stop offset="0.51" stop-color="#B9CEFF" stop-opacity="0.05"/>
<stop offset="1" stop-color="#FFF4F4" stop-opacity="0"/>
</radialGradient>
<radialGradient id="paint72_radial_34_437" cx="0" cy="0" r="1" gradientUnits="userSpaceOnUse" gradientTransform="translate(150.386 88.2608) rotate(128.008) scale(156.944 147.617)">
<stop stop-color="#E1F2FF" stop-opacity="0.3"/>
<stop offset="0.51" stop-color="#B9CEFF" stop-opacity="0.05"/>
<stop offset="1" stop-color="#FFF4F4" stop-opacity="0"/>
</radialGradient>
<radialGradient id="paint73_radial_34_437" cx="0" cy="0" r="1" gradientUnits="userSpaceOnUse" gradientTransform="translate(150.386 88.2608) rotate(128.008) scale(156.944 147.617)">
<stop stop-color="#E1F2FF" stop-opacity="0.3"/>
<stop offset="0.51" stop-color="#B9CEFF" stop-opacity="0.05"/>
<stop offset="1" stop-color="#FFF4F4" stop-opacity="0"/>
</radialGradient>
<radialGradient id="paint74_radial_34_437" cx="0" cy="0" r="1" gradientUnits="userSpaceOnUse" gradientTransform="translate(150.386 88.2608) rotate(128.008) scale(156.944 147.617)">
<stop stop-color="#E1F2FF" stop-opacity="0.3"/>
<stop offset="0.51" stop-color="#B9CEFF" stop-opacity="0.05"/>
<stop offset="1" stop-color="#FFF4F4" stop-opacity="0"/>
</radialGradient>
<radialGradient id="paint75_radial_34_437" cx="0" cy="0" r="1" gradientUnits="userSpaceOnUse" gradientTransform="translate(150.386 88.2608) rotate(128.008) scale(156.944 147.617)">
<stop stop-color="#E1F2FF" stop-opacity="0.3"/>
<stop offset="0.51" stop-color="#B9CEFF" stop-opacity="0.05"/>
<stop offset="1" stop-color="#FFF4F4" stop-opacity="0"/>
</radialGradient>
</defs>
</svg>
