<svg width="23" height="27" viewBox="0 0 23 27" fill="none" xmlns="http://www.w3.org/2000/svg">
<path d="M0.930603 8.42306V18.5768C0.930603 19.1993 1.29266 19.8217 1.81336 20.1308L10.6206 25.2077C11.1902 25.5169 11.8655 25.5169 12.435 25.2077L21.2422 20.1308C21.8118 19.8217 22.125 19.1993 22.125 18.5768V8.42306C22.125 7.80065 21.763 7.17824 21.2422 6.86907L12.4309 1.79218C11.8614 1.48301 11.1861 1.48301 10.6166 1.79218L1.8093 6.86907C1.23977 7.17824 0.930603 7.80065 0.930603 8.42306Z" fill="#213147"/>
<path d="M13.4682 15.4688L12.2234 18.89C12.1705 18.9917 12.1705 19.0975 12.2234 19.1992L14.3998 25.106L16.8853 23.6537L13.8791 15.4688C13.8302 15.2614 13.5699 15.2614 13.4682 15.4688Z" fill="#12AAFF"/>
<path d="M15.9544 9.66781C15.9015 9.46034 15.6452 9.46034 15.5394 9.66781L14.2946 13.089C14.2417 13.1907 14.2417 13.2965 14.2946 13.3982L17.8175 23.0882L20.3031 21.6359L15.9544 9.66781Z" fill="#12AAFF"/>
<path d="M11.4993 2.15423C11.5522 2.15423 11.601 2.15423 11.6539 2.20712L21.1853 7.69895C21.287 7.75183 21.3399 7.85354 21.3399 8.00812V18.9918C21.3399 19.0935 21.287 19.2521 21.1853 19.301L11.6539 24.7928C11.601 24.8457 11.5522 24.8457 11.4993 24.8457C11.4464 24.8457 11.3976 24.8457 11.3447 24.7928L1.81336 19.301C1.71166 19.2481 1.65878 19.1464 1.65878 18.9918V8.00812C1.65878 7.90642 1.71166 7.74777 1.81336 7.69895L11.3447 2.20712C11.3936 2.15423 11.4464 2.15423 11.4993 2.15423ZM11.4993 0.547363C11.1373 0.547363 10.824 0.649064 10.5149 0.807717L0.983485 6.29955C0.361078 6.6616 -0.000976562 7.28401 -0.000976562 8.00812V18.9918C-0.000976562 19.6671 0.361078 20.3383 0.983485 20.7004L10.5149 26.1922C10.824 26.3468 11.1373 26.4525 11.4993 26.4525C11.8614 26.4525 12.1746 26.3508 12.4838 26.1922L22.0152 20.7004C22.6376 20.3383 22.9996 19.7159 22.9996 18.9918V8.00812C22.9996 7.33283 22.6376 6.6616 22.0152 6.29955L12.5326 0.807717C12.2234 0.653132 11.9102 0.547363 11.5481 0.547363H11.4993Z" fill="#9DCCED"/>
<path d="M5.23059 23.0843L6.10928 20.7004L7.87074 22.1527L6.21505 23.7067L5.23059 23.0843Z" fill="#213147"/>
<path d="M10.7228 7.23145H8.28604C8.13145 7.23145 7.92398 7.33315 7.8711 7.4918L2.6925 21.6851L5.17807 23.1374L10.8774 7.54062C10.9303 7.38603 10.8245 7.23145 10.6699 7.23145H10.7228Z" fill="white"/>
<path d="M14.9175 7.23143H12.4807C12.3261 7.23143 12.1187 7.33313 12.0658 7.49179L6.16309 23.654L8.64865 25.1063L15.0721 7.49179C15.1249 7.3372 15.0192 7.18262 14.8646 7.18262L14.9175 7.23143Z" fill="white"/>
</svg>
