<svg width="25" height="24" viewBox="0 0 25 24" fill="none" xmlns="http://www.w3.org/2000/svg">
<g clip-path="url(#clip0_21_110)">
<path d="M19.8964 4.11719H5.08789V17.5853H19.8964V4.11719Z" fill="white"/>
<path fill-rule="evenodd" clip-rule="evenodd" d="M24.4837 11.9999C24.4837 18.6186 19.1183 23.984 12.4997 23.984C5.88106 23.984 0.515625 18.6186 0.515625 11.9999C0.515625 5.38131 5.88106 0.0158691 12.4997 0.0158691C19.1183 0.0158691 24.4837 5.38131 24.4837 11.9999ZM9.10373 16.769H6.77797C6.28925 16.769 6.04785 16.769 5.90066 16.6748C5.74167 16.5717 5.64452 16.401 5.63275 16.2125C5.62391 16.0389 5.74463 15.8269 5.98603 15.4029L11.7286 5.28079C11.973 4.85096 12.0966 4.63604 12.2527 4.55656C12.4205 4.47119 12.6207 4.47119 12.7885 4.55656C12.9445 4.63604 13.0682 4.85096 13.3125 5.28079L14.4931 7.3416L14.4991 7.35211C14.763 7.81324 14.8968 8.04708 14.9553 8.2925C15.02 8.56041 15.02 8.84303 14.9553 9.11094C14.8964 9.35824 14.7639 9.59377 14.496 10.0619L11.4796 15.3941L11.4718 15.4078C11.2061 15.8727 11.0715 16.1083 10.8849 16.2861C10.6817 16.4804 10.4374 16.6217 10.1695 16.7013C9.92511 16.769 9.65133 16.769 9.10373 16.769ZM14.9771 16.769H18.3096C18.8013 16.769 19.0486 16.769 19.1959 16.6719C19.3548 16.5688 19.4549 16.3951 19.4638 16.2068C19.4723 16.0387 19.3542 15.835 19.1228 15.4357C19.1148 15.4221 19.1068 15.4082 19.0987 15.3942L17.4294 12.5385L17.4104 12.5063C17.1758 12.1097 17.0574 11.9093 16.9054 11.8319C16.7376 11.7465 16.5403 11.7465 16.3725 11.8319C16.2194 11.9114 16.0958 12.1204 15.8514 12.5414L14.1881 15.3971L14.1824 15.4069C13.9389 15.8273 13.8172 16.0373 13.826 16.2096C13.8377 16.3981 13.9349 16.5717 14.0938 16.6748C14.2381 16.769 14.4854 16.769 14.9771 16.769Z" fill="#E84142"/>
</g>
<defs>
<clipPath id="clip0_21_110">
<rect width="23.984" height="24" fill="white" transform="translate(0.507812)"/>
</clipPath>
</defs>
</svg>
