<svg width="21" height="23" viewBox="0 0 21 23" fill="none" xmlns="http://www.w3.org/2000/svg">
<path d="M4.11755 3.54693L10.2474 0L16.3772 3.54693L14.0772 4.79385L10.2474 2.58816L6.31801 4.79385L4.11755 3.54693ZM16.2829 7.95308L14.0772 6.70615L10.2474 8.91185L6.31801 6.70615L4.11231 7.95308V10.5412L7.9474 12.7469V17.2526L10.1531 18.5939L12.3588 17.2526V12.8465L16.1939 10.6408V7.95832H16.2829V7.95308ZM16.2829 15.0469V12.4588L14.0772 13.8V16.2886L16.2829 15.0469ZM17.9123 15.9062L14.0825 18.1119V20.7L20.2176 17.1531V10.0645L17.9176 11.5L17.9123 15.9062ZM15.7066 5.75262L17.9123 7.09385V9.68201L20.118 8.34078V5.75262L17.9123 4.41139L15.7066 5.75262ZM7.9474 19.0706V21.6588L10.1531 23L12.3588 21.6588V19.0706L10.1531 20.4119L7.9474 19.0706ZM4.11231 15.0469L6.31801 16.2939V13.7057L4.11231 12.3645V15.0469ZM7.9474 5.75262L10.1531 7.09385L12.4531 5.75262L10.2474 4.41139L7.9474 5.75262ZM2.48817 7.09385L4.78817 5.75262L2.48817 4.41139L0.282471 5.75262V8.34078L2.48817 9.68201V7.09385ZM2.48817 11.5L0.282471 10.1588V17.2474L6.41755 20.7943V18.2062L2.58247 16.0005V11.4948L2.48817 11.5Z" fill="#F0B90B"/>
</svg>
