<svg width="21" height="21" viewBox="0 0 21 21" fill="none" xmlns="http://www.w3.org/2000/svg">
<path d="M10.5002 1.60437C10.9336 1.603 11.3588 1.72298 11.7276 1.95073C12.0963 2.17847 12.394 2.50489 12.5869 2.89305L19.1493 16.0178C19.3273 16.3736 19.4115 16.7689 19.3937 17.1663C19.376 17.5637 19.2569 17.95 19.0478 18.2885C18.8387 18.6269 18.5466 18.9062 18.1991 19.1C17.8516 19.2937 17.4604 19.3953 17.0626 19.3953H3.93782C3.54007 19.3952 3.14893 19.2935 2.80156 19.0997C2.45419 18.9059 2.16213 18.6266 1.95312 18.2882C1.74411 17.9497 1.62509 17.5635 1.60737 17.1662C1.58964 16.7688 1.67381 16.3735 1.85186 16.0178L8.41354 2.89305C8.60641 2.50489 8.90407 2.17847 9.27285 1.95073C9.64162 1.72298 10.0668 1.603 10.5002 1.60437ZM10.5002 1.94535e-08C9.7691 -7.26428e-05 9.05242 0.203411 8.43043 0.587656C7.80844 0.971902 7.30572 1.52173 6.97857 2.17556L0.416185 15.3003C0.115805 15.9007 -0.0261006 16.5678 0.00394698 17.2384C0.0339946 17.9091 0.234998 18.5609 0.587863 19.1319C0.940728 19.703 1.43374 20.1744 2.02006 20.5012C2.60637 20.8281 3.26653 20.9997 3.93782 20.9996H17.0626C17.7338 20.9996 18.3939 20.8279 18.9801 20.501C19.5663 20.1741 20.0593 19.7027 20.412 19.1316C20.7648 18.5606 20.9658 17.9088 20.9958 17.2383C21.0258 16.5677 20.8839 15.9006 20.5835 15.3003L14.0218 2.17556C13.6947 1.52173 13.192 0.971902 12.57 0.587656C11.948 0.203411 11.2313 -7.26428e-05 10.5002 1.94535e-08Z" fill="#95FF62"/>
</svg>
