<svg width="25" height="24" viewBox="0 0 25 24" fill="none" xmlns="http://www.w3.org/2000/svg">
<path d="M20.933 10.5442C20.933 9.81814 20.694 9.15785 20.281 8.63429L15.907 13.0061C16.4397 13.4193 17.101 13.6583 17.818 13.6583C19.546 13.6573 20.942 12.2618 20.933 10.5442Z" fill="white"/>
<path d="M7.92257 13.6482C6.20397 13.6573 4.80748 12.2608 4.80748 10.5341C4.80748 9.81814 5.04648 9.15684 5.45968 8.62416L9.83358 12.996C9.31008 13.4092 8.64877 13.6482 7.92257 13.6482Z" fill="white"/>
<path d="M4.54107 7.72387C3.89807 8.49555 3.51217 9.46875 3.51217 10.5523C3.51217 12.9859 5.48797 14.9606 7.92257 14.9606C8.99707 14.9606 9.98047 14.5748 10.7522 13.9317L12.8749 16.0533L14.9975 13.9317C15.7692 14.5748 16.7435 14.9606 17.8271 14.9606C20.262 14.9606 22.238 12.9859 22.238 10.5523C22.238 9.47787 21.852 8.49453 21.209 7.72387L23.147 5.78657C24.25 7.60437 24.884 9.72598 24.884 12.0046C24.884 18.6357 19.509 24 12.884 24C6.25968 24 0.884175 18.6266 0.884175 12.0046C0.865875 9.71788 1.49987 7.59627 2.60277 5.78657L4.54107 7.72387Z" fill="white"/>
<path fill-rule="evenodd" clip-rule="evenodd" d="M12.884 14.2173L22.404 4.70197C22.137 4.3617 21.853 4.03156 21.558 3.71965C19.372 1.43297 16.2928 0 12.8749 0C9.45687 0 6.37008 1.43297 4.19168 3.71965C3.88888 4.02245 3.60328 4.36272 3.36428 4.69286L12.884 14.2173ZM20.254 4.61994L12.8759 11.9954L5.49817 4.61994C7.45467 2.64517 10.0645 1.56158 12.8759 1.56158C15.6872 1.56158 18.2869 2.64517 20.254 4.61994Z" fill="white"/>
</svg>
