<svg width="20" height="24" viewBox="0 0 20 24" fill="none" xmlns="http://www.w3.org/2000/svg">
<path fill-rule="evenodd" clip-rule="evenodd" d="M8.66201 0.229898L2.71228 3.35778C2.35372 3.54628 2.16962 3.81435 2.14319 4.10147H2.14053V4.1415C2.13963 4.16336 2.13964 4.18531 2.14053 4.20733V19.7439C2.13952 19.7655 2.13959 19.7918 2.14053 19.8237C2.14957 20.1322 2.33205 20.4421 2.71228 20.642L8.66201 23.7699C9.2451 24.0764 10.1323 24.0764 10.7154 23.7699L16.665 20.642C17.0469 20.4412 17.2416 20.1336 17.249 19.8237L17.2492 19.8051V4.10147H17.2437C17.2091 3.81747 17.0162 3.54239 16.665 3.35778L10.7154 0.229898C10.1323 -0.0766328 9.2451 -0.0766328 8.66201 0.229898ZM3.07702 19.7929L8.66201 22.7134C8.99838 22.8923 9.34838 23.0665 9.68869 23.0676C10.002 23.0686 10.3068 22.9199 10.6148 22.7696L10.6743 22.7406L16.3128 19.7677V12.8728L10.7154 15.8155C10.1323 16.1221 9.2451 16.1221 8.66201 15.8155L3.07702 12.8794V19.7929ZM3.07702 10.8221L8.40188 8.02271L3.07702 5.22333V10.8221ZM16.3128 5.21676V10.8287L10.9754 8.02271L16.3128 5.21676ZM10.278 1.05414L16.2276 4.18203L16.2412 4.18936L16.2506 4.19468L16.2455 4.19759C16.2399 4.2008 16.2339 4.20405 16.2276 4.20733L10.278 7.33523C9.96857 7.4979 9.40873 7.4979 9.09935 7.33523L3.14965 4.20733L3.13609 4.2L3.12675 4.19468L3.13179 4.19177C3.13745 4.18856 3.14341 4.18531 3.14965 4.18203L9.09935 1.05414C9.40873 0.891484 9.96857 0.891484 10.278 1.05414ZM10.278 8.71019L16.2276 11.8381L16.2412 11.8454L16.2506 11.8507L16.2455 11.8536L16.2332 11.8605L16.2276 11.8634L10.278 14.9912C10.2409 15.0108 10.2003 15.0279 10.1569 15.0427V8.65877C10.2003 8.6736 10.2409 8.69074 10.278 8.71019ZM9.22043 8.65877C9.17706 8.6736 9.13638 8.69074 9.09935 8.71019L3.14965 11.8381C3.14341 11.8414 3.13745 11.8446 3.13179 11.8478L3.12675 11.8507L3.13609 11.8561L3.14965 11.8634L9.09935 14.9912C9.13638 15.0108 9.17706 15.0279 9.22043 15.0427V8.65877ZM17.1919 1.39715L16.7072 2.19474L17.0452 2.39773L17.1553 2.46482C17.2486 2.52231 17.3253 2.57125 17.3949 2.61795L17.413 2.63016C17.7301 2.84514 17.9037 3.02182 18.0195 3.25301C18.1592 3.53194 18.2295 3.92786 18.2295 4.53025H19.166L19.1659 4.48835C19.1592 3.1128 18.8221 2.45155 17.9183 1.84504C17.8338 1.78831 17.7431 1.73057 17.6337 1.66338L17.5702 1.62453L17.1919 1.39715ZM2.69505 21.8175L2.21035 22.6151L1.83211 22.3876L1.76853 22.3488C1.65916 22.2816 1.56852 22.2239 1.48396 22.1672C0.580154 21.5607 0.24308 20.8994 0.236429 19.5239L0.236328 19.4819H1.17282C1.17282 20.0844 1.24316 20.4803 1.38281 20.7592C1.49856 20.9904 1.67224 21.1671 1.98936 21.3821L2.00747 21.3943C2.07706 21.4409 2.15373 21.4899 2.24705 21.5474L2.35711 21.6145L2.69505 21.8175Z" fill="#1969FF"/>
</svg>
