<svg width="26" height="26" viewBox="0 0 26 26" fill="none" xmlns="http://www.w3.org/2000/svg">
<g clip-path="url(#clip0_21_77)">
<path d="M13 26C20.1797 26 26 20.1797 26 13C26 5.8203 20.1797 0 13 0C5.8203 0 0 5.8203 0 13C0 20.1797 5.8203 26 13 26Z" fill="#FF0420"/>
<path d="M13.4941 16.64C13.4161 16.64 13.3641 16.614 13.3381 16.562C13.2861 16.51 13.2861 16.458 13.2861 16.38L14.6381 9.958C14.6641 9.88 14.6901 9.828 14.7421 9.776C14.7941 9.724 14.8721 9.698 14.9241 9.698H17.5501C17.9401 9.698 18.3041 9.75 18.6421 9.828C18.9801 9.932 19.2401 10.062 19.4741 10.244C19.6821 10.426 19.8381 10.686 19.9161 10.972C19.9941 11.258 19.9941 11.596 19.9161 11.96C19.7601 12.714 19.4221 13.286 18.9021 13.65C18.4081 14.014 17.7321 14.196 16.8741 14.196H15.5481L15.1061 16.354C15.0801 16.432 15.0541 16.484 15.0021 16.536C14.9501 16.588 14.8981 16.614 14.8201 16.614H13.4941V16.64ZM15.8341 12.87H16.9781C17.2381 12.87 17.4981 12.792 17.7061 12.662C17.9141 12.506 18.0701 12.298 18.1221 12.012C18.1481 11.83 18.1741 11.7 18.1481 11.57C18.1221 11.44 18.0701 11.336 17.9401 11.258C17.8361 11.18 17.6541 11.128 17.4201 11.128H16.2241L15.8341 12.87Z" fill="white"/>
<path d="M9.25598 16.744C8.83998 16.744 8.44998 16.692 8.11198 16.588C7.74798 16.484 7.46198 16.302 7.20198 16.094C6.96798 15.86 6.78598 15.6 6.68198 15.262C6.57798 14.924 6.57798 14.534 6.62998 14.092C6.68198 13.806 6.73398 13.52 6.78598 13.234C6.86398 12.948 6.91598 12.662 6.99398 12.376C7.20198 11.492 7.59198 10.816 8.16398 10.348C8.73598 9.88 9.48998 9.646 10.452 9.646C10.868 9.646 11.258 9.698 11.596 9.828C11.96 9.932 12.246 10.114 12.506 10.348C12.766 10.582 12.922 10.868 13.026 11.206C13.13 11.544 13.156 11.934 13.078 12.376C13.026 12.662 12.974 12.948 12.922 13.234C12.87 13.494 12.792 13.78 12.74 14.04C12.506 14.95 12.116 15.626 11.544 16.068C10.972 16.51 10.218 16.744 9.25598 16.744ZM9.38598 15.314C9.74998 15.314 10.062 15.21 10.322 15.002C10.582 14.794 10.79 14.456 10.894 13.988C10.972 13.702 11.024 13.416 11.076 13.156C11.128 12.896 11.18 12.636 11.232 12.35C11.31 11.882 11.284 11.544 11.102 11.336C10.946 11.128 10.686 11.024 10.322 11.024C9.95798 11.024 9.64598 11.128 9.38598 11.336C9.12598 11.544 8.94398 11.882 8.81398 12.35C8.73598 12.636 8.68398 12.896 8.60598 13.156C8.55398 13.416 8.50198 13.676 8.44998 13.988C8.37198 14.456 8.39798 14.794 8.57998 15.002C8.76198 15.21 9.02198 15.314 9.38598 15.314Z" fill="white"/>
</g>
<defs>
<clipPath id="clip0_21_77">
<rect width="26" height="26" fill="white"/>
</clipPath>
</defs>
</svg>
