<svg width="21" height="16" viewBox="0 0 21 16" fill="none" xmlns="http://www.w3.org/2000/svg">
<g clip-path="url(#clip0_21_59)">
<path d="M4.08788 11.9829C4.20877 11.862 4.37499 11.7915 4.55128 11.7915H20.5385C20.8307 11.7915 20.9767 12.1441 20.7702 12.3506L17.6121 15.5088C17.4912 15.6296 17.325 15.7002 17.1487 15.7002H1.16142C0.869282 15.7002 0.723211 15.3476 0.929725 15.1411L4.08788 11.9829Z" fill="url(#paint0_linear_21_59)"/>
<path d="M4.08886 0.191404C4.21478 0.0705171 4.381 0 4.55226 0H20.5395C20.8316 0 20.9777 0.352586 20.7712 0.5591L17.613 3.71726C17.4921 3.83815 17.3259 3.90866 17.1496 3.90866H1.1624C0.870258 3.90866 0.724187 3.55608 0.930702 3.34956L4.08886 0.191404Z" fill="url(#paint1_linear_21_59)"/>
<path d="M17.6121 6.04931C17.4912 5.92843 17.325 5.85791 17.1487 5.85791H1.16142C0.869282 5.85791 0.723211 6.2105 0.929725 6.41701L4.08788 9.57517C4.20877 9.69606 4.37499 9.76657 4.55128 9.76657H20.5385C20.8307 9.76657 20.9767 9.41399 20.7702 9.20747L17.6121 6.04931Z" fill="url(#paint2_linear_21_59)"/>
</g>
<defs>
<linearGradient id="paint0_linear_21_59" x1="19.0113" y1="-1.88656" x2="7.94683" y2="19.3063" gradientUnits="userSpaceOnUse">
<stop stop-color="#00FFA3"/>
<stop offset="1" stop-color="#DC1FFF"/>
</linearGradient>
<linearGradient id="paint1_linear_21_59" x1="14.1743" y1="-4.41243" x2="3.10983" y2="16.7804" gradientUnits="userSpaceOnUse">
<stop stop-color="#00FFA3"/>
<stop offset="1" stop-color="#DC1FFF"/>
</linearGradient>
<linearGradient id="paint2_linear_21_59" x1="16.5769" y1="-3.1576" x2="5.51244" y2="18.0353" gradientUnits="userSpaceOnUse">
<stop stop-color="#00FFA3"/>
<stop offset="1" stop-color="#DC1FFF"/>
</linearGradient>
<clipPath id="clip0_21_59">
<rect width="20.0319" height="15.7001" fill="white" transform="translate(0.834961)"/>
</clipPath>
</defs>
</svg>
