<svg width="24" height="24" viewBox="0 0 24 24" fill="none" xmlns="http://www.w3.org/2000/svg">
<path d="M13.9565 14.3286L13.9586 14.3271C13.9586 14.3271 13.9565 14.3286 13.9551 14.3293C13.9558 14.3293 13.9565 14.3293 13.9572 14.3293L13.9565 14.3286Z" fill="#F5F5F5"/>
<path d="M13.9545 14.3293C10.3304 15.4179 7.33337 17.0058 5.45589 18.8655L5.37305 18.9483C5.87242 19.4206 6.41979 19.8433 7.01129 20.2026L7.13826 20.0469C7.6508 19.4206 8.20049 18.8159 8.77264 18.2461C10.3079 16.7163 12.0638 15.3923 13.9545 14.3293Z" fill="#F5F5F5"/>
<path d="M14.3732 12.7158H2.40918C2.55396 14.6568 3.27476 16.4367 4.40589 17.8845L4.45776 17.8326C5.61986 16.686 7.13269 15.6439 8.95752 14.7358C10.5571 13.9391 12.3935 13.2555 14.3732 12.7158Z" fill="#F5F5F5"/>
<path d="M9.78697 4.73829C13.0302 7.96987 17.1118 10.1067 21.5892 10.9173C21.0495 6.12646 16.9717 2.40015 12.0167 2.40015C10.7083 2.40015 9.46102 2.66106 8.32214 3.13178C8.78435 3.68845 9.2783 4.2304 9.78697 4.73906V4.73829Z" fill="#F5F5F5"/>
<path d="M5.45621 5.13391C7.33369 6.99668 10.3322 8.58228 13.9571 9.67315C12.0649 8.60783 10.3075 7.28469 8.77142 5.75406C8.20082 5.18578 7.6519 4.58112 7.13704 3.95323L7.01007 3.79761C6.41857 4.15684 5.87119 4.57879 5.37415 5.05107L5.45699 5.13391H5.45621Z" fill="#F5F5F5"/>
<path d="M9.78697 19.2609C9.27598 19.7696 8.7828 20.3115 8.32214 20.8682C9.45947 21.3389 10.7083 21.5998 12.0167 21.5998C16.9717 21.5998 21.0495 17.8727 21.5907 13.0803C17.1142 13.8909 13.0325 16.0278 9.78851 19.2594L9.78697 19.2609Z" fill="#F5F5F5"/>
<path d="M8.9552 9.26117V9.26272C7.13191 8.35456 5.61986 7.31169 4.45776 6.16662L4.40589 6.11475C3.27476 7.56253 2.55396 9.34246 2.40918 11.2834H14.3709C12.392 10.7438 10.5571 10.0602 8.9552 9.26117Z" fill="#F5F5F5"/>
</svg>
