<svg width="23" height="27" viewBox="0 0 23 27" fill="none" xmlns="http://www.w3.org/2000/svg">
<path d="M0.931152 8.42312V18.5769C0.931152 19.1993 1.29321 19.8217 1.81391 20.1309L10.6212 25.2078C11.1907 25.517 11.866 25.517 12.4355 25.2078L21.2428 20.1309C21.8123 19.8217 22.1256 19.1993 22.1256 18.5769V8.42312C22.1256 7.80071 21.7635 7.17831 21.2428 6.86914L12.4315 1.79224C11.8619 1.48307 11.1866 1.48307 10.6171 1.79224L1.80985 6.86914C1.24032 7.17831 0.931152 7.80071 0.931152 8.42312Z" fill="#213147"/>
<path d="M13.4686 15.4689L12.2237 18.8901C12.1709 18.9918 12.1709 19.0976 12.2237 19.1993L14.4001 25.106L16.8857 23.6538L13.8794 15.4689C13.8306 15.2614 13.5703 15.2614 13.4686 15.4689Z" fill="#12AAFF"/>
<path d="M15.9543 9.66787C15.9014 9.4604 15.6451 9.4604 15.5394 9.66787L14.2945 13.0891C14.2417 13.1908 14.2417 13.2965 14.2945 13.3982L17.8175 23.0883L20.303 21.636L15.9543 9.66787Z" fill="#12AAFF"/>
<path d="M11.4998 2.15429C11.5527 2.15429 11.6015 2.15429 11.6544 2.20718L21.1858 7.69901C21.2875 7.75189 21.3404 7.8536 21.3404 8.00818V18.9918C21.3404 19.0935 21.2875 19.2522 21.1858 19.301L11.6544 24.7929C11.6015 24.8457 11.5527 24.8457 11.4998 24.8457C11.4469 24.8457 11.3981 24.8457 11.3452 24.7929L1.81385 19.301C1.71215 19.2481 1.65927 19.1464 1.65927 18.9918V8.00818C1.65927 7.90648 1.71215 7.74783 1.81385 7.69901L11.3452 2.20718C11.394 2.15429 11.4469 2.15429 11.4998 2.15429ZM11.4998 0.547424C11.1378 0.547424 10.8245 0.649125 10.5154 0.807778L0.983974 6.29961C0.361566 6.66166 -0.000488281 7.28407 -0.000488281 8.00818V18.9918C-0.000488281 19.6671 0.361566 20.3384 0.983974 20.7004L10.5154 26.1923C10.8245 26.3468 11.1378 26.4526 11.4998 26.4526C11.8619 26.4526 12.1751 26.3509 12.4843 26.1923L22.0157 20.7004C22.6381 20.3384 23.0001 19.716 23.0001 18.9918V8.00818C23.0001 7.33289 22.6381 6.66166 22.0157 6.29961L12.5331 0.807778C12.2239 0.653193 11.9107 0.547424 11.5486 0.547424H11.4998Z" fill="#9DCCED"/>
<path d="M5.23096 23.0842L6.10965 20.7004L7.8711 22.1527L6.21542 23.7066L5.23096 23.0842Z" fill="#213147"/>
<path d="M10.7227 7.2312H8.28592C8.13133 7.2312 7.92386 7.3329 7.87098 7.49156L2.69238 21.6849L5.17795 23.1372L10.8772 7.54037C10.9301 7.38579 10.8244 7.2312 10.6698 7.2312H10.7227Z" fill="white"/>
<path d="M14.917 7.23113H12.4802C12.3257 7.23113 12.1182 7.33283 12.0653 7.49148L6.1626 23.6537L8.64816 25.106L15.0716 7.49148C15.1245 7.3369 15.0187 7.18231 14.8641 7.18231L14.917 7.23113Z" fill="white"/>
</svg>
