<svg width="25" height="24" viewBox="0 0 25 24" fill="none" xmlns="http://www.w3.org/2000/svg">
<g clip-path="url(#clip0_213_224)">
<path d="M19.8964 4.117H5.08789V17.5851H19.8964V4.117Z" fill="white"/>
<path fill-rule="evenodd" clip-rule="evenodd" d="M24.4842 12C24.4842 18.6187 19.1188 23.9841 12.5002 23.9841C5.88155 23.9841 0.516113 18.6187 0.516113 12C0.516113 5.38143 5.88155 0.0159912 12.5002 0.0159912C19.1188 0.0159912 24.4842 5.38143 24.4842 12ZM9.10422 16.7691H6.77845C6.28974 16.7691 6.04834 16.7691 5.90115 16.6749C5.74216 16.5718 5.64501 16.4011 5.63324 16.2126C5.6244 16.039 5.74511 15.827 5.98652 15.403L11.7291 5.28091C11.9735 4.85108 12.0971 4.63617 12.2531 4.55668C12.421 4.47131 12.6212 4.47131 12.789 4.55668C12.945 4.63617 13.0687 4.85108 13.313 5.28091L14.4936 7.34172L14.4996 7.35224C14.7635 7.81336 14.8973 8.0472 14.9558 8.29262C15.0205 8.56053 15.0205 8.84316 14.9558 9.11107C14.8969 9.35836 14.7644 9.59389 14.4965 10.062L11.48 15.3942L11.4722 15.4079C11.2066 15.8728 11.0719 16.1084 10.8854 16.2862C10.6822 16.4806 10.4379 16.6218 10.17 16.7014C9.9256 16.7691 9.65182 16.7691 9.10422 16.7691ZM14.9775 16.7691H18.3101C18.8018 16.7691 19.0491 16.7691 19.1964 16.6721C19.3553 16.569 19.4554 16.3952 19.4643 16.2069C19.4728 16.0389 19.3547 15.8351 19.1233 15.4358C19.1153 15.4222 19.1073 15.4084 19.0992 15.3943L17.4299 12.5386L17.4109 12.5064C17.1763 12.1098 17.0579 11.9095 16.9058 11.832C16.7381 11.7466 16.5407 11.7466 16.373 11.832C16.2199 11.9115 16.0963 12.1205 15.8519 12.5415L14.1885 15.3972L14.1829 15.4071C13.9394 15.8274 13.8177 16.0374 13.8264 16.2098C13.8382 16.3982 13.9354 16.5718 14.0943 16.6749C14.2386 16.7691 14.4859 16.7691 14.9775 16.7691Z" fill="#E84142"/>
</g>
<defs>
<clipPath id="clip0_213_224">
<rect width="23.984" height="24" fill="white" transform="translate(0.508301)"/>
</clipPath>
</defs>
</svg>
