<svg width="20" height="24" viewBox="0 0 20 24" fill="none" xmlns="http://www.w3.org/2000/svg">
<path fill-rule="evenodd" clip-rule="evenodd" d="M8.6625 0.229898L2.71277 3.35778C2.35421 3.54628 2.1701 3.81435 2.14368 4.10147H2.14102V4.1415C2.14012 4.16336 2.14013 4.18531 2.14102 4.20733V19.7439C2.14001 19.7655 2.14008 19.7918 2.14102 19.8237C2.15006 20.1322 2.33254 20.4421 2.71277 20.642L8.6625 23.7699C9.24559 24.0764 10.1328 24.0764 10.7158 23.7699L16.6655 20.642C17.0474 20.4412 17.2421 20.1336 17.2495 19.8237L17.2497 19.8051V4.10147H17.2441C17.2096 3.81747 17.0167 3.54239 16.6655 3.35778L10.7158 0.229898C10.1328 -0.0766328 9.24559 -0.0766328 8.6625 0.229898ZM3.07751 19.7929L8.6625 22.7134C8.99886 22.8923 9.34886 23.0665 9.68918 23.0676C10.0025 23.0686 10.3073 22.9199 10.6153 22.7696L10.6748 22.7406L16.3133 19.7677V12.8728L10.7158 15.8155C10.1328 16.1221 9.24559 16.1221 8.6625 15.8155L3.07751 12.8794V19.7929ZM3.07751 10.8221L8.40237 8.02271L3.07751 5.22333V10.8221ZM16.3133 5.21676V10.8287L10.9759 8.02271L16.3133 5.21676ZM10.2784 1.05414L16.2281 4.18203L16.2417 4.18936L16.2511 4.19468L16.246 4.19759C16.2404 4.2008 16.2344 4.20405 16.2281 4.20733L10.2784 7.33523C9.96906 7.4979 9.40922 7.4979 9.09983 7.33523L3.15014 4.20733L3.13658 4.2L3.12724 4.19468L3.13228 4.19177C3.13794 4.18856 3.1439 4.18531 3.15014 4.18203L9.09983 1.05414C9.40922 0.891484 9.96906 0.891484 10.2784 1.05414ZM10.2784 8.71019L16.2281 11.8381L16.2417 11.8454L16.2511 11.8507L16.246 11.8536L16.2336 11.8605L16.2281 11.8634L10.2784 14.9912C10.2414 15.0108 10.2008 15.0279 10.1574 15.0427V8.65877C10.2008 8.6736 10.2414 8.69074 10.2784 8.71019ZM9.22092 8.65877C9.17755 8.6736 9.13687 8.69074 9.09983 8.71019L3.15014 11.8381C3.1439 11.8414 3.13794 11.8446 3.13228 11.8478L3.12724 11.8507L3.13658 11.8561L3.15014 11.8634L9.09983 14.9912C9.13687 15.0108 9.17755 15.0279 9.22092 15.0427V8.65877ZM17.1924 1.39715L16.7077 2.19474L17.0457 2.39773L17.1558 2.46482C17.2491 2.52231 17.3257 2.57125 17.3953 2.61795L17.4134 2.63016C17.7306 2.84514 17.9042 3.02182 18.02 3.25301C18.1596 3.53194 18.23 3.92786 18.23 4.53025H19.1665L19.1663 4.48835C19.1597 3.1128 18.8226 2.45155 17.9188 1.84504C17.8343 1.78831 17.7436 1.73057 17.6342 1.66338L17.5707 1.62453L17.1924 1.39715ZM2.69554 21.8175L2.21083 22.6151L1.83259 22.3876L1.76902 22.3488C1.65965 22.2816 1.569 22.2239 1.48445 22.1672C0.580643 21.5607 0.243568 20.8994 0.236917 19.5239L0.236816 19.4819H1.17331C1.17331 20.0844 1.24365 20.4803 1.3833 20.7592C1.49905 20.9904 1.67273 21.1671 1.98985 21.3821L2.00796 21.3943C2.07755 21.4409 2.15422 21.4899 2.24754 21.5474L2.35759 21.6145L2.69554 21.8175Z" fill="#1969FF"/>
</svg>
