<svg width="18" height="26" viewBox="0 0 18 26" fill="none" xmlns="http://www.w3.org/2000/svg">
<path d="M9.20054 6.42643C9.20054 5.39485 10.0486 4.55446 11.0897 4.55446H14.4699V0H11.0897C7.50827 0 4.60428 2.87766 4.60428 6.42643C4.60428 7.35245 4.80329 8.23268 5.15898 9.02727C2.37769 10.1923 0.530682 12.6676 0.100626 15.8002C-0.40185 19.2395 0.98889 22.9495 4.01753 24.7419C6.72058 26.4286 10.947 26.317 13.2299 23.9771V25.5305H17.9347V8.29838H11.0916C10.0506 8.29838 9.20248 7.458 9.20248 6.42643H9.20054ZM13.3343 12.8548V17.1803C13.3343 19.5701 11.379 21.5058 8.9693 21.5058C6.55982 21.5058 4.60428 19.568 4.60428 17.1803C4.60428 14.7925 6.55982 12.8548 8.9693 12.8548H13.3343Z" fill="#BFF009"/>
</svg>
