<svg width="26" height="26" viewBox="0 0 26 26" fill="none" xmlns="http://www.w3.org/2000/svg">
<g clip-path="url(#clip0_213_197)">
<path d="M13 26C20.1797 26 26 20.1797 26 13C26 5.8203 20.1797 0 13 0C5.8203 0 0 5.8203 0 13C0 20.1797 5.8203 26 13 26Z" fill="#FF0420"/>
<path d="M13.4941 16.64C13.4161 16.64 13.3641 16.614 13.3381 16.562C13.2861 16.51 13.2861 16.458 13.2861 16.38L14.6381 9.958C14.6641 9.88 14.6901 9.828 14.7421 9.776C14.7941 9.724 14.8721 9.698 14.9241 9.698H17.5501C17.9401 9.698 18.3041 9.75 18.6421 9.828C18.9801 9.932 19.2401 10.062 19.4741 10.244C19.6821 10.426 19.8381 10.686 19.9161 10.972C19.9941 11.258 19.9941 11.596 19.9161 11.96C19.7601 12.714 19.4221 13.286 18.9021 13.65C18.4081 14.014 17.7321 14.196 16.8741 14.196H15.5481L15.1061 16.354C15.0801 16.432 15.0541 16.484 15.0021 16.536C14.9501 16.588 14.8981 16.614 14.8201 16.614H13.4941V16.64ZM15.8341 12.87H16.9781C17.2381 12.87 17.4981 12.792 17.7061 12.662C17.9141 12.506 18.0701 12.298 18.1221 12.012C18.1481 11.83 18.1741 11.7 18.1481 11.57C18.1221 11.44 18.0701 11.336 17.9401 11.258C17.8361 11.18 17.6541 11.128 17.4201 11.128H16.2241L15.8341 12.87Z" fill="white"/>
<path d="M9.25586 16.744C8.83986 16.744 8.44986 16.692 8.11186 16.588C7.74786 16.484 7.46186 16.302 7.20186 16.094C6.96786 15.86 6.78586 15.6 6.68186 15.262C6.57786 14.924 6.57786 14.534 6.62986 14.092C6.68186 13.806 6.73386 13.52 6.78586 13.234C6.86386 12.948 6.91586 12.662 6.99386 12.376C7.20186 11.492 7.59186 10.816 8.16386 10.348C8.73586 9.88 9.48986 9.646 10.4519 9.646C10.8679 9.646 11.2579 9.698 11.5959 9.828C11.9599 9.932 12.2459 10.114 12.5059 10.348C12.7659 10.582 12.9219 10.868 13.0259 11.206C13.1299 11.544 13.1559 11.934 13.0779 12.376C13.0259 12.662 12.9739 12.948 12.9219 13.234C12.8699 13.494 12.7919 13.78 12.7399 14.04C12.5059 14.95 12.1159 15.626 11.5439 16.068C10.9719 16.51 10.2179 16.744 9.25586 16.744ZM9.38586 15.314C9.74986 15.314 10.0619 15.21 10.3219 15.002C10.5819 14.794 10.7899 14.456 10.8939 13.988C10.9719 13.702 11.0239 13.416 11.0759 13.156C11.1279 12.896 11.1799 12.636 11.2319 12.35C11.3099 11.882 11.2839 11.544 11.1019 11.336C10.9459 11.128 10.6859 11.024 10.3219 11.024C9.95786 11.024 9.64586 11.128 9.38586 11.336C9.12586 11.544 8.94386 11.882 8.81386 12.35C8.73586 12.636 8.68386 12.896 8.60586 13.156C8.55386 13.416 8.50186 13.676 8.44986 13.988C8.37186 14.456 8.39786 14.794 8.57986 15.002C8.76186 15.21 9.02186 15.314 9.38586 15.314Z" fill="white"/>
</g>
<defs>
<clipPath id="clip0_213_197">
<rect width="26" height="26" fill="white"/>
</clipPath>
</defs>
</svg>
