<svg width="27" height="24" viewBox="0 0 27 24" fill="none" xmlns="http://www.w3.org/2000/svg">
<path d="M19.5335 16.3738L25.7739 12.7786C26.1048 12.5877 26.3092 12.2335 26.3092 11.8534V4.66298C26.3092 4.28287 26.1048 3.92873 25.7739 3.73775L19.5335 0.142536C19.2027 -0.0484385 18.792 -0.0465832 18.4631 0.142536L12.2226 3.73775C11.8919 3.92873 11.6874 4.28287 11.6874 4.66298V17.5123L7.31089 20.0321L2.93439 17.5123V12.4709L7.31089 9.95108L10.197 11.6142V8.23221L7.84607 6.87684C7.68438 6.78414 7.49864 6.73407 7.31089 6.73407C7.12315 6.73407 6.9374 6.78414 6.77572 6.87684L0.535221 10.472C0.204427 10.663 0 11.0172 0 11.3973V18.5877C0 18.9678 0.204427 19.3219 0.535221 19.5129L6.77572 23.1082C7.10645 23.2973 7.51534 23.2973 7.84607 23.1082L14.0866 19.5129C14.4174 19.3219 14.6217 18.9678 14.6217 18.5877V5.73654L14.6998 5.69203L18.9965 3.21673L23.373 5.73654V10.778L18.9965 13.2978L16.114 11.6383V15.0204L18.4612 16.372C18.792 16.5611 19.2027 16.5611 19.5316 16.372L19.5335 16.3738Z" fill="url(#paint0_linear_213_194)"/>
<defs>
<linearGradient id="paint0_linear_213_194" x1="-0.0854876" y1="19.2923" x2="25.1502" y2="4.61121" gradientUnits="userSpaceOnUse">
<stop stop-color="#A726C1"/>
<stop offset="0.88" stop-color="#803BDF"/>
<stop offset="1" stop-color="#7B3FE4"/>
</linearGradient>
</defs>
</svg>
