<svg width="64" height="64" viewBox="0 0 64 64" fill="none" xmlns="http://www.w3.org/2000/svg">
<circle cx="32" cy="32" r="31.5" fill="url(#paint0_linear_137_17)" stroke="url(#paint1_linear_137_17)"/>
<path d="M33.956 34.3283L33.9581 34.3269C33.9581 34.3269 33.956 34.3283 33.9546 34.329C33.9553 34.329 33.956 34.329 33.9567 34.329L33.956 34.3283Z" fill="#F5F5F5"/>
<path d="M33.9545 34.3292C30.3304 35.4178 27.3334 37.0057 25.4559 38.8654L25.373 38.9482C25.8724 39.4205 26.4198 39.8432 27.0113 40.2024L27.1383 40.0468C27.6508 39.4205 28.2005 38.8158 28.7726 38.246C30.3079 36.7161 32.0638 35.3922 33.9545 34.3292Z" fill="#F5F5F5"/>
<path d="M34.3737 32.7158H22.4097C22.5544 34.6567 23.2752 36.4367 24.4064 37.8844L24.4583 37.8326C25.6204 36.686 27.1332 35.6439 28.958 34.7357C30.5575 33.939 32.394 33.2554 34.3737 32.7158Z" fill="#F5F5F5"/>
<path d="M29.7871 24.7382C33.0303 27.9698 37.112 30.1066 41.5893 30.9172C41.0496 26.1263 36.9718 22.4 32.0168 22.4C30.7084 22.4 29.4611 22.6609 28.3223 23.1317C28.7845 23.6883 29.2784 24.2303 29.7871 24.7389V24.7382Z" fill="#F5F5F5"/>
<path d="M25.4561 25.1338C27.3336 26.9966 30.3321 28.5822 33.957 29.6731C32.0648 28.6078 30.3073 27.2846 28.7713 25.754C28.2007 25.1857 27.6518 24.5811 27.1369 23.9532L27.0099 23.7975C26.4184 24.1568 25.8711 24.5787 25.374 25.051L25.4569 25.1338H25.4561Z" fill="#F5F5F5"/>
<path d="M29.7871 39.261C29.2761 39.7697 28.7829 40.3116 28.3223 40.8683C29.4596 41.339 30.7084 41.5999 32.0168 41.5999C36.9718 41.5999 41.0496 37.8729 41.5908 33.0804C37.1143 33.8911 33.0326 36.0279 29.7886 39.2595L29.7871 39.261Z" fill="#F5F5F5"/>
<path d="M28.9557 29.2612V29.2628C27.1324 28.3546 25.6204 27.3117 24.4583 26.1667L24.4064 26.1148C23.2752 27.5626 22.5544 29.3425 22.4097 31.2835H34.3713C32.3924 30.7439 30.5575 30.0602 28.9557 29.2612Z" fill="#F5F5F5"/>
<defs>
<linearGradient id="paint0_linear_137_17" x1="64" y1="32" x2="3.78947" y2="32" gradientUnits="userSpaceOnUse">
<stop stop-color="#090A0E"/>
<stop offset="1" stop-color="#212329"/>
</linearGradient>
<linearGradient id="paint1_linear_137_17" x1="31.04" y1="9.84616" x2="19.2082" y2="13.4386" gradientUnits="userSpaceOnUse">
<stop stop-color="#262932"/>
<stop offset="1" stop-color="#27282E"/>
</linearGradient>
</defs>
</svg>
