<svg width="94" height="45" viewBox="0 0 94 45" fill="none" xmlns="http://www.w3.org/2000/svg">
<path d="M49.2754 33.0536V11.3237C49.2754 11.1807 49.3911 11.0648 49.5339 11.0648H53.9807C54.1235 11.0648 54.2392 11.1807 54.2392 11.3237V33.0536C54.2392 33.1966 54.1235 33.3126 53.9807 33.3126H49.5339C49.3911 33.3126 49.2754 33.1966 49.2754 33.0536Z" fill="#F9F7F5"/>
<path d="M73.0191 11.3237V33.0536C73.0191 33.1966 73.1349 33.3126 73.2776 33.3126H77.7244C77.8672 33.3126 77.9829 33.1966 77.9829 33.0536V11.3237C77.9829 11.1807 77.8672 11.0648 77.7244 11.0648H73.2776C73.1349 11.0648 73.0191 11.1807 73.0191 11.3237Z" fill="#F9F7F5"/>
<path d="M57.9256 39.6505C57.8446 39.8221 57.9697 40.0197 58.1593 40.0197H62.5728C62.6758 40.0197 62.769 39.9585 62.81 39.8639L71.6358 19.4977C71.7099 19.3269 71.5847 19.1361 71.3987 19.1361H66.6609C66.5485 19.1361 66.449 19.2088 66.4147 19.3159L64.0485 26.7119C63.9728 26.9487 63.6394 26.9526 63.558 26.7177L60.9927 19.3101C60.9567 19.2059 60.8586 19.1361 60.7485 19.1361H55.8692C55.683 19.1361 55.5579 19.327 55.6321 19.4979L60.9597 31.7695C61.1461 32.1988 61.1868 32.6558 61.003 33.0863C60.7783 33.6124 60.4699 34.2634 60.423 34.3624L57.9256 39.6505Z" fill="#F9F7F5"/>
<path fill-rule="evenodd" clip-rule="evenodd" d="M94.0004 26.4313C94.0004 30.4603 90.7595 33.7265 86.7616 33.7265C82.7638 33.7265 79.5229 30.4603 79.5229 26.4313C79.5229 22.4023 82.7638 19.1361 86.7616 19.1361C90.7595 19.1361 94.0004 22.4023 94.0004 26.4313ZM89.8122 26.4313C89.8122 28.1739 88.4184 29.5356 86.7616 29.5356C85.1049 29.5356 83.711 28.1739 83.711 26.4313C83.711 24.6886 85.1049 23.327 86.7616 23.327C88.4184 23.327 89.8122 24.6886 89.8122 26.4313Z" fill="#F9F7F5"/>
<path d="M5.45852 27.9783C6.40924 27.4285 7.33637 26.969 8.25621 26.6459C10.1359 25.9856 11.7485 25.9762 13.3517 26.9188C15.1375 28.3325 16.3205 29.939 17.7098 31.8256L17.7294 31.8522C19.1287 33.7524 20.7373 35.9294 23.2834 37.8068L23.3387 37.8476L23.3962 37.8853C24.901 38.871 26.6351 39.5753 28.5903 39.6874C30.5569 39.8002 32.5601 39.3027 34.5726 38.1782C37.8329 36.3564 39.2989 33.5447 39.9345 31.2976C40.2505 30.1802 40.3707 29.1779 40.4128 28.4504C40.434 28.0843 40.4358 27.7811 40.4315 27.5594C40.4294 27.4484 40.4257 27.3572 40.4221 27.2881L40.4215 27.2769L40.4212 27.271L40.393 11.5112C40.3923 11.1462 40.0959 10.8508 39.7309 10.8515L36.0958 10.858C35.7308 10.8586 35.4355 11.1551 35.4361 11.5201L35.4647 27.4543L35.4716 27.5387L35.4719 27.5433L35.472 27.5461C35.4729 27.5639 35.4746 27.6009 35.4756 27.655C35.4777 27.7636 35.4773 27.9386 35.4643 28.164C35.4379 28.6194 35.3614 29.2532 35.1648 29.9485C34.7749 31.3269 33.9513 32.8471 32.1546 33.8511C30.8415 34.5848 29.7671 34.7899 28.874 34.7387C27.9874 34.6879 27.0976 34.3736 26.1687 33.7754C24.3247 32.4016 23.1146 30.8057 21.7208 28.913C21.6943 28.877 21.6678 28.841 21.6412 28.8048C21.6223 28.7792 21.6035 28.7536 21.5845 28.7278C20.2354 26.8942 18.6785 24.7781 16.281 22.9168L16.1747 22.8342L16.0601 22.7637C12.8063 20.7612 9.51861 20.9487 6.61349 21.9691C6.31906 22.0726 6.02619 22.1854 5.73527 22.3062C5.29505 23.0402 4.98115 24.033 4.96147 25.4353C4.94781 26.409 5.14313 27.2518 5.45852 27.9783Z" fill="url(#paint0_linear_21_527)"/>
<path d="M24.2863 25.6492C24.2863 29.1131 26.1181 31.8166 28.3247 33.8348C28.6677 34.1485 29.0254 34.4511 29.3944 34.7429C30.1763 34.6982 31.0847 34.4509 32.1503 33.8555C33.0426 33.3569 33.6949 32.7309 34.1732 32.0583C33.2475 31.4686 32.3985 30.8433 31.6701 30.1771C30.0344 28.6812 29.2432 27.2053 29.2432 25.6492C29.2432 23.4218 29.9958 21.9059 31.0647 19.8794C31.0906 19.8304 31.1166 19.7812 31.1428 19.7316L31.1444 19.7285C32.2051 17.7196 33.5131 15.2422 33.7149 11.6655C33.8162 9.86951 33.5591 8.01557 32.6786 6.26623C31.7929 4.5067 30.3605 3.02061 28.3804 1.84005C22.144 -1.87819 16.8397 0.977834 14.5289 2.26157C12.2055 3.55237 8.96486 5.59534 6.34733 7.28584L2.20975 10.0406C1.90445 10.2439 1.82306 10.6569 2.0284 10.9608L4.04465 13.9448C4.24703 14.2443 4.65252 14.3257 4.95479 14.1274L9.03657 11.4498C11.6548 9.75883 14.7719 7.79705 16.9362 6.59463C19.1133 5.38512 22.127 3.88269 25.842 6.09761C27.134 6.86792 27.8488 7.69585 28.251 8.4949C28.6583 9.30414 28.8298 10.2533 28.7659 11.3864C28.626 13.867 27.7577 15.5243 26.6804 17.5669L26.6668 17.5926C25.5872 19.6394 24.2863 22.1056 24.2863 25.6492Z" fill="url(#paint1_linear_21_527)"/>
<path d="M28.183 8.36417C28.1412 8.60271 28.087 8.89581 28.0182 9.26173C27.4493 12.2879 25.9679 15.2288 22.6067 17.0454L22.4884 17.1094L22.3638 17.1602C19.553 18.3058 16.9421 18.5961 14.6795 18.8477C14.6029 18.8562 14.5267 18.8647 14.451 18.8731C12.1149 19.1338 10.1278 19.3839 8.01602 20.2939C7.03356 20.7993 6.31647 21.4127 5.82915 22.1551C5.33825 22.903 4.98193 23.9135 4.96082 25.4175C4.93195 27.4755 5.8334 28.9714 6.83218 29.9982C7.33604 30.5162 7.84665 30.8993 8.22791 31.1498C8.41658 31.2738 8.56793 31.3617 8.66302 31.4142C8.7104 31.4403 8.74326 31.4574 8.75917 31.4655C8.76187 31.4669 8.76408 31.468 8.76578 31.4688L8.8423 31.505L22.656 39.4474C22.9724 39.6293 23.0815 40.0333 22.8995 40.3498L21.0877 43.5011C20.9057 43.8175 20.5017 43.9265 20.1853 43.7446L6.52272 35.8891C6.51777 35.8866 6.51269 35.884 6.50747 35.8814C6.44586 35.85 6.36504 35.8076 6.26781 35.7539C6.07367 35.6467 5.812 35.4936 5.50557 35.2922C4.89661 34.892 4.08863 34.2867 3.27898 33.4544C1.65074 31.7804 -0.051222 29.1049 0.00118008 25.3705C0.0335256 23.0654 0.604317 21.0819 1.68527 19.4351C2.75997 17.7978 4.23699 16.6482 5.84305 15.8379L5.90439 15.807L5.96735 15.7795C8.86633 14.5132 11.5559 14.2086 13.9012 13.9469L13.934 13.9432C16.2626 13.6833 18.2454 13.462 20.3626 12.6224C21.9805 11.7053 22.7786 10.304 23.1466 8.34601C23.3347 7.34528 23.3979 6.26326 23.3911 5.11014C24.1699 5.27502 24.9876 5.58785 25.8424 6.09748C27.0641 6.8259 27.7697 7.60584 28.183 8.36417Z" fill="url(#paint2_linear_21_527)"/>
<path d="M5.45852 27.9865C6.40924 27.4367 7.33637 26.9771 8.25621 26.6541C10.1359 25.9938 11.7485 25.9844 13.3517 26.9269C15.1375 28.3407 16.3205 29.9471 17.7098 31.8338L17.7294 31.8604C19.1287 33.7606 20.7373 35.9376 23.2834 37.815L23.3387 37.8558L23.3962 37.8934C24.901 38.8792 26.6351 39.5835 28.5903 39.6956C30.5569 39.8084 32.5601 39.3109 34.5726 38.1864C37.8329 36.3645 39.2989 33.5528 39.9345 31.3058C40.2505 30.1884 40.3707 29.186 40.4128 28.4586C40.434 28.0925 40.4358 27.7893 40.4315 27.5676C40.4294 27.4566 40.4257 27.3654 40.4221 27.2963L40.4215 27.2851L40.4212 27.2792L40.3918 10.8585L35.4349 10.8673L35.4647 27.4625L35.4716 27.5468L35.4719 27.5515L35.472 27.5542C35.4729 27.5721 35.4746 27.6091 35.4756 27.6632C35.4777 27.7718 35.4773 27.9467 35.4643 28.1721C35.4379 28.6276 35.3614 29.2613 35.1648 29.9567C34.7749 31.3351 33.9513 32.8553 32.1546 33.8593C30.8415 34.593 29.7671 34.7981 28.874 34.7469C27.9874 34.6961 27.0976 34.3817 26.1687 33.7836C24.3247 32.4098 23.1146 30.8139 21.7208 28.9212C21.6943 28.8852 21.6678 28.8492 21.6412 28.813C21.6223 28.7874 21.6035 28.7617 21.5845 28.736C20.2354 26.9023 18.6785 24.7863 16.281 22.9249L16.1747 22.8424L16.0601 22.7719C12.8063 20.7694 9.51861 20.9569 6.61349 21.9773C6.31906 22.0807 6.02619 22.1936 5.73527 22.3144C5.29505 23.0484 4.98115 24.0412 4.96147 25.4435C4.94781 26.4171 5.14313 27.2599 5.45852 27.9865Z" fill="url(#paint3_linear_21_527)"/>
<path d="M28.183 8.36417C28.1412 8.60271 28.087 8.89581 28.0182 9.26173C27.4493 12.2879 25.9679 15.2288 22.6067 17.0454L22.4884 17.1094L22.3638 17.1602C19.553 18.3058 16.9421 18.5961 14.6795 18.8477C14.6029 18.8562 14.5267 18.8647 14.451 18.8731C12.1149 19.1338 10.1278 19.3838 8.01602 20.2939C7.03356 20.7993 6.31647 21.4127 5.82915 22.1551C5.33825 22.903 4.98193 23.9135 4.96082 25.4175C4.93195 27.4755 5.8334 28.9714 6.83218 29.9982C7.33604 30.5162 7.84665 30.8993 8.22791 31.1498C8.41658 31.2738 8.56793 31.3617 8.66302 31.4142C8.7104 31.4403 8.74326 31.4574 8.75917 31.4655C8.76187 31.4669 8.76408 31.468 8.76578 31.4688L8.8423 31.505L23.229 39.7768L20.7582 44.074L6.52272 35.8891C6.51777 35.8866 6.51269 35.884 6.50747 35.8814C6.44586 35.85 6.36504 35.8076 6.26781 35.7539C6.07367 35.6467 5.812 35.4936 5.50557 35.2922C4.89661 34.892 4.08863 34.2867 3.27898 33.4544C1.65074 31.7804 -0.051222 29.1049 0.00118008 25.3705C0.0335256 23.0654 0.604317 21.0819 1.68527 19.4351C2.75997 17.7978 4.23699 16.6482 5.84305 15.8379L5.90439 15.807L5.96735 15.7795C8.86633 14.5132 11.5559 14.2086 13.9012 13.9469L13.934 13.9432C16.2626 13.6833 18.2454 13.462 20.3626 12.6224C21.9805 11.7053 22.7786 10.304 23.1466 8.34601C23.3347 7.34528 23.3979 6.26326 23.3911 5.11014C24.1699 5.27502 24.9876 5.58785 25.8424 6.09748C27.0641 6.8259 27.7697 7.60584 28.183 8.36417Z" fill="url(#paint4_linear_21_527)"/>
<path d="M24.2868 25.6492C24.2868 29.1131 26.1185 31.8166 28.3251 33.8348C28.6681 34.1485 29.0258 34.4511 29.3948 34.7429C30.1767 34.6982 31.0851 34.4509 32.1507 33.8555C33.043 33.3569 33.6953 32.7309 34.1736 32.0583C33.2479 31.4686 32.3989 30.8433 31.6705 30.1771C30.0348 28.6812 29.2436 27.2053 29.2436 25.6492C29.2436 23.4218 29.9963 21.9059 31.0651 19.8794C31.0915 19.8294 31.1181 19.7791 31.1448 19.7285C32.2055 17.7196 33.5136 15.2422 33.7153 11.6655C33.8166 9.86951 33.5595 8.01557 32.679 6.26623C31.7933 4.5067 30.3609 3.02061 28.3808 1.84005C22.1444 -1.87819 16.8401 0.977834 14.5293 2.26157C12.2059 3.55237 8.96527 5.59534 6.34774 7.28584C5.02973 8.13707 3.85351 8.90946 3.00677 9.46906C2.58325 9.74895 2.2418 9.97585 2.00583 10.133C1.96404 10.1609 1.92555 10.1865 1.8905 10.2099C1.82658 10.2525 1.77409 10.2876 1.73381 10.3145C1.70262 10.3354 1.67875 10.3514 1.66256 10.3622L1.63758 10.3789C1.63747 10.379 1.63739 10.379 3.01758 12.4376C4.39777 14.4962 4.39778 14.4962 4.39778 14.4962L4.44071 14.4674C4.44824 14.4624 4.45673 14.4567 4.46617 14.4504L4.48835 14.4356C4.54868 14.3952 4.63818 14.3355 4.75392 14.2584C4.98543 14.1042 5.32182 13.8806 5.73976 13.6044C6.57594 13.0518 7.73711 12.2893 9.03698 11.4498C11.6552 9.75883 14.7723 7.79705 16.9366 6.59463C19.1137 5.38512 22.1274 3.88269 25.8424 6.09761C27.1344 6.86792 27.8492 7.69585 28.2514 8.4949C28.6587 9.30414 28.8302 10.2533 28.7663 11.3864C28.6264 13.867 27.7582 15.5243 26.6808 17.5669L26.6672 17.5926C25.5876 19.6394 24.2868 22.1056 24.2868 25.6492Z" fill="url(#paint5_linear_21_527)"/>
<defs>
<linearGradient id="paint0_linear_21_527" x1="36.1628" y1="33.9941" x2="38.1184" y2="14.2027" gradientUnits="userSpaceOnUse">
<stop stop-color="#FF8220"/>
<stop offset="1" stop-color="#FC4021"/>
</linearGradient>
<linearGradient id="paint1_linear_21_527" x1="4.51167" y1="21.2723" x2="16.9538" y2="35.2713" gradientUnits="userSpaceOnUse">
<stop stop-color="#CC72F7"/>
<stop offset="1" stop-color="#5A6BF4"/>
</linearGradient>
<linearGradient id="paint2_linear_21_527" x1="5.41729" y1="27.1168" x2="31.0351" y2="17.1128" gradientUnits="userSpaceOnUse">
<stop stop-color="#71F4FF"/>
<stop offset="1" stop-color="#FFC565"/>
</linearGradient>
<linearGradient id="paint3_linear_21_527" x1="3.77666" y1="25.2884" x2="24.4577" y2="18.817" gradientUnits="userSpaceOnUse">
<stop stop-color="#240F03"/>
<stop offset="1" stop-color="#EA7315" stop-opacity="0"/>
</linearGradient>
<linearGradient id="paint4_linear_21_527" x1="26.2753" y1="5.12197" x2="22.5576" y2="18.6982" gradientUnits="userSpaceOnUse">
<stop stop-color="#011319"/>
<stop offset="1" stop-color="#7CE9F2" stop-opacity="0"/>
</linearGradient>
<linearGradient id="paint5_linear_21_527" x1="33.1323" y1="35.7444" x2="22.7229" y2="21.4246" gradientUnits="userSpaceOnUse">
<stop stop-color="#05071F"/>
<stop offset="1" stop-color="#626FD8" stop-opacity="0"/>
</linearGradient>
</defs>
</svg>
