<svg width="124" height="80" viewBox="0 0 124 80" fill="none" xmlns="http://www.w3.org/2000/svg">
<path d="M56.6457 31.7075H60.0207V45.2075H63.3957V28.3325H60.0207C58.1644 28.3325 56.6457 29.8512 56.6457 31.7075Z" fill="#CBCEDA"/>
<path d="M66.7707 35.0824V45.2074H70.1457V38.4574C70.1457 36.6011 68.6269 35.0824 66.7707 35.0824Z" fill="#CBCEDA"/>
<path d="M80.2707 35.0824H73.5207V45.2074H76.8957V38.4574H80.2707V41.8324C80.2707 43.6886 81.7894 45.2074 83.6457 45.2074V38.4574C83.6457 36.6011 82.1269 35.0824 80.2707 35.0824Z" fill="#CBCEDA"/>
<path d="M103.896 35.0824H100.521V31.7074C100.521 29.8511 99.0019 28.3324 97.1457 28.3324V41.8324H90.3957V38.4574H93.7707V35.0824H90.3957C88.5394 35.0824 87.0207 36.6011 87.0207 38.4574V41.8324C87.0207 43.6886 88.5394 45.2074 90.3957 45.2074H100.521V38.4574H103.896V41.8324C103.896 43.6886 105.414 45.2074 107.271 45.2074V38.4574C107.271 36.6011 105.752 35.0824 103.896 35.0824Z" fill="#CBCEDA"/>
<path d="M66.7707 28.3324V31.7074H70.1457C70.1457 29.8511 68.6269 28.3324 66.7707 28.3324Z" fill="#CBCEDA"/>
<path fill-rule="evenodd" clip-rule="evenodd" d="M44.8247 28.13C43.7869 27.455 43.0528 27.1681 43.0528 27.1681C43.0528 27.1681 43.5338 27.185 44.2341 27.2356C44.5041 27.2525 44.7994 27.2778 45.1116 27.3116C45.3647 27.3369 45.6178 27.3622 45.8794 27.3875C45.4238 27.0247 44.9682 26.7041 44.5125 26.4087C41.7788 24.6453 39.2138 24.0884 37.0707 24.0884C35.1807 24.0884 33.6282 24.5187 32.5903 24.9153C31.755 25.2359 31.2488 25.5397 31.1728 25.5819L32.2528 23.8691L32.3372 23.0253C32.6325 23.0506 32.8857 23.2278 33.0122 23.4894C33.0628 23.5991 33.0966 23.7172 33.0966 23.8438C34.1428 23.5147 35.5013 23.2447 37.0707 23.2447C39.7453 23.2447 43.0022 24.0547 46.3941 26.7209C46.6894 26.9572 46.7991 27.3538 46.6557 27.7081C46.5797 27.8938 46.4447 28.0372 46.2844 28.1216C46.8919 28.5856 47.55 29.1594 48.1997 29.8512C50.5369 32.3487 52.6969 36.3566 52.1232 42.3303C52.0894 42.6678 51.8532 42.9547 51.5241 43.0559C51.3722 43.0981 51.2203 43.1066 51.0769 43.0644C50.8913 45.6209 49.7775 49.8397 44.9766 53.4425C44.6897 53.6619 44.2932 53.6703 43.9978 53.4678C43.8797 53.3834 43.7785 53.2738 43.7194 53.1556C43.6688 53.1978 43.6182 53.2484 43.576 53.2906C42.2091 54.5225 40.1419 55.8725 37.3322 56.2606C37.29 56.2691 37.2563 56.2691 37.2141 56.2691H37.1888C36.8428 56.2691 36.5307 56.0581 36.4041 55.7291C36.3872 55.6784 36.3703 55.6194 36.3619 55.5688C35.67 55.7038 34.86 55.7966 33.9235 55.7966C32.3541 55.7966 30.4641 55.5266 28.245 54.7503C27.8232 54.5984 27.5869 54.1428 27.7135 53.7125C27.84 53.2822 28.2788 53.0291 28.7175 53.1303C29.3419 53.2822 29.9747 53.3581 30.6244 53.3581C34.8685 53.3581 38.2013 50.1856 38.2013 46.3972C38.2013 44.5241 37.4082 42.8113 36.075 41.5456C36.075 41.5541 36.0666 41.5541 36.0666 41.5625C35.7628 41.9591 35.3916 42.4316 35.13 42.7775C34.7082 43.3681 34.5647 43.6972 34.5985 43.9925C34.7419 44.9544 34.4466 45.8994 33.8982 46.5912C33.8897 46.5997 33.8813 46.6081 33.8728 46.6166C33.6535 46.8697 33.2485 47.2241 32.8772 47.5447C32.8603 47.5616 32.8435 47.57 32.8266 47.5869C32.4553 47.9075 32.0925 48.2281 31.831 48.4897C31.8225 48.4981 31.8141 48.5066 31.8141 48.5066C31.1644 49.1141 30.3038 49.2069 29.7975 49.2069C29.6541 49.2069 29.5275 49.1984 29.4432 49.19H29.4347C29.3503 49.1816 29.3166 49.1816 29.2997 49.1816H29.2153C29.1985 49.1816 29.19 49.1816 29.1816 49.1816C29.1647 49.19 29.1394 49.2069 29.0888 49.2491C29.0297 49.2997 28.9453 49.3672 28.8441 49.46C28.6332 49.6541 28.3885 49.7384 28.2197 49.7806C28.0257 49.8313 27.8232 49.8481 27.6375 49.8481C27.1482 49.8481 26.5828 49.7384 26.1188 49.6203C25.6378 49.5022 25.2075 49.3588 24.9544 49.2744C24.946 49.2744 24.9375 49.2659 24.9291 49.2659C24.6844 49.1731 24.5072 49.0128 24.3807 48.8778C24.2541 48.7344 24.136 48.5825 24.0432 48.4222C23.8491 48.11 23.6803 47.7387 23.5369 47.3928C23.2585 46.7178 23.0307 45.9331 22.9885 45.5534C22.9632 45.3003 23.0222 45.0556 23.0728 44.9122C23.1235 44.735 23.1994 44.5578 23.2753 44.3891C23.4272 44.0516 23.6213 43.6803 23.7985 43.3512L23.8069 43.3344C23.925 43.1066 24.0347 42.9041 24.1191 42.7353C24.1613 42.6509 24.1866 42.5834 24.2119 42.5328C24.2288 42.4991 24.2288 42.4822 24.2372 42.4738C24.2794 42.2544 24.4313 41.1828 24.5747 40.0269C24.7182 38.8878 24.8616 37.7572 24.8869 37.5294C24.9122 37.3353 24.9038 37.2425 24.8869 37.1497C24.8616 37.0484 24.811 36.8966 24.6422 36.6266C24.6422 36.6266 24.6422 36.6181 24.6338 36.6181C24.2625 35.9938 24.2457 35.3778 24.3975 34.6184C22.516 33.3106 17.7235 29.7753 17.4282 29.5306C17.4282 29.5306 17.4282 29.5306 17.4197 29.5222C17.2425 29.3788 17.0653 29.1594 17.0147 28.8641C16.9894 28.7206 16.9978 28.5772 17.0316 28.4591C17.0485 28.4 17.0653 28.3494 17.0907 28.3072C17.0991 28.2819 17.116 28.265 17.1244 28.2481C17.1328 28.2397 17.1328 28.2312 17.1413 28.2228C17.1413 28.2144 17.1497 28.2144 17.1497 28.2059C17.1497 28.2059 17.1497 28.2059 17.1497 28.1975C17.1497 28.1975 17.1497 28.1975 17.85 28.6616C17.85 28.6616 17.791 28.7459 17.9597 28.8809C17.9766 28.8894 17.9935 28.9147 18.0357 28.94C18.0441 28.94 18.0441 28.9484 18.0525 28.9569C18.1369 29.0244 18.2719 29.1256 18.4491 29.2606C18.6853 29.4378 19.006 29.6741 19.3688 29.9441C21.2503 31.3363 24.4482 33.6734 25.351 34.2641C25.0725 35.2597 25.0725 35.7322 25.351 36.2047C25.7391 36.8375 25.7644 37.175 25.7138 37.6475C25.6547 38.12 25.1569 42.1869 25.0472 42.6847C25.005 42.8872 24.7857 43.2922 24.5494 43.7478C24.195 44.4144 23.7985 45.1737 23.8322 45.4859C23.8913 46.0091 24.6085 48.2534 25.2413 48.5066C25.7138 48.6753 26.8782 49.0297 27.646 49.0297C27.9244 49.0297 28.1691 48.9706 28.2788 48.8609C28.7513 48.4475 28.8863 48.3631 29.2238 48.3631H29.3082C29.3757 48.3631 29.4432 48.3716 29.5191 48.3716C29.6119 48.38 29.7047 48.3884 29.806 48.3884C30.2447 48.3884 30.8269 48.3041 31.2488 47.9159C31.5357 47.6291 31.9238 47.2916 32.2866 46.9794C32.6916 46.625 33.0713 46.2959 33.2485 46.0934C33.6619 45.5703 33.8813 44.8447 33.7716 44.1275C33.6872 43.4609 34.05 42.8787 34.4635 42.2966C34.9866 41.6047 35.9569 40.3559 35.9569 40.3559C36.0244 40.4066 36.0919 40.4572 36.1594 40.5078C36.3113 40.6344 36.4632 40.7609 36.6066 40.8959C38.1338 42.3134 39.0619 44.2709 39.0619 46.4141C39.0619 50.1519 36.2438 53.2653 32.4638 54.0416C31.8816 54.1597 31.2657 54.2272 30.6413 54.2272C29.9241 54.2272 29.2322 54.1428 28.5403 53.9741C29.2828 54.2356 29.9832 54.4297 30.6413 54.5816C31.2994 54.7334 31.9153 54.8263 32.4975 54.8938C33.0122 54.9444 33.4932 54.9697 33.9403 54.9697C35.1385 54.9697 36.1172 54.8009 36.8682 54.5984C38.0916 54.2694 38.7244 53.8306 38.7244 53.8306C38.7244 53.8306 38.5641 54.0416 38.2688 54.3706C38.0241 54.6406 37.695 54.9866 37.2985 55.3578C37.2732 55.3747 37.2563 55.4 37.231 55.4169C37.2225 55.4253 37.2141 55.4338 37.2057 55.4422H37.231C37.7541 55.3663 38.2519 55.2566 38.7244 55.1216C41.1291 54.4213 42.825 52.97 43.8291 51.8816C44.5632 51.08 44.926 50.4641 44.926 50.4641C44.926 50.4641 44.8585 50.9197 44.7572 51.4934C44.715 51.7466 44.656 52.0166 44.6053 52.2781C44.5632 52.4553 44.5294 52.6241 44.4872 52.7844C44.8585 52.5059 45.2128 52.2191 45.5419 51.9322C49.6003 48.38 50.25 44.4228 50.2838 42.3556C50.2838 42.2628 50.2838 42.17 50.2838 42.0856C50.2838 42.0856 50.2838 42.0856 50.2838 42.0772C50.2753 41.4612 50.2163 41.0562 50.1994 40.9466V40.9297C50.1994 40.9212 50.1994 40.9213 50.1994 40.9128C50.1994 40.9128 50.2078 40.9212 50.2078 40.9297C50.2078 40.9297 50.2163 40.9381 50.2163 40.9466C50.2669 41.0056 50.385 41.1575 50.5285 41.3347C50.6128 41.4359 50.7057 41.5541 50.7985 41.6637C50.9082 41.7987 51.0263 41.9338 51.1275 42.0603C51.195 42.1363 51.2541 42.2122 51.3047 42.2713C51.3385 41.9 51.3638 41.5372 51.3807 41.1912C51.3807 41.1406 51.3807 41.0984 51.3891 41.0478C51.6 33.6313 47.3391 29.7584 44.8247 28.13ZM25.9332 26.5944C25.95 26.6619 25.9753 26.7294 25.9922 26.7969C26.1188 27.1934 26.2622 27.6406 26.4141 28.0119C26.5575 27.59 26.7178 27.2103 26.9035 26.8644C28.0932 24.6538 30.0422 24.0462 31.2319 23.8944C31.8478 23.8184 32.2528 23.8522 32.2528 23.8522C32.3372 23.0084 32.3372 23.0084 32.3288 23.0084H32.3035C32.2866 23.0084 32.2697 23.0084 32.2528 23.0084C32.2107 23.0084 32.1516 23 32.0757 23C31.9322 23 31.7297 23 31.485 23.0169C30.9957 23.0506 30.3291 23.1603 29.6035 23.4219C28.5741 23.8016 27.4435 24.5103 26.566 25.7675C26.5491 25.7169 26.5407 25.6747 26.5322 25.6325C26.5153 25.565 26.4985 25.5059 26.49 25.4637C26.4816 25.4469 26.4816 25.43 26.4816 25.4216V25.4131C26.4057 25.1262 26.1947 24.8984 25.9163 24.8141C25.6378 24.7297 25.3341 24.7888 25.1063 24.9828L25.6632 25.6156C25.1063 24.9828 25.1063 24.9828 25.1063 24.9828L25.0978 24.9912C25.0894 24.9997 25.081 25.0081 25.0641 25.0166C25.0388 25.0419 25.005 25.0672 24.9713 25.1094C24.8953 25.1853 24.7941 25.295 24.6844 25.43C24.4566 25.7084 24.1697 26.1134 23.9166 26.6366C23.5622 27.3875 23.2838 28.3663 23.3682 29.5391C22.44 29.2016 21.4782 28.8641 20.6513 28.5687C20.0185 28.3494 19.4616 28.1469 19.0566 28.0119C18.8541 27.9444 18.6853 27.8853 18.5588 27.8431C18.4997 27.8262 18.4491 27.8094 18.4069 27.7925C18.3816 27.7841 18.3141 27.7588 18.255 27.7503C18.2382 27.7503 18.2213 27.7419 18.2128 27.7419C17.985 27.7081 17.7572 27.7334 17.5463 27.8262C17.445 27.8684 17.3607 27.9275 17.2932 27.995C17.2594 28.0287 17.2341 28.0541 17.2088 28.0878C17.2003 28.1047 17.1835 28.1131 17.175 28.13C17.1666 28.1384 17.1666 28.1469 17.1582 28.1469L17.1497 28.1553V28.1637C17.1497 28.1637 17.1497 28.1638 17.85 28.6363C17.85 28.6363 17.9091 28.5519 18.1032 28.5772C18.1116 28.5772 18.1369 28.5856 18.1707 28.6025C18.2635 28.6362 18.4407 28.6953 18.6769 28.7712C18.9638 28.8725 19.335 28.9991 19.7653 29.1509C20.82 29.5222 22.2291 30.0284 23.52 30.4925C23.8575 30.6106 24.1782 30.7288 24.4903 30.8469C24.3807 30.5094 24.3047 30.1803 24.2625 29.8681C24.0432 28.3156 24.5578 27.1344 25.0219 26.4172C25.3594 25.8941 25.68 25.6156 25.68 25.6156C25.68 25.6156 25.7728 26.0628 25.9332 26.5944Z" fill="#CBCEDA"/>
<path d="M32.4469 45.3762C32.3625 45.4859 32.0588 45.7559 31.7803 46.009C31.6959 46.0849 31.6116 46.1609 31.5356 46.2284C31.4175 46.3381 31.2994 46.4393 31.1813 46.5406C30.9619 46.7346 30.7425 46.9287 30.5653 47.1143C30.4556 47.224 30.2363 47.2831 29.8988 47.2831H29.0719C29.2406 47.0637 29.5359 46.7262 29.8566 46.3802C30.0338 46.2199 30.2109 46.0596 30.3713 45.9246C30.6581 45.6884 30.9366 45.5281 31.1897 45.3931C31.6453 45.1399 31.9828 44.9543 31.9828 44.4818C31.9997 43.5368 31.3669 43.3596 30.8944 43.3512C31.0378 43.3174 31.1897 43.2921 31.3416 43.2921C30.8184 43.1571 30.1519 43.2921 29.8481 43.5959C29.6288 43.7984 29.5781 44.3468 29.5275 44.8952C29.5022 45.1652 29.4769 45.4437 29.4347 45.6715C29.3081 46.3127 28.92 46.6756 28.3209 47.2156C28.2534 47.2746 28.1775 47.3421 28.11 47.4096C28.0931 47.4265 28.0763 47.4434 28.0594 47.4602L26.2284 47.0552C26.2284 47.0552 27.4434 46.4224 27.6375 45.6968C27.8147 45.0809 27.3591 43.1656 27.2494 42.6762C27.2325 42.6171 27.2241 42.5834 27.2241 42.5665L27.2325 42.5749C27.3169 42.6509 27.8147 43.1149 28.0509 43.8406C28.4897 42.6256 29.0719 41.4612 29.2406 41.3515C29.3841 41.2587 31.0631 40.3643 31.5272 40.1112C31.3247 40.6681 31.1222 41.2165 30.9872 41.6215C30.4894 41.7565 29.9916 42.0349 29.6288 42.5918C29.8228 42.4568 30.4303 42.3724 30.8775 42.3134C31.2656 42.2881 32.4553 42.9209 32.7591 44.1106V44.1696C32.8097 44.6337 32.6663 45.0471 32.4469 45.3762Z" fill="#CBCEDA"/>
<path d="M31.5103 41.5877C32.0756 41.5371 32.5481 41.6468 32.6747 41.6974C33.7547 39.6471 34.6153 38.5418 34.8347 38.5418C34.86 38.5418 34.9106 38.5418 34.9781 38.5418C35.5941 38.5587 37.7878 38.6346 38.7075 36.4324C39.6863 34.0362 38.3109 31.9859 38.2097 31.8424V31.834C39.3741 35.6562 36.8006 37.7824 35.0541 37.8162C34.0838 37.8162 32.7844 38.449 32.7844 38.449L31.5103 41.5877Z" fill="#CBCEDA"/>
<path d="M38.2013 31.8424C38.2097 31.8424 38.2097 31.8424 38.2013 31.8424C38.3278 31.9015 40.395 32.9056 40.9941 36.019C42.3694 37.6221 43.23 39.6302 43.4663 41.7565C43.4663 41.8915 43.6603 42.0856 43.8544 42.2543C44.1075 42.5074 44.3522 42.7521 44.3522 43.0052C44.3522 43.6718 44.2931 44.3384 44.1834 44.9712C44.1328 45.1652 43.9134 45.3002 43.6688 45.4437L43.6434 45.4606C43.635 45.469 43.6266 45.469 43.6181 45.4774C43.6013 45.4859 43.5928 45.4943 43.5759 45.5027C43.5422 45.5281 43.5 45.5534 43.4578 45.5787C43.3144 45.6715 43.1625 45.7643 43.1372 45.8318C42.5719 47.8315 41.3906 49.6118 39.8128 50.9702C42.42 49.5021 44.3775 47.0384 45.1875 44.1106C45.4575 42.9546 45.4997 41.7481 45.2888 40.5162C44.2931 34.8631 38.5388 31.9774 38.2013 31.8424Z" fill="#CBCEDA"/>
<path d="M31.5525 32.1209C32.0672 32.1462 33.1556 32.0955 34.1934 31.3446C34.2947 31.5893 34.4044 31.834 34.5056 32.0787C33.2316 32.4162 32.0841 32.239 31.5525 32.1209Z" fill="#CBCEDA"/>
<path d="M35.3663 31.7665C36.0581 31.4459 36.75 30.9565 37.3828 30.1971C36.7669 30.0199 36.1341 29.8934 35.4844 29.8259C35.2903 30.1296 35.0963 30.408 34.9022 30.6274C35.0288 30.9059 35.1891 31.3193 35.3663 31.7665Z" fill="#CBCEDA"/>
<path d="M40.8928 40.4234C41.1713 39.0143 41.1966 37.7909 41.1122 36.7952C42.1922 38.2381 42.8588 39.9762 43.0528 41.7818C43.0781 42.0012 43.3059 42.2206 43.5253 42.4484C43.7194 42.6171 43.9388 42.8365 43.9388 42.9715C43.9388 43.6043 43.8797 44.2456 43.77 44.8784C43.7447 44.9543 43.5169 45.0893 43.3313 45.1906L43.2975 45.2074C43.0191 45.3424 42.7744 45.4859 42.7153 45.7052C42.1078 47.8399 40.8085 49.7215 39.0619 51.0462C41.6353 48.3715 42.8841 43.9418 40.8928 40.4234Z" fill="#CBCEDA"/>
<path fill-rule="evenodd" clip-rule="evenodd" d="M28.6247 29.9018C28.6247 29.9018 28.1269 26.3327 30.6159 24.8393C30.6075 24.8393 30.5906 24.8477 30.5653 24.8562C30.0591 25.0502 26.355 26.4424 28.6247 29.9018ZM33.9994 26.6365C35.9063 25.9193 38.5641 25.5312 42.69 26.3074C40.8591 25.3962 38.9522 24.9237 37.0453 24.8984C36.3281 24.8984 35.6616 24.9574 35.0541 25.0671C32.8941 25.4552 31.1222 27.0077 30.5147 29.0834C30.5147 29.0834 30.9534 28.3915 32.0081 27.6743L32.0503 27.6152C32.4384 27.0837 33.0206 26.2906 33.5859 25.624C33.7463 25.9699 33.9403 26.4171 33.9994 26.6365ZM43.5759 31.2349C47.4825 33.8084 49.2544 36.6602 50.4947 40.0099C50.4356 36.4662 49.2459 33.4202 46.9509 30.9818L46.8919 30.9227C44.8669 28.7881 41.9053 27.7924 38.9775 28.2059C37.8722 28.3409 36.7669 28.5687 35.9063 28.8387C35.7713 28.864 35.6278 28.8977 35.4928 28.9484H35.5519C35.7713 28.9315 39.8128 28.7374 43.5759 31.2349ZM47.1788 48.844C46.7653 49.4009 46.2928 49.9831 45.7359 50.5315C49.305 43.6634 45.9047 37.3774 45.7613 37.1327C46.0144 37.3859 46.2591 37.6559 46.4784 37.909C49.2206 40.9465 49.5581 45.5196 47.1788 48.844ZM25.3256 27.5477C25.2244 27.9527 24.2878 31.5134 27.435 31.6146C25.5534 30.4756 25.3341 27.5477 25.3341 27.514V27.5309L25.3256 27.5477ZM30.81 34.9727L29.3672 37.4365C29.3672 37.4365 30.7003 36.829 31.2234 36.0527C31.6453 35.3862 30.81 34.9727 30.81 34.9727ZM29.8481 46.3887C30.0253 46.2284 30.2025 46.0681 30.3628 45.9331C30.6497 45.6968 30.9281 45.5365 31.1813 45.4015C31.6369 45.1484 31.9744 44.9627 31.9744 44.4987C31.9913 43.5537 31.3584 43.3765 30.8859 43.3681C30.8944 43.3681 30.9028 43.3681 30.9113 43.3596C30.6581 43.4187 30.4556 43.5031 30.4556 43.5031C30.4556 43.5031 31.2572 43.3681 31.5609 43.9418C31.8647 44.524 31.62 44.8531 31.1222 45.1906C30.8691 45.3509 30.3291 45.874 29.8481 46.3887ZM32.4722 37.8499C32.3456 37.9596 31.9153 39.0565 31.5188 40.1281C31.0463 40.3812 29.3756 41.2671 29.2322 41.3684C29.0634 41.4781 28.4813 42.6424 28.0425 43.8574C27.8063 43.1318 27.3084 42.6677 27.2241 42.5918C27.2156 42.5834 27.2156 42.5834 27.2156 42.5834C27.2156 42.6002 27.2241 42.634 27.2409 42.6931C27.3591 43.1824 27.8063 45.0893 27.6291 45.7137C27.435 46.4309 26.22 47.0721 26.22 47.0721L28.0509 47.4771C27.6881 47.7977 27.4266 47.899 27.2156 47.899C26.7431 47.8146 26.1947 47.6796 25.8066 47.5362C25.5281 47.1734 25.1147 45.9837 25.005 45.4859C25.0641 45.2834 25.2497 44.929 25.4184 44.6252C25.4859 44.5071 25.545 44.389 25.5872 44.2962L25.6294 44.2118C25.9331 43.6296 26.1103 43.2837 26.1609 42.9715C26.2706 42.499 26.6334 39.5965 26.7684 38.3731C27.1313 38.8456 27.6291 39.6218 27.5194 40.1196C28.3209 38.9806 27.7388 37.8752 27.4603 37.4365C27.2072 36.9977 26.8781 36.1034 27.1566 35.1668C27.435 34.2218 28.4306 31.6231 28.4306 31.6231C28.4306 31.6231 28.7597 32.2052 29.2322 32.0956C29.7047 31.9859 33.4931 26.2821 33.4931 26.2821C33.4931 26.2821 34.5141 28.5265 33.4341 30.1549C32.3288 31.7918 31.2488 32.0956 31.2488 32.0956C31.2488 32.0956 31.3584 32.1124 31.5441 32.1209C32.0841 32.239 33.2231 32.4162 34.4888 32.0787C34.9444 33.1756 35.3156 34.1459 35.3409 34.3062C35.3241 34.3399 35.2819 34.4412 35.2228 34.5931C34.9106 35.3271 34.1344 37.1834 34.0416 37.3268C33.9825 37.3859 33.6028 37.4956 33.3244 37.5462C32.8603 37.6812 32.5819 37.7656 32.4722 37.8499ZM33.2231 27.9359C33.2231 27.9359 33.4763 29.0412 32.835 29.7921C32.0334 30.7034 31.3416 30.6781 31.3669 30.6781L33.2231 27.9359ZM26.8275 43.6634L26.6081 44.7687C26.6081 44.7687 27.0469 44.7096 27.0469 45.2074C27.0469 45.5956 26.6081 46.1187 26.2453 46.1524C25.8825 46.1777 25.7475 45.739 25.8319 45.4859C25.9163 45.2665 26.8275 43.6634 26.8275 43.6634ZM31.0631 34.4159C32.0334 34.6099 32.3119 35.749 31.7803 36.3565C31.2572 36.9387 29.9241 37.7656 29.1478 37.9596C28.9791 38.5924 27.57 38.3224 28.0931 36.2974C28.0931 36.2974 28.3463 37.2677 28.5909 37.1834C28.8441 37.099 31.6622 32.6693 31.6622 32.6693C31.6622 32.6693 31.3078 33.8337 31.0631 34.4159ZM30.0759 44.7265C30.0591 44.9965 30.0338 45.4352 29.8397 45.7137C29.8566 45.6968 29.9156 45.6293 30 45.5534C30.1434 45.4015 30.3544 45.1821 30.4809 45.0556C30.5653 44.9796 30.6666 44.9206 30.7594 44.8615C30.9619 44.7349 31.1475 44.6168 31.1475 44.3637C31.1475 43.9756 30.6244 43.8912 30.3966 43.9502C30.1772 44.0093 30.1181 44.3637 30.0928 44.5577C30.0844 44.5915 30.0844 44.6506 30.0759 44.7265ZM42.9431 45.7981C42.3356 47.9834 40.9519 49.924 39.1463 51.3077C39.3741 51.1981 39.5934 51.0884 39.8128 50.9618C41.3906 49.6118 42.5719 47.8231 43.1372 45.8234C43.1625 45.7559 43.3144 45.6631 43.4578 45.5702C43.5 45.5449 43.5422 45.5196 43.5759 45.4943C43.5844 45.4859 43.5928 45.4859 43.6013 45.4774L43.6181 45.469C43.6266 45.4606 43.635 45.4606 43.6434 45.4521L43.6688 45.4352C43.9134 45.2918 44.1328 45.1652 44.1834 44.9627C44.2931 44.3299 44.3522 43.6634 44.3522 42.9968C44.3522 42.7437 44.0991 42.499 43.8544 42.2459C43.6603 42.0771 43.4663 41.8831 43.4663 41.7481C43.23 39.6218 42.3694 37.6221 40.9941 36.0106C41.0025 36.0781 41.0194 36.1371 41.0278 36.2046C42.2766 37.7824 43.0781 39.6893 43.2975 41.7143C43.2975 41.8156 43.4241 41.9506 43.5422 42.0856C43.5844 42.1277 43.6266 42.1699 43.6603 42.2121C43.9134 42.4652 44.1581 42.7099 44.1581 42.9631C44.1581 43.6296 44.0991 44.2962 43.9894 44.929C43.9303 45.1484 43.6603 45.3171 43.3819 45.4521C43.3481 45.4774 43.3059 45.5027 43.2638 45.5281C43.1119 45.6293 42.96 45.7306 42.9431 45.7981ZM38.2013 31.8424C38.5388 31.9859 44.2931 34.8631 45.2888 40.5077C45.4997 41.7396 45.4575 42.9462 45.1875 44.1021C45.4491 43.1402 45.5925 42.1277 45.5925 41.0899C45.5925 35.9177 42.1163 31.5471 37.3828 30.1887C36.75 30.9481 36.0497 31.4459 35.3663 31.7581C35.8388 32.9309 36.4041 34.3652 36.4041 34.4665C36.4041 34.6352 35.8809 35.9852 35.8219 36.0443C35.7628 36.0696 35.13 36.1287 34.8769 36.1287C34.5984 36.7952 34.32 37.4281 34.2694 37.5124C34.185 37.6221 33.9403 37.7065 33.4088 37.8415C33.3497 37.8584 33.2906 37.8752 33.2231 37.8921C32.97 37.9681 32.7 38.044 32.6578 38.0862C32.5228 38.2549 31.7719 40.2209 31.2741 41.6046C31.35 41.5962 31.4259 41.5793 31.4934 41.5793L32.7675 38.449C32.7675 38.449 34.0669 37.8162 35.0372 37.8162C36.7922 37.7909 39.3656 35.6646 38.2013 31.8424ZM26.6588 33.3612C26.8528 32.9984 26.6841 32.7537 26.5238 32.6102L26.4647 32.5512C26.1356 32.3824 24.06 31.6062 22.0097 30.889C23.8069 32.0787 25.8066 33.2431 26.1356 33.4118C26.3803 33.5299 26.5491 33.5552 26.6588 33.3612Z" fill="#CBCEDA"/>
</svg>
