<svg width="124" height="80" viewBox="0 0 124 80" fill="none" xmlns="http://www.w3.org/2000/svg">
<g clip-path="url(#clip0_57_682)">
<path fill-rule="evenodd" clip-rule="evenodd" d="M24.2926 28.6699L26.4532 30.8306L19.2327 38.0511C18.8521 37.0599 18.0632 36.2711 17.072 35.8905L24.2926 28.6699ZM14.3812 35.8905L7.16065 28.6699L5 30.8306L12.2206 38.0511C12.6012 37.0599 13.39 36.2711 14.3812 35.8905ZM12.2206 40.7419L5 47.9625L7.16065 50.1231L14.3812 42.9026C13.39 42.522 12.6012 41.7331 12.2206 40.7419ZM17.072 42.9026L24.2926 50.1231L26.4532 47.9625L19.2327 40.7419C18.8521 41.7331 18.0632 42.522 17.072 42.9026Z" fill="#CBCEDA"/>
<path d="M46.102 46.3685C45.969 46.3685 45.8827 46.302 45.8428 46.169L45.1843 44.0346C45.1577 43.9814 45.1246 43.9548 45.0847 43.9548H39.8185C39.7786 43.9548 39.7454 43.9814 39.7188 44.0346L39.0605 46.169C39.0206 46.302 38.9341 46.3685 38.8011 46.3685H36.8064C36.7266 46.3685 36.6668 46.3485 36.6269 46.3086C36.587 46.2554 36.5803 46.1823 36.6069 46.0892L40.9356 32.6045C40.9755 32.4715 41.0619 32.405 41.1949 32.405H43.6882C43.8212 32.405 43.9079 32.4715 43.9478 32.6045L48.2961 46.0892C48.3094 46.1158 48.3163 46.149 48.3163 46.1889C48.3163 46.3086 48.2429 46.3685 48.0966 46.3685H46.102ZM40.3371 42.0198C40.3238 42.0996 40.3504 42.1395 40.4169 42.1395H44.4665C44.5463 42.1395 44.5729 42.0996 44.5463 42.0198L42.4915 35.3374C42.4782 35.2842 42.4583 35.2576 42.4317 35.2576C42.4051 35.2576 42.3851 35.2842 42.3718 35.3374L40.3371 42.0198Z" fill="#CBCEDA"/>
<path d="M56.8909 46.5282C55.8934 46.5282 55.016 46.3354 54.2579 45.9497C53.4998 45.5507 52.9146 44.9989 52.5023 44.294C52.09 43.5892 51.8841 42.7714 51.8841 41.8405V36.9134C51.8841 35.9825 52.09 35.1646 52.5023 34.4598C52.9146 33.755 53.4998 33.2097 54.2579 32.8241C55.016 32.4384 55.8934 32.2456 56.8909 32.2456C57.8751 32.2456 58.7461 32.4318 59.5042 32.8041C60.2619 33.1765 60.8471 33.7018 61.2594 34.38C61.6717 35.0583 61.8777 35.8428 61.8777 36.7339C61.8777 36.8003 61.8511 36.8602 61.7979 36.9134C61.758 36.9533 61.7052 36.9732 61.6387 36.9732L59.8033 37.073C59.6437 37.073 59.5639 36.9998 59.5639 36.8535C59.5639 36.0689 59.318 35.4372 58.8259 34.9585C58.3471 34.4797 57.7022 34.2404 56.8909 34.2404C56.0796 34.2404 55.4279 34.4797 54.9362 34.9585C54.4441 35.4372 54.1979 36.0689 54.1979 36.8535V41.9402C54.1979 42.7115 54.4441 43.3366 54.9362 43.8153C55.4279 44.294 56.0796 44.5334 56.8909 44.5334C57.7022 44.5334 58.3471 44.3007 58.8259 43.8352C59.318 43.3565 59.5639 42.7248 59.5639 41.9402C59.5639 41.7939 59.6437 41.7208 59.8033 41.7208L61.6387 41.8006C61.7052 41.8006 61.758 41.8205 61.7979 41.8604C61.8511 41.9003 61.8777 41.9469 61.8777 42.0001C61.8777 42.9043 61.6717 43.7023 61.2594 44.3938C60.8471 45.072 60.2619 45.5973 59.5042 45.9696C58.7461 46.342 57.8751 46.5282 56.8909 46.5282Z" fill="#CBCEDA"/>
<path d="M74.393 46.3685C74.26 46.3685 74.1669 46.3086 74.1137 46.1889L71.4806 40.4439C71.454 40.3908 71.4141 40.3642 71.3609 40.3642H68.9673C68.9008 40.3642 68.8674 40.3974 68.8674 40.4639V46.1291C68.8674 46.1956 68.8408 46.2554 68.7876 46.3086C68.7477 46.3485 68.6945 46.3685 68.628 46.3685H66.793C66.7265 46.3685 66.6664 46.3485 66.6132 46.3086C66.5733 46.2554 66.5536 46.1956 66.5536 46.1291V32.6444C66.5536 32.5779 66.5733 32.5247 66.6132 32.4848C66.6664 32.4316 66.7265 32.405 66.793 32.405H72.2786C73.0899 32.405 73.8078 32.5779 74.4329 32.9237C75.058 33.2561 75.5432 33.7349 75.889 34.3599C76.2348 34.9716 76.4077 35.6765 76.4077 36.4744C76.4077 37.392 76.1683 38.1766 75.6895 38.8282C75.224 39.4665 74.5727 39.912 73.7348 40.1647C73.7082 40.1647 73.6881 40.178 73.6748 40.2046C73.6615 40.2312 73.6615 40.2578 73.6748 40.2844L76.4875 46.0892C76.5141 46.1424 76.5274 46.1823 76.5274 46.2089C76.5274 46.3153 76.4545 46.3685 76.3082 46.3685H74.393ZM68.9673 34.3998C68.9008 34.3998 68.8674 34.433 68.8674 34.4995V38.4691C68.8674 38.5356 68.9008 38.5689 68.9673 38.5689H71.9594C72.5978 38.5689 73.1097 38.3827 73.4954 38.0104C73.8944 37.6247 74.0939 37.1193 74.0939 36.4943C74.0939 35.8693 73.8944 35.364 73.4954 34.9783C73.1097 34.5926 72.5978 34.3998 71.9594 34.3998H68.9673Z" fill="#CBCEDA"/>
<path d="M85.7089 46.5681C84.7114 46.5681 83.8272 46.3686 83.0558 45.9696C82.2848 45.5574 81.6863 44.9789 81.2607 44.2342C80.8484 43.4895 80.6424 42.6317 80.6424 41.6609V37.1128C80.6424 36.1553 80.8548 35.3109 81.2804 34.5795C81.706 33.8348 82.2981 33.2629 83.0558 32.864C83.8272 32.4517 84.7114 32.2456 85.7089 32.2456C86.7197 32.2456 87.604 32.4517 88.3621 32.864C89.1331 33.2629 89.7316 33.8348 90.1572 34.5795C90.5828 35.3109 90.7956 36.1553 90.7956 37.1128V41.6609C90.7956 42.6317 90.5828 43.4895 90.1572 44.2342C89.7316 44.9789 89.1331 45.5574 88.3621 45.9696C87.604 46.3686 86.7197 46.5681 85.7089 46.5681ZM85.7089 44.5733C86.5468 44.5733 87.2183 44.314 87.7237 43.7953C88.2291 43.2767 88.4818 42.5918 88.4818 41.7407V37.0929C88.4818 36.2285 88.2291 35.537 87.7237 35.0184C87.2183 34.4997 86.5468 34.2404 85.7089 34.2404C84.8843 34.2404 84.2193 34.4997 83.7143 35.0184C83.2089 35.537 82.9562 36.2285 82.9562 37.0929V41.7407C82.9562 42.5918 83.2089 43.2767 83.7143 43.7953C84.2193 44.314 84.8843 44.5733 85.7089 44.5733Z" fill="#CBCEDA"/>
<path d="M100.073 46.5282C99.0359 46.5282 98.1315 46.362 97.3601 46.0295C96.5891 45.697 95.9906 45.2316 95.565 44.6332C95.1527 44.0347 94.9467 43.3299 94.9467 42.5187V42.02C94.9467 41.9535 94.9665 41.9003 95.0064 41.8604C95.0596 41.8072 95.1196 41.7806 95.1861 41.7806H96.9615C97.028 41.7806 97.0812 41.8072 97.1211 41.8604C97.1739 41.9003 97.2005 41.9535 97.2005 42.02V42.399C97.2005 43.0107 97.4733 43.5227 98.0186 43.935C98.5639 44.3339 99.3084 44.5334 100.253 44.5334C101.064 44.5334 101.676 44.3605 102.088 44.0148C102.5 43.669 102.706 43.2235 102.706 42.6783C102.706 42.3059 102.593 41.9934 102.367 41.7407C102.141 41.4747 101.815 41.2354 101.39 41.0226C100.977 40.8098 100.353 40.5439 99.5147 40.2247C98.5704 39.8789 97.8058 39.5531 97.2206 39.2473C96.6354 38.9414 96.1433 38.5291 95.7443 38.0105C95.359 37.4785 95.166 36.8203 95.166 36.0357C95.166 34.8654 95.5916 33.9412 96.4428 33.2629C97.2936 32.5847 98.4309 32.2456 99.8537 32.2456C100.851 32.2456 101.729 32.4185 102.487 32.7642C103.258 33.11 103.857 33.5954 104.282 34.2204C104.708 34.8322 104.921 35.5436 104.921 36.3549V36.694C104.921 36.7604 104.894 36.8203 104.841 36.8735C104.801 36.9134 104.748 36.9333 104.681 36.9333H102.886C102.819 36.9333 102.76 36.9134 102.706 36.8735C102.666 36.8203 102.646 36.7604 102.646 36.694V36.4745C102.646 35.8495 102.387 35.3242 101.868 34.8987C101.363 34.4598 100.658 34.2404 99.7541 34.2404C99.0226 34.2404 98.4507 34.3933 98.0384 34.6992C97.6394 35.0051 97.4399 35.4372 97.4399 35.9958C97.4399 36.3947 97.5463 36.7206 97.7591 36.9732C97.9719 37.2259 98.2911 37.4586 98.7167 37.6714C99.1423 37.8709 99.8005 38.1302 100.692 38.4493C101.636 38.8084 102.387 39.1342 102.946 39.4268C103.518 39.7194 104.003 40.1316 104.402 40.6636C104.814 41.1822 105.02 41.8338 105.02 42.6184C105.02 43.8153 104.575 44.7661 103.684 45.4709C102.806 46.1758 101.602 46.5282 100.073 46.5282Z" fill="#CBCEDA"/>
<path d="M114.053 46.5282C113.016 46.5282 112.111 46.362 111.34 46.0295C110.569 45.697 109.97 45.2316 109.545 44.6332C109.133 44.0347 108.927 43.3299 108.927 42.5187V42.02C108.927 41.9535 108.946 41.9003 108.986 41.8604C109.039 41.8072 109.099 41.7806 109.166 41.7806H110.941C111.007 41.7806 111.061 41.8072 111.101 41.8604C111.154 41.9003 111.18 41.9535 111.18 42.02V42.399C111.18 43.0107 111.453 43.5227 111.999 43.935C112.543 44.3339 113.288 44.5334 114.233 44.5334C115.044 44.5334 115.656 44.3605 116.068 44.0148C116.48 43.669 116.686 43.2235 116.686 42.6783C116.686 42.3059 116.573 41.9934 116.347 41.7407C116.121 41.4747 115.795 41.2354 115.37 41.0226C114.957 40.8098 114.332 40.5439 113.495 40.2247C112.55 39.8789 111.786 39.5531 111.201 39.2473C110.615 38.9414 110.123 38.5291 109.724 38.0105C109.339 37.4785 109.146 36.8203 109.146 36.0357C109.146 34.8654 109.571 33.9412 110.423 33.2629C111.273 32.5847 112.411 32.2456 113.834 32.2456C114.831 32.2456 115.709 32.4185 116.467 32.7642C117.238 33.11 117.836 33.5954 118.262 34.2204C118.688 34.8322 118.9 35.5436 118.9 36.3549V36.694C118.9 36.7604 118.874 36.8203 118.821 36.8735C118.781 36.9134 118.728 36.9333 118.661 36.9333H116.866C116.799 36.9333 116.739 36.9134 116.686 36.8735C116.646 36.8203 116.626 36.7604 116.626 36.694V36.4745C116.626 35.8495 116.367 35.3242 115.848 34.8987C115.343 34.4598 114.638 34.2404 113.734 34.2404C113.002 34.2404 112.431 34.3933 112.018 34.6992C111.619 35.0051 111.42 35.4372 111.42 35.9958C111.42 36.3947 111.526 36.7206 111.739 36.9732C111.952 37.2259 112.271 37.4586 112.697 37.6714C113.122 37.8709 113.78 38.1302 114.671 38.4493C115.616 38.8084 116.367 39.1342 116.926 39.4268C117.497 39.7194 117.983 40.1316 118.382 40.6636C118.794 41.1822 119 41.8338 119 42.6184C119 43.8153 118.555 44.7661 117.664 45.4709C116.786 46.1758 115.582 46.5282 114.053 46.5282Z" fill="#CBCEDA"/>
</g>
<defs>
<clipPath id="clip0_57_682">
<rect width="114" height="21.66" fill="white" transform="translate(5 28.6699)"/>
</clipPath>
</defs>
</svg>
