<svg width="124" height="80" viewBox="0 0 124 80" fill="none" xmlns="http://www.w3.org/2000/svg">
<g clip-path="url(#clip0_57_357)">
<path d="M40.3287 41.2923V41.0028C40.3287 40.2755 40.0799 39.7188 39.5826 39.3329C39.1003 38.9321 38.4672 38.7317 37.6835 38.7317C37.0806 38.7317 36.6057 38.8356 36.2591 39.0434C35.9275 39.2364 35.611 39.5333 35.3095 39.9341C35.2191 40.0528 35.1212 40.1345 35.0156 40.179C34.9102 40.2235 34.7669 40.2458 34.586 40.2458H33.9078C33.742 40.2458 33.5913 40.1864 33.4557 40.0677C33.335 39.9489 33.2824 39.8079 33.2973 39.6446C33.3426 39.1993 33.5611 38.7614 33.953 38.3309C34.36 37.8856 34.8951 37.522 35.5582 37.2399C36.2215 36.9579 36.9299 36.8169 37.6835 36.8169C39.0852 36.8169 40.2156 37.2028 41.0747 37.9747C41.9489 38.7466 42.3861 39.8302 42.3861 41.2255V48.0164C42.3861 48.1797 42.3257 48.3208 42.2052 48.4395C42.0845 48.5582 41.9414 48.6176 41.7756 48.6176H40.9391C40.7733 48.6176 40.6302 48.5582 40.5095 48.4395C40.389 48.3208 40.3287 48.1797 40.3287 48.0164V47.1035C40.0876 47.6379 39.575 48.061 38.7912 48.3727C38.0075 48.6845 37.2237 48.8403 36.4399 48.8403C35.6712 48.8403 34.9855 48.7066 34.3825 48.4395C33.7797 48.1574 33.3124 47.7789 32.9808 47.3039C32.6643 46.8289 32.5061 46.2946 32.5061 45.7008C32.5061 44.5875 32.9282 43.7192 33.7722 43.0957C34.6162 42.4574 35.7391 42.027 37.1409 41.8044L40.3287 41.2923ZM40.3287 43.0736L37.6609 43.4965C36.6811 43.6449 35.92 43.8899 35.3774 44.2313C34.8348 44.5578 34.5634 44.9734 34.5634 45.4782C34.5634 45.8492 34.7367 46.1833 35.0835 46.4802C35.4301 46.7769 35.9577 46.9254 36.6661 46.9254C37.7513 46.9254 38.633 46.6212 39.3113 46.0125C39.9895 45.404 40.3287 44.6098 40.3287 43.6301V43.0736Z" fill="#CBCEDA"/>
<path d="M47.742 48.0161C47.742 48.1794 47.6818 48.3205 47.5611 48.4392C47.4406 48.5579 47.2973 48.6173 47.1315 48.6173H46.2951C46.1293 48.6173 45.9861 48.5579 45.8655 48.4392C45.7449 48.3205 45.6846 48.1794 45.6846 48.0161V33.41C45.6846 33.2467 45.7449 33.1057 45.8655 32.987C45.9861 32.8682 46.1293 32.8088 46.2951 32.8088H47.1315C47.2973 32.8088 47.4406 32.8682 47.5611 32.987C47.6818 33.1057 47.742 33.2467 47.742 33.41V48.0161Z" fill="#CBCEDA"/>
<path d="M55.8859 46.9254C57.3932 46.9254 58.4105 46.3465 58.9381 45.1887C59.0436 44.9661 59.1491 44.8102 59.2547 44.7211C59.3601 44.6321 59.5033 44.5875 59.6842 44.5875H60.3625C60.5283 44.5875 60.6714 44.6469 60.792 44.7657C60.9125 44.8696 60.9728 44.9957 60.9728 45.1442C60.9728 45.6488 60.7694 46.1906 60.3625 46.7696C59.9555 47.3485 59.3677 47.8383 58.5989 48.2391C57.8302 48.6399 56.9259 48.8403 55.8859 48.8403C54.8158 48.8403 53.8888 48.6176 53.1051 48.1723C52.3213 47.727 51.7183 47.1185 51.2964 46.3465C50.8743 45.5598 50.6408 44.684 50.5955 43.7192C50.5804 43.5411 50.5729 43.1997 50.5729 42.6949C50.5729 42.3387 50.5804 42.0864 50.5955 41.938C50.7312 40.4239 51.2511 39.1919 52.1555 38.2419C53.0598 37.2919 54.3034 36.8169 55.8859 36.8169C56.9259 36.8169 57.8227 37.0173 58.5763 37.4181C59.345 37.804 59.9253 38.2864 60.3172 38.8653C60.7241 39.4294 60.9427 39.9638 60.9728 40.4684C60.9879 40.6317 60.9276 40.7727 60.792 40.8915C60.6714 41.0102 60.5283 41.0696 60.3625 41.0696H59.6842C59.5033 41.0696 59.3601 41.0251 59.2547 40.936C59.1491 40.8469 59.0436 40.6911 58.9381 40.4684C58.4105 39.3106 57.3932 38.7317 55.8859 38.7317C55.0569 38.7317 54.3334 39.0063 53.7155 39.5556C53.0975 40.1048 52.7433 40.936 52.6528 42.0493C52.6379 42.2126 52.6303 42.4797 52.6303 42.8509C52.6303 43.1922 52.6379 43.4446 52.6528 43.6078C52.7584 44.7211 53.1126 45.5523 53.7155 46.1016C54.3334 46.6508 55.0569 46.9254 55.8859 46.9254Z" fill="#CBCEDA"/>
<path d="M74.124 48.0161C74.124 48.1794 74.0637 48.3205 73.9432 48.4392C73.8225 48.5579 73.6794 48.6173 73.5136 48.6173H72.6771C72.5113 48.6173 72.368 48.5579 72.2475 48.4392C72.127 48.3205 72.0666 48.1794 72.0666 48.0161V42.1381C72.0666 41.0248 71.7877 40.1787 71.2302 39.5998C70.6725 39.0209 69.8962 38.7315 68.9014 38.7315C67.9218 38.7315 67.1455 39.0209 66.5727 39.5998C66.0151 40.1787 65.7363 41.0248 65.7363 42.1381V48.0161C65.7363 48.1794 65.6759 48.3205 65.5554 48.4392C65.4348 48.5579 65.2916 48.6173 65.1258 48.6173H64.2892C64.1234 48.6173 63.9803 48.5579 63.8597 48.4392C63.7392 48.3205 63.6789 48.1794 63.6789 48.0161V33.41C63.6789 33.2467 63.7392 33.1057 63.8597 32.987C63.9803 32.8682 64.1234 32.8088 64.2892 32.8088H65.1258C65.2916 32.8088 65.4348 32.8682 65.5554 32.987C65.6759 33.1057 65.7363 33.2467 65.7363 33.41V38.3307C66.0678 37.9002 66.52 37.544 67.0927 37.2619C67.6806 36.9651 68.3965 36.8166 69.2405 36.8166C70.1901 36.8166 71.0342 37.017 71.7728 37.4178C72.5113 37.8186 73.0841 38.3975 73.4911 39.1545C73.913 39.8967 74.124 40.7799 74.124 41.8041V48.0161Z" fill="#CBCEDA"/>
<path d="M82.0466 36.8169C83.6594 36.8169 84.933 37.3216 85.8675 38.3309C86.802 39.3403 87.2693 40.7134 87.2693 42.4501V43.0513C87.2693 43.2145 87.209 43.3555 87.0883 43.4743C86.9678 43.593 86.8246 43.6524 86.6588 43.6524H78.8814V43.7859C78.9116 44.7657 79.213 45.5375 79.7857 46.1016C80.3736 46.6508 81.1272 46.9254 82.0466 46.9254C82.8003 46.9254 83.3806 46.8289 83.7876 46.636C84.2095 46.4431 84.5863 46.1684 84.9179 45.8121C85.0384 45.6934 85.144 45.6117 85.2345 45.5673C85.34 45.5227 85.4756 45.5004 85.6414 45.5004H86.3197C86.5006 45.5004 86.6513 45.5598 86.7718 45.6786C86.8925 45.7973 86.9451 45.9383 86.9301 46.1016C86.8697 46.5023 86.6437 46.9181 86.2518 47.3485C85.875 47.7641 85.3249 48.1204 84.6014 48.4172C83.893 48.6993 83.0415 48.8403 82.0466 48.8403C81.082 48.8403 80.2229 48.625 79.4692 48.1945C78.7156 47.7493 78.1127 47.1406 77.6606 46.3688C77.2234 45.5969 76.9597 44.7286 76.8692 43.7638C76.8391 43.3184 76.824 42.977 76.824 42.7395C76.824 42.502 76.8391 42.1606 76.8692 41.7153C76.9597 40.795 77.2234 39.9638 77.6606 39.2216C78.1127 38.4794 78.7081 37.8931 79.4466 37.4626C80.2003 37.0321 81.0669 36.8169 82.0466 36.8169ZM85.2345 41.7821V41.7153C85.2345 40.8098 84.9405 40.0899 84.3527 39.5556C83.7799 39.0063 83.0113 38.7317 82.0466 38.7317C81.1725 38.7317 80.4264 39.0063 79.8084 39.5556C79.2054 40.1048 78.8965 40.8247 78.8814 41.7153V41.7821H85.2345Z" fill="#CBCEDA"/>
<path d="M92.0541 38.3309C92.4158 37.8708 92.8228 37.5071 93.275 37.2399C93.7271 36.9579 94.33 36.8169 95.0837 36.8169C96.8471 36.8169 98.083 37.4626 98.7915 38.754C99.2286 38.1306 99.7259 37.6556 100.284 37.329C100.841 36.9876 101.572 36.8169 102.477 36.8169C103.954 36.8169 105.047 37.2548 105.755 38.1306C106.478 39.0063 106.84 40.2458 106.84 41.8489V48.0164C106.84 48.1797 106.78 48.3208 106.659 48.4395C106.539 48.5582 106.396 48.6176 106.23 48.6176H105.393C105.227 48.6176 105.084 48.5582 104.964 48.4395C104.843 48.3208 104.783 48.1797 104.783 48.0164V42.0716C104.783 39.845 103.893 38.7317 102.115 38.7317C101.301 38.7317 100.653 38.9989 100.171 39.5333C99.6883 40.0677 99.4471 40.8618 99.4471 41.9157V48.0164C99.4471 48.1797 99.3868 48.3208 99.2663 48.4395C99.1457 48.5582 99.0024 48.6176 98.8368 48.6176H98.0002C97.8344 48.6176 97.6911 48.5582 97.5706 48.4395C97.45 48.3208 97.3897 48.1797 97.3897 48.0164V42.0716C97.3897 39.845 96.5005 38.7317 94.7219 38.7317C93.908 38.7317 93.2599 38.9989 92.7775 39.5333C92.2953 40.0677 92.0541 40.8618 92.0541 41.9157V48.0164C92.0541 48.1797 91.9937 48.3208 91.8732 48.4395C91.7526 48.5582 91.6095 48.6176 91.4437 48.6176H90.6071C90.4413 48.6176 90.2982 48.5582 90.1775 48.4395C90.057 48.3208 89.9968 48.1797 89.9968 48.0164V37.6407C89.9968 37.4774 90.057 37.3364 90.1775 37.2177C90.2982 37.0989 90.4413 37.0396 90.6071 37.0396H91.4437C91.6095 37.0396 91.7526 37.0989 91.8732 37.2177C91.9937 37.3364 92.0541 37.4774 92.0541 37.6407V38.3309Z" fill="#CBCEDA"/>
<path d="M113.172 52.3134C113.037 52.6697 112.818 52.8478 112.517 52.8478H111.59C111.439 52.8478 111.311 52.7959 111.205 52.692C111.1 52.588 111.047 52.4618 111.047 52.3134C111.047 52.2541 111.054 52.202 111.07 52.1576L113.24 47.504L108.764 37.7295C108.748 37.685 108.741 37.6331 108.741 37.5737C108.741 37.4252 108.794 37.2991 108.899 37.1952C109.005 37.0913 109.133 37.0393 109.284 37.0393H110.21C110.512 37.0393 110.73 37.2174 110.866 37.5737L114.348 45.144L117.875 37.5737C118.011 37.2174 118.229 37.0393 118.53 37.0393H119.457C119.608 37.0393 119.736 37.0913 119.842 37.1952C119.947 37.2991 120 37.4252 120 37.5737C120 37.6331 119.993 37.685 119.977 37.7295L113.172 52.3134Z" fill="#CBCEDA"/>
<path d="M23.9581 41.2517L16.3665 28.3631C16.3297 28.2994 16.2765 28.2464 16.2121 28.2094C16.1478 28.1723 16.0746 28.1526 16 28.1521C15.9254 28.1516 15.852 28.1705 15.7872 28.2067C15.7224 28.2429 15.6685 28.2953 15.6309 28.3584L13.3573 32.2204C13.2829 32.3469 13.2437 32.4903 13.2437 32.6362C13.2437 32.7822 13.2829 32.9256 13.3573 33.052L18.3075 41.4602C18.382 41.5867 18.4893 41.6918 18.6184 41.7648C18.7475 41.8378 18.894 41.8761 19.043 41.876H23.5903C23.6647 41.8758 23.7378 41.8564 23.8021 41.8198C23.8666 41.7833 23.9201 41.7307 23.9574 41.6676C23.9945 41.6044 24.0142 41.5327 24.0144 41.4597C24.0144 41.3868 23.995 41.315 23.9581 41.2517Z" fill="#CBCEDA"/>
<path d="M4.05854 47.9877L11.6501 35.099C11.6873 35.0358 11.7409 34.9834 11.8053 34.947C11.8698 34.9105 11.9429 34.8914 12.0173 34.8914C12.0917 34.8914 12.1648 34.9105 12.2292 34.947C12.2937 34.9834 12.3472 35.0358 12.3845 35.099L14.6592 38.9575C14.7337 39.0842 14.7729 39.2277 14.7729 39.3739C14.7729 39.5201 14.7337 39.6636 14.6592 39.7903L9.70902 48.1985C9.63478 48.3249 9.52778 48.4301 9.39884 48.503C9.2699 48.576 9.12357 48.6144 8.97466 48.6142H4.42631C4.35138 48.6147 4.2777 48.5955 4.21274 48.5589C4.14778 48.5222 4.09388 48.4694 4.05652 48.4058C4.01915 48.3422 3.99965 48.2699 4 48.1965C4.00036 48.123 4.02056 48.051 4.05854 47.9877Z" fill="#CBCEDA"/>
<path d="M12.3834 48.6115H27.5665C27.641 48.6115 27.7141 48.5921 27.7786 48.5556C27.8431 48.519 27.8966 48.4664 27.9337 48.4032C27.9708 48.34 27.9904 48.2681 27.9903 48.1952C27.9901 48.1221 27.9705 48.0504 27.9331 47.9873L25.6618 44.1264C25.5873 43.9998 25.48 43.8949 25.3509 43.8219C25.2218 43.7488 25.0753 43.7106 24.9263 43.7107H15.0259C14.8769 43.7106 14.7304 43.7488 14.6013 43.8219C14.4722 43.8949 14.3649 43.9998 14.2904 44.1264L12.0168 47.9873C11.9795 48.0504 11.9597 48.1221 11.9596 48.1952C11.9595 48.2681 11.979 48.34 12.0162 48.4032C12.0533 48.4664 12.1068 48.519 12.1713 48.5556C12.2358 48.5921 12.3089 48.6115 12.3834 48.6115Z" fill="#CBCEDA"/>
</g>
<defs>
<clipPath id="clip0_57_357">
<rect width="116" height="24.6959" fill="white" transform="translate(4 28.1521)"/>
</clipPath>
</defs>
</svg>
