<svg width="124" height="80" viewBox="0 0 124 80" fill="none" xmlns="http://www.w3.org/2000/svg">
<path d="M37.7331 31.9272L29.6904 27.6634C28.7028 27.1387 27.5256 27.1387 26.5378 27.659L18.4114 31.9404C17.1856 32.6768 16.0392 33.5454 15.9907 36.0764V38.1178H19.1522V35.3268L28.1163 30.5471L37.0144 35.3268V38.1178H40.1758V36.0764C40.1229 33.5322 38.9677 32.6679 37.7331 31.9272Z" fill="#CBCEDA"/>
<path d="M37.01 44.4761L29.6948 48.5723V45.2653C32.2655 44.6613 33.9588 42.5668 33.9588 39.7669C33.9588 36.3717 31.6129 34.0921 28.1163 34.0921C24.6198 34.0921 22.274 36.3717 22.274 39.7669C22.274 42.5712 23.9628 44.6613 26.5378 45.2653V48.5767L19.1566 44.4761V41.4248H15.9907V43.4619C16.0436 45.9884 17.1856 46.8615 18.4114 47.5979L26.5378 51.8792C27.5256 52.3997 28.7072 52.3997 29.6904 51.875L37.7287 47.611C38.9632 46.8748 40.1229 46.0061 40.1714 43.4619V41.4248H37.01V44.4761ZM25.2106 39.7669C25.2106 37.9061 26.2424 36.8832 28.1163 36.8832C29.9903 36.8832 31.0221 37.9061 31.0221 39.7669C31.0221 41.5703 29.9374 42.6506 28.1163 42.6506C26.2953 42.6506 25.2106 41.5747 25.2106 39.7669Z" fill="#CBCEDA"/>
<path d="M95.4687 32.9017H91.0637L85.4021 38.7043V30.04H81.7689V47.5846H85.4021V43.193L87.2717 41.2794L92.2014 47.5846H96.28L89.5381 38.9645L95.4687 32.9017Z" fill="#CBCEDA"/>
<path d="M107.317 32.5179C103.829 32.5179 101.981 33.9465 101.293 34.6344V32.8883H97.6029V47.5845H101.293V35.794L108 35.7676L107.987 32.5179C107.78 32.5179 107.555 32.5179 107.317 32.5179Z" fill="#CBCEDA"/>
<path d="M73.6028 32.5137C70.8161 32.5137 69.0657 34.3171 68.9377 34.4582V32.8885H65.2471V47.5848H68.9377V35.4679C69.2861 35.4679 71.3585 35.4679 71.6803 35.4679C71.8214 35.4679 71.9582 35.4723 72.0905 35.4768C73.0121 35.5076 73.7131 35.6575 74.2334 35.9309C74.4054 36.0279 74.5641 36.1382 74.7096 36.2572C75.49 36.9538 75.6973 38.14 75.6973 39.9081C75.6973 41.2663 75.6973 47.5892 75.6973 47.5892H79.3306V38.8102C79.3261 35.1725 77.6594 32.5137 73.6028 32.5137Z" fill="#CBCEDA"/>
<path d="M58.964 34.899C58.5098 34.2597 57.9762 33.757 57.3501 33.3778C56.261 32.8179 55.0265 32.5004 53.7169 32.5004C49.3649 32.5004 45.833 35.9793 45.833 40.2652C45.833 43.5016 47.8436 46.275 50.7009 47.4391C51.6312 47.8183 52.6498 48.03 53.7169 48.03C54.3871 48.03 55.0396 47.9463 55.6613 47.7919C55.679 47.7875 55.6967 47.7831 55.7142 47.7787C55.7804 47.7611 55.8422 47.7434 55.9038 47.7257C56.1773 47.642 56.4374 47.5494 56.6799 47.4391C57.769 46.9585 58.5406 46.2354 58.964 45.4197V47.5802H62.6546V32.884H58.964V34.899ZM54.3563 45.0052C51.4813 45.0052 49.6206 43.0651 49.6206 40.2697C49.6206 37.3021 51.4285 35.534 54.3563 35.534C56.9357 35.534 59.0918 37.2492 59.0918 40.2697C59.0918 43.2283 56.8607 45.0052 54.3563 45.0052Z" fill="#CBCEDA"/>
</svg>
