<svg width="124" height="80" viewBox="0 0 124 80" fill="none" xmlns="http://www.w3.org/2000/svg">
<g clip-path="url(#clip0_57_105)">
<path d="M17.0548 41.8553L15.5656 45.9481C15.5024 46.0698 15.5024 46.1963 15.5656 46.318L18.1693 53.3843L21.1427 51.6469L17.5463 41.8553C17.4879 41.6071 17.1765 41.6071 17.0548 41.8553Z" fill="#CBCEDA"/>
<path d="M20.0284 34.9156C19.9651 34.6674 19.6585 34.6674 19.532 34.9156L18.0428 39.0084C17.9795 39.1301 17.9795 39.2566 18.0428 39.3783L22.2573 50.9705L25.2308 49.2331L20.0284 34.9156Z" fill="#CBCEDA"/>
<path d="M14.6995 25.9272C14.7628 25.9272 14.8212 25.9272 14.8844 25.9905L26.2868 32.5603C26.4085 32.6236 26.4718 32.7453 26.4718 32.9302V46.07C26.4718 46.1917 26.4085 46.3815 26.2868 46.4399L14.8844 53.0098C14.8212 53.073 14.7628 53.073 14.6995 53.073C14.6362 53.073 14.5778 53.073 14.5146 53.0098L3.11215 46.4399C2.99048 46.3766 2.92722 46.2549 2.92722 46.07V32.9302C2.92722 32.8085 2.99048 32.6187 3.11215 32.5603L14.5146 25.9905C14.573 25.9272 14.6362 25.9272 14.6995 25.9272ZM14.6995 24.0049C14.2664 24.0049 13.8916 24.1265 13.5218 24.3163L2.11937 30.8862C1.37478 31.3194 0.94165 32.064 0.94165 32.9302V46.07C0.94165 46.8779 1.37478 47.6808 2.11937 48.114L13.5218 54.6839C13.8916 54.8688 14.2664 54.9953 14.6995 54.9953C15.1326 54.9953 15.5074 54.8737 15.8772 54.6839L27.2796 48.114C28.0242 47.6808 28.4573 46.9363 28.4573 46.07V32.9302C28.4573 32.1224 28.0242 31.3194 27.2796 30.8862L15.9356 24.3163C15.5658 24.1314 15.191 24.0049 14.7579 24.0049H14.6995Z" fill="#CBCEDA"/>
<path d="M7.20007 50.9658L8.25126 48.114L10.3585 49.8514L8.37779 51.7104L7.20007 50.9658Z" fill="#CBCEDA"/>
<path d="M13.77 32.0005H10.8549C10.67 32.0005 10.4218 32.1222 10.3585 32.312L4.16333 49.2915L7.13682 51.0289L13.9549 32.3703C14.0182 32.1854 13.8916 32.0005 13.7067 32.0005H13.77Z" fill="#CBCEDA"/>
<path d="M18.7874 32.0005H15.8723C15.6873 32.0005 15.4391 32.1222 15.3759 32.312L8.31445 51.647L11.2879 53.3843L18.9723 32.312C19.0355 32.1271 18.909 31.9421 18.7241 31.9421L18.7874 32.0005Z" fill="#CBCEDA"/>
<path d="M40.7308 35.5337C41.0423 35.5337 41.2905 35.597 41.4754 35.7186C41.6603 35.8403 41.8453 36.0885 42.0351 36.3999L45.8164 43.218C45.8797 43.2813 45.8797 43.3397 45.8164 43.403C45.8164 43.4662 45.7531 43.4662 45.6315 43.4662H44.2056C44.0839 43.4662 44.0206 43.403 43.9574 43.3446L43.1446 41.8554H37.8157L37.0079 43.3446C36.9446 43.4662 36.8862 43.4662 36.7597 43.4662H35.2705C35.1488 43.4662 35.0856 43.4662 35.0856 43.403C35.0856 43.3397 35.0856 43.2813 35.0856 43.218L38.8036 36.3999C38.9886 36.0301 39.1735 35.8403 39.3633 35.7186C39.5531 35.597 39.7332 35.5337 39.9814 35.5337H40.6627H40.7308ZM38.497 40.556H42.4001L40.6043 37.2078C40.541 37.1445 40.541 37.1445 40.4826 37.1445H40.4194C40.3561 37.1445 40.2977 37.1445 40.2977 37.2078L38.497 40.556Z" fill="#CBCEDA"/>
<path d="M54.0556 35.5337C54.9218 35.5337 55.5448 35.7186 55.9146 36.1517C56.2845 36.5216 56.4743 37.1445 56.4743 37.8891V38.5072C56.4743 39.1885 56.3526 39.6849 56.1044 40.0548C55.8562 40.4246 55.4231 40.6728 54.805 40.7993L56.7273 43.218C56.7906 43.2813 56.7906 43.3397 56.7906 43.403C56.7906 43.4662 56.7273 43.5246 56.6057 43.5246H55.1165C54.9948 43.5246 54.9316 43.5246 54.9316 43.4614C54.8683 43.4614 54.8683 43.3981 54.8099 43.3397L53.0141 40.9843H49.3593V43.2764C49.3593 43.4614 49.2961 43.5246 49.1111 43.5246H47.8701C47.6852 43.5246 47.6219 43.4614 47.6219 43.2764V35.9036C47.6219 35.6554 47.7436 35.5337 47.9918 35.5337H54.1286H54.0556ZM49.3447 39.6216H53.6809C54.0507 39.6216 54.3622 39.5584 54.4887 39.3734C54.6736 39.1885 54.7369 38.9403 54.7369 38.6288V38.1324C54.7369 37.7626 54.6736 37.5144 54.4887 37.3879C54.3038 37.2029 54.0556 37.1397 53.6809 37.1397H49.4664C49.3447 37.1397 49.3447 37.2029 49.3447 37.2613V39.6216Z" fill="#CBCEDA"/>
<path d="M66.0177 35.5337C66.8256 35.5337 67.3804 35.7186 67.6918 36.0301C68.0033 36.3415 68.1882 36.8379 68.1882 37.456V38.0157C68.1882 38.6337 67.94 39.1301 67.4437 39.4416C67.94 39.753 68.2515 40.2494 68.2515 40.9307V41.6121C68.2515 41.9235 68.1882 42.1717 68.1298 42.4199C68.0714 42.6681 67.9449 42.853 67.8184 43.038C67.6334 43.2229 67.4485 43.3494 67.2003 43.4078C66.9521 43.4711 66.6407 43.5295 66.2708 43.5295H59.516C59.2678 43.5295 59.1461 43.4078 59.1461 43.1596V35.9084C59.1461 35.6602 59.2678 35.5386 59.516 35.5386H66.0859H66.0177V35.5337ZM60.8738 38.8186H65.5214C65.8912 38.8186 66.1394 38.7554 66.2659 38.6337C66.3925 38.512 66.4509 38.3855 66.4509 38.1373V37.7675C66.4509 37.5193 66.3876 37.3343 66.2659 37.2711C66.1443 37.1494 65.8961 37.0861 65.6479 37.0861H61.0003C60.8786 37.0861 60.8786 37.1494 60.8786 37.2078V38.8186H60.8738ZM60.8738 40.0596V41.7337C60.8738 41.8554 60.937 41.8554 60.9954 41.8554H65.643C65.9545 41.8554 66.1394 41.7921 66.2611 41.6705C66.3827 41.5488 66.446 41.359 66.446 41.1741V40.7409C66.446 40.4927 66.3827 40.3078 66.2611 40.1813C66.1394 40.0548 65.8912 39.9964 65.4532 39.9964H60.8105L60.8738 40.0596Z" fill="#CBCEDA"/>
<path d="M72.4611 35.5337C72.646 35.5337 72.7093 35.597 72.7093 35.7819V43.218C72.7093 43.403 72.646 43.4662 72.4611 43.4662H71.2201C71.0352 43.4662 70.9719 43.403 70.9719 43.218V35.7819C70.9719 35.597 71.0352 35.5337 71.2201 35.5337H72.4611Z" fill="#CBCEDA"/>
<path d="M84.4231 35.5337C84.6081 35.5337 84.6713 35.597 84.6713 35.7819V36.8963C84.6713 37.0813 84.6081 37.1445 84.4231 37.1445H80.8267V43.218C80.8267 43.403 80.7635 43.4662 80.5785 43.4662H79.3376C79.1526 43.4662 79.0894 43.403 79.0894 43.218V37.1445H75.4929C75.308 37.1445 75.2448 37.0813 75.2448 36.8963V35.7819C75.2448 35.597 75.308 35.5337 75.4929 35.5337H84.355H84.4231Z" fill="#CBCEDA"/>
<path d="M93.4118 35.5337C94.278 35.5337 94.901 35.7186 95.2708 36.1517C95.6407 36.5216 95.8305 37.1445 95.8305 37.8891V38.5072C95.8305 39.1885 95.7088 39.6849 95.4606 40.0548C95.2124 40.4246 94.7793 40.6728 94.1612 40.7993L96.0835 43.218C96.1468 43.2813 96.1468 43.3397 96.1468 43.403C96.1468 43.4662 96.0835 43.5246 95.9619 43.5246H94.4727C94.351 43.5246 94.2878 43.5246 94.2878 43.4614C94.2245 43.4614 94.2245 43.3981 94.1661 43.3397L92.3703 40.9843H88.7155V43.2764C88.7155 43.4614 88.6523 43.5246 88.4673 43.5246H87.2264C87.0414 43.5246 86.9781 43.4614 86.9781 43.2764V35.9036C86.9781 35.6554 87.0998 35.5337 87.348 35.5337H93.4848H93.4118ZM88.7009 39.6216H93.0371C93.4069 39.6216 93.7184 39.5584 93.8449 39.3734C94.0298 39.1885 94.0931 38.9403 94.0931 38.6288V38.1324C94.0931 37.7626 94.0298 37.5144 93.8449 37.3879C93.66 37.2029 93.4118 37.1397 93.0371 37.1397H88.8226C88.7009 37.1397 88.7009 37.2029 88.7009 37.2613V39.6216Z" fill="#CBCEDA"/>
<path d="M99.7966 35.5337C99.9816 35.5337 100.045 35.597 100.045 35.7819V40.3078C100.045 40.6193 100.045 40.8675 100.108 41.0524C100.171 41.2373 100.23 41.4223 100.356 41.5488C100.483 41.6753 100.604 41.7337 100.789 41.797C100.974 41.8603 101.223 41.8603 101.534 41.8603H104.697C105.009 41.8603 105.257 41.8603 105.442 41.797C105.627 41.7337 105.812 41.6753 105.875 41.5488C105.997 41.4271 106.06 41.2373 106.123 41.0524C106.186 40.8675 106.186 40.6193 106.186 40.3078V35.7819C106.186 35.597 106.25 35.5337 106.435 35.5337H107.676C107.861 35.5337 107.924 35.597 107.924 35.7819V40.4927C107.924 41.0524 107.861 41.4855 107.739 41.8554C107.617 42.2253 107.427 42.5367 107.179 42.7849C106.931 43.0331 106.62 43.218 106.186 43.2813C105.753 43.403 105.32 43.4662 104.697 43.4662H101.412C100.853 43.4662 100.356 43.403 99.9232 43.2813C99.5533 43.1596 99.1786 42.9698 98.9304 42.7849C98.6822 42.5367 98.4973 42.2253 98.3707 41.8554C98.2491 41.4855 98.1858 40.9891 98.1858 40.4927V35.7819C98.1858 35.597 98.2491 35.5337 98.434 35.5337H99.675H99.7966Z" fill="#CBCEDA"/>
<path d="M112.81 35.5337C112.995 35.5337 113.121 35.5337 113.243 35.597C113.365 35.597 113.491 35.6602 113.554 35.7186C113.618 35.7819 113.739 35.8403 113.803 35.9668C113.866 36.0885 113.924 36.215 114.051 36.3999L116.406 41.8554C116.47 41.9187 116.47 41.9771 116.591 41.9771H116.713C116.776 41.9771 116.835 41.9138 116.898 41.8554L119.253 36.3999C119.317 36.215 119.375 36.0885 119.501 35.9668C119.565 35.8452 119.623 35.7819 119.75 35.7186C119.813 35.6554 119.935 35.597 120.061 35.597C120.188 35.597 120.309 35.5337 120.494 35.5337H121.735C122.105 35.5337 122.417 35.597 122.543 35.7819C122.665 35.9668 122.728 36.2783 122.728 36.7114V43.218C122.728 43.403 122.665 43.4662 122.48 43.4662H121.302C121.117 43.4662 121.054 43.403 121.054 43.218V37.2711C121.054 37.2078 120.991 37.1494 120.991 37.1494H120.869C120.806 37.1494 120.747 37.2127 120.747 37.2127L118.455 42.2934C118.392 42.4783 118.27 42.6632 118.144 42.7898C118.017 42.9163 117.959 43.038 117.832 43.1596C117.711 43.2229 117.584 43.3446 117.462 43.3446C117.341 43.4078 117.151 43.4078 116.966 43.4078H116.406C116.221 43.4078 116.036 43.4078 115.91 43.3446C115.783 43.2813 115.662 43.2229 115.54 43.1596C115.418 43.0964 115.355 42.9747 115.229 42.7898C115.107 42.6681 115.044 42.4783 114.917 42.2934L112.625 37.2127C112.625 37.1494 112.562 37.1494 112.503 37.1494H112.382C112.318 37.1494 112.318 37.2127 112.318 37.2711V43.2229C112.318 43.4078 112.255 43.4711 112.07 43.4711H110.888C110.703 43.4711 110.639 43.4078 110.639 43.2229V36.7114C110.639 36.2783 110.703 35.9668 110.824 35.7819C110.946 35.597 111.257 35.5337 111.632 35.5337H112.873H112.81Z" fill="#CBCEDA"/>
</g>
<defs>
<clipPath id="clip0_57_105">
<rect width="121.665" height="31.0002" fill="white" transform="translate(1 24)"/>
</clipPath>
</defs>
</svg>
