<svg width="124" height="80" viewBox="0 0 124 80" fill="none" xmlns="http://www.w3.org/2000/svg">
<g clip-path="url(#clip0_57_40)">
<path d="M88.2974 33.5858C89.6249 33.9251 90.19 34.2381 91.2028 35.1636C92.9763 36.819 93.6339 39.2308 92.9895 41.7342C92.2535 44.6281 89.6514 46.5444 86.5494 46.4924C86.1108 46.484 85.6726 46.4578 85.236 46.414C84.5917 46.3099 83.4739 45.841 82.7908 45.3844C79.4394 43.1683 78.9916 38.1095 81.897 35.2676C82.7858 34.3814 83.9142 33.7742 85.1435 33.5205C86.3529 33.2737 87.1012 33.2861 88.2974 33.5858ZM60.6709 33.5858L61.749 33.6245L62.8261 33.6642L62.8658 37.3144C62.9187 42.6474 62.6948 43.833 61.3805 45.1367C60.4215 46.0755 59.5664 46.4016 57.8317 46.4536C57.1088 46.4801 56.3331 46.4404 56.0969 46.3884C54.1515 45.893 52.824 44.3804 52.496 42.3071C52.4299 41.8514 52.3903 39.7262 52.4035 37.5753L52.4432 33.6642H54.5464L54.6116 38.0311C54.6777 42.3724 54.6777 42.3988 55.0065 43.0511C56.0052 45.0327 59.1856 45.045 60.2372 43.0776L60.5916 42.3988L60.6709 33.5858ZM44.4781 33.599L44.7417 34.2901C44.8862 34.655 45.4777 36.1941 46.0692 37.7058C46.6598 39.2175 47.3041 40.8862 47.5148 41.4212C47.7114 41.9554 48.2112 43.2336 48.6184 44.2508C49.0257 45.2672 49.3545 46.1407 49.3545 46.1795C49.3545 46.2192 48.8555 46.2447 48.2508 46.2447C47.1728 46.2447 47.1463 46.2315 47.015 45.8921C46.9357 45.6841 46.1476 43.6505 45.2802 41.356C43.2564 36.0372 43.2696 36.0759 43.0986 36.0759C43.0192 36.0759 42.9011 36.2716 42.8227 36.5061C42.7433 36.7274 42.1915 38.188 41.6001 39.7262C41.0095 41.2643 40.2073 43.3508 39.8256 44.3539L39.1425 46.1795L38.0777 46.2192C37.1706 46.2456 36.9996 46.2192 36.9996 46.049C36.9996 45.8146 41.5868 34.0027 41.7711 33.7682C41.8504 33.651 42.3096 33.599 43.1902 33.599H44.4781ZM70.0816 33.599C73.485 33.599 74.2475 33.7162 75.2206 34.4205C75.5618 34.6673 75.9699 35.1372 76.2061 35.5418C76.5482 36.1544 76.6266 36.4277 76.6663 37.3664C76.7051 38.2788 76.6663 38.6181 76.4424 39.2308C76.088 40.1299 75.2859 40.9126 74.34 41.252C73.9716 41.3816 73.6701 41.512 73.6701 41.5517C73.6701 41.5905 74.4449 42.5945 75.3784 43.7942C76.3243 44.993 77.0867 46.0235 77.0867 46.101C77.0867 46.2967 75.2206 46.2835 74.8125 46.101C74.6292 46.0235 73.7221 44.9674 72.8027 43.7545L71.1068 41.5649L70.1601 41.5517H69.201V46.2447H67.0978L67.1242 43.0247L67.1639 39.7914L70.1865 39.7262C72.3682 39.6742 73.3017 39.6089 73.5511 39.4793C74.5102 38.9963 74.9051 37.4837 74.3004 36.6101C73.6957 35.711 73.3801 35.6326 70.5541 35.5541L68.0181 35.4889L67.6108 35.0852C67.3502 34.8356 67.1831 34.5043 67.1375 34.1464L67.0581 33.599H70.0816ZM99.4702 33.6254C102.598 33.6642 102.821 33.6774 103.439 33.9639C104.831 34.603 105.581 35.7366 105.673 37.3276C105.778 39.3348 104.924 40.7169 103.216 41.2776C102.939 41.3692 102.716 41.4997 102.716 41.5649C102.716 41.6293 103.465 42.6333 104.372 43.7942C105.278 44.9542 106.054 45.9838 106.094 46.0887C106.199 46.3487 103.912 46.2579 103.57 45.9838C103.439 45.8798 102.598 44.837 101.691 43.6761L100.061 41.5517H99.167C98.4706 41.5517 98.2599 41.6037 98.1947 41.7597C98.155 41.877 98.1154 42.933 98.1154 44.1071V46.2447H96.013V43.1948C96.013 41.512 96.0518 40.0523 96.0924 39.9351C96.1576 39.7526 96.5516 39.7262 99.0224 39.7262C102.216 39.7262 102.663 39.6221 103.254 38.8006C103.675 38.2144 103.675 37.08 103.268 36.5061C102.729 35.763 102.256 35.6334 99.561 35.5541C97.5768 35.5021 97.0514 35.4501 96.7755 35.2676C96.3542 34.9944 95.9734 34.1984 96.0791 33.8467C96.1708 33.5858 96.236 33.5858 99.4693 33.6245L99.4702 33.6254ZM116.937 33.6642L117.686 35.5541C118.08 36.5302 118.47 37.5081 118.856 38.4877C119.079 39.0606 119.828 40.9911 120.511 42.7637C121.208 44.5373 121.773 46.049 121.773 46.1143C121.773 46.1927 121.3 46.2447 120.682 46.2447H119.605L118.632 43.6761C116.569 38.24 115.741 36.1412 115.622 36.1024C115.504 36.0627 115.215 36.7406 113.835 40.3132C113.599 40.9655 112.994 42.5028 112.521 43.7422C112.047 44.9674 111.653 46.049 111.653 46.1143C111.653 46.1927 111.193 46.2447 110.536 46.2447C109.892 46.2447 109.419 46.1918 109.419 46.1143C109.419 46.0235 112.823 37.2104 114.006 34.2504L114.229 33.6642H116.937ZM86.5362 35.4236C83.4219 35.4236 81.3848 38.3317 82.3439 41.4345C82.5934 42.2551 82.7379 42.4905 83.4475 43.1939C84.1174 43.8594 84.4207 44.0542 85.117 44.2764C85.6853 44.466 86.2855 44.5418 86.8831 44.4993C87.4807 44.4568 88.064 44.2969 88.5998 44.0287C91.0706 42.8299 91.8595 39.6477 90.2957 37.288C89.4804 36.0627 88.1925 35.4236 86.5362 35.4236Z" fill="#CBCEDA"/>
<path d="M16.2222 29.0204C16.768 29.0186 17.3034 29.1697 17.7678 29.4565C18.2321 29.7433 18.607 30.1544 18.8499 30.6432L27.1138 47.1709C27.338 47.6189 27.444 48.1168 27.4216 48.6172C27.3993 49.1177 27.2493 49.6041 26.986 50.0303C26.7227 50.4565 26.3548 50.8083 25.9172 51.0522C25.4797 51.2962 24.987 51.4242 24.4861 51.4241H7.95828C7.45739 51.424 6.96483 51.2959 6.5274 51.0519C6.08997 50.8079 5.72218 50.4561 5.45898 50.0299C5.19577 49.6038 5.04589 49.1174 5.02358 48.617C5.00126 48.1166 5.10724 47.6188 5.33146 47.1709L13.5945 30.6432C13.8373 30.1544 14.2122 29.7433 14.6766 29.4565C15.141 29.1697 15.6764 29.0186 16.2222 29.0204ZM16.2222 27C15.3015 26.9999 14.399 27.2562 13.6157 27.74C12.8325 28.2239 12.1994 28.9163 11.7874 29.7396L3.52354 46.2674C3.14528 47.0234 2.96658 47.8636 3.00442 48.7081C3.04226 49.5525 3.29538 50.3733 3.73974 51.0925C4.18409 51.8116 4.80493 52.4052 5.54327 52.8168C6.28161 53.2285 7.11294 53.4445 7.95828 53.4444H24.4861C25.3313 53.4444 26.1625 53.2282 26.9008 52.8165C27.639 52.4048 28.2597 51.8112 28.7039 51.0921C29.1482 50.373 29.4012 49.5523 29.439 48.7078C29.4768 47.8634 29.2981 47.0233 28.9199 46.2674L20.6569 29.7396C20.2449 28.9163 19.6119 28.2239 18.8286 27.74C18.0453 27.2562 17.1428 26.9999 16.2222 27Z" fill="#CBCEDA"/>
</g>
<defs>
<clipPath id="clip0_57_40">
<rect width="119" height="26.4444" fill="white" transform="translate(3 27)"/>
</clipPath>
</defs>
</svg>
