<svg width="124" height="80" viewBox="0 0 124 80" fill="none" xmlns="http://www.w3.org/2000/svg">
<g clip-path="url(#clip0_57_44)">
<path d="M21.4487 31.5764H5.54126V47.1699H21.4487V31.5764Z" fill="#1E263F"/>
<path d="M34.2757 36.1208H35.6124L39.3528 44.8034H37.5868L36.7774 42.8167H33.0126L32.2277 44.8034H30.4985L34.2757 36.1208ZM36.2379 41.4923L34.9011 37.9604L33.5399 41.4923H36.2379Z" fill="#CBCEDA"/>
<path d="M41.0102 36.1208H42.7884L45.1553 42.6818L47.5956 36.1208H49.2637L45.7562 44.8034H44.4196L41.0102 36.1208Z" fill="#CBCEDA"/>
<path d="M54.7859 36.1208H56.1229L59.8629 44.8034H58.097L57.2878 42.8167H53.5227L52.7378 44.8034H51.0089L54.7859 36.1208ZM56.7481 41.4923L55.4114 37.9604L54.0502 41.4923H56.7481Z" fill="#CBCEDA"/>
<path d="M63.2808 36.1208H64.8261V43.4054H68.5172V44.8034H63.2808V36.1208Z" fill="#CBCEDA"/>
<path d="M74.9008 36.1208H76.2379L79.9779 44.8034H78.212L77.4028 42.8167H73.6377L72.8528 44.8034H71.1238L74.9008 36.1208ZM76.8631 41.4923L75.5264 37.9604L74.1652 41.4923H76.8631Z" fill="#CBCEDA"/>
<path d="M83.3958 36.1208H85.4438L89.6501 42.5714H89.6747V36.1208H91.2196V44.8034H89.2578L84.9653 38.1443H84.941V44.8034H83.3958V36.1208Z" fill="#CBCEDA"/>
<path d="M101.569 38.1566C101.25 37.8132 100.94 37.5843 100.637 37.4698C100.342 37.3554 100.044 37.2982 99.7419 37.2982C99.2922 37.2982 98.8834 37.3799 98.5153 37.5435C98.1558 37.6988 97.8451 37.9195 97.5833 38.2057C97.3215 38.4836 97.1175 38.8107 96.97 39.1868C96.8311 39.5629 96.7618 39.9675 96.7618 40.4008C96.7618 40.8668 96.8311 41.2961 96.97 41.6885C97.1175 42.0809 97.3215 42.4202 97.5833 42.7064C97.8451 42.9925 98.1558 43.2174 98.5153 43.3809C98.8834 43.5444 99.2922 43.6262 99.7419 43.6262C100.093 43.6262 100.433 43.5444 100.76 43.3809C101.095 43.2092 101.405 42.9394 101.692 42.5715L102.967 43.479C102.575 44.0186 102.096 44.411 101.532 44.6563C100.968 44.9016 100.367 45.0242 99.7296 45.0242C99.0589 45.0242 98.4418 44.9179 97.8778 44.7053C97.3215 44.4846 96.8392 44.178 96.4307 43.7856C96.0299 43.385 95.715 42.9067 95.4863 42.3507C95.2573 41.7948 95.1429 41.1775 95.1429 40.499C95.1429 39.804 95.2573 39.1745 95.4863 38.6104C95.715 38.0381 96.0299 37.5516 96.4307 37.151C96.8392 36.7504 97.3215 36.4438 97.8778 36.2313C98.4418 36.0105 99.0589 35.9001 99.7296 35.9001C100.318 35.9001 100.862 36.0064 101.36 36.219C101.867 36.4234 102.337 36.7749 102.771 37.2737L101.569 38.1566Z" fill="#CBCEDA"/>
<path d="M106.457 36.1208H108.002V39.5791H112.061V36.1208H113.606V44.8034H112.061V40.9772H108.002V44.8034H106.457V36.1208Z" fill="#CBCEDA"/>
<path d="M117.999 36.1208H123.751V37.5189H119.545V39.6527H123.53V41.0508H119.545V43.4054H123.972V44.8034H117.999V36.1208Z" fill="#CBCEDA"/>
<path fill-rule="evenodd" clip-rule="evenodd" d="M25.9245 40.4633C25.9245 47.3414 20.3487 52.9173 13.4705 52.9173C6.5924 52.9173 1.01654 47.3414 1.01654 40.4633C1.01654 33.5851 6.5924 28.0093 13.4705 28.0093C20.3487 28.0093 25.9245 33.5851 25.9245 40.4633ZM9.94146 45.4191H7.5245C7.01664 45.4191 6.76575 45.4191 6.61276 45.3212C6.44757 45.2141 6.34659 45.0366 6.33435 44.8408C6.32519 44.6603 6.45061 44.44 6.7015 43.9995L12.6693 33.4804C12.9232 33.0337 13.0517 32.8104 13.2139 32.7278C13.3883 32.6391 13.5963 32.6391 13.7707 32.7278C13.9329 32.8104 14.0614 33.0337 14.3153 33.4804L15.5484 35.633C15.8227 36.1122 15.9618 36.3552 16.0225 36.6102C16.0898 36.8886 16.0898 37.1823 16.0225 37.4608C15.9613 37.7178 15.8236 37.9625 15.5452 38.449L12.4105 43.9903L12.4023 44.0045C12.1262 44.4877 11.9863 44.7325 11.7924 44.9173C11.5813 45.1192 11.3274 45.2661 11.049 45.3487C10.7951 45.4191 10.5105 45.4191 9.94146 45.4191ZM16.0451 45.4193H19.5084C20.0194 45.4193 20.2764 45.4193 20.4293 45.3184C20.5945 45.2113 20.6986 45.0308 20.7078 44.835C20.7166 44.6604 20.5939 44.4487 20.3534 44.0337C20.3452 44.0196 20.3368 44.0052 20.3284 43.9906L18.5937 41.0229L18.5739 40.9895C18.3301 40.5773 18.207 40.3691 18.0491 40.2886C17.8747 40.1999 17.6697 40.1999 17.4953 40.2886C17.3362 40.3712 17.2077 40.5885 16.9538 41.0259L15.2252 43.9936L15.2193 44.0039C14.9662 44.4406 14.8398 44.6589 14.8489 44.8381C14.8611 45.0339 14.9621 45.2144 15.1273 45.3214C15.2772 45.4193 15.5342 45.4193 16.0451 45.4193Z" fill="#CBCEDA"/>
</g>
<defs>
<clipPath id="clip0_57_44">
<rect width="123" height="24.9465" fill="white" transform="translate(1 28)"/>
</clipPath>
</defs>
</svg>
