<svg width="124" height="80" viewBox="0 0 124 80" fill="none" xmlns="http://www.w3.org/2000/svg">
<g clip-path="url(#clip0_57_215)">
<path d="M49.7364 35.4643C49.7364 36.1409 49.8104 36.6896 49.9409 37.0919C50.0894 37.4942 50.2749 37.9329 50.5348 38.4087C50.6273 38.5546 50.6648 38.701 50.6648 38.8289C50.6648 39.0118 50.5533 39.1947 50.3118 39.3776L49.142 40.1457C48.975 40.2556 48.8081 40.3101 48.6591 40.3101C48.4736 40.3101 48.2876 40.2187 48.1022 40.0543C47.8523 39.7899 47.6285 39.502 47.4338 39.1947C47.2264 38.8436 47.0344 38.4836 46.8583 38.1158C45.4095 39.7984 43.5898 40.6394 41.3986 40.6394C39.8383 40.6394 38.5945 40.2007 37.6841 39.3227C36.7747 38.4452 36.3103 37.2748 36.3103 35.8116C36.3103 34.2575 36.8672 32.9957 38.0006 32.0447C39.1329 31.0937 40.6372 30.618 42.5499 30.618C43.1813 30.618 43.8313 30.673 44.5182 30.7644C45.2051 30.8559 45.9104 31.0023 46.6539 31.1667V29.8319C46.6539 28.4422 46.3564 27.4727 45.7805 26.9061C45.1866 26.3389 44.1837 26.0645 42.7544 26.0645C42.104 26.0645 41.4356 26.138 40.7487 26.3024C40.0613 26.4668 39.3924 26.6682 38.743 26.9241C38.446 27.0525 38.223 27.1254 38.0931 27.1619C37.9631 27.1984 37.8701 27.2169 37.7956 27.2169C37.5356 27.2169 37.4056 27.034 37.4056 26.6497V25.7537C37.4056 25.4609 37.4431 25.242 37.5356 25.1136C37.6286 24.9856 37.7956 24.8577 38.0556 24.7298C38.706 24.401 39.4859 24.1261 40.3957 23.9067C41.3051 23.6694 42.271 23.5594 43.2923 23.5594C45.5025 23.5594 47.1178 24.0532 48.1576 25.0406C49.1795 26.0281 49.6989 27.5272 49.6989 29.5391V35.4643H49.7364ZM42.197 38.2438C42.8099 38.2438 43.4413 38.1343 44.1097 37.915C44.7781 37.6951 45.3725 37.2933 45.874 36.7441C46.1709 36.3968 46.3939 36.013 46.5054 35.5737C46.6164 35.135 46.6909 34.6048 46.6909 33.9831V33.2151C46.1276 33.0801 45.5573 32.9763 44.9826 32.9042C44.4035 32.8318 43.8205 32.795 43.2368 32.7943C41.9925 32.7943 41.0826 33.0322 40.4697 33.5259C39.8573 34.0191 39.5604 34.7142 39.5604 35.6287C39.5604 36.4882 39.7828 37.1284 40.2473 37.5671C40.6927 38.0244 41.3426 38.2438 42.197 38.2438ZM57.1084 40.2187C56.7744 40.2187 56.5515 40.1642 56.403 40.0358C56.254 39.9263 56.1245 39.6705 56.0131 39.3227L51.6492 25.1875C51.5377 24.8217 51.4822 24.5839 51.4822 24.4559C51.4822 24.1631 51.6307 23.9987 51.9276 23.9987H53.7474C54.1003 23.9987 54.3418 24.0537 54.4718 24.1816C54.6208 24.2915 54.7317 24.5474 54.8432 24.8947L57.9628 37.001L60.8599 24.8947C60.9524 24.5289 61.0644 24.2915 61.2128 24.1816C61.3613 24.0722 61.6213 23.9987 61.9552 23.9987H63.441C63.794 23.9987 64.0354 24.0537 64.1839 24.1816C64.3324 24.2915 64.4624 24.5474 64.5369 24.8947L67.4704 37.1474L70.6835 24.8947C70.795 24.5289 70.925 24.2915 71.055 24.1816C71.2034 24.0722 71.4449 23.9987 71.7794 23.9987H73.5056C73.8036 23.9987 73.97 24.1451 73.97 24.4559C73.97 24.5474 73.9515 24.6388 73.933 24.7488C73.904 24.9049 73.8604 25.058 73.8031 25.206L69.3282 39.3417C69.2162 39.7075 69.0867 39.9448 68.9377 40.0548C68.7888 40.1647 68.5478 40.2377 68.2318 40.2377H66.6351C66.2821 40.2377 66.0406 40.1827 65.8922 40.0548C65.7437 39.9263 65.6137 39.689 65.5392 39.3232L62.6611 27.5277L59.8015 39.3047C59.7085 39.6705 59.5971 39.9078 59.4486 40.0358C59.2996 40.1642 59.0401 40.2187 58.7057 40.2187H57.1084ZM80.9711 40.7124C80.0052 40.7124 79.0398 40.603 78.1115 40.3836C77.1831 40.1642 76.4587 39.9263 75.9758 39.652C75.6788 39.4876 75.4743 39.3047 75.4004 39.1398C75.3282 38.9787 75.2902 38.8045 75.2889 38.6281V37.6951C75.2889 37.3113 75.4373 37.1284 75.7158 37.1284C75.8273 37.1284 75.9388 37.1464 76.0497 37.1834C76.1617 37.2193 76.3287 37.2928 76.5142 37.3663C77.1461 37.6406 77.833 37.8595 78.5569 38.0059C79.2998 38.1523 80.0242 38.2253 80.7671 38.2253C81.9369 38.2253 82.8468 38.0244 83.4782 37.6221C84.1096 37.2198 84.4441 36.6347 84.4441 35.8846C84.4441 35.3729 84.2766 34.9521 83.9422 34.6048C83.6082 34.2575 82.9763 33.9461 82.0669 33.6538L79.3743 32.8308C78.0185 32.4105 77.0161 31.7883 76.4027 30.9658C75.7903 30.1613 75.4743 29.2653 75.4743 28.3138C75.4743 27.5457 75.6413 26.8696 75.9758 26.2844C76.3088 25.6942 76.7649 25.1826 77.3131 24.7842C77.87 24.364 78.5014 24.0532 79.2443 23.8338C79.9867 23.6144 80.7671 23.5229 81.584 23.5229C81.9924 23.5229 82.4199 23.5409 82.8283 23.5959C83.2552 23.6509 83.6452 23.7243 84.0357 23.7973C84.4066 23.8887 84.7595 23.9802 85.094 24.0901C85.4279 24.1996 85.6879 24.309 85.8739 24.4189C86.1339 24.5654 86.3193 24.7118 86.4308 24.8762C86.5423 25.0221 86.5978 25.2235 86.5978 25.4794V26.3389C86.5978 26.7232 86.4493 26.9246 86.1708 26.9246C86.0224 26.9246 85.7809 26.8511 85.4649 26.7047C84.4066 26.2294 83.2183 25.9916 81.8994 25.9916C80.8411 25.9916 80.0057 26.156 79.4298 26.5038C78.8544 26.8511 78.5569 27.3813 78.5569 28.1314C78.5569 28.6431 78.7429 29.0818 79.1143 29.4297C79.4858 29.777 80.1727 30.1243 81.1571 30.4351L83.7937 31.2581C85.131 31.6789 86.0964 32.2641 86.6723 33.0137C87.2477 33.7638 87.5261 34.6233 87.5261 35.5737C87.5261 36.3598 87.3592 37.0739 87.0437 37.6956C86.7093 38.3172 86.2638 38.8654 85.6879 39.3047C85.1125 39.7619 84.4251 40.0907 83.6267 40.3286C82.7908 40.5845 81.9184 40.7124 80.9711 40.7124Z" fill="#CBCEDA"/>
<path d="M84.4791 49.6015C78.3699 54.0445 69.4932 56.4037 61.8612 56.4037C51.1647 56.4037 41.5265 52.5094 34.2471 46.036C33.6716 45.5238 34.1916 44.8287 34.879 45.2309C42.7524 49.7294 52.4645 52.4544 62.5111 52.4544C69.2892 52.4544 76.7356 51.0647 83.5877 48.2118C84.609 47.7545 85.4819 48.8704 84.4791 49.6015Z" fill="#CBCEDA"/>
<path d="M87.0197 46.7471C86.2393 45.7596 81.8569 46.2719 79.8702 46.5092C79.2758 46.5827 79.1828 46.0705 79.7212 45.6867C83.2128 43.2725 88.951 43.9676 89.6194 44.7722C90.2878 45.5952 89.4334 51.2456 86.1653 53.9521C85.6639 54.3728 85.181 54.1535 85.404 53.6048C86.1469 51.7943 87.7996 47.7165 87.0197 46.7471Z" fill="#CBCEDA"/>
<path d="M49.7364 35.4643C49.7364 36.1409 49.8104 36.6896 49.9409 37.0919C50.0894 37.4942 50.2749 37.9329 50.5348 38.4087C50.6273 38.5546 50.6648 38.701 50.6648 38.8289C50.6648 39.0118 50.5533 39.1947 50.3118 39.3776L49.142 40.1457C48.975 40.2556 48.8081 40.3101 48.6591 40.3101C48.4736 40.3101 48.2876 40.2187 48.1022 40.0543C47.8523 39.7899 47.6284 39.502 47.4338 39.1947C47.2264 38.8436 47.0344 38.4836 46.8583 38.1158C45.4095 39.7984 43.5898 40.6394 41.3986 40.6394C39.8383 40.6394 38.5945 40.2007 37.6841 39.3227C36.7747 38.4452 36.3103 37.2748 36.3103 35.8116C36.3103 34.2575 36.8672 32.9957 38.0006 32.0447C39.1329 31.0937 40.6372 30.618 42.5499 30.618C43.1813 30.618 43.8313 30.673 44.5182 30.7644C45.2051 30.8559 45.9104 31.0023 46.6539 31.1667V29.8319C46.6539 28.4422 46.3564 27.4727 45.7805 26.9061C45.1866 26.3389 44.1837 26.0645 42.7544 26.0645C42.104 26.0645 41.4356 26.138 40.7487 26.3024C40.0613 26.4668 39.3924 26.6682 38.743 26.9241C38.446 27.0525 38.223 27.1254 38.0931 27.1619C37.9631 27.1984 37.8701 27.2169 37.7956 27.2169C37.5356 27.2169 37.4056 27.034 37.4056 26.6497V25.7537C37.4056 25.4609 37.4431 25.242 37.5356 25.1136C37.6286 24.9856 37.7956 24.8577 38.0556 24.7298C38.706 24.401 39.4859 24.1261 40.3957 23.9067C41.3051 23.6694 42.271 23.5594 43.2923 23.5594C45.5025 23.5594 47.1178 24.0532 48.1576 25.0406C49.1795 26.0281 49.6989 27.5272 49.6989 29.5391V35.4643H49.7364ZM42.197 38.2438C42.8099 38.2438 43.4413 38.1343 44.1097 37.915C44.7781 37.6951 45.3725 37.2933 45.874 36.7441C46.1709 36.3968 46.3939 36.013 46.5054 35.5737C46.6164 35.135 46.6909 34.6048 46.6909 33.9831V33.2151C46.1276 33.0801 45.5573 32.9763 44.9826 32.9042C44.4035 32.8318 43.8205 32.795 43.2368 32.7943C41.9925 32.7943 41.0826 33.0322 40.4697 33.5259C39.8573 34.0191 39.5604 34.7142 39.5604 35.6287C39.5604 36.4882 39.7828 37.1284 40.2473 37.5671C40.6927 38.0244 41.3426 38.2438 42.197 38.2438ZM57.1084 40.2187C56.7744 40.2187 56.5515 40.1642 56.403 40.0358C56.254 39.9263 56.1245 39.6705 56.0131 39.3227L51.6492 25.1875C51.5377 24.8217 51.4822 24.5839 51.4822 24.4559C51.4822 24.1631 51.6307 23.9987 51.9276 23.9987H53.7474C54.1003 23.9987 54.3418 24.0537 54.4718 24.1816C54.6208 24.2915 54.7317 24.5474 54.8432 24.8947L57.9628 37.001L60.8599 24.8947C60.9524 24.5289 61.0644 24.2915 61.2128 24.1816C61.3613 24.0722 61.6213 23.9987 61.9552 23.9987H63.441C63.794 23.9987 64.0354 24.0537 64.1839 24.1816C64.3329 24.2915 64.4624 24.5474 64.5369 24.8947L67.4704 37.1469L70.684 24.8947C70.7955 24.5289 70.9255 24.2915 71.0555 24.1816C71.204 24.0722 71.4454 23.9987 71.7799 23.9987H73.5061C73.8041 23.9987 73.9706 24.1451 73.9706 24.4559C73.9706 24.5474 73.9521 24.6388 73.9336 24.7488C73.9044 24.9049 73.8609 25.058 73.8036 25.206L69.3287 39.3417C69.2167 39.7075 69.0873 39.9448 68.9383 40.0548C68.7893 40.1647 68.5483 40.2377 68.2329 40.2377H66.6356C66.2826 40.2377 66.0412 40.1827 65.8927 40.0548C65.7442 39.9263 65.6142 39.689 65.5397 39.3232L62.6611 27.5277L59.8015 39.3047C59.7085 39.6705 59.5971 39.9078 59.4486 40.0358C59.2996 40.1642 59.0401 40.2187 58.7057 40.2187H57.1084ZM80.9711 40.7124C80.0052 40.7124 79.0398 40.603 78.1115 40.3836C77.1831 40.1642 76.4587 39.9263 75.9758 39.652C75.6788 39.4876 75.4743 39.3047 75.4004 39.1398C75.3282 38.9787 75.2902 38.8045 75.2889 38.6281V37.6951C75.2889 37.3113 75.4373 37.1284 75.7158 37.1284C75.8273 37.1284 75.9388 37.1464 76.0498 37.1834C76.1618 37.2193 76.3287 37.2928 76.5142 37.3663C77.1461 37.6406 77.833 37.8595 78.5569 38.0059C79.2998 38.1523 80.0242 38.2253 80.7671 38.2253C81.9369 38.2253 82.8468 38.0244 83.4782 37.6221C84.1096 37.2198 84.4441 36.6347 84.4441 35.8846C84.4441 35.3729 84.2766 34.9521 83.9422 34.6048C83.6082 34.2575 82.9763 33.9461 82.0669 33.6538L79.3743 32.8308C78.0185 32.4105 77.0161 31.7883 76.4027 30.9658C75.7903 30.1613 75.4743 29.2653 75.4743 28.3138C75.4743 27.5457 75.6413 26.8696 75.9758 26.2844C76.3088 25.6943 76.7649 25.1826 77.3131 24.7842C77.87 24.364 78.5014 24.0532 79.2443 23.8338C79.9867 23.6144 80.7671 23.5229 81.584 23.5229C81.9924 23.5229 82.4199 23.5409 82.8283 23.5959C83.2553 23.6509 83.6452 23.7243 84.0357 23.7973C84.4066 23.8887 84.7595 23.9802 85.094 24.0901C85.428 24.1996 85.6879 24.309 85.8739 24.4189C86.1339 24.5654 86.3193 24.7118 86.4308 24.8762C86.5423 25.0221 86.5978 25.2235 86.5978 25.4794V26.3389C86.5978 26.7232 86.4493 26.9246 86.1708 26.9246C86.0224 26.9246 85.7809 26.8511 85.4649 26.7047C84.4066 26.2294 83.2183 25.9916 81.8994 25.9916C80.8411 25.9916 80.0057 26.156 79.4298 26.5038C78.8544 26.8511 78.5569 27.3813 78.5569 28.1314C78.5569 28.6431 78.7429 29.0818 79.1143 29.4297C79.4858 29.777 80.1727 30.1243 81.1571 30.4351L83.7937 31.2581C85.131 31.6789 86.0964 32.2641 86.6723 33.0137C87.2477 33.7638 87.5267 34.6233 87.5267 35.5737C87.5267 36.3598 87.3592 37.0739 87.0437 37.6956C86.7093 38.3172 86.2638 38.8654 85.6879 39.3047C85.1125 39.7619 84.4251 40.0907 83.6267 40.3286C82.7913 40.5845 81.9184 40.7124 80.9711 40.7124Z" fill="#CBCEDA"/>
<path d="M84.4792 49.6015C78.37 54.0445 69.4932 56.4037 61.8613 56.4037C51.1648 56.4037 41.5266 52.5094 34.2477 46.036C33.6723 45.5238 34.1922 44.8287 34.8796 45.2309C42.753 49.73 52.4651 52.4544 62.5117 52.4544C69.2898 52.4544 76.7363 51.0647 83.5883 48.2118C84.6097 47.7545 85.482 48.8704 84.4792 49.6015Z" fill="#CBCEDA"/>
<path d="M87.0197 46.7471C86.2393 45.7596 81.8569 46.2719 79.8702 46.5092C79.2758 46.5827 79.1828 46.0705 79.7212 45.6867C83.2128 43.2725 88.951 43.9676 89.6194 44.7722C90.2878 45.5952 89.4334 51.2456 86.1653 53.9521C85.6639 54.3728 85.181 54.1535 85.404 53.6048C86.1469 51.7943 87.7996 47.7165 87.0197 46.7471Z" fill="#CBCEDA"/>
</g>
<defs>
<clipPath id="clip0_57_215">
<rect width="56" height="32.8807" fill="white" transform="translate(34 23.5229)"/>
</clipPath>
</defs>
</svg>
