<svg width="124" height="80" viewBox="0 0 124 80" fill="none" xmlns="http://www.w3.org/2000/svg">
<g clip-path="url(#clip0_57_154)">
<path d="M43.5045 50.942V30.0578H50.0695C52.2465 30.0578 53.8859 30.5273 54.9838 31.4663C56.0817 32.4013 56.6307 33.7902 56.6307 35.633C56.6307 36.6071 56.3675 37.4757 55.8298 38.2229C55.2997 38.978 54.574 39.561 53.6528 39.9718C54.7394 40.2848 55.5967 40.8873 56.2284 41.7675C56.8601 42.6556 57.1684 43.7081 57.1684 44.9248C57.1684 46.7988 56.5856 48.2699 55.4162 49.338C54.2506 50.41 52.6037 50.942 50.4718 50.942H43.5045ZM46.1553 41.2198V48.6807H50.5207C51.754 48.6807 52.7278 48.352 53.4385 47.6909C54.1491 47.0297 54.5063 46.1181 54.5063 44.9639C54.5063 42.4679 53.1941 41.2198 50.5621 41.2198H46.1553ZM46.1553 38.9585H50.1485C51.3065 38.9585 52.2315 38.6533 52.9309 38.0508C53.6227 37.4483 53.9724 36.6345 53.9724 35.6017C53.9724 34.4514 53.649 33.6181 53.0061 33.0977C52.3631 32.5735 51.3817 32.3153 50.0695 32.3153H46.1553V38.9585ZM72.1595 45.4804H63.7446L61.8571 50.9459H59.1273L66.794 30.0578H69.1101L76.7881 50.9459H74.0733L72.1595 45.4804ZM64.5493 43.219H71.3774L67.9558 33.4577L64.5493 43.219ZM85.406 41.6345C83.1387 40.9538 81.4881 40.1165 80.4503 39.1267C79.4163 38.1369 78.8974 36.9123 78.8974 35.4608C78.8974 33.8176 79.5329 32.4561 80.7925 31.3763C82.0596 30.3004 83.6989 29.7605 85.7181 29.7605C87.098 29.7605 88.3313 30.0383 89.4066 30.5938C90.4895 31.1455 91.3205 31.9123 91.9145 32.8904C92.5086 33.8646 92.8057 34.9326 92.8057 36.0868H90.1473C90.1473 34.8231 89.7601 33.8294 88.9893 33.1056C88.2185 32.3857 87.1243 32.0218 85.7181 32.0218C84.4133 32.0218 83.3981 32.3192 82.6687 32.9178C81.9355 33.5203 81.5708 34.3458 81.5708 35.4099C81.5708 36.2628 81.9129 36.9866 82.6123 37.5735C83.3041 38.1603 84.4848 38.7002 86.1542 39.1893C87.8199 39.6783 89.1284 40.2182 90.0684 40.8051C91.0084 41.392 91.7077 42.0766 92.1627 42.8669C92.6177 43.6494 92.8433 44.5766 92.8433 45.6369C92.8433 47.3309 92.2078 48.6885 90.9407 49.7057C89.6698 50.7229 87.9778 51.2315 85.8534 51.2315C84.4735 51.2315 83.1838 50.9577 81.9919 50.4099C80.8 49.8583 79.8788 49.1032 79.2283 48.1486C78.5778 47.194 78.2582 46.1063 78.2582 44.8935H80.9165C80.9165 46.1533 81.364 47.147 82.2626 47.8747C83.1575 48.6024 84.3532 48.9702 85.8534 48.9702C87.2521 48.9702 88.32 48.6729 89.0645 48.0782C89.8127 47.4874 90.1849 46.6776 90.1849 45.6603C90.1849 44.6353 89.8353 43.845 89.1509 43.2855C88.4704 42.7339 87.2183 42.1783 85.406 41.6345ZM107.594 41.3059H98.8969V48.6807H109V50.942H96.2498V30.0578H108.865V32.3192H98.8969V39.0445H107.594V41.3059Z" fill="#CBCEDA"/>
<path d="M26.9681 53C33.6007 53 38.9813 47.4053 38.9813 40.5C38.9813 33.5986 33.6045 28 26.9681 28C20.6776 28 15.5114 33.0391 15 39.4476H30.8747V41.5485H15C15.5114 47.9609 20.6776 53 26.9681 53Z" fill="#CBCEDA"/>
</g>
<defs>
<clipPath id="clip0_57_154">
<rect width="94" height="25" fill="white" transform="translate(15 28)"/>
</clipPath>
</defs>
</svg>
