<svg width="124" height="80" viewBox="0 0 124 80" fill="none" xmlns="http://www.w3.org/2000/svg">
<g clip-path="url(#clip0_57_27)">
<path d="M3.63072 31.9707L9.43392 28.6128L15.2371 31.9707L13.0597 33.1512L9.43392 31.063L5.71392 33.1512L3.63072 31.9707ZM15.1478 36.1421L13.0597 34.9616L9.43392 37.0498L5.71392 34.9616L3.62576 36.1421V38.5923L7.25648 40.6805V44.9461L9.34464 46.2158L11.4328 44.9461V40.7747L15.0635 38.6866V36.147H15.1478V36.1421ZM15.1478 42.8579V40.4077L13.0597 41.6774V44.0334L15.1478 42.8579ZM16.6904 43.6714L13.0646 45.7595V48.2098L18.8728 44.8518V38.141L16.6954 39.5L16.6904 43.6714ZM14.6022 34.0589L16.6904 35.3286V37.7789L18.7786 36.5091V34.0589L16.6904 32.7891L14.6022 34.0589ZM7.25648 46.6672V49.1174L9.34464 50.3872L11.4328 49.1174V46.6672L9.34464 47.937L7.25648 46.6672ZM3.62576 42.8579L5.71392 44.0384V41.5882L3.62576 40.3184V42.8579ZM7.25648 34.0589L9.34464 35.3286L11.5221 34.0589L9.43392 32.7891L7.25648 34.0589ZM2.08816 35.3286L4.2656 34.0589L2.08816 32.7891L0 34.0589V36.5091L2.08816 37.7789V35.3286ZM2.08816 39.5L0 38.2302V44.9411L5.80816 48.299V45.8488L2.17744 43.7606V39.495L2.08816 39.5Z" fill="#CBCEDA"/>
<path d="M35.5582 42.3122C35.5582 40.6804 34.6505 39.862 33.2915 39.3164C34.1992 38.865 34.9233 38.0466 34.9233 36.6876C34.9233 34.7829 33.3808 33.5132 30.9305 33.5132H25.3059V45.6701H31.1091C33.7429 45.5759 35.5582 44.4897 35.5582 42.3122ZM32.2003 37.1389C32.2003 38.0466 31.4761 38.4087 30.2957 38.4087H27.8454V35.7799H30.4742C31.6597 35.7799 32.2003 36.2362 32.2003 37.1389ZM32.9294 41.9501C32.9294 42.8578 32.2053 43.3092 31.0248 43.3092H27.8504V40.6804H30.9355C32.2945 40.5861 32.9294 41.1317 32.9294 41.9501Z" fill="#CBCEDA"/>
<path d="M48.7121 45.5759V33.5132H46.0783V40.9532L40.3644 33.5132H37.9191V45.6701H40.5479V37.9573L46.4454 45.6701H48.7121V45.5759Z" fill="#CBCEDA"/>
<path d="M62.0447 42.3122C62.0447 40.6804 61.137 39.862 59.7779 39.3164C60.6856 38.865 61.4098 38.0466 61.4098 36.6876C61.4098 34.7829 59.8672 33.5132 57.417 33.5132H51.7923V45.6701H57.5955C60.2293 45.5759 62.0447 44.4897 62.0447 42.3122ZM58.781 37.1389C58.781 38.0466 58.0568 38.4087 56.8763 38.4087H54.4261V35.7799H57.0549C58.1461 35.7799 58.781 36.2362 58.781 37.1389ZM59.4159 41.9501C59.4159 42.8578 58.6917 43.3092 57.5112 43.3092H54.3368V40.6804H57.4219C58.781 40.5861 59.4159 41.1317 59.4159 41.9501Z" fill="#CBCEDA"/>
<path d="M78.1002 43.4926L76.7411 42.1335C75.7442 43.1305 74.7472 43.6761 73.2939 43.6761C70.933 43.6761 69.3011 41.7715 69.3011 39.3212C69.3011 36.9603 71.0272 35.0606 73.2939 35.0606C74.653 35.0606 75.7442 35.6955 76.6518 36.6031L78.0109 34.9713C76.8304 33.8851 75.4714 33.0667 73.2939 33.0667C69.6632 33.0667 67.0344 35.879 67.0344 39.3262C67.0344 42.8627 69.6632 45.5857 73.2046 45.5857C75.4714 45.5758 76.8304 44.7623 78.1002 43.4926Z" fill="#CBCEDA"/>
<path d="M88.4417 40.3184V45.3974H90.5299V33.2405H88.4417V38.3195H82.6385V33.2405H80.5504V45.3974H82.6385V40.3184H88.4417Z" fill="#CBCEDA"/>
<path d="M100.142 33.2405H98.1484L92.7966 45.4867H94.974L96.2438 42.5851H101.958L103.227 45.4867H105.494L100.142 33.2405ZM101.234 40.5862H97.0622L99.1504 35.78L101.234 40.5862Z" fill="#CBCEDA"/>
<path d="M107.855 33.2405V45.3974H109.938V33.2405H107.855Z" fill="#CBCEDA"/>
<path d="M121.822 41.6774L115.29 33.3298H113.386V45.4867H115.474V36.777L122.185 45.3974H124V33.2405H121.912V41.6774H121.822Z" fill="#CBCEDA"/>
</g>
<defs>
<clipPath id="clip0_57_27">
<rect width="124" height="21.7744" fill="white" transform="translate(0 28.6128)"/>
</clipPath>
</defs>
</svg>
