<svg width="124" height="80" viewBox="0 0 124 80" fill="none" xmlns="http://www.w3.org/2000/svg">
<g clip-path="url(#clip0_57_296)">
<path d="M44.8529 40.2784C44.8218 39.5115 44.9429 38.746 45.2092 38.0261C45.4754 37.3062 45.8816 36.6462 46.4043 36.0841C46.9269 35.522 47.5557 35.0689 48.2543 34.7511C48.953 34.4332 49.7076 34.2569 50.4748 34.2322H50.7132C53.6781 34.2322 55.4281 35.9763 55.9455 38.0169L54.1025 38.6331C53.937 37.8727 53.5035 37.1972 52.8813 36.7297C52.2591 36.2623 51.4896 36.0341 50.7132 36.0867C48.7946 36.0867 46.8703 37.4878 46.8703 40.3133C46.8703 43.1388 48.7481 44.4875 50.7364 44.4875C51.5167 44.5089 52.2816 44.2678 52.9088 43.803C53.5359 43.3382 53.989 42.6765 54.1956 41.9237L56.0036 42.5051C55.6915 43.6534 54.9973 44.661 54.0356 45.3617C53.0738 46.0625 51.9019 46.4144 50.7132 46.3596C49.1861 46.3876 47.7103 45.8081 46.6104 44.7484C45.5104 43.6888 44.8762 42.2357 44.8471 40.7086C44.8413 40.5691 44.8471 40.4238 44.8529 40.2784Z" fill="#CBCEDA"/>
<path d="M59.5907 46.0918H57.6838V34.197H59.5907V38.848C59.8676 38.5196 60.2157 38.2589 60.6087 38.0856C61.0016 37.9123 61.4289 37.831 61.8581 37.848C63.8289 37.848 64.7649 39.2608 64.7649 41.0223V46.0918H62.9278V41.3595C62.9828 40.9561 62.8772 40.5472 62.6336 40.2209C62.39 39.8947 62.028 39.6772 61.6255 39.6154C61.5115 39.6037 61.3966 39.6037 61.2825 39.6154C60.8415 39.6154 60.4186 39.7906 60.1068 40.1024C59.795 40.4142 59.6198 40.8371 59.6198 41.2781C59.6169 41.3265 59.6169 41.375 59.6198 41.4234L59.5907 46.0918Z" fill="#CBCEDA"/>
<path d="M69.0439 41.5108L71.0903 41.1911C71.5554 41.1329 71.6717 40.8946 71.6717 40.6097C71.6717 39.9353 71.2182 39.3946 70.1601 39.3946C69.7605 39.3623 69.3643 39.4889 69.0574 39.7468C68.7505 40.0047 68.5576 40.3733 68.5207 40.7725V40.8597L66.7766 40.4702C66.9219 39.0865 68.1777 37.854 70.1427 37.854C72.6077 37.854 73.5437 39.2493 73.5437 40.8771V44.8479C73.5417 45.2781 73.5747 45.7078 73.6425 46.1327H71.8984C71.8356 45.7955 71.8102 45.4523 71.8229 45.1095C71.5581 45.5169 71.1912 45.8478 70.7587 46.0692C70.3262 46.2905 69.8432 46.3946 69.3578 46.3711C68.695 46.4258 68.0375 46.2154 67.5296 45.786C67.0217 45.3565 66.7049 44.7432 66.6487 44.0805C66.6487 44.0398 66.6487 43.9991 66.6487 43.9642C66.6196 42.4933 67.6719 41.7027 69.0439 41.5108ZM71.6833 42.7956V42.4294L69.5962 42.7433C69.3129 42.7523 69.044 42.8704 68.8457 43.073C68.6475 43.2756 68.5352 43.547 68.5323 43.8305C68.5345 43.9709 68.5647 44.1096 68.6211 44.2382C68.6775 44.3669 68.7589 44.4831 68.8606 44.5799C68.9624 44.6768 69.0824 44.7524 69.2137 44.8024C69.3449 44.8524 69.4849 44.8758 69.6253 44.8711H69.7125C69.9504 44.896 70.191 44.8736 70.4203 44.8052C70.6495 44.7367 70.863 44.6236 71.0483 44.4723C71.2337 44.3209 71.3873 44.1345 71.5002 43.9235C71.6132 43.7126 71.6833 43.4814 71.7066 43.2433C71.7149 43.0935 71.7051 42.9432 71.6775 42.7956H71.6833Z" fill="#CBCEDA"/>
<path d="M76.7876 34.0343C76.9515 34.032 77.1142 34.0621 77.2664 34.1229C77.4186 34.1837 77.5573 34.2739 77.6745 34.3884C77.7917 34.5029 77.8852 34.6395 77.9495 34.7902C78.0138 34.941 78.0477 35.103 78.0492 35.2668C78.0491 35.5122 77.9766 35.752 77.8407 35.9562C77.7047 36.1604 77.5114 36.3198 77.2851 36.4145C77.0588 36.5092 76.8095 36.5348 76.5687 36.4882C76.3278 36.4416 76.1061 36.3248 75.9315 36.1526C75.7568 35.9803 75.6369 35.7602 75.587 35.5201C75.537 35.2799 75.5592 35.0303 75.6507 34.8027C75.7422 34.5751 75.8989 34.3796 76.1012 34.2408C76.3035 34.102 76.5423 34.0261 76.7876 34.0227V34.0343ZM75.8574 46.1268V38.0923H77.7643V46.0919L75.8574 46.1268Z" fill="#CBCEDA"/>
<path d="M82.1073 46.0919H80.2062V38.0922H82.0607V39.1561C82.3025 38.7476 82.6498 38.4117 83.0661 38.1835C83.4824 37.9554 83.9525 37.8436 84.4269 37.8597C86.3803 37.8597 87.3338 39.2724 87.3338 41.034V46.0919H85.4327V41.3595C85.4327 40.377 84.985 39.5805 83.7874 39.5805C83.566 39.5821 83.3471 39.6272 83.1431 39.7133C82.9391 39.7994 82.7541 39.9249 82.5986 40.0826C82.4432 40.2402 82.3203 40.4269 82.2369 40.632C82.1536 40.8372 82.1115 41.0567 82.1131 41.2781C82.1131 41.3421 82.1131 41.406 82.1131 41.47L82.1073 46.0919Z" fill="#CBCEDA"/>
<path d="M89.636 46.0918V34.197H91.5429V46.0918H89.636Z" fill="#CBCEDA"/>
<path d="M94.9439 34.0344C95.1894 34.0333 95.4296 34.1051 95.6341 34.2407C95.8386 34.3763 95.9982 34.5697 96.0927 34.7962C96.1871 35.0227 96.2122 35.2722 96.1646 35.5129C96.117 35.7537 95.9989 35.9748 95.8254 36.1484C95.6518 36.3219 95.4307 36.44 95.1899 36.4875C94.9492 36.5351 94.6997 36.5101 94.4732 36.4157C94.2467 36.3212 94.0533 36.1616 93.9177 35.9571C93.7821 35.7526 93.7103 35.5123 93.7114 35.2669C93.7145 34.941 93.8453 34.6293 94.0758 34.3988C94.3063 34.1683 94.618 34.0375 94.9439 34.0344ZM94.0079 46.1269V38.0924H95.8974V46.092L94.0079 46.1269Z" fill="#CBCEDA"/>
<path d="M100.269 46.092H98.3623V38.0924H100.217V39.1563C100.459 38.7482 100.806 38.4126 101.223 38.1845C101.639 37.9565 102.109 37.8443 102.583 37.8598C104.536 37.8598 105.49 39.2725 105.49 41.0341V46.092H103.583V41.3597C103.638 40.9562 103.532 40.5473 103.289 40.2211C103.045 39.8949 102.683 39.6774 102.281 39.6155C102.165 39.6039 102.048 39.6039 101.932 39.6155C101.488 39.6201 101.063 39.7998 100.751 40.1155C100.439 40.4312 100.263 40.8574 100.263 41.3015C100.257 41.3692 100.257 41.4373 100.263 41.505L100.269 46.092Z" fill="#CBCEDA"/>
<path d="M111.995 41.47L115.35 46.1209H113.024L110.699 42.8246L109.716 43.8594V46.0918H107.827V34.197H109.716V41.3246L112.786 38.0922H115.315L111.995 41.47Z" fill="#CBCEDA"/>
<path d="M22.2784 30.9764L30.5223 35.7088V45.22L22.3017 49.9814L14.0637 45.2607V35.7553L22.2784 30.9764ZM22.2784 24L19.2553 25.7441L11.0231 30.523L8 32.2671V48.7605L11.0231 50.5047L19.2669 55.237L22.2901 56.9811L25.3132 55.237L33.528 50.4698L36.5511 48.7257V32.2089L33.528 30.4648L25.2899 25.7441L22.2668 24H22.2784Z" fill="#CBCEDA"/>
</g>
<defs>
<clipPath id="clip0_57_296">
<rect width="107.35" height="32.9695" fill="white" transform="translate(8 24)"/>
</clipPath>
</defs>
</svg>
