<svg width="124" height="80" viewBox="0 0 124 80" fill="none" xmlns="http://www.w3.org/2000/svg">
<path d="M39.266 30.8754C38.9436 30.7115 38.8008 31.0181 38.6105 31.1767C38.5471 31.2243 38.4943 31.293 38.4361 31.3511C37.9656 31.8692 37.4105 32.2075 36.6864 32.1652C35.6344 32.107 34.7304 32.4454 33.9323 33.2647C33.7631 32.2498 33.1975 31.6471 32.3411 31.256C31.8917 31.0551 31.4424 30.8542 31.1253 30.4155C30.9086 30.0983 30.8451 29.7494 30.7394 29.4058C30.6654 29.1996 30.5967 28.9882 30.3641 28.9512C30.1103 28.9142 30.0099 29.1309 29.9095 29.3106C29.513 30.056 29.3544 30.8754 29.3702 31.7C29.4073 33.566 30.1791 35.0514 31.712 36.1087C31.8866 36.225 31.9341 36.3466 31.8759 36.5263C31.7755 36.891 31.6487 37.2399 31.5376 37.6047C31.4688 37.8373 31.3631 37.8901 31.12 37.7897C30.2795 37.4302 29.5501 36.9016 28.9051 36.2567C27.8162 35.1836 26.8276 33.9942 25.5959 33.0638C25.3105 32.8471 25.0197 32.6462 24.7185 32.4559C23.4655 31.2137 24.8875 30.1934 25.2154 30.0719C25.559 29.945 25.3316 29.5115 24.2216 29.5115C23.1114 29.5168 22.0965 29.8974 20.7961 30.4049C20.6111 30.4789 20.4102 30.537 20.204 30.5793C19.0305 30.352 17.8094 30.3045 16.5301 30.4472C14.1302 30.7221 12.2113 31.8797 10.7999 33.8515C9.10304 36.225 8.70658 38.9262 9.19291 41.7385C9.70566 44.704 11.1911 47.1568 13.4747 49.0757C15.8429 51.0686 18.5706 52.0413 21.6789 51.8563C23.5713 51.7452 25.6752 51.4862 28.0434 49.4405C28.6461 49.7417 29.2698 49.8634 30.3113 49.9585C31.1147 50.0325 31.8865 49.9162 32.4892 49.7894C33.4248 49.5884 33.3613 48.7057 33.0177 48.5418C30.2742 47.2414 30.8768 47.7699 30.3271 47.3418C31.7226 45.6555 33.8266 43.9112 34.6511 38.2496C34.7146 37.8003 34.6618 37.5148 34.6511 37.1501C34.6458 36.928 34.6935 36.8435 34.9419 36.817C35.6344 36.7377 36.3004 36.5474 36.9137 36.2038C38.6898 35.21 39.4087 33.5872 39.5778 31.6366C39.6043 31.3353 39.5726 31.0287 39.266 30.8754ZM23.7563 48.4202C21.0974 46.2899 19.8076 45.5869 19.2737 45.6185C18.7768 45.6502 18.8613 46.2264 18.9724 46.6071C19.0886 46.9824 19.2367 47.2414 19.4481 47.5691C19.5908 47.7859 19.6913 48.1084 19.3001 48.3514C18.4437 48.8907 16.953 48.1664 16.8843 48.1348C15.1504 47.0933 13.702 45.719 12.6765 43.837C11.6933 42.0292 11.1171 40.0892 11.0219 38.0223C11.0008 37.5201 11.1435 37.3456 11.6298 37.2505C12.2748 37.1342 12.9355 37.1078 13.5804 37.2029C16.2975 37.6047 18.6076 38.8416 20.5476 40.8028C21.6577 41.9182 22.4929 43.2557 23.3546 44.556C24.2744 45.941 25.2576 47.2572 26.5157 48.3409C26.9597 48.7215 27.314 49.0069 27.6523 49.2184C26.6321 49.3347 24.9246 49.3612 23.7563 48.4202ZM25.0356 40.0627C25.0356 39.8407 25.21 39.661 25.4268 39.661C25.4797 39.661 25.5219 39.6716 25.5641 39.6874C25.617 39.7086 25.6699 39.7403 25.7069 39.7826C25.7756 39.8566 25.818 39.957 25.818 40.0627C25.818 40.2848 25.6434 40.4592 25.4215 40.4592C25.2047 40.4592 25.0356 40.2848 25.0356 40.0627ZM28.995 42.1296C28.7412 42.2407 28.4875 42.3305 28.2443 42.3411C27.8637 42.357 27.4514 42.2037 27.2294 42.0134C26.8804 41.712 26.6321 41.5482 26.5263 41.0248C26.4788 40.8028 26.5052 40.4592 26.5474 40.2636C26.6374 39.8407 26.5368 39.5658 26.2409 39.3174C26.003 39.1165 25.6963 39.0584 25.3633 39.0584C25.2418 39.0584 25.1254 39.0055 25.0408 38.9579C24.8982 38.8892 24.7871 38.7148 24.8929 38.4927C24.9299 38.424 25.099 38.2549 25.1414 38.2232C25.5906 37.9589 26.114 38.0434 26.6003 38.2443C27.0497 38.4293 27.388 38.7729 27.8742 39.2592C28.3764 39.846 28.4663 40.0046 28.7465 40.4434C28.9739 40.787 29.1747 41.1411 29.3173 41.5482C29.402 41.7966 29.2909 42.0081 28.995 42.1296Z" fill="#CBCEDA"/>
<path fill-rule="evenodd" clip-rule="evenodd" d="M73.8427 45.5313H72.7848V43.8916H73.8427C74.4968 43.8916 75.1595 43.7303 75.5885 43.2757C76.0174 42.8212 76.1747 42.1245 76.1747 41.4279C76.1747 40.7355 76.0174 40.0388 75.5885 39.5843C75.1595 39.1298 74.4968 38.9684 73.8427 38.9684C73.1842 38.9684 72.5258 39.1298 72.0968 39.5843C71.6635 40.0388 71.5105 40.7355 71.5105 41.4279V48.1692H69.6543V37.3287H71.5105V38.0168H71.8503C71.8844 37.9786 71.9225 37.9404 71.965 37.9021C72.428 37.4774 73.1374 37.3287 73.8427 37.3287C74.9343 37.3287 76.0345 37.6005 76.7523 38.3567C77.466 39.1128 77.7251 40.2767 77.7251 41.4321C77.7251 42.5833 77.466 43.7471 76.7523 44.5033C76.0345 45.2637 74.9343 45.5313 73.8427 45.5313ZM45.5816 37.6133H46.6393V39.253H45.5816C44.9275 39.253 44.2648 39.4144 43.8358 39.8731C43.4067 40.3277 43.2496 41.0243 43.2496 41.7167C43.2496 42.4091 43.4067 43.1057 43.8358 43.5602C44.2648 44.0147 44.9275 44.1804 45.5816 44.1804C46.2401 44.1804 46.8985 44.0147 47.3275 43.5602C47.7608 43.1057 47.9138 42.4091 47.9138 41.7167V34.9796H49.77V45.8201H47.9138V45.1277H47.574C47.5399 45.1702 47.5018 45.2084 47.4593 45.2425C46.9962 45.6671 46.2869 45.8201 45.5816 45.8201C44.49 45.8201 43.3898 45.5482 42.672 44.7879C41.9583 44.0318 41.6992 42.8722 41.6992 41.7167C41.6992 40.5613 41.9583 39.4016 42.672 38.6413C43.3898 37.8852 44.49 37.6133 45.5816 37.6133ZM59.0898 41.5723V42.2307H54.1453V40.9139H57.4246C57.3482 40.4339 57.1741 39.9878 56.8682 39.665C56.4179 39.1935 55.7341 39.0236 55.0501 39.0236C54.3705 39.0236 53.6823 39.1935 53.2363 39.665C52.7903 40.1323 52.6289 40.8544 52.6289 41.5723C52.6289 42.2902 52.7903 43.0122 53.2363 43.4838C53.6823 43.9553 54.3705 44.121 55.0501 44.121C55.7341 44.121 56.4179 43.9553 56.8682 43.4838C56.932 43.4158 56.9871 43.3436 57.0381 43.2672H58.8732C58.716 43.8364 58.4568 44.3503 58.0745 44.7539C57.3312 45.5397 56.1842 45.8201 55.0501 45.8201C53.916 45.8201 52.7733 45.5397 52.0299 44.7539C51.2824 43.968 51.0146 42.7659 51.0146 41.5723C51.0146 40.3786 51.2824 39.1765 52.0299 38.3906C52.7733 37.609 53.916 37.3287 55.0501 37.3287C56.1842 37.3287 57.3312 37.609 58.0745 38.3906C58.8223 39.1765 59.0898 40.3786 59.0898 41.5723ZM68.4053 41.5723V42.2307H63.4609V40.9139H66.7445C66.668 40.4339 66.4938 39.9878 66.1837 39.665C65.7377 39.1935 65.0538 39.0236 64.37 39.0236C63.6902 39.0236 63.002 39.1935 62.5561 39.665C62.11 40.1323 61.9486 40.8544 61.9486 41.5723C61.9486 42.2902 62.11 43.0122 62.5561 43.4838C63.002 43.9553 63.6902 44.121 64.37 44.121C65.0538 44.121 65.7377 43.9553 66.1837 43.4838C66.2474 43.4158 66.307 43.3436 66.3579 43.2672H68.1929C68.0316 43.8364 67.7767 44.3503 67.3944 44.7539C66.6468 45.5397 65.5041 45.8201 64.37 45.8201C63.2357 45.8201 62.093 45.5397 61.3454 44.7539C60.6021 43.968 60.3345 42.7659 60.3345 41.5723C60.3345 40.3786 60.6021 39.1765 61.3454 38.3906C62.093 37.609 63.2357 37.3287 64.37 37.3287C65.5041 37.3287 66.6468 37.609 67.3944 38.3906C68.1377 39.1765 68.4053 40.3786 68.4053 41.5723ZM83.0095 40.8077H83.0476C84.1691 40.8115 85.2948 40.9784 86.0297 41.4363C86.7773 41.8994 87.0448 42.6088 87.0448 43.3139C87.0448 44.0191 86.7773 44.7284 86.0297 45.1915C85.2863 45.6545 84.1436 45.8201 83.0095 45.8201C81.871 45.8201 80.7283 45.6545 79.9849 45.1915C79.2416 44.7284 78.974 44.0191 78.974 43.3139H81.1489C81.1489 43.5857 81.2763 43.8619 81.6289 44.0402C81.9773 44.2187 82.5167 44.2867 83.052 44.2867C83.5872 44.2867 84.1266 44.2187 84.4792 44.0402C84.8318 43.8619 84.955 43.5857 84.955 43.3139C84.955 43.0378 84.8318 42.7617 84.4792 42.5833C84.1266 42.4049 83.5447 42.3411 83.0095 42.3411C81.9815 42.3411 80.9493 42.1755 80.2738 41.7125C79.5984 41.2494 79.3563 40.5401 79.3563 39.8349C79.3563 39.1298 79.5984 38.4204 80.2738 37.9574C80.9493 37.4943 81.9815 37.3287 83.0095 37.3287C84.0375 37.3287 85.0697 37.4943 85.7451 37.9574C86.4162 38.4204 86.6583 39.1298 86.6583 39.8349H84.768C84.768 39.5588 84.6577 39.2869 84.339 39.1043C84.0204 38.9259 83.532 38.8622 83.0476 38.8622C82.5634 38.8622 82.075 38.9259 81.7606 39.1043C81.442 39.2869 81.3272 39.5588 81.3272 39.8349C81.3272 40.1068 81.442 40.3829 81.7606 40.5613C82.0668 40.7393 82.5379 40.8043 83.0095 40.8077ZM96.3605 41.5723V42.2307H91.4159V40.9139H94.6995C94.623 40.4339 94.4489 39.9878 94.1388 39.665C93.6927 39.1935 93.0089 39.0236 92.325 39.0236C91.6454 39.0236 90.9572 39.1935 90.5111 39.665C90.0652 40.1323 89.9037 40.8544 89.9037 41.5723C89.9037 42.2902 90.0652 43.0122 90.5111 43.4838C90.9572 43.9553 91.6454 44.121 92.325 44.121C93.0089 44.121 93.6927 43.9553 94.1388 43.4838C94.2026 43.4158 94.262 43.3436 94.3129 43.2672H96.148C95.9866 43.8364 95.7318 44.3503 95.3495 44.7539C94.6018 45.5397 93.4592 45.8201 92.325 45.8201C91.1908 45.8201 90.0481 45.5397 89.3005 44.7539C88.5572 43.968 88.2895 42.7659 88.2895 41.5723C88.2895 40.3786 88.5572 39.1765 89.3005 38.3906C90.0481 37.609 91.1908 37.3287 92.325 37.3287C93.4592 37.3287 94.6018 37.609 95.3495 38.3906C96.0929 39.1765 96.3605 40.3786 96.3605 41.5723ZM105.68 41.5723V42.2307H100.736V40.9139H104.019C103.939 40.4339 103.769 39.9878 103.459 39.665C103.013 39.1935 102.324 39.0236 101.645 39.0236C100.965 39.0236 100.277 39.1935 99.8309 39.665C99.3806 40.1323 99.2235 40.8544 99.2235 41.5723C99.2235 42.2902 99.3806 43.0122 99.8309 43.4838C100.277 43.9553 100.965 44.121 101.645 44.121C102.324 44.121 103.013 43.9553 103.459 43.4838C103.522 43.4158 103.577 43.3436 103.633 43.2672H105.468C105.306 43.8364 105.052 44.3503 104.665 44.7539C103.922 45.5397 102.779 45.8201 101.645 45.8201C100.511 45.8201 99.3636 45.5397 98.6202 44.7539C97.8769 43.968 97.6093 42.7659 97.6093 41.5723C97.6093 40.3786 97.8769 39.1765 98.6202 38.3906C99.3636 37.609 100.511 37.3287 101.645 37.3287C102.779 37.3287 103.922 37.609 104.665 38.3906C105.413 39.1765 105.68 40.3786 105.68 41.5723ZM108.786 34.6016V45.8227H106.93V34.6016H108.786ZM111.954 41.3174L115 45.8201H112.698L109.652 41.3174L112.698 37.7067H115L111.954 41.3174Z" fill="#CBCEDA"/>
</svg>
