<svg width="124" height="80" viewBox="0 0 124 80" fill="none" xmlns="http://www.w3.org/2000/svg">
<path d="M17.6058 34.5538C18.1786 35.6998 18.4762 36.8414 18.4762 38.1259L18.4751 40.164L18.4857 41.2209C18.5272 43.8149 19.0886 46.4394 20.36 48.8412L17.6999 46.6961L15.8176 49.7506L13.84 47.8891L10.68 53.0173L7.52002 47.8891L5.5428 49.751L3.66049 46.6965L1 48.8416C2.27146 46.4397 2.83281 43.815 2.87437 41.2209L2.88496 40.1644L2.88382 38.1259C2.88382 36.8414 3.18135 35.7 3.75427 34.5541L3.93236 34.2191C4.28268 34.7119 4.7182 35.2644 5.2127 35.7634L5.05804 36.084C4.75808 36.707 4.65874 37.4038 4.89243 38.0662C5.04306 38.4927 5.31815 38.8585 5.6725 39.1378C6.01668 39.4091 6.42428 39.5919 6.85074 39.688C7.12852 39.7505 7.41166 39.7765 7.69282 39.7677C7.62723 40.1396 7.59825 40.5254 7.5964 40.9184L5.08716 42.3677L7.02354 43.4533C7.1783 43.5401 7.32567 43.6395 7.46406 43.7505C9.06054 45.184 10.0204 49.4244 10.68 51.4957C11.3397 49.4244 12.2998 45.1839 13.8964 43.7505C14.0347 43.6395 14.1821 43.5401 14.3369 43.4533L16.2733 42.3677L13.7636 40.9184C13.7618 40.5254 13.7332 40.1396 13.6676 39.7677C13.9487 39.7765 14.2319 39.7505 14.5097 39.688C14.9361 39.5919 15.3435 39.409 15.6875 39.1378C16.0418 38.8585 16.317 38.4928 16.4676 38.0662C16.7014 37.4037 16.6019 36.7071 16.302 36.084L16.1477 35.7634L16.1473 35.763C16.6418 35.264 17.0777 34.712 17.428 34.2191L17.6058 34.5538Z" fill="#CBCEDA"/>
<path d="M10.68 37.9815C10.9345 37.9815 11.1923 38.072 11.4287 38.2518C12.0876 38.7541 12.5764 39.554 12.4909 41.3631C12.4863 41.4594 12.5124 41.5547 12.5654 41.6353C12.6183 41.716 12.6955 41.7781 12.7858 41.8123L13.719 42.3511C11.8134 43.4191 11.2954 45.4024 10.68 47.334C10.0647 45.4024 9.54652 43.4191 7.64102 42.3511L8.57423 41.8123C8.66452 41.7781 8.74169 41.716 8.79468 41.6353C8.84764 41.5547 8.87407 41.4594 8.86955 41.3631C8.78404 39.554 9.27247 38.7541 9.93133 38.2518C10.1676 38.0719 10.4255 37.9815 10.68 37.9815Z" fill="#CBCEDA"/>
<path d="M59.1871 34.1654C61.344 34.1654 62.9396 35.2733 62.9396 37.4449V37.9769H61.3587V37.4449C61.3586 36.1154 60.4871 35.5687 59.1871 35.5687C57.9167 35.5687 57.1926 36.1154 57.1925 37.046C57.1925 37.9767 57.887 38.361 59.2019 38.6564L59.7486 38.7895C61.7429 39.2327 63.1759 39.9566 63.176 41.8179C63.176 43.6646 61.6839 44.9204 59.3644 44.9205C57.045 44.9205 55.3756 43.65 55.3756 41.3305V40.9611H56.9562V41.3305C56.9562 42.8079 57.9019 43.5169 59.3644 43.5169C60.827 43.5168 61.595 42.8225 61.595 41.8474C61.5949 40.8577 60.7678 40.5181 59.4087 40.2079L58.8619 40.0748C56.8676 39.6168 55.612 38.9076 55.6119 37.0906C55.6119 35.2735 57.0449 34.1654 59.1871 34.1654Z" fill="#CBCEDA"/>
<path d="M68.4111 34.1654C70.893 34.1655 72.2963 35.6279 72.2963 38.0212V38.0953H70.7158V37.9769C70.7158 36.5883 69.977 35.5986 68.4111 35.5985C66.8304 35.5985 65.8997 36.6177 65.8996 38.3017V40.7838C65.8996 42.468 66.8303 43.4874 68.4111 43.4874C69.977 43.4873 70.7158 42.4976 70.7158 41.109V40.8579H72.2963V41.0647C72.2963 43.4579 70.893 44.9204 68.4111 44.9205C65.8848 44.9205 64.3039 43.4578 64.3039 40.7543V38.3316C64.3039 35.6281 65.8848 34.1654 68.4111 34.1654Z" fill="#CBCEDA"/>
<path fill-rule="evenodd" clip-rule="evenodd" d="M29.4755 34.3723C32.2233 34.3723 33.7449 35.761 33.7449 38.5827V40.5179C33.7449 43.3249 32.2233 44.7136 29.4755 44.7136H25.3388V43.2953H26.7424V35.7906H25.3388V34.3723H29.4755ZM28.3377 43.2658H29.4903C31.263 43.2658 32.1492 42.3645 32.1492 40.5622V38.5237C32.1492 36.7214 31.263 35.8349 29.4903 35.8349H28.3377V43.2658Z" fill="#CBCEDA"/>
<path d="M41.7676 35.8201H36.8478V38.7895H41.3539V40.2374H36.8478V43.2658H41.8414V44.7136H35.2525V34.3723H41.7676V35.8201Z" fill="#CBCEDA"/>
<path d="M46.7403 38.3611H46.9767L49.3256 34.3723H51.1576L48.0256 39.4985L51.2019 44.7136H49.3698L46.9767 40.6215H46.7403L44.3616 44.7136H42.5299L45.7062 39.4985L42.5742 34.3723H44.4062L46.7403 38.3611Z" fill="#CBCEDA"/>
<path fill-rule="evenodd" clip-rule="evenodd" d="M78.1112 34.3723C80.0316 34.3723 81.3464 35.4359 81.3464 37.1349V37.2974C81.3464 38.5974 80.6371 39.3508 79.7507 39.6759V39.9122C80.5042 39.9565 80.9917 40.4294 80.9917 41.2863V44.7136H79.3964V41.5079C79.3964 40.976 79.1302 40.6363 78.5097 40.6363H75.3629V44.7136H73.7676V34.3723H78.1112ZM75.3629 39.1885H77.9338C79.0713 39.1884 79.736 38.5826 79.736 37.5633V37.4449C79.7359 36.4404 79.1008 35.8201 77.9338 35.8201H75.3629V39.1885Z" fill="#CBCEDA"/>
<path d="M89.3218 35.8201H84.402V38.7895H88.9082V40.2374H84.402V43.2658H89.3956V44.7136H82.8067V34.3723H89.3218V35.8201Z" fill="#CBCEDA"/>
<path d="M97.2787 35.8201H92.3589V38.7895H96.8651V40.2374H92.3589V43.2658H97.3525V44.7136H90.7636V34.3723H97.2787V35.8201Z" fill="#CBCEDA"/>
<path d="M104.6 43.65H104.837V34.3723H106.418V44.7136H103.345L100.537 35.4212H100.301V44.7136H98.7205V34.3723H101.793L104.6 43.65Z" fill="#CBCEDA"/>
<path d="M114.794 35.8201H109.874V38.7895H114.38V40.2374H109.874V43.2658H114.868V44.7136H108.279V34.3723H114.794V35.8201Z" fill="#CBCEDA"/>
<path fill-rule="evenodd" clip-rule="evenodd" d="M120.579 34.3723C122.5 34.3723 123.814 35.4359 123.814 37.1349V37.2974C123.814 38.5974 123.105 39.3508 122.219 39.6759V39.9122C122.973 39.9565 123.46 40.4295 123.46 41.2863V44.7136H121.864V41.5079C121.864 40.976 121.599 40.6363 120.978 40.6363H117.831V44.7136H116.236V34.3723H120.579ZM117.831 39.1885H120.402C121.539 39.1885 122.204 38.5826 122.204 37.5633V37.4449C122.204 36.4404 121.569 35.8201 120.402 35.8201H117.831V39.1885Z" fill="#CBCEDA"/>
<path d="M6.1962 36.6319C7.09422 37.3409 7.99145 37.8583 8.69637 38.2099C8.18111 38.501 7.61389 38.5651 7.1279 38.4556C6.87181 38.3982 6.64006 38.292 6.45446 38.146C6.28325 38.0108 6.15275 37.8409 6.08352 37.6457C5.98603 37.3686 6.00684 37.0252 6.1962 36.6319Z" fill="#CBCEDA"/>
<path d="M15.1638 36.6319C15.3532 37.0252 15.3737 37.3686 15.2761 37.6457C15.207 37.8409 15.0768 38.0109 14.9056 38.146C14.72 38.292 14.4882 38.3982 14.2321 38.4556C13.7461 38.5651 13.1785 38.501 12.6633 38.2099C13.3683 37.8583 14.2657 37.341 15.1638 36.6319Z" fill="#CBCEDA"/>
<path d="M10.68 30C11.7588 30.029 12.8402 30.2384 13.7788 30.6458C14.4287 30.9283 15.0352 31.3015 15.5843 31.7477C15.8323 31.9491 16.0366 32.1438 16.2615 32.3678C16.8682 32.3888 17.7549 31.7147 18.1665 31.0841C17.4581 33.4064 14.2256 36.1489 11.9876 37.1984C11.9867 37.198 11.9853 37.1972 11.9853 37.1972C11.5837 36.8906 11.1318 36.7371 10.68 36.7371C10.2282 36.7371 9.77637 36.8906 9.37473 37.1972C9.37473 37.1972 9.37358 37.1981 9.37284 37.1984C7.13477 36.1489 3.90195 33.4065 3.19351 31.0841C3.60507 31.7147 4.49182 32.3888 5.0985 32.3678C5.32353 32.1439 5.52781 31.9491 5.77573 31.7477C6.32487 31.3015 6.93135 30.9283 7.58128 30.6458C8.51991 30.2385 9.60134 30.029 10.68 30Z" fill="#CBCEDA"/>
</svg>
