<svg width="124" height="80" viewBox="0 0 124 80" fill="none" xmlns="http://www.w3.org/2000/svg">
<path d="M84.4402 36.3721C82.3487 36.6321 80.8066 37.8197 80.2394 39.5921C79.8495 40.7974 79.8968 41.9436 80.3872 43.1076C80.9662 44.4842 82.2128 45.465 83.8671 45.8372C84.3457 45.9495 85.5805 45.9554 86.0768 45.8608C87.997 45.4827 89.3382 44.2892 89.8936 42.4813C90.0236 42.05 90.0413 41.92 90.0413 41.1519C90.0413 40.3839 90.0236 40.2539 89.8936 39.8226C89.3441 38.0383 88.0502 36.8625 86.2009 36.4726C85.8169 36.3958 84.7652 36.3367 84.4402 36.3721ZM85.6101 38.7177C86.3014 38.9009 86.9572 39.3499 87.2585 39.8757C87.7253 40.6675 87.7075 41.7132 87.2231 42.4695C86.3545 43.8343 84.3693 44.0588 83.1759 42.9244C82.1833 41.9791 82.1478 40.4784 83.0932 39.4562C83.7253 38.7827 84.7298 38.4932 85.6101 38.7177Z" fill="#CBCEDA"/>
<path d="M94.6614 36.3721C92.5699 36.6321 91.0278 37.8197 90.4606 39.5921C90.0707 40.7974 90.118 41.9436 90.6083 43.1076C91.1874 44.4842 92.434 45.465 94.0883 45.8372C94.5669 45.9495 95.8017 45.9554 96.298 45.8608C98.2182 45.4827 99.5594 44.2892 100.115 42.4813C100.245 42.05 100.263 41.92 100.263 41.1519C100.263 40.3839 100.245 40.2539 100.115 39.8226C99.5653 38.0383 98.2714 36.8625 96.4221 36.4726C96.0381 36.3958 94.9864 36.3367 94.6614 36.3721ZM95.8372 38.7177C96.5344 38.9009 97.1843 39.3499 97.4856 39.8757C97.9524 40.6675 97.9346 41.7132 97.4502 42.4695C96.5816 43.8343 94.5964 44.0588 93.403 42.9244C92.4104 41.9791 92.3749 40.4784 93.3203 39.4562C93.9465 38.7827 94.9509 38.4932 95.8372 38.7177Z" fill="#CBCEDA"/>
<path d="M108.428 36.4014C107.211 36.5787 106.295 37.3586 106 38.4812C105.716 39.5387 105.917 40.62 106.484 41.1458C106.821 41.4589 107.223 41.6421 108.327 41.9966C109.397 42.3393 109.639 42.487 109.751 42.8474C109.875 43.261 109.568 43.7573 109.101 43.8872C108.847 43.9581 108.369 43.9581 108.05 43.8813C107.701 43.7986 107.075 43.4914 106.809 43.261C106.691 43.1487 106.555 43.066 106.531 43.066C106.508 43.066 106.372 43.2669 106.242 43.515C106.059 43.8636 106 43.9404 105.988 43.8459L105.97 43.7277H104.546H103.128V40.1473V36.5669H101.952H100.777V41.1576V45.7484H103.37H105.964V45.4943C105.964 45.3584 105.976 45.2462 105.988 45.2462C106 45.2462 106.212 45.3466 106.46 45.4589C107.228 45.8193 107.719 45.9256 108.67 45.9256C109.598 45.9256 110.035 45.8429 110.608 45.5652C111.063 45.3466 111.677 44.738 111.884 44.3126C112.292 43.4618 112.351 42.3156 112.008 41.5889C111.949 41.453 111.748 41.1872 111.559 41.004C111.157 40.6022 110.726 40.3836 109.621 40.0291C109.184 39.8932 108.747 39.7278 108.646 39.6687C108.292 39.4501 108.221 38.9715 108.499 38.6702C108.983 38.1503 109.846 38.1976 110.744 38.7943L110.921 38.9066L111.4 37.9908C111.654 37.4945 111.866 37.075 111.855 37.0691C111.801 37.0159 111.134 36.75 110.756 36.6319C109.958 36.3837 109.119 36.2951 108.428 36.4014Z" fill="#CBCEDA"/>
<path d="M42.373 39.8519V45.902H44.5119C45.6876 45.902 46.9165 45.8665 47.2356 45.8311C49.8766 45.5061 51.8263 43.9049 52.4526 41.5534C52.6594 40.7735 52.7067 39.4028 52.559 38.5875C52.2576 37.0041 51.4364 35.7279 50.172 34.8653C49.6048 34.4753 49.0967 34.2626 48.2813 34.0381C47.6432 33.8667 47.5428 33.8667 45.0022 33.8313L42.379 33.8018V39.8519H42.373ZM47.0406 36.2714C48.7008 36.6259 49.8057 38.0144 49.8057 39.7514C49.7998 40.9035 49.4453 41.8961 48.7835 42.5519C48.1277 43.2137 47.1529 43.5327 45.794 43.5386H45.1499V39.8578V36.1769H45.8648C46.2548 36.1769 46.7806 36.2242 47.0406 36.2714Z" fill="#CBCEDA"/>
<path d="M53.5575 39.8578V45.902L58.6504 45.8961H63.7375L65.0491 44.0527C65.7759 43.0483 66.3844 42.2211 66.4021 42.2211C66.4317 42.2211 67.0402 43.0483 67.761 44.0645L69.0786 45.9079H70.7329C71.6369 45.9079 72.3813 45.8843 72.3813 45.8665C72.3813 45.8429 71.4065 44.484 70.2307 42.8474L68.0801 39.8696L70.1362 36.9982C71.2706 35.4266 72.2573 34.0736 72.3223 33.9968C72.4522 33.8668 72.4522 33.8845 72.4522 35.0957V36.3246H73.7048H74.9574V41.1163V45.9079H76.4522H77.9469V41.1163V36.3246L79.4063 36.3128L80.8597 36.2892L80.0798 35.0603L79.2999 33.8313L74.1952 33.8254H69.0845L67.7729 35.6688C67.0461 36.6732 66.4376 37.5004 66.4199 37.5122C66.3962 37.5122 65.7877 36.6851 65.0669 35.6688L63.7493 33.8254H58.6623H53.5693V39.8578H53.5575ZM62.544 36.8328C63.7139 38.4516 64.671 39.8105 64.671 39.8519C64.671 39.8933 63.7139 41.264 62.5381 42.8947L60.3993 45.8606L60.3757 44.7026L60.3639 43.5446H58.3491H56.3344V42.1857V40.8327H57.9651H59.5958V39.6865V38.5403H57.9651H56.3344V37.3586V36.1769H58.3491H60.3639V35.0307C60.3639 34.3985 60.3757 33.8845 60.3934 33.8845C60.4111 33.8845 61.3742 35.2139 62.544 36.8328Z" fill="#CBCEDA"/>
<path fill-rule="evenodd" clip-rule="evenodd" d="M21.2804 25.7902C19.3898 26.7769 17.8359 27.61 17.8418 27.6454C17.8418 27.734 22.3853 30.0324 22.5448 30.0265C22.6157 30.0265 23.1475 29.7783 23.7265 29.4829L24.7782 28.9452L25.9244 29.5361L27.0706 30.1269L28.9494 29.282C31.7736 28.0117 32.069 27.8699 32.0217 27.8286C31.9626 27.7636 30.9464 27.22 28.1931 25.7725C26.8638 25.0753 25.5758 24.384 25.3276 24.2481C25.0795 24.1063 24.8431 24 24.8018 24C24.7604 24 23.1711 24.8035 21.2804 25.7902ZM12.9793 30.0915L11.0059 31.1077V35.5744C11.0059 38.0322 11.0295 40.041 11.065 40.041C11.0945 40.041 12.0635 39.6215 13.2215 39.1075L15.319 38.174V33.4651L16.3411 34.0205C17.1328 34.4518 17.9186 34.8772 18.7103 35.3085L20.0574 36.0352L20.6542 35.7634C21.0323 35.5921 21.4045 35.4207 21.7767 35.2494C22.0662 35.1135 22.7752 34.7945 23.3543 34.5404C23.9333 34.2863 24.465 34.0264 24.5418 33.9673C24.6423 33.8905 23.4133 33.211 19.9983 31.4563C17.4223 30.1328 15.2303 29.0575 15.1299 29.0634C15.0295 29.0693 14.0605 29.5302 12.9793 30.0915ZM32.3703 30.3751C31.0291 30.9836 29.9302 31.5035 29.9302 31.5331C29.9302 31.5626 30.6628 31.9998 31.555 32.502C32.453 33.0042 33.1797 33.4415 33.1797 33.4769C33.1797 33.5124 32.388 33.8964 31.4191 34.3277C30.4501 34.7649 28.0041 35.8698 25.9775 36.7856L19.2007 39.852C17.4932 40.62 15.9571 41.3172 15.7857 41.394C12.3057 42.9715 11.3427 43.4088 11.2127 43.4856C11.0827 43.5624 11.0532 43.9996 11.0295 46.2034L11 48.8326L12.7607 49.7306L14.5213 50.6287L16.9674 49.5238C18.3086 48.9153 19.4134 48.3895 19.4134 48.3481C19.4134 48.3067 19.1653 48.1472 18.8639 47.9877C18.5626 47.8282 17.9363 47.4737 17.4696 47.2019C17.0087 46.9301 16.5479 46.682 16.4475 46.6465C16.347 46.6111 16.2643 46.5579 16.2643 46.5165C16.2643 46.4811 17.3396 45.967 18.6572 45.3821C21.2095 44.2418 23.1593 43.3615 27.3483 41.4649C29.2212 40.62 31.0941 39.7692 32.973 38.9244C34.6214 38.1799 36.5357 37.3114 37.2269 36.9923L38.4854 36.4133L38.5149 33.7546L38.5445 31.0959L36.7602 30.186C35.7794 29.6838 34.9345 29.2702 34.8932 29.2702C34.8459 29.2702 33.7115 29.7724 32.3703 30.3751ZM38.0127 39.9701C37.7469 40.1001 37.2269 40.3423 36.8547 40.5078C36.4825 40.6732 35.7735 40.9923 35.2831 41.2168L34.391 41.6245L34.3732 43.9582C34.3614 45.2403 34.3141 46.2861 34.2669 46.2802C34.1605 46.2625 32.4885 45.4058 30.8046 44.5018C29.5875 43.8519 29.5107 43.8223 29.2271 43.9641C29.0617 44.0469 28.075 44.49 27.0351 44.9449C25.9953 45.4058 25.109 45.8075 25.0677 45.8489C25.0263 45.8843 27.1178 47.0187 29.7234 48.3717L34.45 50.8296L36.4707 49.7838C37.5814 49.2107 38.5268 48.6849 38.5681 48.6199C38.6686 48.4722 38.6567 39.7161 38.5622 39.7279C38.5208 39.7338 38.2727 39.8401 38.0127 39.9701ZM26.8224 50.2447C26.4738 50.3924 26.1193 50.546 25.7707 50.6996C24.7132 51.1545 24.9199 51.1723 23.6615 50.546C22.8225 50.1265 22.4621 50.0024 22.3026 50.0615C22.1844 50.1088 21.1741 50.5637 20.0515 51.0718C18.9348 51.5799 17.9777 51.9994 17.9304 51.9994C17.4578 51.9994 18.2436 52.4662 21.2568 53.9846L24.79 55.7689L26.2789 55.0363C27.0942 54.6345 28.7485 53.8251 29.942 53.2402C31.1414 52.6552 32.1044 52.1649 32.0867 52.1412C32.069 52.1235 31.0646 51.6095 29.8534 50.995L27.6555 49.8842L26.8224 50.2447Z" fill="#CBCEDA"/>
</svg>
