<svg width="124" height="80" viewBox="0 0 124 80" fill="none" xmlns="http://www.w3.org/2000/svg">
<g clip-path="url(#clip0_57_80)">
<path d="M57.1163 40.9059V45.5276C57.1135 45.6223 57.0746 45.7125 57.0076 45.7795C56.9406 45.8465 56.8505 45.8854 56.7557 45.8881C56.708 45.8895 56.6605 45.8811 56.6161 45.8635C56.5718 45.8458 56.5315 45.8193 56.4977 45.7855C56.464 45.7518 56.4375 45.7115 56.4198 45.6671C56.4022 45.6228 56.3938 45.5753 56.3951 45.5276V40.9059C56.3951 39.3435 55.5101 37.792 53.7729 37.792C51.544 37.792 50.5826 39.7368 50.7137 41.7363C50.7137 41.7671 50.7206 41.8534 50.7267 41.9287C50.7313 41.987 50.7355 42.0388 50.7355 42.0531V45.5166C50.7353 45.609 50.7022 45.6982 50.6421 45.7683C50.5821 45.8384 50.4989 45.8848 50.4077 45.8991C50.3568 45.9058 50.3049 45.9015 50.2557 45.8864C50.2066 45.8713 50.1613 45.8458 50.1229 45.8115C50.0845 45.7773 50.054 45.7352 50.0334 45.6881C50.0127 45.6409 50.0026 45.5899 50.0035 45.5385V30.3405C50.0043 30.2452 50.0426 30.154 50.11 30.0865C50.1775 30.0191 50.2687 29.9808 50.364 29.98C50.4588 29.9827 50.5489 30.0216 50.6159 30.0886C50.683 30.1557 50.7218 30.2458 50.7246 30.3405V38.9283C51.3474 37.8139 52.4618 37.06 53.762 37.06C55.9035 37.06 57.1163 38.9283 57.1163 40.9059Z" fill="#CBCEDA"/>
<path d="M45.5131 37.3218C45.446 37.2548 45.3559 37.2159 45.2612 37.2131H43.3273V34.4052C43.3282 34.3537 43.318 34.3027 43.2974 34.2556C43.2768 34.2085 43.2462 34.1664 43.2079 34.1321C43.1695 34.0979 43.1242 34.0724 43.075 34.0573C43.0258 34.0422 42.974 34.0378 42.923 34.0446C42.8318 34.0589 42.7487 34.1053 42.6886 34.1754C42.6285 34.2455 42.5954 34.3347 42.5952 34.427V37.2131H40.7269C40.6315 37.214 40.5403 37.2523 40.4729 37.3197C40.4055 37.3871 40.3672 37.4783 40.3664 37.5737C40.365 37.6214 40.3734 37.6689 40.391 37.7133C40.4087 37.7576 40.4352 37.7979 40.4689 37.8317C40.5027 37.8654 40.543 37.8919 40.5873 37.9096C40.6317 37.9272 40.6792 37.9356 40.7269 37.9342H42.5952V45.5715C42.598 45.6662 42.6369 45.7563 42.7039 45.8234C42.7709 45.8904 42.861 45.9293 42.9558 45.932C43.0512 45.9312 43.1424 45.8929 43.2098 45.8255C43.2772 45.758 43.3155 45.6668 43.3164 45.5715V37.9342H45.2612C45.3089 37.9356 45.3564 37.9272 45.4007 37.9096C45.4451 37.8919 45.4854 37.8654 45.5191 37.8317C45.5529 37.7979 45.5794 37.7576 45.597 37.7133C45.6147 37.6689 45.6231 37.6214 45.6217 37.5737C45.619 37.4789 45.5801 37.3888 45.5131 37.3218Z" fill="#CBCEDA"/>
<path fill-rule="evenodd" clip-rule="evenodd" d="M36.3373 41.801C36.411 41.7293 36.4534 41.6314 36.4551 41.5286C36.4442 39.2014 34.696 37.0381 32.2486 37.0381C29.8012 37.0381 28.064 39.2233 28.064 41.5505C28.064 43.8777 29.8121 46.0629 32.2486 46.0629C33.669 46.0629 35.1221 45.4401 35.8542 44.1727C35.89 44.1174 35.909 44.0529 35.9088 43.987C35.9101 43.9393 35.9017 43.8918 35.8841 43.8474C35.8665 43.803 35.84 43.7628 35.8062 43.729C35.7724 43.6952 35.7322 43.6687 35.6878 43.6511C35.6434 43.6335 35.5959 43.6251 35.5482 43.6264C35.4842 43.6291 35.4219 43.6474 35.3666 43.6798C35.3114 43.7122 35.2649 43.7576 35.2314 43.8122C34.5103 44.8501 33.5488 45.3418 32.2486 45.3418C30.3475 45.3418 29.0036 43.7029 28.8179 41.911H36.0617C36.1645 41.9122 36.2636 41.8727 36.3373 41.801ZM32.2486 37.7592C34.1497 37.7592 35.5264 39.3981 35.6793 41.1899H28.8179C29.0036 39.3981 30.3475 37.7592 32.2486 37.7592Z" fill="#CBCEDA"/>
<path fill-rule="evenodd" clip-rule="evenodd" d="M70.0106 41.801C70.0844 41.7293 70.1267 41.6314 70.1284 41.5286C70.1175 39.2014 68.3475 37.0381 65.9219 37.0381C63.4745 37.0381 61.7373 39.2233 61.7373 41.5505C61.7373 43.8777 63.4855 46.0629 65.9219 46.0629C67.3423 46.0629 68.7955 45.4401 69.5275 44.1727C69.5634 44.1174 69.5824 44.0529 69.5821 43.987C69.5835 43.9393 69.5751 43.8918 69.5574 43.8474C69.5398 43.803 69.5133 43.7628 69.4795 43.729C69.4458 43.6952 69.4055 43.6687 69.3611 43.6511C69.3168 43.6335 69.2693 43.6251 69.2216 43.6264C69.1576 43.6291 69.0952 43.6474 69.04 43.6798C68.9847 43.7122 68.9383 43.7576 68.9047 43.8122C68.1836 44.8501 67.2221 45.3418 65.9219 45.3418C64.0208 45.3418 62.6769 43.7029 62.4912 41.911H69.7351C69.8379 41.9122 69.9369 41.8727 70.0106 41.801ZM65.911 37.7592C67.8121 37.7592 69.1888 39.3981 69.3418 41.1899H62.4803C62.666 39.3981 64.0099 37.7592 65.911 37.7592Z" fill="#CBCEDA"/>
<path d="M79.0334 37.5521C79.0404 37.6491 79.0086 37.7449 78.9452 37.8186C78.8817 37.8923 78.7917 37.9379 78.6947 37.9454C76.5642 38.2623 75.6027 39.9995 75.6027 42.0208V45.4843C75.6025 45.5766 75.5694 45.6659 75.5093 45.7359C75.4492 45.806 75.3661 45.8524 75.2749 45.8667C75.2239 45.8735 75.1721 45.8692 75.1229 45.8541C75.0738 45.839 75.0285 45.8134 74.9901 45.7792C74.9517 45.7449 74.9212 45.7028 74.9005 45.6557C74.8799 45.6086 74.8697 45.5576 74.8707 45.5062V37.6067C74.8708 37.5144 74.904 37.4252 74.964 37.3551C75.0241 37.285 75.1072 37.2386 75.1984 37.2243C75.2494 37.2175 75.3013 37.2218 75.3504 37.237C75.3996 37.2521 75.4449 37.2776 75.4833 37.3118C75.5217 37.3461 75.5522 37.3882 75.5728 37.4353C75.5934 37.4824 75.6036 37.5334 75.6027 37.5849V39.191C76.2036 38.1749 77.3946 37.2134 78.6401 37.2134C78.8258 37.2134 79.0334 37.3445 79.0334 37.5521Z" fill="#CBCEDA"/>
<path fill-rule="evenodd" clip-rule="evenodd" d="M90.8251 41.801C90.8988 41.7293 90.9412 41.6314 90.9429 41.5286C90.9319 39.2014 89.1838 37.0381 86.7364 37.0381C84.289 37.0381 82.5518 39.2233 82.5518 41.5505C82.5518 43.8777 84.2999 46.0629 86.7364 46.0629C88.1568 46.0629 89.6099 45.4401 90.3419 44.1727C90.3778 44.1174 90.3968 44.0529 90.3966 43.987C90.3979 43.9393 90.3895 43.8918 90.3719 43.8474C90.3543 43.803 90.3278 43.7628 90.294 43.729C90.2602 43.6952 90.2199 43.6687 90.1756 43.6511C90.1312 43.6335 90.0837 43.6251 90.036 43.6264C89.972 43.6291 89.9097 43.6474 89.8544 43.6798C89.7992 43.7122 89.7527 43.7576 89.7192 43.8122C88.9981 44.8501 88.0366 45.3418 86.7364 45.3418C84.8353 45.3418 83.4914 43.7029 83.3056 41.911H90.5495C90.6523 41.9122 90.7514 41.8727 90.8251 41.801ZM86.7364 37.7592C88.6375 37.7592 90.0142 39.3981 90.1671 41.1899H83.3056C83.4914 39.3981 84.8353 37.7592 86.7364 37.7592Z" fill="#CBCEDA"/>
<path d="M102.655 37.6392V45.5714C102.652 45.6661 102.614 45.7563 102.546 45.8233C102.479 45.8903 102.389 45.9292 102.295 45.9319C102.247 45.9333 102.199 45.9249 102.155 45.9073C102.111 45.8896 102.07 45.8631 102.037 45.8294C102.003 45.7956 101.976 45.7553 101.959 45.7109C101.941 45.6666 101.933 45.6191 101.934 45.5714V44.0636C101.333 45.2545 100.273 46.1177 98.9185 46.1177C96.7661 46.1177 95.5752 44.2493 95.5752 42.2718V37.6282C95.576 37.5329 95.6143 37.4417 95.6817 37.3742C95.7492 37.3068 95.8404 37.2685 95.9358 37.2677C96.0305 37.2704 96.1206 37.3093 96.1877 37.3763C96.2547 37.4434 96.2936 37.5335 96.2963 37.6282V42.2718C96.2963 43.8342 97.1813 45.3856 98.9185 45.3856C101.355 45.3856 101.934 43.1021 101.934 40.5782V37.6173C101.935 37.5589 101.95 37.5014 101.977 37.4499C102.005 37.3983 102.044 37.3541 102.092 37.3209C102.141 37.2878 102.196 37.2666 102.254 37.2593C102.312 37.2519 102.371 37.2585 102.426 37.2786C102.494 37.3105 102.552 37.3614 102.593 37.4253C102.634 37.4892 102.655 37.5634 102.655 37.6392Z" fill="#CBCEDA"/>
<path d="M121 45.5167V40.8732C121 38.9065 119.787 37.0601 117.657 37.0601C116.16 37.0601 114.991 38.0106 114.39 39.3654C113.92 37.9997 112.773 37.0601 111.298 37.0601C109.998 37.0601 108.883 37.7921 108.26 38.9065V37.5845C108.261 37.5331 108.251 37.4821 108.231 37.4349C108.21 37.3878 108.179 37.3457 108.141 37.3115C108.103 37.2772 108.057 37.2517 108.008 37.2366C107.959 37.2215 107.907 37.2172 107.856 37.2239C107.765 37.2383 107.682 37.2846 107.622 37.3547C107.562 37.4248 107.529 37.514 107.528 37.6064V45.5277C107.527 45.5791 107.538 45.6301 107.558 45.6772C107.579 45.7243 107.609 45.7664 107.648 45.8007C107.686 45.8349 107.731 45.8604 107.781 45.8756C107.83 45.8907 107.882 45.895 107.933 45.8882C108.024 45.8739 108.107 45.8275 108.167 45.7574C108.227 45.6873 108.26 45.5981 108.26 45.5058V42.0204C108.275 41.9981 108.27 41.9455 108.265 41.8969C108.263 41.8741 108.26 41.8522 108.26 41.8347C108.184 39.5184 109.091 37.7812 111.298 37.7812C113.035 37.7812 113.92 39.3108 113.92 40.8732V45.5167C113.919 45.5644 113.927 45.6119 113.945 45.6563C113.962 45.7007 113.989 45.7409 114.023 45.7747C114.056 45.8085 114.097 45.835 114.141 45.8526C114.185 45.8702 114.233 45.8786 114.281 45.8773C114.375 45.8745 114.465 45.8357 114.533 45.7686C114.6 45.7016 114.638 45.6115 114.641 45.5167V41.933C114.641 40.1193 115.472 37.7812 117.657 37.7812C119.394 37.7812 120.279 39.3108 120.279 40.8732V45.5167C120.278 45.5644 120.286 45.6119 120.304 45.6563C120.321 45.7007 120.348 45.7409 120.382 45.7747C120.415 45.8085 120.456 45.835 120.5 45.8526C120.544 45.8702 120.592 45.8786 120.639 45.8773C120.734 45.8745 120.824 45.8357 120.891 45.7686C120.958 45.7016 120.997 45.6115 121 45.5167Z" fill="#CBCEDA"/>
<path opacity="0.6" d="M12.0685 35.4536L3 39.5727L12.0685 44.9373L21.148 39.5727L12.0685 35.4536Z" fill="#CBCEDA"/>
<path opacity="0.45" d="M3 39.573L12.0685 44.9376V24.5171L3 39.573Z" fill="#CBCEDA"/>
<path opacity="0.8" d="M12.0684 24.5171V44.9376L21.1478 39.573L12.0684 24.5171Z" fill="#CBCEDA"/>
<path opacity="0.45" d="M3 41.2993L12.0685 54.0826V46.653L3 41.2993Z" fill="#CBCEDA"/>
<path opacity="0.8" d="M12.0684 46.653V54.0826L21.1478 41.2993L12.0684 46.653Z" fill="#CBCEDA"/>
</g>
<defs>
<clipPath id="clip0_57_80">
<rect width="118" height="31" fill="white" transform="translate(3 24)"/>
</clipPath>
</defs>
</svg>
