<svg width="124" height="80" viewBox="0 0 124 80" fill="none" xmlns="http://www.w3.org/2000/svg">
<g clip-path="url(#clip0_57_133)">
<path d="M17.1248 49.8306C12.0728 49.8306 9 46.2369 9 40.0913C9 34.4664 12.5676 30.1697 17.8279 30.1697C22.0986 30.1697 25.3537 32.6956 25.6662 36.2893H21.76C21.3174 34.4143 19.7028 33.2425 17.7758 33.2425C14.8071 33.2425 12.9582 35.9768 12.9582 40.1954C12.9582 44.2057 14.729 46.7577 17.5935 46.7577C19.807 46.7577 21.9163 45.3255 21.9163 42.5652V42.1485H18.0883V38.9975H25.562V49.466H22.3329V47.3046C21.3955 48.8671 19.2341 49.8306 17.1248 49.8306Z" fill="#CBCEDA"/>
<path d="M27.8447 49.4659V36.0288H31.256V37.7996C32.2195 36.5236 33.808 35.7944 35.5007 35.7944C39.3548 35.7944 40.0058 38.5287 40.0058 41.9922V49.4659H36.334V42.0182C36.334 40.0391 35.9955 38.5548 34.1726 38.5548C32.4539 38.5548 31.5164 39.7006 31.5164 42.8255V49.4659H27.8447Z" fill="#CBCEDA"/>
<path d="M48.3379 49.8306C44.1713 49.8306 41.5151 47.0442 41.5151 42.7474C41.5151 38.4507 44.1713 35.6643 48.3379 35.6643C52.5304 35.6643 55.1866 38.4767 55.1866 42.7474C55.1866 47.0442 52.5304 49.8306 48.3379 49.8306ZM48.3379 47.0442C50.317 47.0442 51.3586 45.4036 51.3586 42.7474C51.3586 40.0392 50.317 38.4507 48.3379 38.4507C46.3848 38.4507 45.3432 40.0652 45.3432 42.7474C45.3432 45.4036 46.3848 47.0442 48.3379 47.0442Z" fill="#CBCEDA"/>
<path d="M62.2663 49.8306C58.3862 49.8306 56.1467 48.2942 56.0946 45.1692H59.8445C59.8445 46.6015 60.6518 47.2786 62.2402 47.2786C63.4902 47.2786 64.4016 46.7317 64.4016 45.8724C64.4016 44.9349 63.4381 44.5443 62.2142 44.2318C61.0944 43.9453 59.7143 43.711 58.5945 43.1641C57.3446 42.5652 56.355 41.6016 56.355 39.8829C56.355 37.3049 58.6206 35.6643 62.1882 35.6643C65.886 35.6643 67.9432 37.2007 67.9432 40.1433H64.2975C64.2194 38.6851 63.4902 38.2163 62.058 38.2163C60.8861 38.2163 60.1049 38.7111 60.1049 39.5184C60.1049 40.6121 61.0163 40.8725 64.2454 41.5496C66.9797 42.1225 68.2557 43.4505 68.2557 45.4817C68.2557 48.164 65.9901 49.8306 62.2663 49.8306Z" fill="#CBCEDA"/>
<path d="M70.0106 49.466V36.0289H73.6824V49.466H70.0106ZM70.0106 34.1019V30.5603H73.6824V34.1019H70.0106Z" fill="#CBCEDA"/>
<path d="M81.5375 49.8306C77.6574 49.8306 75.4179 48.2942 75.3658 45.1692H79.1157C79.1157 46.6015 79.9229 47.2786 81.5114 47.2786C82.7614 47.2786 83.6728 46.7317 83.6728 45.8724C83.6728 44.9349 82.7093 44.5443 81.4854 44.2318C80.3656 43.9453 78.9855 43.711 77.8657 43.1641C76.6157 42.5652 75.6262 41.6016 75.6262 39.8829C75.6262 37.3049 77.8918 35.6643 81.4594 35.6643C85.1572 35.6643 87.2144 37.2007 87.2144 40.1433H83.5687C83.4905 38.6851 82.7614 38.2163 81.3292 38.2163C80.1573 38.2163 79.3761 38.7111 79.3761 39.5184C79.3761 40.6121 80.2875 40.8725 83.5166 41.5496C86.2509 42.1225 87.5269 43.4505 87.5269 45.4817C87.5269 48.164 85.2613 49.8306 81.5375 49.8306Z" fill="#CBCEDA"/>
<path d="M110.933 38.5442C110.933 37.8181 110.694 37.1578 110.281 36.6343L105.907 41.0061C106.44 41.4193 107.101 41.6583 107.818 41.6583C109.546 41.6573 110.942 40.2618 110.933 38.5442ZM97.9226 41.6482C96.204 41.6573 94.8075 40.2608 94.8075 38.5341C94.8075 37.8181 95.0465 37.1568 95.4597 36.6242L99.8336 40.996C99.3101 41.4092 98.6488 41.6482 97.9226 41.6482ZM94.5411 35.7239C93.8981 36.4956 93.5122 37.4688 93.5122 38.5523C93.5122 40.9859 95.488 42.9606 97.9226 42.9606C98.9971 42.9606 99.9805 42.5748 100.752 41.9317L102.875 44.0533L104.997 41.9317C105.769 42.5748 106.743 42.9606 107.827 42.9606C110.262 42.9606 112.238 40.9859 112.238 38.5523C112.238 37.4779 111.852 36.4945 111.209 35.7239L112.201 34.7324L113.147 33.7866C114.25 35.6044 114.884 37.726 114.884 40.0046C114.884 46.6357 109.509 52 102.884 52C96.2597 52 90.8842 46.6266 90.8842 40.0046C90.8659 37.7179 91.4999 35.5963 92.6028 33.7866L94.5411 35.7239ZM102.884 42.2173L112.404 32.702C112.137 32.3617 111.853 32.0316 111.558 31.7197C109.372 29.433 106.293 28 102.875 28C99.4569 28 96.3701 29.433 94.1917 31.7197C93.8889 32.0224 93.6033 32.3627 93.3643 32.6929L102.884 42.2173ZM110.254 32.6199L102.876 39.9954L95.4982 32.6199C97.4547 30.6452 100.064 29.5616 102.876 29.5616C105.687 29.5616 108.287 30.6452 110.254 32.6199Z" fill="#CBCEDA"/>
</g>
<defs>
<clipPath id="clip0_57_133">
<rect width="106" height="24" fill="white" transform="translate(9 28)"/>
</clipPath>
</defs>
</svg>
