<svg width="124" height="80" viewBox="0 0 124 80" fill="none" xmlns="http://www.w3.org/2000/svg">
<path d="M32 39.613C32 49.2005 26.1327 52.2769 23.0413 49.5376C20.4967 47.304 19.7397 42.5841 15.9122 42.0995C11.0544 41.4884 10.6338 47.9573 7.43728 47.9573C3.71501 47.9573 3 42.542 3 39.7605C3 36.9159 3.79913 33.0387 6.97461 33.0387C10.6759 33.0387 10.8861 38.5805 15.5127 38.2855C20.1182 37.9694 20.2023 32.1958 23.1886 29.7305C25.7962 27.6022 32 29.899 32 39.613Z" fill="#CBCEDA"/>
<path d="M42 46.3794V33.1736H43.5991V39.0543H50.6405V33.1736H52.2397V46.3794H50.6405V40.4729H43.5991V46.3794H42Z" fill="#CBCEDA"/>
<path d="M55.3071 50.0935C55.0491 50.0935 54.8191 50.0721 54.6171 50.0291C54.4151 49.9904 54.2754 49.9517 54.198 49.913L54.5849 48.5718C54.9546 48.6664 55.2813 48.7007 55.565 48.675C55.8487 48.6492 56.1002 48.5223 56.3194 48.2945C56.543 48.071 56.7471 47.7077 56.932 47.2048L57.2157 46.431L53.5532 36.475H55.2039L57.9379 44.3676H58.0411L60.7751 36.475H62.4258L58.2216 47.8238C58.0325 48.3353 57.7982 48.7588 57.5188 49.0941C57.2394 49.4337 56.9148 49.6852 56.5451 49.8485C56.1797 50.0119 55.767 50.0935 55.3071 50.0935Z" fill="#CBCEDA"/>
<path d="M63.5265 50.0935V36.475H64.9967V38.0484H65.1773C65.289 37.8764 65.4438 37.6572 65.6415 37.3907C65.8436 37.1199 66.1316 36.8791 66.5056 36.6685C66.8839 36.4535 67.3954 36.3461 68.0402 36.3461C68.8742 36.3461 69.6093 36.5546 70.2455 36.9715C70.8817 37.3885 71.3782 37.9796 71.735 38.7448C72.0918 39.51 72.2702 40.4127 72.2702 41.453C72.2702 42.5019 72.0918 43.4111 71.735 44.1806C71.3782 44.9458 70.8839 45.539 70.252 45.9603C69.62 46.3773 68.8914 46.5858 68.066 46.5858C67.4298 46.5858 66.9204 46.4804 66.5378 46.2698C66.1552 46.0549 65.8608 45.812 65.6544 45.5411C65.4481 45.266 65.289 45.0382 65.1773 44.8576H65.0483V50.0935H63.5265ZM65.0225 41.4272C65.0225 42.1752 65.1321 42.8351 65.3514 43.4068C65.5706 43.9742 65.8909 44.4192 66.3121 44.7416C66.7334 45.0597 67.2493 45.2187 67.8597 45.2187C68.4959 45.2187 69.0268 45.0511 69.4524 44.7158C69.8823 44.3762 70.2047 43.9205 70.4196 43.3488C70.6388 42.7727 70.7485 42.1322 70.7485 41.4272C70.7485 40.7308 70.641 40.1032 70.4261 39.5444C70.2154 38.9812 69.8952 38.5363 69.4653 38.2096C69.0397 37.8786 68.5045 37.7131 67.8597 37.7131C67.2407 37.7131 66.7205 37.87 66.2992 38.1838C65.878 38.4933 65.5598 38.9275 65.3449 39.4863C65.13 40.0409 65.0225 40.6878 65.0225 41.4272Z" fill="#CBCEDA"/>
<path d="M77.8363 46.5858C76.8819 46.5858 76.0587 46.3751 75.3666 45.9538C74.6788 45.5283 74.1479 44.935 73.7739 44.1741C73.4042 43.409 73.2194 42.5191 73.2194 41.5046C73.2194 40.4901 73.4042 39.5959 73.7739 38.8222C74.1479 38.0441 74.6681 37.438 75.3344 37.0038C76.005 36.5653 76.7874 36.3461 77.6815 36.3461C78.1974 36.3461 78.7068 36.4321 79.2097 36.604C79.7127 36.776 80.1705 37.0554 80.5832 37.4423C80.9959 37.8249 81.3247 38.3321 81.5698 38.964C81.8148 39.5959 81.9373 40.374 81.9373 41.2983V41.9431H74.3027V40.6277H80.3897C80.3897 40.0688 80.278 39.5702 80.0544 39.1317C79.8352 38.6932 79.5214 38.3472 79.113 38.0935C78.7089 37.8399 78.2318 37.7131 77.6815 37.7131C77.0754 37.7131 76.5509 37.8635 76.1082 38.1645C75.6697 38.4611 75.3322 38.848 75.0958 39.3251C74.8594 39.8023 74.7412 40.3138 74.7412 40.8598V41.7367C74.7412 42.4847 74.8701 43.1188 75.1281 43.6389C75.3903 44.1548 75.7535 44.5481 76.2178 44.819C76.6821 45.0855 77.2215 45.2187 77.8363 45.2187C78.2361 45.2187 78.5972 45.1629 78.9196 45.0511C79.2463 44.935 79.5278 44.7631 79.7643 44.5352C80.0007 44.3031 80.1834 44.0151 80.3124 43.6712L81.7825 44.0839C81.6278 44.5825 81.3677 45.021 81.0023 45.3993C80.6369 45.7733 80.1856 46.0656 79.6482 46.2762C79.1109 46.4826 78.5069 46.5858 77.8363 46.5858Z" fill="#CBCEDA"/>
<path d="M83.3443 46.3794V36.475H84.8145V37.971H84.9176C85.0982 37.481 85.4249 37.0833 85.8978 36.7781C86.3706 36.4729 86.9037 36.3203 87.4969 36.3203C87.6087 36.3203 87.7484 36.3224 87.916 36.3267C88.0837 36.331 88.2105 36.3375 88.2965 36.3461V37.8936C88.2449 37.8807 88.1267 37.8614 87.9418 37.8356C87.7613 37.8055 87.57 37.7905 87.3679 37.7905C86.8865 37.7905 86.4566 37.8915 86.0783 38.0935C85.7043 38.2913 85.4077 38.5664 85.1885 38.9189C84.9735 39.2671 84.8661 39.6647 84.8661 40.1118V46.3794H83.3443Z" fill="#CBCEDA"/>
<path d="M89.3988 46.3794V33.1736H97.3687V34.5922H90.9979V39.0543H96.956V40.4729H90.9979V44.9608H97.4719V46.3794H89.3988Z" fill="#CBCEDA"/>
<path d="M99.8848 33.1736L103.805 44.2902H103.96L107.88 33.1736H109.557L104.708 46.3794H103.057L98.2083 33.1736H99.8848Z" fill="#CBCEDA"/>
<path d="M110.706 33.1736H112.615L117.103 44.1355H117.257L121.745 33.1736H123.654V46.3794H122.158V36.3461H122.029L117.902 46.3794H116.458L112.331 36.3461H112.202V46.3794H110.706V33.1736Z" fill="#CBCEDA"/>
</svg>
