<svg width="124" height="80" viewBox="0 0 124 80" fill="none" xmlns="http://www.w3.org/2000/svg">
<g clip-path="url(#clip0_57_637)">
<path d="M26.7279 35.9045H28.9748V45.9956H26.7279V35.9045ZM27.9794 39.8874H35.8103V41.8923H27.9794V39.8874ZM34.8012 35.9045H37.0482V45.9956H34.8012V35.9045Z" fill="#CBCEDA"/>
<path d="M41.7571 45.5118L38.3799 38.3403H40.8556L43.9502 45.5118H41.7571ZM41.2726 48.4182C40.7701 48.4182 40.3173 48.3552 39.9135 48.2299C39.5098 48.1043 39.1284 47.9204 38.77 47.6785V46.0637C39.1469 46.3057 39.5053 46.4807 39.8465 46.5883C40.1873 46.6958 40.5642 46.7496 40.9768 46.7496C41.3445 46.7496 41.672 46.6666 41.959 46.5008C42.246 46.3346 42.4836 46.0408 42.6722 45.6193L45.8612 38.3403H48.2426L44.4214 46.3463C44.1882 46.8484 43.9056 47.2522 43.5737 47.5572C43.2418 47.8619 42.8809 48.0818 42.4904 48.2167C42.1003 48.3512 41.6941 48.4182 41.2726 48.4182Z" fill="#CBCEDA"/>
<path d="M49.2782 38.3402H51.5251V40.7753L51.4308 41.0712V42.9147L51.5251 43.4662V48.2157H49.2782V38.3402ZM50.7448 42.1749C50.8974 41.3589 51.1639 40.6477 51.5456 40.0424C51.9269 39.4371 52.4066 38.9683 52.9853 38.6364C53.5638 38.3044 54.2075 38.1387 54.916 38.1387C55.6694 38.1387 56.3309 38.3069 56.9004 38.6432C57.47 38.9796 57.9163 39.4504 58.2391 40.0561C58.5621 40.6613 58.7235 41.3678 58.7235 42.1753C58.7235 42.9829 58.5621 43.6757 58.2391 44.281C57.9163 44.8863 57.47 45.3575 56.9004 45.6938C56.3309 46.0302 55.6694 46.1984 54.916 46.1984C54.1626 46.1984 53.5549 46.0322 52.9853 45.7006C52.4158 45.3687 51.9382 44.8999 51.5525 44.2946C51.1667 43.6893 50.8969 42.9825 50.7448 42.1749ZM56.4497 42.1749C56.4497 41.7266 56.3578 41.3296 56.1739 40.9841C55.9901 40.6389 55.7368 40.3695 55.4137 40.1769C55.091 39.9842 54.7185 39.8875 54.2971 39.8875C53.8756 39.8875 53.4763 39.9838 53.0993 40.1769C52.7225 40.3699 52.3929 40.6389 52.1103 40.9841C52.1051 40.9905 52.0999 40.9969 52.0947 41.0033C51.544 41.6857 51.5448 42.6715 52.1019 43.3486C52.1047 43.3522 52.1075 43.3554 52.1103 43.359C52.3929 43.7002 52.7225 43.9667 53.0993 44.1598C53.4763 44.3528 53.8752 44.4492 54.2971 44.4492C54.7189 44.4492 55.091 44.3528 55.4137 44.1598C55.7368 43.9671 55.9901 43.7002 56.1739 43.359C56.3578 43.0182 56.4497 42.6237 56.4497 42.1749Z" fill="#CBCEDA"/>
<path d="M64.4957 46.198C63.5898 46.198 62.7802 46.0298 62.067 45.6935C61.3537 45.3571 60.793 44.8839 60.3852 44.2738C59.977 43.6641 59.7731 42.9552 59.7731 42.148C59.7731 41.3409 59.9681 40.6501 60.3583 40.0492C60.7484 39.4484 61.2843 38.9796 61.9662 38.6432C62.6477 38.3069 63.4236 38.1387 64.2938 38.1387C65.164 38.1387 65.9443 38.3337 66.5813 38.7239C67.2183 39.114 67.7091 39.6635 68.0547 40.372C68.3999 41.0808 68.5729 41.9149 68.5729 42.8745H61.5765V41.381H67.3619L66.4873 41.9193C66.4512 41.4709 66.3417 41.0896 66.1578 40.7757C65.974 40.4619 65.7251 40.2198 65.4112 40.0492C65.0973 39.8791 64.7293 39.7936 64.3079 39.7936C63.8503 39.7936 63.4533 39.8855 63.1169 40.0693C62.7806 40.2531 62.5205 40.5088 62.3367 40.8363C62.1529 41.1639 62.0609 41.5472 62.0609 41.9867C62.0609 42.5162 62.1773 42.9689 62.4109 43.3458C62.6441 43.7226 62.9849 44.0096 63.4336 44.2067C63.882 44.4042 64.4246 44.5025 65.0616 44.5025C65.6356 44.5025 66.214 44.4199 66.7972 44.2537C67.38 44.0879 67.905 43.8523 68.3714 43.5472V45.0541C67.8689 45.4129 67.2837 45.6931 66.6154 45.8949C65.9471 46.0968 65.2403 46.198 64.4957 46.198Z" fill="#CBCEDA"/>
<path d="M70.1337 38.3403H72.3806V45.9962H70.1337V38.3403ZM76.1074 38.2596V40.1971C75.8742 40.1433 75.641 40.1028 75.4078 40.0759C75.1746 40.049 74.9546 40.0353 74.7483 40.0353C74.2996 40.0353 73.8962 40.1297 73.5374 40.3179C73.1785 40.5062 72.8959 40.798 72.6896 41.1925C72.4833 41.5875 72.3802 42.0852 72.3802 42.6861L71.9094 42.1209C71.9631 41.5738 72.0619 41.0605 72.2056 40.5804C72.3489 40.1008 72.5487 39.6789 72.8045 39.3157C73.0601 38.9524 73.3764 38.6654 73.7529 38.4547C74.1298 38.244 74.5782 38.1384 75.0984 38.1384C75.2686 38.1384 75.4415 38.1497 75.6165 38.1721C75.7915 38.1946 75.9544 38.2239 76.1074 38.2596Z" fill="#CBCEDA"/>
<path d="M76.8072 42.6996H79.1215C79.1753 43.0407 79.3255 43.3386 79.5723 43.5942C79.8188 43.8499 80.1507 44.0474 80.5682 44.1863C80.9852 44.3255 81.4672 44.395 82.0147 44.395C82.813 44.395 83.4432 44.2806 83.9052 44.0518C84.3672 43.823 84.598 43.5024 84.598 43.0897C84.598 42.767 84.4655 42.5177 84.201 42.3432C83.9365 42.1681 83.4452 42.0405 82.7275 41.9598L80.6958 41.731C79.3861 41.5878 78.4372 41.2803 77.85 40.8095C77.2624 40.3387 76.9686 39.6816 76.9686 38.8383C76.9686 38.1744 77.1636 37.6093 77.5538 37.1429C77.9439 36.6765 78.4934 36.32 79.2018 36.0732C79.9103 35.8267 80.7447 35.7031 81.7045 35.7031C82.6641 35.7031 83.4669 35.84 84.1938 36.1133C84.9203 36.3871 85.4991 36.7684 85.9294 37.2569C86.36 37.7457 86.5932 38.3177 86.629 38.9724H84.3146C84.2696 38.6765 84.1372 38.4185 83.9176 38.1985C83.6977 37.9789 83.395 37.8084 83.0093 37.6871C82.6236 37.5659 82.1705 37.5053 81.6502 37.5053C80.9237 37.5053 80.345 37.6129 79.9147 37.8284C79.4844 38.044 79.2688 38.3486 79.2688 38.7436C79.2688 39.0486 79.3969 39.2842 79.6522 39.45C79.9079 39.6162 80.3586 39.7394 81.0044 39.8201L83.1169 40.0758C84.0497 40.1745 84.7919 40.3338 85.3438 40.5534C85.8952 40.7734 86.2902 41.0672 86.5278 41.4348C86.7655 41.8029 86.8842 42.2689 86.8842 42.834C86.8842 43.5067 86.68 44.0968 86.2721 44.6033C85.864 45.1103 85.292 45.5028 84.5566 45.7806C83.8209 46.0583 82.96 46.1976 81.9734 46.1976C80.9868 46.1976 80.0848 46.0515 79.3226 45.7605C78.56 45.4691 77.9592 45.0609 77.5197 44.5359C77.0802 44.0113 76.8421 43.3988 76.8064 42.6992L76.8072 42.6996Z" fill="#CBCEDA"/>
<path d="M98.3486 44.7716H97.6079L100.003 38.3403H102.25L99.2902 45.9962H96.9893L94.4329 39.3899H95.2403L92.6432 45.9962H90.3424L87.3822 38.3403H89.656L92.064 44.7716H91.2973L93.7463 38.3403H95.939L98.3486 44.7716Z" fill="#CBCEDA"/>
<path d="M110.66 42.1751C110.516 42.9823 110.254 43.6887 109.873 44.2944C109.492 44.8997 109.012 45.3689 108.433 45.7004C107.855 46.0323 107.206 46.1982 106.489 46.1982C105.771 46.1982 105.085 46.0299 104.511 45.6936C103.937 45.3572 103.491 44.8864 103.172 44.2808C102.853 43.6754 102.694 42.9734 102.694 42.1751C102.694 41.3768 102.853 40.6615 103.172 40.0558C103.49 39.4505 103.937 38.9793 104.511 38.643C105.085 38.3066 105.744 38.1384 106.489 38.1384C107.234 38.1384 107.855 38.3046 108.433 38.6361C109.012 38.9681 109.494 39.4369 109.88 40.0422C110.266 40.6475 110.526 41.3591 110.66 42.1751ZM104.968 42.1751C104.968 42.6238 105.061 43.0184 105.244 43.3591C105.428 43.7004 105.681 43.9669 106.005 44.16C106.327 44.353 106.7 44.4493 107.121 44.4493C107.543 44.4493 107.939 44.353 108.312 44.16C108.684 43.9673 109.014 43.7004 109.301 43.3591C109.304 43.356 109.307 43.3523 109.309 43.3487C109.873 42.6744 109.874 41.6834 109.316 41.0035C109.311 40.9971 109.306 40.9906 109.301 40.9842C109.013 40.639 108.684 40.3697 108.311 40.177C107.939 39.9844 107.542 39.8876 107.121 39.8876C106.699 39.8876 106.327 39.984 106.004 40.177C105.681 40.3701 105.427 40.639 105.244 40.9842C105.06 41.3298 104.968 41.7264 104.968 42.1751ZM112.313 45.9962H110.068L110.066 43.1842V41.1504L110.068 38.3403H112.313" fill="#CBCEDA"/>
<path d="M114.037 38.3402H116.284V40.7753L116.19 41.0712V42.9147L116.284 43.4662V48.2157H114.037V38.3402ZM115.504 42.1749C115.656 41.3589 115.923 40.6477 116.304 40.0424C116.685 39.4371 117.165 38.9683 117.744 38.6364C118.323 38.3044 118.966 38.1387 119.675 38.1387C120.428 38.1387 121.089 38.3069 121.659 38.6432C122.229 38.9796 122.675 39.4504 122.997 40.0561C123.32 40.6613 123.482 41.3678 123.482 42.1753C123.482 42.9829 123.321 43.6757 122.997 44.281C122.675 44.8863 122.228 45.3575 121.659 45.6938C121.089 46.0302 120.428 46.1984 119.675 46.1984C118.921 46.1984 118.314 46.0322 117.744 45.7006C117.174 45.3687 116.696 44.8999 116.311 44.2946C115.925 43.6893 115.656 42.9825 115.504 42.1749ZM121.209 42.1749C121.209 41.7266 121.117 41.3296 120.933 40.9841C120.749 40.6389 120.496 40.3695 120.173 40.1769C119.85 39.9842 119.478 39.8875 119.056 39.8875C118.635 39.8875 118.235 39.9838 117.858 40.1769C117.482 40.3699 117.152 40.6389 116.87 40.9841C116.865 40.9905 116.859 40.9969 116.854 41.0033C116.303 41.6857 116.304 42.6715 116.862 43.3486C116.864 43.3522 116.867 43.3554 116.87 43.359C117.152 43.7002 117.482 43.9667 117.858 44.1598C118.235 44.3528 118.635 44.4492 119.056 44.4492C119.478 44.4492 119.85 44.3528 120.173 44.1598C120.496 43.9671 120.749 43.7002 120.933 43.359C121.117 43.0182 121.209 42.6237 121.209 42.1749Z" fill="#CBCEDA"/>
</g>
<mask id="mask0_57_637" style="mask-type:luminance" maskUnits="userSpaceOnUse" x="0" y="29" width="22" height="22">
<path d="M21.0318 29.5691H0V50.6009H21.0318V29.5691Z" fill="white"/>
</mask>
<g mask="url(#mask0_57_637)">
<path d="M7.74795 32.7285C4.84233 31.8965 1.55247 34.4861 0.400007 38.5123C-0.752131 42.5379 0.669457 46.4755 3.57451 47.3075C6.48014 48.1396 9.77 45.5501 10.9225 41.5238C12.0746 37.4981 10.6533 33.5606 7.74795 32.7285ZM7.25832 36.5104C7.24198 36.7084 7.18673 36.9014 7.0958 37.0781C7.00488 37.2548 6.87999 37.4119 6.72831 37.5404C6.57664 37.6689 6.40119 37.7662 6.21182 37.8269C6.02254 37.8875 5.82322 37.9103 5.62512 37.8938C5.42701 37.8775 5.23401 37.8223 5.05726 37.7313C4.88043 37.6404 4.72334 37.5156 4.5948 37.3639C4.46626 37.2123 4.36895 37.0367 4.30828 36.8474C4.24761 36.6581 4.2248 36.4587 4.2413 36.2606C4.25764 36.0625 4.31289 35.8695 4.40381 35.6928C4.49474 35.516 4.61963 35.359 4.77131 35.2305C4.92298 35.102 5.09843 35.0046 5.28772 34.9441C5.47708 34.8834 5.6764 34.8607 5.8745 34.8771C6.07261 34.8934 6.26561 34.9486 6.44236 35.0395C6.61919 35.1304 6.77628 35.2553 6.90482 35.407C7.03336 35.5587 7.13067 35.7342 7.19134 35.9235C7.25201 36.1128 7.27474 36.3122 7.25832 36.5104ZM18.2409 35.8738C15.9718 35.2248 13.4036 37.2461 12.5038 40.3894C11.6044 43.533 12.7138 46.6076 14.9826 47.2566C17.2514 47.9063 19.8199 45.8842 20.7194 42.741C21.6192 39.5974 20.5097 36.5228 18.2409 35.8738ZM17.9067 39.5127C17.8903 39.7108 17.835 39.9037 17.7441 40.0804C17.6531 40.2573 17.5282 40.4143 17.3766 40.5428C17.2248 40.6713 17.0493 40.7687 16.86 40.8292C16.6706 40.8899 16.4712 40.9126 16.2731 40.8961C15.9748 40.8715 15.6904 40.7589 15.456 40.5726C15.2217 40.3863 15.0478 40.1347 14.9564 39.8496C14.8651 39.5645 14.8603 39.2587 14.9428 38.9709C15.0252 38.6831 15.1911 38.4262 15.4195 38.2327C15.648 38.0392 15.9287 37.9178 16.2261 37.8838C16.5236 37.8498 16.8244 37.9048 17.0906 38.0418C17.3567 38.1788 17.5764 38.3917 17.7216 38.6535C17.8668 38.9153 17.9314 39.2142 17.9067 39.5127Z" fill="#CBCEDA"/>
</g>
<defs>
<clipPath id="clip0_57_637">
<rect width="97.2721" height="12.7153" fill="white" transform="translate(26.7279 35.7031)"/>
</clipPath>
</defs>
</svg>
