<svg width="124" height="80" viewBox="0 0 124 80" fill="none" xmlns="http://www.w3.org/2000/svg">
<g clip-path="url(#clip0_57_602)">
<g filter="url(#filter0_d_57_602)">
<path d="M11.4236 44.9688C14.7322 43.8513 19.3565 44.4839 23.6287 46.9658C27.8999 49.4484 30.7438 53.1529 31.4128 56.5801C30.3371 56.8251 29.2402 56.9662 28.1375 57C26.7706 54.4693 24.5364 52.1279 21.616 50.4316C18.6954 48.7353 15.5561 47.9549 12.6814 48.0215C12.1642 47.0473 11.743 46.0244 11.4236 44.9688ZM13.8816 49.9531C16.0834 50.1036 18.4317 50.8068 20.6492 52.0947C22.8667 53.3828 24.643 55.0751 25.865 56.9141C23.4898 56.6638 21.1948 55.9133 19.1296 54.7139C17.0645 53.5143 15.2757 51.8923 13.8816 49.9531ZM10.6941 40.1758C13.9077 37.7239 20.5909 38.2738 26.6384 41.7871C32.6875 45.301 36.4761 50.8342 35.9382 54.8408C35.2679 55.2149 34.5729 55.5431 33.8582 55.8232C33.64 54.8602 33.3144 53.9247 32.8875 53.0342C31.3427 49.7832 28.5105 46.8374 24.9177 44.749C21.3249 42.6608 17.3653 41.6605 13.7742 41.9307C12.7891 42.0016 11.815 42.1822 10.8699 42.4688C10.7593 41.7093 10.7004 40.9432 10.6941 40.1758ZM17.8982 32.9248C21.5216 33.0116 25.6935 34.3222 29.6423 36.6162C33.5914 38.9102 36.7973 41.8864 38.6687 44.9941C40.3124 47.7262 40.6928 50.2637 39.7107 51.9561C39.7046 51.9672 39.7003 51.9786 39.6941 51.9893C39.4632 52.2223 39.2248 52.4462 38.9822 52.6631C38.7735 51.2018 38.2475 49.6718 37.4041 48.1182C35.5226 44.6698 32.2496 41.4716 28.1921 39.1143C24.1346 36.757 19.7372 35.5005 15.8083 35.5742C14.0418 35.6079 12.453 35.9089 11.0818 36.4502C11.1511 36.1315 11.2269 35.814 11.3152 35.4971C11.3213 35.487 11.3291 35.4768 11.3347 35.4668C12.3169 33.7761 14.7104 32.8493 17.8982 32.9248ZM20.8748 27.6475C24.51 27.7543 28.6986 29.0853 32.6755 31.3945C36.6525 33.7037 39.8865 36.6876 41.7791 39.792C43.2209 42.1594 43.7001 44.3576 43.1492 45.9521C41.5418 41.5501 37.3778 36.905 31.4695 33.4727C25.5614 30.0405 19.4657 28.7249 14.8445 29.5078C15.9574 28.2389 18.1037 27.5676 20.8748 27.6475ZM22.9109 24.6465C25.0992 24.0241 27.3907 23.8481 29.6482 24.1309C31.9056 24.4136 34.0833 25.1491 36.0505 26.292C38.0177 27.4349 39.7347 28.9622 41.0984 30.7832C42.4622 32.6044 43.4449 34.6822 43.988 36.8916C41.7895 33.9352 38.5841 31.0904 34.6042 28.7783C30.6246 26.4663 26.5667 25.094 22.9109 24.6465Z" fill="#CBCEDA"/>
</g>
<path d="M59.2033 32.6618H61.6632V42.2876C61.6588 43.17 61.4716 43.9298 61.1017 44.567C60.7318 45.1998 60.2149 45.6878 59.5509 46.031C58.8914 46.3696 58.1226 46.539 57.2447 46.539C56.4426 46.539 55.7206 46.3964 55.0789 46.1112C54.4416 45.8215 53.9358 45.3937 53.5615 44.8277C53.1872 44.2618 53 43.5577 53 42.7154H55.4666C55.4711 43.0853 55.5513 43.4039 55.7073 43.6713C55.8677 43.9387 56.0883 44.1437 56.369 44.2863C56.6498 44.4289 56.9729 44.5002 57.3383 44.5002C57.7349 44.5002 58.0714 44.4177 58.3477 44.2529C58.624 44.0835 58.8334 43.834 58.976 43.5042C59.1231 43.1744 59.1988 42.7689 59.2033 42.2876V32.6618Z" fill="#CBCEDA"/>
<path d="M70.4146 42.0336V36.0843H72.8344V46.3518H70.4881V44.5269H70.3811C70.1494 45.1018 69.7684 45.5719 69.2381 45.9374C68.7122 46.3028 68.0638 46.4855 67.2929 46.4855C66.6199 46.4855 66.025 46.3362 65.5081 46.0376C64.9956 45.7346 64.5945 45.2957 64.3048 44.7208C64.0152 44.1414 63.8703 43.4418 63.8703 42.6218V36.0843H66.2902V42.2475C66.2902 42.8981 66.4684 43.4151 66.8249 43.7983C67.1815 44.1816 67.6494 44.3732 68.2287 44.3732C68.5852 44.3732 68.9306 44.2863 69.2648 44.1125C69.599 43.9387 69.8731 43.6802 70.087 43.3371C70.3054 42.9895 70.4146 42.555 70.4146 42.0336Z" fill="#CBCEDA"/>
<path d="M74.9462 50.2021V36.0843H77.326V37.7822H77.4663C77.5911 37.5326 77.7671 37.2675 77.9944 36.9867C78.2217 36.7015 78.5292 36.4586 78.9169 36.2581C79.3046 36.0531 79.7993 35.9506 80.4009 35.9506C81.1941 35.9506 81.9094 36.1534 82.5466 36.5589C83.1884 36.96 83.6964 37.5549 84.0707 38.3437C84.4495 39.128 84.6389 40.0906 84.6389 41.2314C84.6389 42.3589 84.454 43.317 84.0841 44.1058C83.7142 44.8946 83.2106 45.4962 82.5734 45.9106C81.9361 46.3251 81.2142 46.5323 80.4076 46.5323C79.8193 46.5323 79.3313 46.4343 78.9436 46.2382C78.5559 46.0421 78.244 45.8059 78.0078 45.5296C77.7761 45.2489 77.5956 44.9837 77.4663 44.7341H77.3661V50.2021H74.9462ZM77.3193 41.2181C77.3193 41.8821 77.4129 42.4636 77.6 42.9627C77.7917 43.4618 78.0657 43.8518 78.4222 44.1325C78.7832 44.4088 79.2199 44.547 79.7324 44.547C80.2672 44.547 80.7151 44.4044 81.076 44.1192C81.437 43.8295 81.7088 43.4351 81.8915 42.936C82.0787 42.4324 82.1723 41.8598 82.1723 41.2181C82.1723 40.5808 82.0809 40.0148 81.8982 39.5202C81.7155 39.0255 81.4437 38.6378 81.0827 38.357C80.7217 38.0763 80.2716 37.9359 79.7324 37.9359C79.2155 37.9359 78.7765 38.0718 78.4156 38.3437C78.0546 38.6155 77.7805 38.9965 77.5933 39.4867C77.4106 39.9769 77.3193 40.554 77.3193 41.2181Z" fill="#CBCEDA"/>
<path d="M86.3347 46.3518V36.0843H88.7545V46.3518H86.3347ZM87.5513 34.627C87.168 34.627 86.8382 34.5 86.5619 34.246C86.2856 33.9876 86.1475 33.6778 86.1475 33.3169C86.1475 32.9514 86.2856 32.6417 86.5619 32.3877C86.8382 32.1292 87.168 32 87.5513 32C87.939 32 88.2687 32.1292 88.5406 32.3877C88.8169 32.6417 88.955 32.9514 88.955 33.3169C88.955 33.6778 88.8169 33.9876 88.5406 34.246C88.2687 34.5 87.939 34.627 87.5513 34.627Z" fill="#CBCEDA"/>
<path d="M95.9934 36.0843V37.956H90.0909V36.0843H95.9934ZM91.5482 33.6244H93.968V43.2635C93.968 43.5889 94.017 43.8384 94.1151 44.0122C94.2176 44.1816 94.3512 44.2974 94.5161 44.3598C94.681 44.4222 94.8637 44.4534 95.0643 44.4534C95.2158 44.4534 95.3539 44.4423 95.4787 44.42C95.6079 44.3977 95.706 44.3776 95.7728 44.3598L96.1806 46.2515C96.0514 46.2961 95.8664 46.3451 95.6258 46.3986C95.3896 46.4521 95.0999 46.4833 94.7568 46.4922C94.1507 46.51 93.6048 46.4187 93.119 46.2181C92.6333 46.0131 92.2478 45.6967 91.9626 45.2689C91.6819 44.8411 91.5437 44.3063 91.5482 43.6646V33.6244Z" fill="#CBCEDA"/>
<path d="M102.076 46.5524C101.047 46.5524 100.157 46.3384 99.4088 45.9106C98.6646 45.4784 98.0919 44.8678 97.6908 44.0791C97.2898 43.2858 97.0892 42.3522 97.0892 41.2782C97.0892 40.222 97.2898 39.2951 97.6908 38.4974C98.0964 37.6953 98.6623 37.0714 99.3887 36.6257C100.115 36.1756 100.969 35.9506 101.949 35.9506C102.582 35.9506 103.179 36.0531 103.74 36.2581C104.306 36.4586 104.805 36.7706 105.238 37.1939C105.674 37.6173 106.018 38.1565 106.267 38.8116C106.517 39.4622 106.642 40.2376 106.642 41.1378V41.8798H98.2256V40.2488H104.322C104.318 39.7853 104.217 39.3731 104.021 39.0121C103.825 38.6467 103.551 38.3593 103.199 38.1498C102.851 37.9404 102.446 37.8356 101.982 37.8356C101.488 37.8356 101.053 37.956 100.679 38.1966C100.305 38.4328 100.013 38.7448 99.8032 39.1325C99.5982 39.5157 99.4935 39.9368 99.489 40.3958V41.8197C99.489 42.4168 99.5982 42.9293 99.8165 43.3571C100.035 43.7805 100.34 44.1058 100.732 44.3331C101.124 44.5559 101.584 44.6673 102.109 44.6673C102.461 44.6673 102.78 44.6183 103.065 44.5202C103.35 44.4177 103.598 44.2685 103.807 44.0724C104.017 43.8763 104.175 43.6334 104.282 43.3438L106.541 43.5978C106.399 44.1949 106.127 44.7163 105.726 45.162C105.329 45.6031 104.821 45.9463 104.202 46.1914C103.582 46.432 102.874 46.5524 102.076 46.5524Z" fill="#CBCEDA"/>
<path d="M108.312 46.3518V36.0843H110.658V37.7955H110.765C110.953 37.2028 111.273 36.7461 111.728 36.4252C112.187 36.0999 112.711 35.9372 113.299 35.9372C113.433 35.9372 113.582 35.9439 113.747 35.9573C113.916 35.9662 114.056 35.9818 114.168 36.0041V38.23C114.065 38.1944 113.903 38.1632 113.68 38.1365C113.462 38.1053 113.25 38.0897 113.045 38.0897C112.604 38.0897 112.207 38.1855 111.855 38.3771C111.507 38.5643 111.233 38.825 111.033 39.1592C110.832 39.4934 110.732 39.8789 110.732 40.3156V46.3518H108.312Z" fill="#CBCEDA"/>
</g>
<defs>
<filter id="filter0_d_57_602" x="-12.7614" y="2.88981" width="80.205" height="79.9113" filterUnits="userSpaceOnUse" color-interpolation-filters="sRGB">
<feFlood flood-opacity="0" result="BackgroundImageFix"/>
<feColorMatrix in="SourceAlpha" type="matrix" values="0 0 0 0 0 0 0 0 0 0 0 0 0 0 0 0 0 0 127 0" result="hardAlpha"/>
<feOffset dy="2.34556"/>
<feGaussianBlur stdDeviation="11.7278"/>
<feComposite in2="hardAlpha" operator="out"/>
<feColorMatrix type="matrix" values="0 0 0 0 0 0 0 0 0 0 0 0 0 0 0 0 0 0 0.1 0"/>
<feBlend mode="normal" in2="BackgroundImageFix" result="effect1_dropShadow_57_602"/>
<feBlend mode="normal" in="SourceGraphic" in2="effect1_dropShadow_57_602" result="shape"/>
</filter>
<clipPath id="clip0_57_602">
<rect width="124" height="80" fill="white"/>
</clipPath>
</defs>
</svg>
