<svg width="124" height="80" viewBox="0 0 124 80" fill="none" xmlns="http://www.w3.org/2000/svg">
<g clip-path="url(#clip0_57_142)">
<mask id="mask0_57_142" style="mask-type:luminance" maskUnits="userSpaceOnUse" x="26" y="27" width="73" height="25">
<path d="M99 27.7957H26V51.1281H99V27.7957Z" fill="white"/>
</mask>
<g mask="url(#mask0_57_142)">
<path d="M75.176 35.4421H70.942V50.8148H75.176V35.4421Z" fill="#CBCEDA"/>
<path d="M90.9991 35.2801C86.6557 35.2747 83.619 38.0728 83.0769 42.0411C82.6282 45.1408 83.8702 48.4844 86.5749 50.0998C88.9889 51.62 92.7634 51.5194 94.8024 49.4105V50.8105H99.0039V43.2831C99.0039 38.8626 95.4196 35.2783 90.9991 35.2783V35.2801ZM90.9991 47.1832C88.8453 47.1832 87.1008 45.437 87.1008 43.2849C87.1008 41.133 88.8472 39.3866 90.9991 39.3866C93.1511 39.3866 94.8974 41.133 94.8974 43.2849C94.8974 45.437 93.1511 47.1832 90.9991 47.1832Z" fill="#CBCEDA"/>
<path d="M54.2776 33.5875C54.2776 32.6578 55.035 31.9004 55.9647 31.9004H58.9836V27.7957H55.9647C52.7663 27.7957 50.1728 30.3891 50.1728 33.5875C50.1728 34.4221 50.3505 35.2154 50.6682 35.9315C48.1843 36.9814 46.5347 39.2124 46.1507 42.0356C45.7019 45.1352 46.9439 48.4789 49.6488 50.0943C52.0628 51.6145 55.8373 51.5139 57.8761 49.405V50.805H62.0778V35.2746H55.9665C55.0367 35.2746 54.2793 34.5172 54.2793 33.5875H54.2776ZM57.9694 39.3811V43.2794C57.9694 45.4332 56.2231 47.1778 54.0711 47.1778C51.9192 47.1778 50.1728 45.4313 50.1728 43.2794C50.1728 41.1274 51.9192 39.3811 54.0711 39.3811H57.9694Z" fill="#CBCEDA"/>
<path d="M73.0781 27.7957C72.3979 27.7957 71.8363 28.029 71.3911 28.4956C70.946 28.9623 70.7234 29.5258 70.7234 30.1827C70.7234 30.8396 70.946 31.4301 71.3911 31.886C71.8363 32.3419 72.3979 32.5698 73.0781 32.5698C73.7584 32.5698 74.3453 32.3419 74.7814 31.886C75.2158 31.4301 75.4348 30.863 75.4348 30.1827C75.4348 29.5025 75.2177 28.9623 74.7814 28.4956C74.347 28.029 73.7781 27.7957 73.0781 27.7957Z" fill="#CBCEDA"/>
<path d="M36.4099 35.4343L31.0847 41.1328H30.1693V40.6608V27.7957H26V50.8068H30.1693V45.1083H31.0847L36.4099 50.8068H41.5017L34.2974 43.1197L41.5017 35.4343H36.4099Z" fill="#CBCEDA"/>
</g>
</g>
<defs>
<clipPath id="clip0_57_142">
<rect width="73" height="23.4086" fill="white" transform="translate(26 27.7957)"/>
</clipPath>
</defs>
</svg>
