<svg width="124" height="80" viewBox="0 0 124 80" fill="none" xmlns="http://www.w3.org/2000/svg">
<g clip-path="url(#clip0_57_542)">
<path d="M30.2744 30.8447C30.6559 31.2862 30.9969 31.7487 31.2959 32.2275C28.8984 34.874 26.4152 37.4421 23.9033 39.9775C22.4325 41.4365 20.9512 42.8849 19.4502 44.3135C15.9391 47.6521 12.3176 50.875 8.4707 53.8418C11.3753 50.0767 14.5244 46.527 17.7881 43.085C19.2837 41.507 20.8041 39.9518 22.335 38.4092C24.9304 35.8373 27.5611 33.2953 30.2744 30.8447Z" fill="#CBCEDA"/>
<path d="M32.1084 33.8008C32.3986 34.4885 32.6105 35.196 32.7432 35.9043C31.2878 37.4693 29.7973 39.0025 28.2959 40.5215C26.5371 42.2647 24.7551 43.9896 22.9287 45.667C20.3285 48.0575 17.6378 50.3493 14.791 52.459C16.7012 49.8803 18.7611 47.4292 20.9102 45.0586C22.796 42.9729 24.7498 40.9485 26.7275 38.9531C28.4918 37.2085 30.2776 35.4805 32.1084 33.8008Z" fill="#CBCEDA"/>
<path d="M27.5967 28.5615C28.079 28.8572 28.5463 29.1942 28.9922 29.5732C26.5432 32.2848 24.0029 34.9121 21.4326 37.5059C19.8909 39.0359 18.337 40.5549 16.7607 42.0488C13.3178 45.3133 9.76779 48.4657 6 51.3711C8.97189 47.5171 12.2022 43.8902 15.5469 40.373C16.9695 38.8779 18.4123 37.4022 19.8652 35.9375C22.3946 33.4317 24.9573 30.9539 27.5967 28.5615Z" fill="#CBCEDA"/>
<path d="M32.9131 37.7168C32.9082 39.1818 32.5565 40.6017 31.8506 41.8486C30.6533 42.9831 29.4273 44.089 28.1641 45.1523C27.0896 46.0583 25.9876 46.9334 24.8535 47.7695C24.3899 48.1076 23.9196 48.4414 23.4307 48.7559C23.7452 48.267 24.077 47.7974 24.416 47.333C24.7981 46.8156 25.1873 46.3043 25.584 45.7998C27.655 43.1663 29.9256 40.7014 32.2832 38.334C32.4915 38.1278 32.702 37.9219 32.9131 37.7168Z" fill="#CBCEDA"/>
<path fill-rule="evenodd" clip-rule="evenodd" d="M113.083 35.9141C113.598 35.9141 114.11 35.9742 114.62 36.0947C115.13 36.2153 115.596 36.4153 116.018 36.6934C116.44 36.9669 116.778 37.3405 117.033 37.8135C117.293 38.2864 117.423 38.8775 117.423 39.5869V46.7373H115.003V45.2695H114.919C114.766 45.5663 114.551 45.8449 114.272 46.1045C113.999 46.3595 113.653 46.566 113.235 46.7236C112.823 46.8765 112.338 46.9531 111.782 46.9531C111.105 46.9531 110.496 46.8319 109.953 46.5908C109.415 46.3451 108.988 45.9835 108.673 45.5059C108.362 45.0283 108.207 44.4394 108.207 43.7393C108.207 43.1365 108.318 42.6382 108.541 42.2441C108.764 41.85 109.067 41.5343 109.452 41.2979C109.837 41.0615 110.271 40.8832 110.753 40.7627C111.24 40.6375 111.743 40.5468 112.262 40.4912C112.888 40.4263 113.396 40.3684 113.785 40.3174C114.175 40.2617 114.458 40.1777 114.634 40.0664C114.814 39.9505 114.905 39.7723 114.905 39.5312V39.4893C114.905 38.9656 114.75 38.5599 114.439 38.2725C114.129 37.985 113.681 37.8408 113.097 37.8408C112.48 37.8408 111.991 37.9753 111.629 38.2441C111.272 38.5131 111.03 38.831 110.905 39.1973L108.555 38.8633C108.74 38.2143 109.046 37.6721 109.473 37.2363C109.899 36.7958 110.421 36.466 111.038 36.248C111.655 36.0256 112.337 35.9141 113.083 35.9141ZM114.912 41.6455C114.833 41.7104 114.699 41.7715 114.509 41.8271C114.323 41.8828 114.115 41.9309 113.883 41.9727C113.651 42.0144 113.421 42.0515 113.194 42.084C112.967 42.1164 112.769 42.1448 112.603 42.168C112.227 42.219 111.89 42.3021 111.594 42.418C111.297 42.5339 111.063 42.6967 110.892 42.9053C110.72 43.1092 110.635 43.3731 110.635 43.6973C110.635 44.1608 110.803 44.5116 111.142 44.748C111.48 44.9845 111.912 45.1025 112.436 45.1025C112.941 45.1025 113.379 45.003 113.75 44.8037C114.121 44.5997 114.407 44.3309 114.606 43.9971C114.81 43.6633 114.912 43.2992 114.912 42.9053V41.6455Z" fill="#CBCEDA"/>
<path fill-rule="evenodd" clip-rule="evenodd" d="M65.2246 35.9141C65.883 35.9141 66.5047 36.0211 67.0889 36.2344C67.6778 36.443 68.1977 36.7675 68.6475 37.208C69.1019 37.6485 69.4591 38.21 69.7188 38.8916C69.9783 39.5685 70.1084 40.3751 70.1084 41.3115V42.084H62.667C62.6744 42.6785 62.7864 43.191 63.0059 43.6211C63.2331 44.0616 63.551 44.4002 63.959 44.6367C64.3669 44.8685 64.8446 44.9843 65.3916 44.9844C65.7579 44.9844 66.0899 44.9331 66.3867 44.8311C66.6834 44.7244 66.9413 44.5692 67.1592 44.3652C67.3769 44.1613 67.5411 43.9086 67.6523 43.6074L70.0039 43.8721C69.8555 44.4932 69.5724 45.0355 69.1553 45.499C68.7426 45.958 68.2138 46.3153 67.5693 46.5703C66.9248 46.8207 66.1874 46.9463 65.3574 46.9463C64.2863 46.9463 63.361 46.7234 62.582 46.2783C61.8076 45.8285 61.2113 45.1928 60.7939 44.3721C60.3768 43.5468 60.168 42.5753 60.168 41.458C60.168 40.3591 60.3767 39.3945 60.7939 38.5645C61.2159 37.7298 61.8057 37.0809 62.5615 36.6172C63.3172 36.149 64.2047 35.9141 65.2246 35.9141ZM65.2598 37.876C64.7451 37.876 64.2928 38.0006 63.9033 38.251C63.5138 38.4967 63.2101 38.8222 62.9922 39.2256C62.802 39.5813 62.6951 39.9683 62.6709 40.3867H67.6943C67.6897 39.9045 67.5849 39.4752 67.3809 39.0996C67.1768 38.7196 66.8915 38.421 66.5254 38.2031C66.1637 37.9852 65.742 37.876 65.2598 37.876Z" fill="#CBCEDA"/>
<path fill-rule="evenodd" clip-rule="evenodd" d="M83.3779 35.9141C84.0363 35.9141 84.658 36.0211 85.2422 36.2344C85.8311 36.443 86.351 36.7675 86.8008 37.208C87.2552 37.6485 87.6124 38.21 87.8721 38.8916C88.1316 39.5685 88.2607 40.3752 88.2607 41.3115V42.084H80.8203C80.8277 42.6785 80.9397 43.191 81.1592 43.6211C81.3864 44.0616 81.7043 44.4002 82.1123 44.6367C82.5203 44.8685 82.9979 44.9843 83.5449 44.9844C83.9113 44.9844 84.2433 44.9331 84.54 44.8311C84.8367 44.7244 85.0946 44.5692 85.3125 44.3652C85.5302 44.1613 85.6944 43.9086 85.8057 43.6074L88.1572 43.8721C88.0089 44.4932 87.7257 45.0355 87.3086 45.499C86.896 45.958 86.3671 46.3153 85.7227 46.5703C85.0782 46.8207 84.3407 46.9463 83.5107 46.9463C82.4396 46.9463 81.5144 46.7234 80.7354 46.2783C79.961 45.8285 79.3646 45.1928 78.9473 44.3721C78.5301 43.5468 78.3213 42.5754 78.3213 41.458C78.3213 40.3591 78.53 39.3945 78.9473 38.5645C79.3692 37.7299 79.9583 37.0809 80.7139 36.6172C81.4696 36.1489 82.3579 35.9141 83.3779 35.9141ZM83.4131 37.876C82.8984 37.876 82.4461 38.0006 82.0566 38.251C81.6671 38.4967 81.3634 38.8222 81.1455 39.2256C80.9553 39.5813 80.8484 39.9683 80.8242 40.3867H85.8477C85.843 39.9045 85.7382 39.4752 85.5342 39.0996C85.3302 38.7196 85.0449 38.421 84.6787 38.2031C84.317 37.9852 83.8953 37.876 83.4131 37.876Z" fill="#CBCEDA"/>
<path fill-rule="evenodd" clip-rule="evenodd" d="M94.6602 35.9141C95.7034 35.9141 96.608 36.1435 97.373 36.6025C98.1381 37.0616 98.7292 37.7071 99.1465 38.5371C99.5683 39.3671 99.7793 40.3341 99.7793 41.4375C99.7793 42.541 99.5684 43.5057 99.1465 44.3311C98.7292 45.1563 98.138 45.7988 97.373 46.2578C96.608 46.7168 95.7034 46.9463 94.6602 46.9463C93.6169 46.9463 92.7123 46.7168 91.9473 46.2578C91.1823 45.7988 90.589 45.1562 90.167 44.3311C89.7497 43.5057 89.5411 42.541 89.541 41.4375C89.541 40.334 89.7497 39.3671 90.167 38.5371C90.589 37.7071 91.1821 37.0616 91.9473 36.6025C92.7123 36.1436 93.6169 35.9141 94.6602 35.9141ZM94.6738 37.9102C94.0942 37.9102 93.6114 38.0685 93.2266 38.3838C92.8465 38.6991 92.5611 39.1232 92.3711 39.6562C92.1856 40.1849 92.0938 40.7768 92.0938 41.4307C92.0938 42.0797 92.1857 42.6688 92.3711 43.1973C92.5612 43.7257 92.8465 44.1476 93.2266 44.4629C93.6114 44.7736 94.0942 44.9287 94.6738 44.9287C95.2395 44.9287 95.7125 44.7736 96.0928 44.4629C96.4729 44.1476 96.7559 43.7258 96.9414 43.1973C97.1315 42.6688 97.2265 42.0797 97.2266 41.4307C97.2266 40.7768 97.1315 40.1849 96.9414 39.6562C96.7559 39.1231 96.4729 38.6991 96.0928 38.3838C95.7125 38.0685 95.2395 37.9102 94.6738 37.9102Z" fill="#CBCEDA"/>
<path d="M75.0742 36.0537H77.1816V38.001H75.0742V43.5234C75.0742 43.8618 75.1246 44.1219 75.2266 44.3027C75.3332 44.4789 75.473 44.6001 75.6445 44.665C75.816 44.7298 76.0064 44.7617 76.2148 44.7617C76.3722 44.7617 76.5158 44.7507 76.6455 44.7275C76.78 44.7044 76.8826 44.6836 76.9521 44.665L77.376 46.6328C77.2415 46.6792 77.0492 46.7305 76.7988 46.7861C76.5531 46.8418 76.2516 46.8745 75.8945 46.8838C75.264 46.9023 74.6958 46.8073 74.1904 46.5986C73.685 46.3853 73.2841 46.0555 72.9873 45.6104C72.6952 45.1652 72.5511 44.609 72.5557 43.9414V38.001H71.0391V36.0537H72.5557V33.4941H75.0742V36.0537Z" fill="#CBCEDA"/>
<path d="M50.7666 42.8145H50.9336L55.1621 32.4922H58.3203V46.7373H55.8438V36.9512H55.7119L51.7754 46.6953H49.9248L45.9883 36.9297H45.8555V46.7373H43.3799V32.4922H46.5371L50.7666 42.8145Z" fill="#CBCEDA"/>
<path d="M106.714 35.9004C106.853 35.9004 107.008 35.907 107.18 35.9209C107.356 35.9302 107.502 35.9465 107.618 35.9697V38.2861C107.512 38.2491 107.342 38.2163 107.11 38.1885C106.883 38.156 106.663 38.1406 106.449 38.1406C105.99 38.1406 105.577 38.2401 105.211 38.4395C104.849 38.6342 104.564 38.9052 104.355 39.2529C104.147 39.6006 104.043 40.0018 104.043 40.4561V46.7373H101.524V36.0537H103.966V37.834H104.077C104.272 37.2173 104.606 36.7421 105.079 36.4082C105.557 36.0697 106.102 35.9004 106.714 35.9004Z" fill="#CBCEDA"/>
<path d="M23.8828 27.1465C24.5996 27.2706 25.3162 27.4752 26.0137 27.7598C24.3431 29.5792 22.6238 31.3555 20.8887 33.1104C18.9037 35.0777 16.8896 37.0213 14.8154 38.8994C12.4354 41.058 9.97275 43.1283 7.38281 45.0479C9.50671 42.1811 11.817 39.4728 14.2246 36.8555C15.885 35.0481 17.5943 33.2837 19.3203 31.542C20.8203 30.0577 22.3369 28.5866 23.8828 27.1465Z" fill="#CBCEDA"/>
<path d="M22.042 27.0049C21.8625 27.1883 21.6835 27.3711 21.5039 27.5527C19.1628 29.8839 16.7251 32.1313 14.124 34.1836C13.5919 34.604 13.0518 35.0171 12.5049 35.4209C12.0414 35.759 11.5709 36.0917 11.082 36.4062C11.3965 35.9173 11.7302 35.447 12.0684 34.9834C12.9772 33.7492 13.9324 32.5545 14.9229 31.3916C15.8327 30.3209 16.7736 29.2784 17.7344 28.2568C19.0154 27.4444 20.5048 27.0289 22.0469 27L22.042 27.0049Z" fill="#CBCEDA"/>
</g>
<defs>
<clipPath id="clip0_57_542">
<rect width="124" height="80" fill="white"/>
</clipPath>
</defs>
</svg>
