<svg width="124" height="80" viewBox="0 0 124 80" fill="none" xmlns="http://www.w3.org/2000/svg">
<path d="M53.958 33.5556C55.3315 33.5556 56.4342 33.9933 57.2646 34.8704C58.0947 35.7475 58.509 36.9153 58.509 38.3738V45.5193H54.9154V38.6762C54.9154 38.0864 54.767 37.6203 54.4729 37.2795C54.177 36.9387 53.7492 36.7666 53.1914 36.7666C52.6001 36.7666 52.1406 36.9604 51.8147 37.348C51.4871 37.7356 51.3235 38.2719 51.3235 38.9535V45.5176H47.7299V38.6745C47.7299 38.0848 47.5812 37.6187 47.2872 37.2779C46.9931 36.937 46.5638 36.765 46.0058 36.765C45.4144 36.765 44.955 36.9587 44.6292 37.3464C44.3017 37.734 44.138 38.2702 44.138 38.9518V45.5159H40.5444V33.8781H44.138V34.9489C44.7929 34.0167 45.8621 33.5523 47.3474 33.5523C48.7374 33.5523 49.7815 34.0652 50.485 35.0893C51.2198 34.0652 52.3775 33.5523 53.958 33.5523" fill="#CBCEDA"/>
<path d="M70.9138 44.0656C72.1434 42.8794 72.758 41.4243 72.758 39.7019C72.758 37.9794 72.1434 36.5242 70.9138 35.3381C69.6842 34.1519 68.1823 33.5588 66.4114 33.5588C64.6405 33.5588 63.1383 34.1519 61.9087 35.3381C60.679 36.5242 60.0645 37.9794 60.0645 39.7019C60.0645 41.4243 60.679 42.8794 61.9087 44.0656C63.1383 45.2535 64.6405 45.8465 66.4114 45.8465C68.1823 45.8465 69.6842 45.2518 70.9138 44.0656ZM64.4466 41.6783C63.9205 41.1654 63.6563 40.5054 63.6563 39.6985C63.6563 38.8916 63.9205 38.2316 64.4466 37.7204C64.9726 37.2092 65.6279 36.9519 66.4114 36.9519C67.195 36.9519 67.8498 37.2076 68.3759 37.7204C68.9024 38.2333 69.1661 38.8916 69.1661 39.6985C69.1661 40.5054 68.9024 41.1654 68.3759 41.6783C67.848 42.1894 67.195 42.4451 66.4114 42.4451C65.6279 42.4451 64.9726 42.1894 64.4466 41.6783Z" fill="#CBCEDA"/>
<path d="M74.2651 45.521V33.8197H77.8918V36.6397C78.4684 34.4812 79.9819 33.524 81.422 33.524C82.0201 33.524 82.6699 33.5791 83.3198 33.97L82.2793 37.5736C81.3688 37.2228 80.849 37.2262 80.4132 37.2262C78.9731 37.2262 78.084 38.0598 78.084 41.4947V45.521H74.2651Z" fill="#CBCEDA"/>
<path d="M92.472 35.5552C92.5386 34.9053 91.6281 33.6039 88.9034 33.5571C87.3229 33.5303 85.9731 34.1502 84.8552 35.3363C83.7378 36.5225 83.1782 37.9777 83.1782 39.7001C83.1782 41.4226 83.7378 42.8777 84.8552 44.0639C85.9731 45.2517 87.3712 45.8448 88.9034 45.8448C90.4352 45.8448 92.0175 45.3119 92.472 44.1424V45.5207H96.0657V33.8829H92.472V35.5552ZM87.5621 41.7717C87.0355 41.2606 86.7718 40.5689 86.7718 39.7001C86.7718 38.8313 87.0355 38.1414 87.5621 37.6285C88.0899 37.1173 88.7765 36.8617 89.6217 36.8617C90.4674 36.8617 91.1553 37.1173 91.6818 37.6285C92.2079 38.1397 92.472 38.8313 92.472 39.7001C92.472 40.5689 92.2096 41.2606 91.6818 41.7717C91.1539 42.2829 90.4687 42.5386 89.6217 42.5386C88.7747 42.5386 88.0882 42.2829 87.5621 41.7717Z" fill="#CBCEDA"/>
<path d="M102.314 28.5287H98.7202V45.5194H102.314V28.5287Z" fill="#CBCEDA"/>
<path d="M108.332 32.2409C108.754 31.8299 108.967 31.3371 108.967 30.7624C108.967 30.1877 108.754 29.6948 108.332 29.2839C107.907 28.8729 107.403 28.6674 106.811 28.6674C106.22 28.6674 105.712 28.8729 105.291 29.2839C104.868 29.6948 104.656 30.1877 104.656 30.7624C104.656 31.3371 104.867 31.8299 105.291 32.2409C105.714 32.6519 106.222 32.8574 106.811 32.8574C107.401 32.8574 107.909 32.6519 108.332 32.2409ZM105.015 45.5194H108.609V33.8815H105.015V45.5194Z" fill="#CBCEDA"/>
<path d="M114.648 37.2791C114.648 37.5113 114.852 37.7018 115.26 37.8488C115.666 37.9959 116.159 38.1445 116.732 38.2915C117.307 38.4385 117.881 38.629 118.457 38.8612C119.032 39.0934 119.524 39.4777 119.931 40.0123C120.339 40.5469 120.543 41.2186 120.543 42.0255C120.543 43.2819 120.063 44.2341 119.104 44.8757C118.147 45.5189 116.964 45.8413 115.559 45.8413C113.036 45.8413 111.32 44.9191 110.41 43.0713L113.524 41.3488C113.843 42.2643 114.521 42.7222 115.561 42.7222C116.422 42.7222 116.854 42.4816 116.854 42.0004C116.854 41.7682 116.65 41.5744 116.242 41.419C115.835 41.2637 115.343 41.1132 114.769 40.9645C114.194 40.8176 113.619 40.6238 113.043 40.3832C112.468 40.1427 111.977 39.7668 111.569 39.2539C111.162 38.741 110.958 38.1128 110.958 37.3677C110.958 36.1581 111.409 35.2175 112.311 34.5509C113.213 33.8843 114.327 33.5502 115.652 33.5502C116.643 33.5502 117.545 33.764 118.359 34.19C119.173 34.6178 119.827 35.2342 120.324 36.0395L117.258 37.645C116.873 36.9617 116.339 36.6209 115.652 36.6209C114.966 36.6209 114.647 36.8381 114.647 37.2724V37.2774L114.648 37.2791Z" fill="#CBCEDA"/>
<path fill-rule="evenodd" clip-rule="evenodd" d="M24.316 28.003C24.9389 28.0173 25.5611 28.1077 26.1646 28.2618C26.7667 28.4224 27.3529 28.6483 27.9019 28.9435C28.4511 29.2388 28.9647 29.6007 29.4322 30.0138C29.6653 30.221 29.8865 30.4415 30.0963 30.672C30.3048 30.9038 30.5137 31.1353 30.7027 31.3839C31.4655 32.372 32.0321 33.5057 32.3922 34.6984C32.7506 35.8774 32.9084 37.1173 32.8482 38.3478C32.8543 38.2007 32.8571 38.0535 32.857 37.9064C32.8562 38.0725 32.8523 38.2384 32.8434 38.4034C32.8071 38.9862 32.7309 39.5559 32.6207 40.1114C32.613 40.1413 32.4608 40.8081 32.4518 40.8146C32.4637 40.7605 32.4712 40.7056 32.482 40.6515C32.4068 41.0274 32.3054 41.4016 32.1725 41.7706C32.122 41.9179 32.0683 42.0638 32.0133 42.2091C30.7898 45.4362 28.4516 48.1657 25.776 50.3009C23.6249 52.0198 21.2002 50.7042 20.5953 48.7716C20.3429 47.9652 20.4058 47.0519 20.94 46.2062C21.1744 45.8358 21.4827 45.5183 21.8375 45.2618C23.0212 44.4045 24.1134 43.2689 24.9889 42.0929C30.3204 35.0662 22.2631 30.5221 19.7369 37.6339C19.7365 37.6365 19.7373 37.6392 19.7369 37.6417C19.733 37.6508 19.7291 37.6603 19.7252 37.6681C19.1739 39.5497 16.4764 39.6547 15.7652 37.8497C15.7609 37.8413 15.7558 37.8328 15.7516 37.8243C15.7424 37.8074 15.7344 37.789 15.7252 37.7706C15.7263 37.775 15.7277 37.7782 15.7281 37.7804L15.2935 37.0792C14.3115 35.4651 13.4906 34.0548 11.5201 34.0548C10.3167 34.055 9.32109 34.827 8.72226 35.9786C8.00657 37.3551 7.85865 39.2737 8.61288 41.0695C9.333 43.1261 10.5924 45.012 11.8668 46.7902L12.1988 47.2179C12.2213 47.2471 12.2419 47.2767 12.2603 47.3068C12.5681 47.8082 12.3279 48.4188 11.8853 48.6622C11.7578 48.7324 11.6147 48.7744 11.4615 48.7716C11.3289 48.7692 11.1897 48.7354 11.0494 48.6622C7.68603 46.8686 4.70401 43.9932 3.48788 40.3087C3.16231 39.5231 3.00863 38.7053 3.00156 37.8937C3.00069 37.7949 3.00398 37.6963 3.00742 37.5978C2.94466 35.9289 3.28189 34.2345 3.95468 32.714C4.75506 31.0239 6.19687 29.5394 7.93613 28.7443C9.94438 27.8153 12.2457 27.7972 14.2711 28.5353C15.5791 29.0119 16.7704 29.8053 17.6949 30.8722L17.6978 30.8751C17.8888 30.6545 18.0917 30.446 18.3043 30.2491C18.3355 30.2201 18.3673 30.1917 18.399 30.1632C18.4725 30.0973 18.547 30.0329 18.6227 29.9698C18.659 29.9395 18.6951 29.9088 18.732 29.879C18.8184 29.8096 18.9067 29.7426 18.9957 29.6769C19.0158 29.662 19.035 29.6457 19.0553 29.631L19.3385 29.4357L19.441 29.3673C19.4786 29.3431 19.5173 29.3206 19.5553 29.297C19.6008 29.2688 19.6469 29.2413 19.693 29.214C20.0102 29.0252 20.3387 28.8552 20.6773 28.7091C21.8169 28.2144 23.0689 27.9694 24.316 28.003ZM32.6363 39.2677C32.6254 39.6767 32.5856 40.0869 32.5123 40.4952C32.6099 39.9504 32.6502 39.4026 32.6383 38.8585C32.6412 38.9947 32.64 39.1311 32.6363 39.2677ZM13.2506 32.1105C13.9232 32.6956 14.4716 33.4561 14.8453 34.3673C14.9233 34.5574 14.9956 34.7725 15.066 34.9982C14.9968 34.7744 14.9249 34.56 14.8463 34.3683C14.7678 34.1769 14.6809 33.9924 14.5875 33.8146C14.2359 33.1452 13.7825 32.5729 13.2506 32.1105ZM9.7496 30.7521C9.83504 30.7549 9.92 30.7603 10.0045 30.7667C9.92066 30.7603 9.83632 30.7559 9.75156 30.753L9.7496 30.7521Z" fill="#CBCEDA"/>
</svg>
