<svg width="124" height="80" viewBox="0 0 124 80" fill="none" xmlns="http://www.w3.org/2000/svg">
<g clip-path="url(#clip0_57_188)">
<path d="M40.4984 39.2184C40.4984 44.273 43.7445 47.7974 48.2427 47.7974C52.7409 47.7974 55.987 44.273 55.987 39.2184C55.987 34.1637 52.7409 30.6394 48.2427 30.6394C43.7445 30.6394 40.4984 34.1637 40.4984 39.2184ZM53.0191 39.2184C53.0191 42.8355 51.0482 45.1773 48.2427 45.1773C45.4371 45.1773 43.4663 42.8355 43.4663 39.2184C43.4663 35.6013 45.4371 33.2595 48.2427 33.2595C51.0482 33.2595 53.0191 35.6013 53.0191 39.2184Z" fill="#CBCEDA"/>
<path d="M64.3447 47.7975C67.7531 47.7975 69.7008 44.9224 69.7008 41.4676C69.7008 38.0128 67.7531 35.1377 64.3447 35.1377C62.768 35.1377 61.6087 35.7637 60.8435 36.668V35.3696H58.0612V51.716H60.8435V46.2672C61.6087 47.1715 62.768 47.7975 64.3447 47.7975ZM60.774 41.1198C60.774 38.8243 62.0724 37.5723 63.7882 37.5723C65.8054 37.5723 66.8952 39.1489 66.8952 41.4676C66.8952 43.7862 65.8054 45.3629 63.7882 45.3629C62.0724 45.3629 60.774 44.0877 60.774 41.8386V41.1198Z" fill="#CBCEDA"/>
<path d="M77.2305 47.7975C79.6651 47.7975 81.5896 46.5222 82.4475 44.3891L80.0593 43.4848C79.6883 44.7369 78.5985 45.4325 77.2305 45.4325C75.4452 45.4325 74.1931 44.1572 73.9844 42.0704H82.517V41.143C82.517 37.8041 80.6389 35.1377 77.1146 35.1377C73.5903 35.1377 71.318 37.8969 71.318 41.4676C71.318 45.2238 73.7526 47.7975 77.2305 47.7975ZM77.0914 37.4795C78.8536 37.4795 79.6883 38.6388 79.7115 39.9837H74.1236C74.5409 38.3374 75.6539 37.4795 77.0914 37.4795Z" fill="#CBCEDA"/>
<path d="M84.6049 47.5424H87.3872V40.401C87.3872 38.662 88.6625 37.7346 89.9146 37.7346C91.4449 37.7346 92.0477 38.8243 92.0477 40.3315V47.5424H94.8301V39.5199C94.8301 36.8999 93.2998 35.1377 90.7493 35.1377C89.1726 35.1377 88.0828 35.8565 87.3872 36.668V35.3696H84.6049V47.5424Z" fill="#CBCEDA"/>
<path d="M102.979 30.8945L96.6724 47.5424H99.617L101.031 43.7398H108.219L109.657 47.5424H112.648L106.341 30.8945H102.979ZM104.602 34.187L107.245 41.1429H102.005L104.602 34.187Z" fill="#CBCEDA"/>
<path d="M117.424 30.9429H114.456V47.5907H117.424V30.9429Z" fill="#CBCEDA"/>
<path d="M33.6989 37.0089C34.4003 34.9038 34.1588 32.5977 33.0372 30.6829C31.3504 27.7459 27.9593 26.2349 24.6475 26.946C23.1742 25.2862 21.0575 24.3423 18.8384 24.3559C15.4531 24.3481 12.4495 26.5277 11.4081 29.7486C9.23339 30.194 7.35625 31.5552 6.25779 33.4846C4.55842 36.4138 4.94583 40.1062 7.21617 42.6181C6.51478 44.7232 6.7563 47.0293 7.87795 48.9441C9.56476 51.8811 12.9558 53.392 16.2676 52.681C17.7399 54.3408 19.8576 55.2846 22.0767 55.2701C25.4639 55.2788 28.4685 53.0974 29.5099 49.8735C31.6846 49.4281 33.5618 48.0669 34.6602 46.1376C36.3577 43.2084 35.9693 39.5188 33.6999 37.007L33.6989 37.0089ZM22.0787 53.25C20.7232 53.252 19.4103 52.7776 18.3698 51.9091C18.4171 51.884 18.4993 51.8386 18.5524 51.8057L24.7084 48.2504C25.0234 48.0717 25.2166 47.7365 25.2146 47.3742V38.6957L27.8164 40.198C27.8444 40.2115 27.8627 40.2386 27.8666 40.2695V47.4563C27.8627 50.6522 25.2745 53.2433 22.0787 53.25ZM9.63142 47.9336C8.95225 46.7607 8.70783 45.386 8.94066 44.0518C8.98606 44.0788 9.06625 44.1281 9.12325 44.1609L15.2793 47.7162C15.5913 47.8988 15.9777 47.8988 16.2908 47.7162L23.8061 43.3765V46.381C23.808 46.412 23.7935 46.4419 23.7694 46.4612L17.5467 50.0542C14.7749 51.6502 11.2351 50.7014 9.63239 47.9336H9.63142ZM8.01127 34.4961C8.68754 33.3213 9.75508 32.4228 11.0265 31.9562C11.0265 32.0093 11.0236 32.103 11.0236 32.1687V39.2802C11.0216 39.6415 11.2149 39.9768 11.5288 40.1555L19.0441 44.4942L16.4424 45.9965C16.4164 46.0139 16.3835 46.0168 16.3545 46.0043L10.1309 42.4084C7.36495 40.8066 6.41623 37.2678 8.0103 34.497L8.01127 34.4961ZM29.3872 39.4705L21.8719 35.1308L24.4736 33.6295C24.4997 33.6121 24.5326 33.6092 24.5616 33.6217L30.7852 37.2147C33.556 38.8155 34.5056 42.3601 32.9048 45.1309C32.2276 46.3038 31.161 47.2022 29.8906 47.6698V40.3458C29.8935 39.9845 29.7012 39.6502 29.3882 39.4705H29.3872ZM31.9764 35.5733C31.931 35.5452 31.8508 35.4969 31.7938 35.4641L25.6378 31.9088C25.3257 31.7262 24.9393 31.7262 24.6263 31.9088L17.111 36.2486V33.244C17.109 33.2131 17.1235 33.1831 17.1477 33.1638L23.3704 29.5738C26.1421 27.9749 29.6858 28.9265 31.2837 31.6992C31.959 32.8701 32.2034 34.241 31.9745 35.5733H31.9764ZM15.6966 40.9284L13.0939 39.4261C13.0659 39.4126 13.0476 39.3855 13.0437 39.3546V32.1678C13.0456 28.968 15.6415 26.375 18.8413 26.3769C20.1948 26.3769 21.5048 26.8523 22.5453 27.7179C22.498 27.743 22.4168 27.7884 22.3627 27.8213L16.2067 31.3765C15.8918 31.5552 15.6985 31.8895 15.7005 32.2518L15.6966 40.9264V40.9284ZM17.11 37.8813L20.4576 35.9481L23.8051 37.8803V41.7457L20.4576 43.6779L17.11 41.7457V37.8813Z" fill="#CBCEDA"/>
</g>
<defs>
<clipPath id="clip0_57_188">
<rect width="114" height="30.9153" fill="white" transform="translate(5 24.356)"/>
</clipPath>
</defs>
</svg>
