<svg width="124" height="80" viewBox="0 0 124 80" fill="none" xmlns="http://www.w3.org/2000/svg">
<g clip-path="url(#clip0_57_95)">
<path d="M16.6006 46.9999C15.1022 46.9999 13.8745 46.6508 12.9175 45.9525C11.9731 45.2418 11.5009 44.2318 11.5009 42.9225C11.5009 42.6482 11.5323 42.3115 11.5953 41.9125C11.759 41.0148 11.9919 39.9362 12.2942 38.6769C13.1504 35.2479 15.3603 33.5334 18.9239 33.5334C19.8935 33.5334 20.7623 33.6955 21.5305 34.0197C22.2986 34.3315 22.903 34.8053 23.3437 35.4412C23.7844 36.0646 24.0048 36.8128 24.0048 37.6856C24.0048 37.9474 23.9733 38.2779 23.9104 38.6769C23.7214 39.7866 23.4948 40.8652 23.2304 41.9125C22.7896 43.6208 22.0278 44.8989 20.9449 45.7468C19.862 46.5822 18.4139 46.9999 16.6006 46.9999ZM16.8651 44.3066C17.5702 44.3066 18.1684 44.1008 18.6595 43.6894C19.1631 43.2779 19.522 42.6482 19.7361 41.8004C20.0257 40.6282 20.246 39.6058 20.3972 38.733C20.4476 38.4711 20.4727 38.2031 20.4727 37.9287C20.4727 36.7941 19.8746 36.2267 18.6783 36.2267C17.9732 36.2267 17.3688 36.4325 16.8651 36.8439C16.374 37.2554 16.0214 37.8851 15.8073 38.733C15.5807 39.5684 15.354 40.5909 15.1274 41.8004C15.077 42.0497 15.0518 42.3115 15.0518 42.5859C15.0518 43.733 15.6562 44.3066 16.8651 44.3066Z" fill="#CBCEDA"/>
<path d="M25.9214 46.8126C25.7829 46.8126 25.6759 46.7689 25.6003 46.6817C25.5374 46.5819 25.5184 46.4697 25.5436 46.345L28.1502 34.1878C28.1754 34.0506 28.2447 33.9384 28.358 33.8511C28.4713 33.7639 28.5909 33.7202 28.7169 33.7202H33.741C35.1388 33.7202 36.2595 34.007 37.1031 34.5806C37.9594 35.1541 38.3876 35.9833 38.3876 37.0681C38.3876 37.3798 38.3498 37.704 38.2743 38.0407C37.9594 39.4746 37.3235 40.5344 36.3665 41.2203C35.4221 41.9061 34.1251 42.2489 32.4755 42.2489H29.9257L29.0568 46.345C29.0316 46.4822 28.9623 46.5943 28.849 46.6817C28.7357 46.7689 28.6161 46.8126 28.4901 46.8126H25.9214ZM32.6078 39.6679C33.1367 39.6679 33.5963 39.5245 33.9866 39.2377C34.3896 38.9509 34.654 38.5395 34.7799 38.0033C34.8177 37.7913 34.8366 37.6043 34.8366 37.4422C34.8366 37.0806 34.7296 36.8063 34.5155 36.6192C34.3015 36.4197 33.9362 36.32 33.42 36.32H31.1534L30.4356 39.6679H32.6078Z" fill="#CBCEDA"/>
<path d="M42.6433 46.8126C42.5048 46.8126 42.3978 46.7689 42.3222 46.6817C42.2467 46.5819 42.2215 46.4697 42.2467 46.345L44.3433 36.6566H40.9812C40.8427 36.6566 40.7356 36.613 40.6601 36.5257C40.5971 36.426 40.5783 36.3138 40.6035 36.1891L41.0379 34.1878C41.0631 34.0506 41.1323 33.9384 41.2456 33.8511C41.3589 33.7639 41.4786 33.7202 41.6045 33.7202H51.7663C51.9048 33.7202 52.0118 33.7639 52.0874 33.8511C52.1378 33.926 52.163 34.0008 52.163 34.0756C52.163 34.113 52.1566 34.1504 52.1441 34.1878L51.7096 36.1891C51.6844 36.3262 51.6152 36.4384 51.5018 36.5257C51.4011 36.613 51.2815 36.6566 51.143 36.6566H47.7998L45.7032 46.345C45.678 46.4822 45.6088 46.5943 45.4955 46.6817C45.3821 46.7689 45.2625 46.8126 45.1366 46.8126H42.6433Z" fill="#CBCEDA"/>
<path d="M52.6447 46.8126C52.5062 46.8126 52.3992 46.7689 52.3237 46.6817C52.2481 46.5819 52.2229 46.4697 52.2481 46.345L54.8736 34.1878C54.8988 34.0506 54.968 33.9384 55.0814 33.8511C55.1947 33.7639 55.3143 33.7202 55.4402 33.7202H57.9901C58.1286 33.7202 58.2357 33.7639 58.3112 33.8511C58.3616 33.926 58.3868 34.0008 58.3868 34.0756C58.3868 34.113 58.3804 34.1504 58.3678 34.1878L55.7613 46.345C55.7361 46.4822 55.6669 46.5943 55.5536 46.6817C55.4402 46.7689 55.3206 46.8126 55.1947 46.8126H52.6447Z" fill="#CBCEDA"/>
<path d="M59.8368 46.8126C59.6983 46.8126 59.5912 46.7689 59.5157 46.6817C59.4401 46.5943 59.4149 46.4822 59.4401 46.345L62.0467 34.1878C62.0719 34.0506 62.1411 33.9384 62.2544 33.8511C62.3678 33.7639 62.4937 33.7202 62.6322 33.7202H64.6721C64.9743 33.7202 65.1695 33.8574 65.2576 34.1317L67.3164 40.0233L71.9063 34.1317C71.9692 34.0319 72.0574 33.9384 72.1707 33.8511C72.2966 33.7639 72.4477 33.7202 72.624 33.7202H74.6828C74.8213 33.7202 74.9283 33.7639 75.0039 33.8511C75.0542 33.926 75.0795 34.0008 75.0795 34.0756C75.0795 34.113 75.0732 34.1504 75.0606 34.1878L72.454 46.345C72.4288 46.4822 72.3595 46.5943 72.2462 46.6817C72.1329 46.7689 72.0133 46.8126 71.8873 46.8126H69.6019C69.4634 46.8126 69.3564 46.7689 69.2808 46.6817C69.2178 46.5819 69.199 46.4697 69.2242 46.345L70.6974 39.4435L67.8075 43.2403C67.6816 43.3774 67.562 43.4834 67.4487 43.5582C67.3353 43.633 67.2031 43.6704 67.052 43.6704H66.0698C65.8054 43.6704 65.6228 43.527 65.5221 43.2403L64.181 39.2751L62.67 46.345C62.6448 46.4822 62.5755 46.5943 62.4622 46.6817C62.3489 46.7689 62.2292 46.8126 62.1033 46.8126H59.8368Z" fill="#CBCEDA"/>
<path d="M76.509 46.8126C76.3704 46.8126 76.2634 46.7689 76.1879 46.6817C76.1124 46.5819 76.0872 46.4697 76.1123 46.345L78.7378 34.1878C78.7629 34.0506 78.8322 33.9384 78.9455 33.8511C79.0586 33.7639 79.1785 33.7202 79.3044 33.7202H81.8542C81.9929 33.7202 82.1 33.7639 82.1754 33.8511C82.2259 33.926 82.2508 34.0008 82.2508 34.0756C82.2508 34.113 82.2448 34.1504 82.232 34.1878L79.6255 46.345C79.6006 46.4822 79.5313 46.5943 79.4175 46.6817C79.3044 46.7689 79.1845 46.8126 79.0586 46.8126H76.509Z" fill="#CBCEDA"/>
<path d="M88.3666 46.9999C87.2583 46.9999 86.3076 46.8503 85.5144 46.551C84.7334 46.2518 84.1415 45.8527 83.7389 45.354C83.3483 44.8552 83.1531 44.3003 83.1531 43.6894C83.1531 43.5896 83.1659 43.44 83.1908 43.2405C83.2164 43.1283 83.2669 43.0348 83.3423 42.96C83.4305 42.8851 83.5308 42.8477 83.6446 42.8477H86.0618C86.2133 42.8477 86.3264 42.8727 86.4019 42.9225C86.4901 42.9724 86.5783 43.0597 86.6665 43.1844C86.7547 43.5086 86.956 43.7767 87.2711 43.9887C87.5983 44.2006 88.0454 44.3066 88.6117 44.3066C89.3295 44.3066 89.9092 44.1944 90.3495 43.9699C90.7906 43.7455 91.0552 43.44 91.1427 43.0535C91.1555 43.0036 91.1616 42.9288 91.1616 42.8291C91.1616 42.5173 90.967 42.2742 90.5765 42.0996C90.1859 41.9125 89.4682 41.6944 88.4232 41.445C87.2018 41.1831 86.2759 40.7904 85.6464 40.2667C85.0168 39.7305 84.7024 39.0322 84.7024 38.1719C84.7024 37.8726 84.7401 37.5671 84.8155 37.2554C85.0673 36.0958 85.6908 35.1856 86.6853 34.5247C87.6926 33.8639 88.9894 33.5334 90.5765 33.5334C91.5332 33.5334 92.3836 33.7018 93.1263 34.0384C93.869 34.3751 94.442 34.8053 94.8453 35.329C95.2607 35.8402 95.4681 36.3514 95.4681 36.8627C95.4681 37.0123 95.4621 37.1183 95.4493 37.1806C95.4244 37.2928 95.3678 37.3863 95.2796 37.4612C95.2042 37.536 95.1093 37.5734 94.9961 37.5734H92.4651C92.1884 37.5734 91.9992 37.4674 91.8989 37.2554C91.8861 36.9686 91.7346 36.7255 91.445 36.526C91.1555 36.3265 90.7778 36.2267 90.3118 36.2267C89.7577 36.2267 89.2985 36.3265 88.9329 36.526C88.5807 36.7255 88.3599 37.0185 88.2723 37.405C88.2595 37.4674 88.2528 37.5484 88.2528 37.6482C88.2528 37.9474 88.4292 38.1968 88.782 38.3963C89.147 38.5834 89.7833 38.7766 90.6896 38.9761C92.1002 39.2504 93.1263 39.6432 93.7687 40.1544C94.4231 40.6657 94.7504 41.3453 94.7504 42.1931C94.7504 42.4799 94.7127 42.7916 94.6373 43.1283C94.3605 44.4001 93.6865 45.3665 92.6159 46.0273C91.5588 46.6757 90.1422 46.9999 88.3666 46.9999Z" fill="#CBCEDA"/>
<path d="M97.2564 46.8126C97.1177 46.8126 97.0107 46.7689 96.9352 46.6817C96.8598 46.5943 96.8342 46.4822 96.8598 46.345L99.4663 34.1878C99.4912 34.0506 99.5605 33.9384 99.6743 33.8511C99.7874 33.7639 99.9134 33.7202 100.052 33.7202H102.092C102.394 33.7202 102.589 33.8574 102.677 34.1317L104.736 40.0233L109.326 34.1317C109.389 34.0319 109.477 33.9384 109.59 33.8511C109.716 33.7639 109.867 33.7202 110.043 33.7202H112.102C112.241 33.7202 112.348 33.7639 112.424 33.8511C112.474 33.926 112.499 34.0008 112.499 34.0756C112.499 34.113 112.493 34.1504 112.48 34.1878L109.874 46.345C109.848 46.4822 109.779 46.5943 109.666 46.6817C109.553 46.7689 109.433 46.8126 109.307 46.8126H107.022C106.883 46.8126 106.776 46.7689 106.7 46.6817C106.637 46.5819 106.618 46.4697 106.644 46.345L108.117 39.4435L105.227 43.2403C105.101 43.3774 104.981 43.4834 104.868 43.5582C104.755 43.633 104.623 43.6704 104.472 43.6704H103.489C103.225 43.6704 103.042 43.527 102.942 43.2403L101.601 39.2751L100.09 46.345C100.064 46.4822 99.9948 46.5943 99.8817 46.6817C99.7686 46.7689 99.6487 46.8126 99.5228 46.8126H97.2564Z" fill="#CBCEDA"/>
</g>
<defs>
<clipPath id="clip0_57_95">
<rect width="100.998" height="13.4664" fill="white" transform="translate(11.5009 33.5334)"/>
</clipPath>
</defs>
</svg>
