<svg width="124" height="80" viewBox="0 0 124 80" fill="none" xmlns="http://www.w3.org/2000/svg">
<path d="M41.2895 51.1397V35.6032H43.6011L43.8212 36.8572H43.9314C44.5918 35.9983 45.7141 35.3831 47.2769 35.3831C50.1369 35.3831 52.4268 37.7162 52.4268 41.17C52.4268 44.6236 50.1389 46.9568 47.2769 46.9568C45.7358 46.9568 44.6586 46.3179 44.0866 45.5926H43.9765V51.1377H41.2915L41.2895 51.1397ZM49.7398 41.1719C49.7398 39.1473 48.4405 37.8716 46.8561 37.8716C45.2718 37.8716 43.9726 39.1473 43.9726 41.1719C43.9726 43.1965 45.2718 44.4722 46.8561 44.4722C48.4405 44.4722 49.7398 43.1965 49.7398 41.1719Z" fill="#CBCEDA"/>
<path d="M53.7899 41.1723C53.7899 37.8052 56.2096 35.3855 59.4451 35.3855C62.6805 35.3855 65.1002 37.8052 65.1002 41.1723C65.1002 44.5395 62.6805 46.9592 59.4451 46.9592C56.2096 46.9592 53.7899 44.516 53.7899 41.1723ZM62.3936 41.1723C62.3936 39.191 61.0727 37.8721 59.4451 37.8721C57.8175 37.8721 56.475 39.193 56.475 41.1723C56.475 43.1518 57.8175 44.4511 59.4451 44.4511C61.0727 44.4511 62.3936 43.1537 62.3936 41.1723Z" fill="#CBCEDA"/>
<path d="M67.0444 46.7387V31.3359H69.7294V46.7406H67.0444V46.7387Z" fill="#CBCEDA"/>
<path d="M79.6981 35.6033H82.5581L77.7167 49.1368C77.2332 50.4792 76.5726 51.1397 74.8331 51.1397H72.2365V48.6531H74.4381C74.8351 48.6531 75.0532 48.4547 75.1869 48.1244L75.4503 47.3991L70.9175 35.6033H73.7775L76.6612 43.3283H77.1015L79.6981 35.6033Z" fill="#CBCEDA"/>
<path d="M83.0716 47.2889H85.7999C85.91 48.0143 86.6353 49.005 88.3533 49.005C89.9592 49.005 91.0167 47.9927 91.0167 46.4516V44.889H90.9066C90.313 45.5277 89.2123 46.0998 87.8029 46.0998C84.9429 46.0998 82.7413 43.8982 82.7413 40.7296C82.7413 37.561 84.9429 35.3831 87.8029 35.3831C89.2771 35.3831 90.3563 35.9767 91.0383 36.814H91.1484L91.3686 35.6032H93.7018V46.4516C93.7018 49.4 91.7204 51.3598 88.3533 51.3598C84.5911 51.3598 83.1385 48.8949 83.0716 47.2889ZM91.0167 40.7316C91.0167 38.9939 89.7843 37.7831 88.2216 37.7831C86.6589 37.7831 85.4481 38.9939 85.4481 40.7316C85.4481 42.4692 86.6806 43.7017 88.2216 43.7017C89.7627 43.7017 91.0167 42.4908 91.0167 40.7316Z" fill="#CBCEDA"/>
<path d="M95.5677 41.1723C95.5677 37.8052 97.9874 35.3855 101.223 35.3855C104.458 35.3855 106.878 37.8052 106.878 41.1723C106.878 44.5395 104.458 46.9592 101.223 46.9592C97.9874 46.9592 95.5677 44.516 95.5677 41.1723ZM104.171 41.1723C104.171 39.191 102.85 37.8721 101.223 37.8721C99.5953 37.8721 98.2528 39.193 98.2528 41.1723C98.2528 43.1518 99.5953 44.4511 101.223 44.4511C102.85 44.4511 104.171 43.1537 104.171 41.1723Z" fill="#CBCEDA"/>
<path d="M108.747 46.7386V35.6032H111.057L111.277 36.6588H111.387C111.827 36.1536 112.928 35.3831 114.599 35.3831C117.152 35.3831 119 37.2307 119 40.0475V46.7366H116.315V40.3994C116.315 38.9684 115.303 37.9345 113.917 37.9345C112.531 37.9345 111.43 39.0136 111.43 40.3994V46.7366H108.745L108.747 46.7386Z" fill="#CBCEDA"/>
<path d="M25.6609 45.4394L32.2615 41.628C32.6114 41.4256 32.8276 41.0501 32.8276 40.6471V33.0244C32.8276 32.6214 32.6114 32.246 32.2615 32.0435L25.6609 28.2322C25.311 28.0297 24.8766 28.0317 24.5287 28.2322L17.928 32.0435C17.5782 32.246 17.3619 32.6214 17.3619 33.0244V46.6463L12.7328 49.3176L8.10375 46.6463V41.3018L12.7328 38.6305L15.7855 40.3936V36.8082L13.2989 35.3714C13.1279 35.2731 12.9314 35.22 12.7328 35.22C12.5343 35.22 12.3378 35.2731 12.1668 35.3714L5.56611 39.1827C5.21623 39.3852 5 39.7607 5 40.1636V47.7864C5 48.1894 5.21623 48.5647 5.56611 48.7672L12.1668 52.5786C12.5166 52.7791 12.9491 52.7791 13.2989 52.5786L19.8996 48.7672C20.2495 48.5647 20.4656 48.1894 20.4656 47.7864V34.1625L20.5482 34.1153L25.0928 31.4912L29.7219 34.1625V39.5071L25.0928 42.1784L22.044 40.4191V44.0045L24.5267 45.4375C24.8766 45.6379 25.311 45.6379 25.6589 45.4375L25.6609 45.4394Z" fill="#CBCEDA"/>
</svg>
