<svg width="124" height="80" viewBox="0 0 124 80" fill="none" xmlns="http://www.w3.org/2000/svg">
<path fill-rule="evenodd" clip-rule="evenodd" d="M42.6207 45.3226L41.0921 42.6821H38.8539V45.3226H37.5374V37.3939H41.5016C41.9849 37.3901 42.4599 37.5189 42.875 37.7664C43.2901 38.014 43.6293 38.3707 43.8557 38.7977C44.082 39.2246 44.1867 39.7056 44.1586 40.188C44.1304 40.6705 43.9705 41.136 43.696 41.5337C43.4094 41.9556 43.0049 42.2838 42.533 42.4774L44.1641 45.3226H42.6207ZM41.5016 38.7397H38.8539V41.3728H41.5016C41.6747 41.3727 41.8458 41.337 42.0045 41.2677C42.163 41.1986 42.3056 41.0973 42.4233 40.9706C42.6055 40.7855 42.7293 40.5509 42.7792 40.296C42.8292 40.0411 42.803 39.7771 42.704 39.5369C42.6049 39.2968 42.4375 39.091 42.2224 38.9453C42.0073 38.7997 41.7541 38.7206 41.4944 38.7178L41.5016 38.7397ZM55.5965 37.3939L51.6248 45.3226H53.1023L55.5965 40.3561L58.0834 45.3226H59.5609L55.5965 37.3939ZM72.3316 37.3939H70.6494L68.3892 40.3196L66.1364 37.3939H64.4468L67.7602 41.6216V45.3226H69.0767V41.5557L72.3316 37.3939ZM79.0754 37.3939H81.7159C82.7649 37.4015 83.7688 37.8217 84.5106 38.5635C85.2524 39.3052 85.6726 40.3092 85.6802 41.3583C85.6744 42.4079 85.2549 43.4128 84.5127 44.1551C83.7705 44.8973 82.7655 45.3169 81.7159 45.3226H79.0754V37.3939ZM81.7159 43.9767C82.4155 43.9749 83.0861 43.696 83.5808 43.2012C84.0756 42.7065 84.3544 42.036 84.3563 41.3363C84.3487 40.6383 84.068 39.9711 83.5745 39.4776C83.081 38.9841 82.4138 38.7034 81.7159 38.6958H80.3846V43.9767H81.7159ZM94.4795 37.3939H93.1629V45.3226H94.4795V37.3939ZM108.567 42.0092C108.574 42.4453 108.492 42.8783 108.324 43.2811C108.157 43.6838 107.909 44.0477 107.594 44.3498C107.132 44.8119 106.544 45.1264 105.903 45.2536C105.262 45.3807 104.598 45.3148 103.995 45.0641C103.391 44.8134 102.876 44.3892 102.514 43.8454C102.152 43.3016 101.96 42.6624 101.962 42.0092V37.3939H103.279V42.0092C103.279 42.5349 103.487 43.0391 103.859 43.4109C104.23 43.7826 104.735 43.9914 105.261 43.9914C105.787 43.9914 106.291 43.7826 106.663 43.4109C107.034 43.0391 107.242 42.5349 107.242 42.0092V37.3939H108.567V42.0092ZM117.366 45.3226V40.583L120.021 43.2307L122.662 40.583V45.3226H124V37.3939L120.021 41.3583L116.057 37.3939V45.3226H117.366Z" fill="#CBCEDA"/>
<path d="M27.7579 37.145V48.9357L14.6433 56.506L1.52139 48.9357V33.7877L14.6433 26.21L24.7225 32.0322L26.2439 31.1545L14.6433 24.4546L0 32.91V49.8134L14.6433 58.2688L29.2866 49.8134V36.2672L27.7579 37.145Z" fill="#CBCEDA"/>
<path d="M10.9715 48.9432H8.77722V41.5849H16.0916C16.7836 41.5772 17.4447 41.2974 17.9321 40.806C18.4194 40.3146 18.6936 39.6511 18.6955 38.959C18.6994 38.6169 18.6334 38.2774 18.5013 37.9617C18.3692 37.6459 18.174 37.3606 17.9274 37.1232C17.6889 36.8781 17.4034 36.6837 17.0879 36.5517C16.7725 36.4197 16.4335 36.3528 16.0916 36.3551H8.77722V34.1169H16.0988C17.3807 34.1246 18.6079 34.6372 19.5143 35.5436C20.4206 36.4501 20.9333 37.6772 20.9409 38.959C20.9488 39.9402 20.6496 40.8993 20.0852 41.7019C19.5658 42.4698 18.8338 43.0697 17.9787 43.428C17.132 43.6966 16.2484 43.8299 15.3601 43.8231H10.9715V48.9432Z" fill="#CBCEDA"/>
<path d="M20.8897 48.7603H18.3297L16.3549 45.3153C17.1362 45.2674 17.9068 45.1098 18.6442 44.8472L20.8897 48.7603Z" fill="#CBCEDA"/>
<path d="M26.2291 34.6947L27.7432 35.5358L29.2573 34.6947V32.9173L27.7432 32.0396L26.2291 32.9173V34.6947Z" fill="#CBCEDA"/>
</svg>
