<svg width="124" height="80" viewBox="0 0 124 80" fill="none" xmlns="http://www.w3.org/2000/svg">
<path d="M37.4053 37.2315C37.4053 34.7246 39.5 32.9473 42.4471 32.9473C45.3946 32.9473 47.2483 34.5936 47.2483 37.2127H44.2639C44.2639 36.2399 43.5408 35.6413 42.4102 35.6413C41.1867 35.6413 40.4082 36.2025 40.4082 37.1192C40.4082 37.9611 40.8346 38.3726 41.7983 38.5784L43.856 39.0087C46.3028 39.5138 47.4708 40.6924 47.4708 42.8813C47.4708 45.5565 45.3946 47.2964 42.2432 47.2964C39.1848 47.2964 37.2013 45.6314 37.2013 43.0309H40.1858C40.1858 44.0412 40.9273 44.6024 42.2619 44.6024C43.6151 44.6024 44.4678 44.0599 44.4678 43.1806C44.4678 42.4136 44.1154 42.0207 43.2072 41.8336L41.1125 41.4033C38.6657 40.8982 37.4053 39.4951 37.4053 37.2315Z" fill="#CBCEDA"/>
<path d="M52.6494 47.0532H49.6465V33.2092H52.6494V38.672H57.9509V33.2092H60.9539V47.0532H57.9509V41.4782H52.6494V47.0532Z" fill="#CBCEDA"/>
<path d="M65.86 47.0532H62.7274L67.621 33.2092H70.5497L75.4249 47.0532H72.2368L71.2728 44.1347H66.8425L65.86 47.0532ZM68.6963 38.6345L67.7138 41.5904H70.42L69.4375 38.6345C69.2893 38.1668 69.1224 37.6243 69.0669 37.2876C69.0111 37.6056 68.863 38.1294 68.6963 38.6345Z" fill="#CBCEDA"/>
<path d="M82.5823 47.0532H77.2068V33.2092H82.3972C86.4195 33.2092 89.2185 36.0528 89.2185 40.1686C89.2185 44.2095 86.4938 47.0532 82.5823 47.0532ZM82.1005 36.0154H80.2097V44.247H82.2859C84.6585 44.247 86.0489 42.7316 86.0489 40.1686C86.0489 37.5495 84.5846 36.0154 82.1005 36.0154Z" fill="#CBCEDA"/>
<path d="M104.173 40.1125C104.173 44.3405 101.411 47.2777 97.4256 47.2777C93.4587 47.2777 90.734 44.3592 90.734 40.1312C90.734 35.9032 93.4772 32.966 97.4441 32.966C101.43 32.966 104.173 35.8845 104.173 40.1125ZM101.003 40.1125C101.003 37.4747 99.6685 35.8845 97.4626 35.8845C95.2382 35.8845 93.9036 37.4747 93.9036 40.1125C93.9036 42.769 95.2382 44.3592 97.4626 44.3592C99.6685 44.3592 101.003 42.7316 101.003 40.1125Z" fill="#CBCEDA"/>
<path d="M108.855 47.0532L104.74 33.2092H107.873L109.671 39.2145C109.912 40.0376 110.135 40.8608 110.357 42.2265C110.579 40.8608 110.802 40.0751 111.043 39.2145L112.73 33.2092H116.085L117.697 39.2145C117.92 40.0563 118.142 40.8982 118.383 42.2265C118.661 40.8234 118.865 40.0563 119.106 39.2519L120.941 33.2092H124L119.811 47.0532H116.882L114.379 37.961L111.803 47.0532H108.855Z" fill="#CBCEDA"/>
<path d="M8.44023 30.8332C8.40567 30.8329 8.37758 30.804 8.37758 30.7683C8.37758 30.7429 8.39294 30.7207 8.41168 30.7042C8.41445 30.7017 8.41712 30.6991 8.41981 30.6964L12.4337 26.5602C13.1891 25.7819 14.3301 25.5154 15.2735 26.0316C16.5513 26.7308 17.7332 27.6264 18.7749 28.6999C21.5324 31.5414 23.0817 35.3953 23.0817 39.4138C23.0817 43.4324 21.5324 47.2863 18.7749 50.1278C17.7407 51.1936 16.5682 52.0841 15.3009 52.7811C14.3569 53.3001 13.2134 53.0344 12.4569 52.2546L8.38884 48.0628C8.38158 48.0554 8.37758 48.0453 8.37758 48.0346C8.37758 48.0127 8.39487 47.9948 8.41628 47.9947C10.6108 47.9842 12.7133 47.0814 14.2659 45.4815C15.8275 43.8722 16.705 41.6897 16.705 39.4138C16.705 37.138 15.8275 34.9554 14.2659 33.3462C12.719 31.7522 10.6262 30.8501 8.44023 30.8332Z" fill="#CBCEDA"/>
<path d="M8.37738 48.0512C6.1543 48.0512 4.02226 47.1412 2.45028 45.5214C0.878393 43.9016 -0.00476074 41.7047 -0.00476074 39.4139C-0.00476074 37.1232 0.878393 34.9263 2.45028 33.3064C4.02226 31.6867 6.1543 30.7767 8.37738 30.7767C8.37738 30.7767 5.35836 34.1803 5.35836 39.4139C5.35836 44.6476 8.37738 48.0512 8.37738 48.0512Z" fill="#CBCEDA"/>
</svg>
