<svg width="124" height="80" viewBox="0 0 124 80" fill="none" xmlns="http://www.w3.org/2000/svg">
<g clip-path="url(#clip0_57_67)">
<mask id="mask0_57_67" style="mask-type:luminance" maskUnits="userSpaceOnUse" x="0" y="30" width="124" height="20">
<path d="M124 30.7864H-6.10352e-05V49.2136H124V30.7864Z" fill="white"/>
</mask>
<g mask="url(#mask0_57_67)">
<path d="M20.8324 45.3152L17.431 48.9622C17.3574 49.0415 17.2684 49.1047 17.1693 49.1479C17.0702 49.1912 16.9633 49.2136 16.8552 49.2137H0.731316C0.654415 49.2137 0.579193 49.1912 0.514863 49.1491C0.450534 49.1069 0.39989 49.0469 0.36913 48.9765C0.33837 48.906 0.32883 48.8281 0.341679 48.7522C0.354528 48.6764 0.389206 48.606 0.44147 48.5496L3.83899 44.9025C3.91257 44.8233 4.00165 44.7601 4.10074 44.7168C4.1998 44.6736 4.30674 44.6512 4.41485 44.651H20.5387C20.6162 44.6494 20.6926 44.6708 20.7581 44.7125C20.8235 44.7542 20.8754 44.8143 20.9067 44.8853C20.9381 44.9563 20.9477 45.035 20.9345 45.1115C20.9212 45.188 20.8857 45.2589 20.8324 45.3152ZM17.431 37.9692C17.3572 37.8904 17.268 37.8274 17.169 37.7842C17.07 37.741 16.9632 37.7184 16.8552 37.7178H0.731316C0.654415 37.7178 0.579193 37.7403 0.514863 37.7825C0.450534 37.8246 0.39989 37.8846 0.36913 37.9551C0.33837 38.0255 0.32883 38.1035 0.341679 38.1793C0.354528 38.2551 0.389206 38.3255 0.44147 38.382L3.83899 42.0309C3.91284 42.1098 4.002 42.1727 4.10101 42.216C4.20002 42.2592 4.30682 42.2818 4.41485 42.2824H20.5387C20.6155 42.282 20.6903 42.2592 20.7544 42.217C20.8186 42.1747 20.8688 42.1147 20.8994 42.0443C20.9299 41.9738 20.9393 41.8961 20.9262 41.8204C20.9134 41.7448 20.8788 41.6745 20.8266 41.6182L17.431 37.9692ZM0.731316 35.3491H16.8552C16.9633 35.349 17.0702 35.3266 17.1693 35.2834C17.2684 35.2401 17.3574 35.1769 17.431 35.0977L20.8324 31.4506C20.8857 31.3943 20.9212 31.3234 20.9345 31.2469C20.9477 31.1704 20.9381 31.0917 20.9067 31.0207C20.8754 30.9497 20.8235 30.8896 20.7581 30.8479C20.6926 30.8062 20.6162 30.7849 20.5387 30.7865H4.41485C4.30674 30.7866 4.1998 30.809 4.10074 30.8522C4.00165 30.8955 3.91257 30.9587 3.83899 31.0379L0.44147 34.685C0.389206 34.7414 0.354528 34.8118 0.341679 34.8876C0.32883 34.9635 0.33837 35.0414 0.36913 35.1119C0.39989 35.1823 0.450534 35.2423 0.514863 35.2845C0.579193 35.3266 0.654415 35.3491 0.731316 35.3491Z" fill="#CBCEDA"/>
<path d="M40.49 38.5797H31.8638V35.7389H42.732V32.898H31.835C31.4626 32.896 31.0936 32.9673 30.7489 33.1079C30.4042 33.2485 30.0903 33.4557 29.8258 33.7175C29.5611 33.9793 29.3505 34.2908 29.2062 34.634C29.0619 34.9772 28.9864 35.3454 28.9845 35.7177V38.597C28.986 38.9696 29.0609 39.3383 29.205 39.682C29.3492 40.0256 29.5596 40.3375 29.8243 40.5997C30.0892 40.862 30.403 41.0695 30.7479 41.2103C31.0929 41.3512 31.4624 41.4226 31.835 41.4206H40.4727V44.2615H29.1899V47.1023H40.49C40.8624 47.1044 41.2313 47.033 41.5761 46.8924C41.9208 46.7518 42.2347 46.5447 42.4992 46.2828C42.7639 46.021 42.9744 45.7096 43.1188 45.3664C43.2631 45.0232 43.3386 44.6549 43.3405 44.2826V41.4033C43.3389 41.0307 43.2641 40.662 43.1199 40.3184C42.9758 39.9747 42.7654 39.6628 42.5007 39.4006C42.2358 39.1384 41.922 38.9309 41.577 38.79C41.2321 38.6492 40.8626 38.5777 40.49 38.5797Z" fill="#CBCEDA"/>
<path d="M57.2012 32.8978H48.5423C48.1694 32.8948 47.7995 32.9653 47.4538 33.1055C47.1083 33.2457 46.7937 33.4526 46.5282 33.7146C46.2626 33.9765 46.0514 34.2883 45.9067 34.632C45.7618 34.9757 45.6861 35.3446 45.6842 35.7176V44.2824C45.6861 44.6553 45.7618 45.0243 45.9067 45.368C46.0514 45.7117 46.2626 46.0234 46.5282 46.2854C46.7937 46.5473 47.1083 46.7543 47.4538 46.8944C47.7995 47.0346 48.1694 47.1052 48.5423 47.1021H57.2012C57.5736 47.1042 57.9425 47.0328 58.2873 46.8922C58.632 46.7516 58.9459 46.5445 59.2104 46.2826C59.4751 46.0208 59.6857 45.7094 59.83 45.3662C59.9743 45.023 60.0498 44.6547 60.0517 44.2824V35.7176C60.0498 35.3452 59.9743 34.977 59.83 34.6338C59.6857 34.2906 59.4751 33.9792 59.2104 33.7173C58.9459 33.4555 58.632 33.2483 58.2873 33.1077C57.9425 32.9671 57.5736 32.8958 57.2012 32.8978ZM57.1801 44.2613H48.5635V35.7387H57.1763L57.1801 44.2613Z" fill="#CBCEDA"/>
<path d="M87.5294 32.8979H79.0836C78.7112 32.8959 78.3423 32.9672 77.9976 33.1078C77.6528 33.2485 77.339 33.4556 77.0745 33.7174C76.8098 33.9793 76.5992 34.2907 76.4549 34.6339C76.3105 34.9771 76.2351 35.3454 76.2332 35.7177V47.1023H79.1124V42.4359H87.5198V47.1023H90.3991V35.7177C90.3972 35.3437 90.3212 34.9739 90.1757 34.6294C90.03 34.2849 89.8179 33.9727 89.5511 33.7106C89.2845 33.4485 88.9685 33.2418 88.6215 33.1023C88.2744 32.9628 87.9034 32.8934 87.5294 32.8979ZM87.5083 39.5951H79.1009V35.7388H87.5083V39.5951Z" fill="#CBCEDA"/>
<path d="M121.15 32.898H112.704C112.331 32.896 111.962 32.9673 111.618 33.1079C111.273 33.2485 110.959 33.4557 110.695 33.7175C110.43 33.9793 110.219 34.2908 110.075 34.634C109.931 34.9772 109.855 35.3454 109.853 35.7177V47.1023H112.733V42.436H121.121V47.1023H124V35.7177C123.998 35.3454 123.923 34.9772 123.778 34.634C123.634 34.2908 123.423 33.9793 123.159 33.7175C122.894 33.4557 122.58 33.2485 122.236 33.1079C121.891 32.9673 121.522 32.896 121.15 32.898ZM121.121 39.5951H112.713V35.7389H121.121V39.5951Z" fill="#CBCEDA"/>
<path d="M104.421 44.2614H103.269L99.152 34.0881C99.011 33.7371 98.7681 33.4363 98.4549 33.2243C98.1416 33.0122 97.7721 32.8986 97.3938 32.898H94.8389C94.5905 32.8967 94.3444 32.9444 94.1147 33.0382C93.8847 33.1321 93.6757 33.2703 93.4991 33.445C93.3227 33.6197 93.1824 33.8274 93.0862 34.0563C92.99 34.2852 92.9399 34.5308 92.9386 34.7791V47.1023H95.8179V35.7388H96.9696L101.085 45.9122C101.228 46.2625 101.473 46.5621 101.788 46.7727C102.102 46.9833 102.472 47.0954 102.851 47.0946H105.406C105.654 47.0959 105.9 47.0483 106.13 46.9544C106.36 46.8606 106.569 46.7223 106.746 46.5477C106.922 46.373 107.062 46.1652 107.158 45.9363C107.255 45.7074 107.305 45.4618 107.306 45.2135V32.898H104.421V44.2614Z" fill="#CBCEDA"/>
<path d="M65.4743 32.8979H62.595V44.2825C62.597 44.6557 62.6728 45.0247 62.8177 45.3686C62.9626 45.7124 63.174 46.0242 63.4396 46.2862C63.7053 46.5482 64.0203 46.7551 64.366 46.8951C64.7119 47.0352 65.0819 47.1056 65.4551 47.1023H74.0929V44.2614H65.4743V32.8979Z" fill="#CBCEDA"/>
</g>
</g>
<defs>
<clipPath id="clip0_57_67">
<rect width="124" height="18.4273" fill="white" transform="translate(-6.10352e-05 30.7864)"/>
</clipPath>
</defs>
</svg>
