<svg width="124" height="80" viewBox="0 0 124 80" fill="none" xmlns="http://www.w3.org/2000/svg">
<path d="M60.007 39.536H60.0048C59.4906 39.2893 58.8349 39.1632 58.0553 39.1632H55.8371C55.2461 39.1632 54.7735 38.9987 54.4357 38.6818L54.4193 38.6654C54.0893 38.3178 53.9303 37.9264 53.9303 37.4691C53.9303 37.0119 54.0947 36.5897 54.4193 36.2476C54.7461 35.9 55.1945 35.7246 55.7471 35.7246H61.2055V34.5393H55.5443C54.9292 34.5393 54.4007 34.6819 53.9281 34.9724C53.4555 35.2487 53.098 35.6051 52.8371 36.059C52.5761 36.5141 52.4467 36.9954 52.4467 37.5349C52.4467 38.1676 52.5816 38.7038 52.8502 39.1314C53.1386 39.5667 53.5213 39.8924 54.018 40.1303C54.5344 40.3496 55.1474 40.4614 55.8371 40.4614H58.1704C58.5629 40.4614 58.9127 40.5514 59.2088 40.7301C59.5114 40.8913 59.7362 41.1215 59.8853 41.4143C60.0311 41.6884 60.0991 41.9669 60.0991 42.2937C60.0991 42.6204 60.0191 42.9483 59.8601 43.2465C59.7011 43.5481 59.4566 43.7992 59.1375 43.9965C58.8381 44.1742 58.4719 44.2619 58.0575 44.2619H52.8053V45.445H58.3075C58.9664 45.445 59.5224 45.297 60.0081 44.9932C60.5136 44.6862 60.893 44.3035 61.1704 43.8156C61.4511 43.3145 61.5849 42.7948 61.5849 42.2246C61.5849 41.5623 61.4445 40.9954 61.1726 40.5459C60.9171 40.1029 60.5344 39.7707 60.007 39.536Z" fill="#CBCEDA"/>
<path d="M73.0388 35.0405V35.0372C72.1868 34.5262 71.1868 34.2664 70.0684 34.2664C68.95 34.2664 67.9521 34.5262 67.0947 35.0383C66.2394 35.5339 65.553 36.2269 65.053 37.0975C64.553 37.9495 64.2997 38.9242 64.2997 39.9922C64.2997 41.0602 64.553 42.0459 65.053 42.9111C65.553 43.7652 66.2405 44.4582 67.0947 44.9703C67.9105 45.4473 68.8644 45.6983 69.9258 45.7181H70.0684C71.1868 45.7203 72.1846 45.4714 73.0388 44.9736C73.9105 44.4615 74.5969 43.7685 75.0837 42.9177C75.5837 42.0492 75.837 41.0668 75.837 39.9966C75.837 38.9264 75.5837 37.9264 75.0837 37.0745C74.5969 36.2225 73.9105 35.5383 73.0388 35.0405ZM74.3271 39.9977V39.9955C74.3271 40.8387 74.1484 41.6139 73.7942 42.3014C73.4401 42.978 72.9401 43.5229 72.3107 43.9253C71.6835 44.3255 70.9061 44.5361 70.0651 44.5361C69.2241 44.5361 68.4708 44.331 67.8195 43.9253C67.1901 43.5229 66.6901 42.9758 66.3326 42.2992C65.9807 41.615 65.7997 40.8398 65.7997 39.9966C65.7997 39.1534 65.9785 38.387 66.3326 37.7159C66.6868 37.0229 67.1901 36.467 67.8228 36.0646C68.4708 35.6589 69.2274 35.4571 70.0651 35.4571C70.9028 35.4571 71.6725 35.6622 72.3107 36.0679C72.9434 36.4736 73.4434 37.0262 73.7975 37.7137C74.1495 38.387 74.3304 39.1534 74.3304 39.9977H74.3271Z" fill="#CBCEDA"/>
<path d="M86.8413 34.8814L86.8391 34.8847H86.8402C86.0869 34.4779 85.1999 34.2695 84.1988 34.2695C83.1977 34.2695 82.3216 34.4779 81.5519 34.8912C80.7799 35.2882 80.1889 35.8364 79.7459 36.559C79.3227 37.2761 79.1078 38.1281 79.1078 39.0919V45.4493H80.5924V39.1138C80.5924 38.3693 80.7602 37.7147 81.0902 37.1719C81.4312 36.6193 81.8819 36.1895 82.4291 35.8901C82.9839 35.5974 83.5782 35.4494 84.1988 35.4494C84.8194 35.4494 85.4082 35.5974 85.9466 35.8901C86.5047 36.1862 86.9554 36.616 87.2876 37.1741C87.6308 37.7158 87.804 38.3649 87.804 39.1094V45.4449H89.2909V39.0875C89.2909 38.127 89.0683 37.2717 88.6308 36.5546C88.2021 35.8287 87.6165 35.2838 86.8413 34.8814Z" fill="#CBCEDA"/>
<path d="M94.6999 34.5383H93.1933V45.4473H94.6999V34.5383Z" fill="#CBCEDA"/>
<path d="M103.816 35.7236H104.943V34.5383H103.885C102.75 34.5383 101.722 34.785 100.837 35.2697C99.9521 35.7521 99.2427 36.4166 98.7262 37.2412C98.2152 38.046 97.9565 38.9714 97.9565 39.9934C97.9565 41.0153 98.2152 41.9451 98.7262 42.7675C99.2405 43.5778 99.9521 44.2324 100.837 44.717C101.612 45.1381 103.13 45.4484 103.808 45.4484H104.943V44.2631H103.816C102.997 44.2631 102.244 44.0745 101.579 43.7017C100.936 43.3157 100.412 42.7927 100.023 42.1491C99.6527 41.5032 99.4631 40.7774 99.4631 39.9912C99.4631 39.205 99.6528 38.4769 100.027 37.8311C100.412 37.1907 100.937 36.6754 101.583 36.3059C102.245 35.921 102.994 35.7236 103.816 35.7236Z" fill="#CBCEDA"/>
<path d="M101.582 36.3087V36.3059L101.581 36.3068L101.582 36.3087Z" fill="#CBCEDA"/>
<path d="M35.1408 43.2927L35.144 43.2905C35.144 43.2905 35.1408 43.2927 35.1387 43.2937C35.1397 43.2937 35.1408 43.2937 35.1419 43.2937L35.1408 43.2927Z" fill="#CBCEDA"/>
<path d="M35.1386 43.2937C30.006 44.8354 25.7615 47.0843 23.1025 49.718L22.9852 49.8354C23.6924 50.5042 24.4676 51.1029 25.3053 51.6117L25.4852 51.3913C26.211 50.5042 26.9895 49.6479 27.7999 48.8408C29.9742 46.6742 32.461 44.7992 35.1386 43.2937Z" fill="#CBCEDA"/>
<path d="M35.7318 41.0088H18.7878C18.9928 43.7577 20.0137 46.2785 21.6156 48.3289L21.6891 48.2555C23.3349 46.6316 25.4775 45.1557 28.0619 43.8695C30.3272 42.7412 32.9281 41.773 35.7318 41.0088Z" fill="#CBCEDA"/>
<path d="M29.2362 29.7106C33.8294 34.2873 39.6101 37.3136 45.9511 38.4616C45.1869 31.6766 39.4117 26.3992 32.3941 26.3992C30.5411 26.3992 28.7746 26.7687 27.1617 27.4354C27.8163 28.2237 28.5158 28.9913 29.2362 29.7117V29.7106Z" fill="#CBCEDA"/>
<path d="M23.1024 30.271C25.7614 32.9091 30.0081 35.1547 35.1419 36.6997C32.4621 35.1909 29.973 33.317 27.7976 31.1492C26.9895 30.3444 26.2121 29.4881 25.4829 28.5988L25.3031 28.3784C24.4654 28.8872 23.6902 29.4848 22.9862 30.1536L23.1035 30.271H23.1024Z" fill="#CBCEDA"/>
<path d="M29.2362 50.2784C28.5126 50.9988 27.8141 51.7664 27.1617 52.5547C28.7724 53.2214 30.5411 53.5909 32.3941 53.5909C39.4117 53.5909 45.1869 48.3124 45.9533 41.5251C39.6134 42.6732 33.8327 45.6995 29.2384 50.2762L29.2362 50.2784Z" fill="#CBCEDA"/>
<path d="M28.0586 36.1163V36.1185C25.4764 34.8323 23.3349 33.3553 21.6891 31.7336L21.6156 31.6602C20.0137 33.7106 18.9928 36.2314 18.7878 38.9803H35.7285C32.9259 38.2161 30.3272 37.2479 28.0586 36.1163Z" fill="#CBCEDA"/>
</svg>
