<svg width="124" height="80" viewBox="0 0 124 80" fill="none" xmlns="http://www.w3.org/2000/svg">
<path fill-rule="evenodd" clip-rule="evenodd" d="M23 28C29.6274 28 35 33.3726 35 40C35 46.6274 29.6274 52 23 52C16.3726 52 11 46.6274 11 40C11 33.3726 16.3726 28 23 28ZM27.9067 35.2243C27.4554 35.2322 26.7625 35.4726 23.4301 36.8587C22.263 37.3442 19.9302 38.3491 16.432 39.8732C15.8639 40.0991 15.5664 40.3202 15.5393 40.5363C15.4873 40.9511 16.0845 41.08 16.8359 41.3242C17.4486 41.5234 18.2728 41.7568 18.7013 41.7661C19.0899 41.7745 19.5238 41.6138 20.0028 41.2849C23.2711 39.0787 24.9586 37.9636 25.0646 37.9396C25.1393 37.9226 25.2426 37.9015 25.3127 37.9637C25.3829 38.0261 25.376 38.1443 25.3686 38.176C25.3085 38.4299 22.2385 41.2221 22.0618 41.4056C21.3867 42.1067 20.6191 42.5359 21.8033 43.3164C22.8284 43.992 23.4253 44.4233 24.4814 45.1156C25.1563 45.558 25.6857 46.0827 26.3826 46.0186C26.7032 45.9891 27.0347 45.6874 27.2029 44.7881C27.6004 42.6629 28.3817 38.0586 28.5623 36.1611C28.5781 35.9948 28.5583 35.7816 28.5423 35.6882C28.5263 35.5948 28.4926 35.4619 28.3713 35.3635C28.2277 35.247 28.0061 35.2226 27.9067 35.2243Z" fill="#CBCEDA"/>
<path d="M42 34.4267V33H51.9611V34.4267H47.7847V46.2814H46.1764V34.4267H42Z" fill="#CBCEDA"/>
<path d="M55.8718 46.4889C54.912 46.4889 54.0841 46.2771 53.388 45.8534C52.6963 45.4254 52.1624 44.8288 51.7862 44.0635C51.4144 43.294 51.2285 42.399 51.2285 41.3787C51.2285 40.3584 51.4144 39.4591 51.7862 38.6809C52.1624 37.8984 52.6855 37.2888 53.3556 36.8521C54.0301 36.4111 54.8169 36.1907 55.7162 36.1907C56.235 36.1907 56.7473 36.2771 57.2531 36.4501C57.759 36.623 58.2194 36.904 58.6345 37.2931C59.0495 37.6779 59.3802 38.1881 59.6267 38.8236C59.8731 39.4591 59.9963 40.2417 59.9963 41.1712V41.8197H52.318V40.4967H58.4399C58.4399 39.9347 58.3275 39.4332 58.1027 38.9922C57.8822 38.5512 57.5666 38.2032 57.1559 37.9481C56.7495 37.693 56.2696 37.5655 55.7162 37.5655C55.1066 37.5655 54.5791 37.7168 54.1338 38.0194C53.6928 38.3178 53.3534 38.7069 53.1157 39.1868C52.8779 39.6666 52.759 40.1811 52.759 40.7302V41.6122C52.759 42.3644 52.8887 43.0021 53.1481 43.5253C53.4118 44.0441 53.7771 44.4397 54.2441 44.712C54.711 44.9801 55.2536 45.1141 55.8718 45.1141C56.2739 45.1141 56.6371 45.0579 56.9613 44.9455C57.2899 44.8288 57.5731 44.6558 57.8109 44.4267C58.0486 44.1932 58.2324 43.9036 58.3621 43.5577L59.8407 43.9727C59.685 44.4742 59.4235 44.9152 59.056 45.2957C58.6885 45.6718 58.2345 45.9658 57.6941 46.1777C57.1537 46.3852 56.5463 46.4889 55.8718 46.4889Z" fill="#CBCEDA"/>
<path d="M62.7592 33V46.2814H61.2287V33H62.7592Z" fill="#CBCEDA"/>
<path d="M68.6431 46.4889C67.6833 46.4889 66.8553 46.2771 66.1593 45.8534C65.4675 45.4254 64.9336 44.8288 64.5575 44.0635C64.1856 43.294 63.9997 42.399 63.9997 41.3787C63.9997 40.3584 64.1856 39.4591 64.5575 38.6809C64.9336 37.8984 65.4567 37.2888 66.1268 36.8521C66.8013 36.4111 67.5881 36.1907 68.4874 36.1907C69.0062 36.1907 69.5185 36.2771 70.0244 36.4501C70.5302 36.623 70.9906 36.904 71.4057 37.2931C71.8207 37.6779 72.1515 38.1881 72.3979 38.8236C72.6443 39.4591 72.7676 40.2417 72.7676 41.1712V41.8197H65.0892V40.4967H71.2111C71.2111 39.9347 71.0987 39.4332 70.8739 38.9922C70.6534 38.5512 70.3378 38.2032 69.9271 37.9481C69.5207 37.693 69.0408 37.5655 68.4874 37.5655C67.8778 37.5655 67.3504 37.7168 66.9051 38.0194C66.4641 38.3178 66.1247 38.7069 65.8869 39.1868C65.6491 39.6666 65.5302 40.1811 65.5302 40.7302V41.6122C65.5302 42.3644 65.6599 43.0021 65.9193 43.5253C66.1831 44.0441 66.5484 44.4397 67.0153 44.712C67.4822 44.9801 68.0248 45.1141 68.6431 45.1141C69.0451 45.1141 69.4083 45.0579 69.7325 44.9455C70.0611 44.8288 70.3443 44.6558 70.5821 44.4267C70.8199 44.1932 71.0036 43.9036 71.1333 43.5577L72.6119 43.9727C72.4563 44.4742 72.1947 44.9152 71.8272 45.2957C71.4597 45.6718 71.0058 45.9658 70.4654 46.1777C69.9249 46.3852 69.3175 46.4889 68.6431 46.4889Z" fill="#CBCEDA"/>
<path d="M78.0207 50.2243C77.2814 50.2243 76.6459 50.1292 76.1141 49.939C75.5823 49.7531 75.1392 49.5067 74.7847 49.1997C74.4345 48.8971 74.1556 48.5728 73.9481 48.2269L75.1673 47.3709C75.3056 47.5525 75.4807 47.76 75.6926 47.9935C75.9044 48.2313 76.1941 48.4366 76.5616 48.6096C76.9334 48.7868 77.4198 48.8754 78.0207 48.8754C78.8249 48.8754 79.4885 48.6809 80.0116 48.2918C80.5348 47.9027 80.7963 47.2931 80.7963 46.463V44.4397H80.6666C80.5542 44.6212 80.3942 44.8461 80.1867 45.1141C79.9835 45.3778 79.6895 45.6135 79.3048 45.821C78.9243 46.0242 78.4098 46.1258 77.7613 46.1258C76.9572 46.1258 76.2352 45.9355 75.5953 45.5551C74.9598 45.1746 74.4561 44.6212 74.0843 43.8949C73.7168 43.1686 73.533 42.2866 73.533 41.249C73.533 40.2287 73.7125 39.3402 74.0713 38.5836C74.4302 37.8227 74.9295 37.2347 75.5694 36.8197C76.2092 36.4003 76.9485 36.1907 77.7873 36.1907C78.4358 36.1907 78.9502 36.2987 79.3307 36.5149C79.7155 36.7268 80.0095 36.9689 80.2127 37.2412C80.4202 37.5093 80.5802 37.7298 80.6926 37.9027H80.8482V36.3204H82.3268V46.5668C82.3268 47.4228 82.1322 48.1189 81.7431 48.655C81.3584 49.1954 80.8396 49.591 80.1867 49.8417C79.5382 50.0968 78.8162 50.2243 78.0207 50.2243ZM77.9688 44.7509C78.5828 44.7509 79.1016 44.6104 79.5253 44.3294C79.9489 44.0484 80.271 43.6442 80.4915 43.1167C80.712 42.5893 80.8223 41.958 80.8223 41.2231C80.8223 40.5054 80.7142 39.872 80.498 39.3229C80.2818 38.7739 79.9619 38.3437 79.5382 38.0324C79.1145 37.7211 78.5914 37.5655 77.9688 37.5655C77.3203 37.5655 76.7799 37.7298 76.3476 38.0584C75.9196 38.3869 75.5975 38.8279 75.3813 39.3813C75.1694 39.9347 75.0635 40.5486 75.0635 41.2231C75.0635 41.9148 75.1716 42.5266 75.3878 43.0583C75.6083 43.5858 75.9325 44.0008 76.3605 44.3035C76.7929 44.6018 77.329 44.7509 77.9688 44.7509Z" fill="#CBCEDA"/>
<path d="M84.0326 46.2814V36.3204H85.5112V37.8249H85.615C85.7966 37.332 86.1251 36.9321 86.6007 36.6252C87.0763 36.3182 87.6124 36.1647 88.209 36.1647C88.3214 36.1647 88.4619 36.1669 88.6305 36.1712C88.7992 36.1755 88.9267 36.182 89.0132 36.1907V37.7471C88.9613 37.7341 88.8424 37.7146 88.6565 37.6887C88.4749 37.6584 88.2825 37.6433 88.0793 37.6433C87.5951 37.6433 87.1628 37.7449 86.7823 37.9481C86.4062 38.147 86.1079 38.4237 85.8874 38.7782C85.6712 39.1284 85.5631 39.5283 85.5631 39.9779V46.2814H84.0326Z" fill="#CBCEDA"/>
<path d="M92.6629 46.5149C92.0317 46.5149 91.4588 46.396 90.9444 46.1582C90.4299 45.9161 90.0213 45.5681 89.7187 45.1141C89.416 44.6558 89.2647 44.1024 89.2647 43.4539C89.2647 42.8832 89.3771 42.4206 89.6019 42.0661C89.8268 41.7073 90.1272 41.4263 90.5034 41.2231C90.8795 41.0199 91.2945 40.8685 91.7485 40.7691C92.2068 40.6653 92.6672 40.5832 93.1298 40.5227C93.7351 40.4449 94.2258 40.3865 94.6019 40.3476C94.9824 40.3043 95.2591 40.233 95.432 40.1336C95.6093 40.0341 95.6979 39.8612 95.6979 39.6148V39.5629C95.6979 38.923 95.5228 38.4258 95.1726 38.0713C94.8267 37.7168 94.3015 37.5395 93.5967 37.5395C92.8661 37.5395 92.2932 37.6995 91.8782 38.0194C91.4632 38.3394 91.1713 38.6809 91.0027 39.0441L89.5501 38.5253C89.8095 37.92 90.1553 37.4488 90.5877 37.1115C91.0243 36.77 91.4999 36.5322 92.0144 36.3982C92.5332 36.2598 93.0434 36.1907 93.5449 36.1907C93.8648 36.1907 94.2323 36.2296 94.6473 36.3074C95.0667 36.3809 95.4709 36.5344 95.86 36.7678C96.2535 37.0013 96.5799 37.3536 96.8393 37.8249C97.0987 38.2961 97.2284 38.9274 97.2284 39.7185V46.2814H95.6979V44.9325H95.6201C95.5163 45.1487 95.3434 45.38 95.1013 45.6264C94.8592 45.8729 94.5371 46.0825 94.135 46.2555C93.7329 46.4284 93.2422 46.5149 92.6629 46.5149ZM92.8964 45.14C93.5016 45.14 94.0118 45.0212 94.4268 44.7834C94.8462 44.5456 95.1618 44.2386 95.3736 43.8625C95.5898 43.4864 95.6979 43.0908 95.6979 42.6757V41.2749C95.6331 41.3528 95.4904 41.4241 95.2699 41.489C95.0537 41.5495 94.803 41.6035 94.5176 41.6511C94.2366 41.6943 93.9621 41.7332 93.694 41.7678C93.4303 41.7981 93.2163 41.824 93.052 41.8456C92.6542 41.8975 92.2824 41.9818 91.9366 42.0985C91.595 42.211 91.3183 42.3817 91.1065 42.6109C90.899 42.8357 90.7952 43.1426 90.7952 43.5317C90.7952 44.0635 90.9919 44.4656 91.3853 44.738C91.7831 45.006 92.2868 45.14 92.8964 45.14Z" fill="#CBCEDA"/>
<path d="M98.9261 46.2814V36.3204H100.405V37.8768H100.534C100.742 37.345 101.077 36.9321 101.54 36.6381C102.002 36.3398 102.558 36.1907 103.206 36.1907C103.863 36.1907 104.41 36.3398 104.847 36.6381C105.288 36.9321 105.632 37.345 105.878 37.8768H105.982C106.237 37.3623 106.62 36.9537 107.13 36.6511C107.64 36.3441 108.252 36.1907 108.965 36.1907C109.856 36.1907 110.584 36.4695 111.15 37.0272C111.717 37.5806 112 38.4431 112 39.6148V46.2814H110.47V39.6148C110.47 38.8798 110.268 38.3545 109.866 38.0389C109.464 37.7233 108.991 37.5655 108.446 37.5655C107.746 37.5655 107.203 37.7773 106.818 38.201C106.434 38.6204 106.241 39.1522 106.241 39.7963V46.2814H104.685V39.4591C104.685 38.8928 104.501 38.4366 104.134 38.0908C103.766 37.7406 103.293 37.5655 102.713 37.5655C102.316 37.5655 101.944 37.6714 101.598 37.8833C101.256 38.0951 100.98 38.3891 100.768 38.7652C100.56 39.137 100.457 39.5672 100.457 40.0558V46.2814H98.9261Z" fill="#CBCEDA"/>
</svg>
