<svg width="124" height="80" viewBox="0 0 124 80" fill="none" xmlns="http://www.w3.org/2000/svg">
<path fill-rule="evenodd" clip-rule="evenodd" d="M4.41101 35.9448C4.41101 40.2768 7.93591 43.7973 12.2635 43.7973C16.5911 43.7973 20.116 40.2768 20.116 35.9448C20.116 31.6129 16.5911 28.0923 12.2635 28.0923C7.93591 28.0923 4.41101 31.6129 4.41101 35.9448ZM7.02851 35.9448C7.02851 33.0569 9.37553 30.7098 12.2635 30.7098C15.1515 30.7098 17.4985 33.0569 17.4985 35.9448C17.4985 38.8328 15.1515 41.1798 12.2635 41.1798C9.37553 41.1798 7.02851 38.8328 7.02851 35.9448ZM19.7321 46.0309L14.4971 51.2659C14.2441 51.5233 13.9082 51.6498 13.5723 51.6498C13.2363 51.6498 12.9048 51.5233 12.6474 51.2659C12.137 50.7555 12.137 49.9266 12.6474 49.4162L17.8824 44.1812C18.3928 43.6708 19.2217 43.6708 19.7321 44.1812C20.2425 44.6916 20.2425 45.5205 19.7321 46.0309ZM19.8542 29.4011C19.8542 28.5373 20.561 27.8306 21.4248 27.8306C22.2885 27.8306 22.9953 28.5373 22.9953 29.4011C22.9953 30.2648 22.2885 30.9716 21.4248 30.9716C20.561 30.9716 19.8542 30.2648 19.8542 29.4011ZM36.8441 34.8213V45.2294H34.1875V34.8213H30.7484V32.3102H40.3195V34.8213H36.8441ZM44.2317 40.7896V45.2294H41.7388V31.5824H44.2317V37.1685C44.7048 36.4407 45.6509 35.9312 46.8337 35.9312C49.0354 35.9312 50.3455 37.5325 50.3455 39.898V45.2294H47.8527V40.3165C47.8527 39.0063 47.2886 38.2057 46.2514 38.2057C45.1051 38.2057 44.2317 39.0428 44.2317 40.7896ZM61.4814 42.2635C60.9356 44.1013 59.1341 45.4296 56.8234 45.4296C54.0392 45.4296 52.0559 43.428 52.0559 40.6622C52.0559 37.951 54.0758 35.9312 56.8415 35.9312C59.5163 35.9312 61.7182 37.8418 61.5907 41.2627H54.4942C54.6035 42.3362 55.4042 43.2642 56.9508 43.2642C57.8242 43.2642 58.5883 42.8821 58.8792 42.2635H61.4814ZM54.585 39.625H58.8612C58.5521 38.4059 57.6241 37.951 56.7687 37.951C55.6224 37.951 54.8218 38.6242 54.585 39.625ZM80.2235 37.4961C80.8055 42.8093 77.6942 45.4478 73.8549 45.4478C69.9063 45.4478 67.0493 42.5182 67.0493 38.7698C67.0493 35.0214 69.9063 32.0919 73.8183 32.0919C76.5298 32.0919 79.0406 33.6931 79.914 36.1314H76.8935C76.2569 35.1852 75.0559 34.6393 73.8183 34.6393C71.3436 34.6393 69.7062 36.4589 69.7062 38.7698C69.7062 41.0807 71.3436 42.9003 73.8549 42.9003C75.9474 42.9003 77.203 41.754 77.494 39.9707H73.5454V37.4961H80.2235ZM84.5725 40.8806V45.2294H82.0792V36.1314H84.5725V37.5871C84.8815 36.6955 85.8096 36.0222 86.8285 36.0222C87.0833 36.0222 87.3562 36.0404 87.6657 36.1314V38.6606C87.2835 38.5333 86.9378 38.4605 86.5375 38.4605C85.3546 38.4605 84.5725 39.3885 84.5725 40.8806ZM95.2534 44.2104C94.8531 44.7927 93.8889 45.4296 92.6332 45.4296C90.2132 45.4296 88.357 43.2642 88.357 40.6804C88.357 38.0966 90.2132 35.9312 92.6332 35.9312C93.8889 35.9312 94.8531 36.5681 95.2534 37.1504V36.1314H97.7462V45.2294H95.2534V44.2104ZM90.8679 40.6804C90.8679 42.0997 91.7959 43.1551 93.161 43.1551C94.5255 43.1551 95.4536 42.0997 95.4536 40.6804C95.4536 39.2611 94.5255 38.2057 93.161 38.2057C91.7959 38.2057 90.8679 39.2611 90.8679 40.6804ZM102.659 44.2104V49.0324H100.166V36.1314H102.659V37.1504C103.078 36.5681 104.042 35.9312 105.298 35.9312C107.718 35.9312 109.573 38.0966 109.573 40.6804C109.573 43.2642 107.718 45.4296 105.298 45.4296C104.042 45.4296 103.078 44.7927 102.659 44.2104ZM102.459 40.6804C102.459 42.0997 103.387 43.1551 104.752 43.1551C106.116 43.1551 107.045 42.0997 107.045 40.6804C107.045 39.2611 106.116 38.2057 104.752 38.2057C103.387 38.2057 102.459 39.2611 102.459 40.6804ZM113.886 40.7896V45.2294H111.393V31.5824H113.886V37.1685C114.359 36.4407 115.305 35.9312 116.488 35.9312C118.69 35.9312 120 37.5325 120 39.898V45.2294H117.507V40.3165C117.507 39.0063 116.943 38.2057 115.906 38.2057C114.76 38.2057 113.886 39.0428 113.886 40.7896Z" fill="#CBCEDA"/>
</svg>
