<svg width="124" height="80" viewBox="0 0 124 80" fill="none" xmlns="http://www.w3.org/2000/svg">
<path d="M30.8637 45.7019H33.3031V36.1446H36.4944V33.8389H27.7058V36.1446H30.8637V45.7019Z" fill="#CBCEDA"/>
<path d="M36.4979 45.7021H38.787V41.7088C38.787 40.3219 39.5054 39.4865 40.5915 39.4865C40.9757 39.4865 41.2765 39.5533 41.6274 39.6703V37.3478C41.3434 37.2643 41.1094 37.2476 40.8588 37.2476C39.9231 37.2476 39.071 37.8657 38.787 38.6845V37.3478H36.4979V45.7021Z" fill="#CBCEDA"/>
<path d="M46.021 45.8859C47.1739 45.8859 48.0427 45.3011 48.427 44.7664V45.7021H50.7161V37.3478H48.427V38.2835C48.0427 37.7489 47.1739 37.1641 46.021 37.1641C43.7987 37.1641 42.0945 39.1691 42.0945 41.5249C42.0945 43.8808 43.7987 45.8859 46.021 45.8859ZM46.5055 43.7973C45.2357 43.7973 44.4002 42.8449 44.4002 41.5249C44.4002 40.205 45.2357 39.2526 46.5055 39.2526C47.7754 39.2526 48.6108 40.205 48.6108 41.5249C48.6108 42.8449 47.7754 43.7973 46.5055 43.7973Z" fill="#CBCEDA"/>
<path d="M56.1662 45.8858C57.3191 45.8858 58.1879 45.301 58.5722 44.7664V45.702H60.8613V33.1707H58.5722V38.2834C58.1879 37.7488 57.3191 37.164 56.1662 37.164C53.944 37.164 52.2397 39.169 52.2397 41.5249C52.2397 43.8808 53.944 45.8858 56.1662 45.8858ZM56.6507 43.7972C55.3809 43.7972 54.5455 42.8449 54.5455 41.5249C54.5455 40.2049 55.3809 39.2526 56.6507 39.2526C57.9206 39.2526 58.756 40.2049 58.756 41.5249C58.756 42.8449 57.9206 43.7972 56.6507 43.7972Z" fill="#CBCEDA"/>
<path d="M64.0557 35.9778C64.8743 35.9778 65.526 35.3262 65.526 34.5242C65.526 33.7222 64.8743 33.0706 64.0557 33.0706C63.2703 33.0706 62.6021 33.7222 62.6021 34.5242C62.6021 35.3262 63.2703 35.9778 64.0557 35.9778ZM62.9195 45.7022H65.2085V37.3479H62.9195V45.7022Z" fill="#CBCEDA"/>
<path d="M67.2396 45.7021H69.5287V41.6253C69.5287 40.0212 70.314 39.2526 71.3833 39.2526C72.3357 39.2526 72.8537 39.9878 72.8537 41.1908V45.7021H75.1427V40.8065C75.1427 38.6344 73.9397 37.1641 71.918 37.1641C70.8319 37.1641 69.9798 37.6319 69.5287 38.3003V37.3478H67.2396V45.7021Z" fill="#CBCEDA"/>
<path d="M80.9678 43.53C79.8149 43.53 78.8458 42.6612 78.8458 41.3913C78.8458 40.1048 79.8149 39.2526 80.9678 39.2526C82.1206 39.2526 83.0898 40.1048 83.0898 41.3913C83.0898 42.6612 82.1206 43.53 80.9678 43.53ZM80.7005 49.3613C83.2568 49.3613 85.1949 48.058 85.1949 45.0505V37.3478H82.9056V38.2835C82.455 37.6319 81.5526 37.1641 80.4832 37.1641C78.2944 37.1641 76.54 39.0354 76.54 41.3913C76.54 43.7305 78.2944 45.6018 80.4832 45.6018C81.5526 45.6018 82.455 45.1173 82.9056 44.499V45.0672C82.9056 46.4039 82.0204 47.3562 80.667 47.3562C79.7313 47.3562 78.7956 47.0387 78.0604 46.3203L76.8074 48.0246C77.7597 48.9436 79.2467 49.3613 80.7005 49.3613Z" fill="#CBCEDA"/>
<path d="M90.0349 45.7019H92.1901L97.1024 33.8389H94.4292L91.1211 42.0762L87.7629 33.8389H85.139L90.0349 45.7019Z" fill="#CBCEDA"/>
<path d="M99.2025 35.9778C100.021 35.9778 100.674 35.3262 100.674 34.5242C100.674 33.7222 100.021 33.0706 99.2025 33.0706C98.4172 33.0706 97.7495 33.7222 97.7495 34.5242C97.7495 35.3262 98.4172 35.9778 99.2025 35.9778ZM98.0669 45.7022H100.356V37.3479H98.0669V45.7022Z" fill="#CBCEDA"/>
<path d="M106.28 45.8859C108.035 45.8859 109.371 45.1507 110.156 44.0146L108.452 42.7447C108.067 43.3295 107.349 43.7973 106.296 43.7973C105.194 43.7973 104.208 43.1791 104.074 42.0597H110.323C110.373 41.7088 110.357 41.4749 110.357 41.2744C110.357 38.5508 108.435 37.1641 106.246 37.1641C103.707 37.1641 101.852 39.0521 101.852 41.5249C101.852 44.1649 103.79 45.8859 106.28 45.8859ZM104.157 40.5057C104.375 39.4865 105.328 39.0521 106.179 39.0521C107.031 39.0521 107.867 39.5033 108.067 40.5057H104.157Z" fill="#CBCEDA"/>
<path d="M118.932 45.7022H121.205L123.962 37.3479H121.506L119.935 42.6946L118.231 37.3479H116.476L114.789 42.6946L113.202 37.3479H110.762L113.536 45.7022H115.808L117.362 40.957L118.932 45.7022Z" fill="#CBCEDA"/>
<path fill-rule="evenodd" clip-rule="evenodd" d="M9.2329 45.7076H4.83629V38.2333H0V33.8367H9.2329V45.7076ZM15.8278 36.4746C15.8278 37.9315 14.6468 39.1126 13.1899 39.1126C11.733 39.1126 10.5519 37.9315 10.5519 36.4746C10.5519 35.0177 11.733 33.8367 13.1899 33.8367C14.6468 33.8367 15.8278 35.0177 15.8278 36.4746ZM13.1899 45.7076L18.246 33.8367H23.5219L18.4658 45.7076H13.1899Z" fill="#CBCEDA"/>
</svg>
