<svg width="124" height="80" viewBox="0 0 124 80" fill="none" xmlns="http://www.w3.org/2000/svg">
<path d="M10.6403 39.1469C11.1981 40.1231 9.94302 40.402 9.38522 40.4717C8.54852 40.5414 8.33935 40.0533 8.4788 39.4258C8.54852 39.2166 8.68797 39.0075 8.82742 38.868C8.96687 38.7286 9.24577 38.5891 9.45495 38.5891C9.66412 38.5891 9.94302 38.5891 10.0825 38.7286C10.3614 38.7983 10.5008 38.9377 10.6403 39.1469Z" fill="#CBCEDA"/>
<path d="M13.987 37.4038C13.3595 42.2845 21.8659 41.2387 21.7265 45.0735C22.5632 43.9579 22.9118 41.0295 20.4714 39.4956C18.2402 38.1011 15.3815 38.868 13.987 37.4038Z" fill="#CBCEDA"/>
<path d="M18.9374 35.5213C18.8677 35.4516 18.798 35.4516 18.798 35.3818C18.798 35.4516 18.8677 35.5213 18.9374 35.5213Z" fill="#CBCEDA"/>
<path d="M20.8898 39.0773C20.82 38.9378 20.7503 38.7984 20.6109 38.6589C20.332 38.2406 19.9136 37.9617 19.4255 37.8919C19.1466 37.8222 18.798 37.7525 18.4494 37.7525C18.1008 37.7525 17.8219 37.6828 17.4732 37.6828C16.776 37.613 16.1485 37.5433 15.4512 37.4039C15.3118 37.3341 15.1026 37.3341 14.9632 37.2644C14.8934 37.2644 14.8237 37.1947 14.6843 37.1947C14.6145 37.125 14.5448 37.125 14.4054 37.0552C14.0567 36.9158 13.7778 36.6369 13.5687 36.4277C13.0806 35.9396 12.6622 35.3818 12.2439 34.8938C11.8255 34.336 11.4769 33.8479 10.9888 33.3598C10.5705 32.8717 10.0127 32.4534 9.4549 32.1745C8.8971 31.8956 8.19985 31.6864 7.57233 31.6167C8.26957 31.547 8.96682 31.6167 9.59435 31.8956C10.2219 32.1745 10.8494 32.5231 11.3375 33.0112C11.6861 33.2901 11.965 33.6387 12.2439 33.9873C14.4054 33.569 16.0788 33.9176 17.4035 34.6846C17.8219 34.8938 18.2402 35.1727 18.5888 35.5213C18.6586 35.591 18.7283 35.591 18.7283 35.6607C19.0072 35.9396 19.2861 36.2185 19.4953 36.4974C20.4714 37.4039 20.8898 38.4497 20.8898 39.0773Z" fill="#CBCEDA"/>
<path d="M7.78146 32.1746C8.33925 32.2443 8.89705 32.4535 9.24568 32.8718C9.5943 33.2902 9.73375 33.848 9.8732 34.336C9.94292 34.7544 10.0126 35.1727 10.1521 35.5214C10.2218 35.7305 10.3613 35.87 10.431 36.0094C10.5007 36.1489 10.6402 36.2883 10.7099 36.4278V36.4975V36.5672C10.5007 36.7764 10.0126 36.5672 9.80348 36.4278C9.45485 36.2883 9.17595 36.0094 8.89705 35.7305C8.13008 34.8938 7.71173 33.6388 7.71173 32.5232C7.71173 32.4535 7.78146 32.314 7.78146 32.1746Z" fill="#CBCEDA"/>
<path d="M16.8457 41.936C15.6604 45.2131 21.0292 47.4443 19.0072 50.7911C21.0292 49.9544 22.0054 47.3746 21.1687 45.3525C20.4714 43.5397 18.2402 42.8425 16.8457 41.936Z" fill="#CBCEDA"/>
<path d="M9.80347 46.1889C10.1521 45.9797 10.5007 45.7705 10.8493 45.5614C11.198 45.4219 11.6163 45.2825 12.0347 45.2127C12.8016 45.0733 13.6383 45.0036 14.2659 44.7247C14.6145 44.5852 14.8934 44.4458 15.1723 44.1669C15.4512 43.9577 15.5906 43.6788 15.7301 43.3302C15.8695 42.9815 15.8695 42.6329 15.8695 42.2843C15.8695 41.8659 15.7301 41.5173 15.5906 41.1687C15.8695 41.4476 16.0787 41.8659 16.2181 42.2843C16.3576 42.7026 16.3576 43.121 16.2879 43.5393C16.2182 43.9577 15.9392 44.376 15.6604 44.7247C15.3815 45.0036 14.9631 45.2825 14.5448 45.4219C14.1264 45.5614 13.7081 45.6311 13.2897 45.7008C12.8714 45.7008 12.5227 45.7705 12.1044 45.7705C11.3374 45.7705 10.5704 45.91 9.80347 46.1889Z" fill="#CBCEDA"/>
<path d="M17.3338 51.9762C17.1943 52.0459 17.1246 52.1854 16.9851 52.2551C16.8457 52.3248 16.7062 52.3945 16.5668 52.4643C16.2879 52.6037 15.9393 52.6734 15.5906 52.6734C14.6842 52.6734 14.0567 51.9762 13.7081 51.2092C13.4292 50.7211 13.2897 50.1634 13.0108 49.6753C12.5925 48.978 11.8255 48.4202 10.9888 48.49C10.6402 48.5597 10.2916 48.6991 10.1521 48.978C9.66403 49.745 10.3613 50.8606 11.3374 50.7211C11.4071 50.7211 11.4769 50.7212 11.5466 50.6514C11.6163 50.6514 11.686 50.5817 11.7558 50.512C11.8952 50.3725 11.9649 50.2331 12.0347 50.0936C12.1044 49.9542 12.1044 49.745 12.1044 49.5358C12.0347 49.3266 11.9649 49.1872 11.8255 49.1175C12.0347 49.1872 12.1741 49.3266 12.2438 49.5358C12.1741 49.8844 12.1741 50.0936 12.1741 50.3028C12.1044 50.512 12.0347 50.7211 11.8952 50.8606C11.8255 50.9303 11.7558 51 11.6163 51.0698C11.5466 51.1395 11.4071 51.2092 11.3374 51.2092C11.1282 51.2789 10.9191 51.2789 10.7099 51.2789C10.431 51.2092 10.0824 51.1395 9.8732 50.9303C9.5943 50.7211 9.38513 50.3725 9.10623 50.1633C8.82733 49.8147 8.47871 49.6056 8.06036 49.3964C7.78146 49.2569 7.50256 49.1872 7.22366 49.1175C7.08421 49.1175 6.94476 49.0478 6.80531 49.0478C6.73559 49.0478 6.38696 48.978 6.38696 48.978C6.87504 48.5597 7.36311 48.2111 7.85118 47.8624C8.40898 47.5138 8.96678 47.3046 9.5943 47.0955C10.2218 46.8863 10.8494 46.8863 11.5466 46.956C11.8952 47.0257 12.1741 47.0955 12.5227 47.2349C12.8714 47.3744 13.1503 47.5835 13.4292 47.7927C13.7081 48.0716 13.9172 48.3505 14.0567 48.6294C14.1961 48.9083 14.2659 49.2569 14.3356 49.6056C14.5448 50.5817 14.475 52.1156 15.7301 52.3248C15.7998 52.3248 15.8695 52.3248 15.9393 52.3248H16.1484C16.2879 52.3248 16.4273 52.3248 16.5668 52.2551C16.776 52.2551 17.0549 52.1156 17.3338 51.9762Z" fill="#CBCEDA"/>
<path d="M8.75773 37.1248C8.68801 37.334 8.61828 37.4735 8.54856 37.6129C8.33938 37.8918 8.06048 38.101 7.78158 38.2404C7.50269 38.3799 7.22379 38.4496 6.87516 38.4496C6.80544 38.4496 6.73571 38.4496 6.66599 38.4496C6.45681 38.4496 6.31736 38.5193 6.10819 38.6588C5.96874 38.7982 5.82929 38.9377 5.82929 39.1469C5.82929 39.2166 5.75956 39.356 5.75956 39.4258C5.75956 39.7047 5.68984 39.9138 5.68984 40.2625C5.62012 40.8203 5.48067 41.3083 5.27149 41.7964C4.99259 42.4239 4.64397 42.9817 4.71369 43.679C4.78342 44.167 4.99259 44.5157 5.34122 44.7946C5.89901 45.4221 7.22379 45.701 6.94489 47.1652C6.73571 48.0716 5.27149 48.9781 3.24947 49.3267C3.45865 49.3267 2.97057 48.49 2.97057 48.4203C2.7614 48.0716 2.4825 47.723 2.34305 47.3744C1.99442 46.6771 1.85497 45.7707 1.99442 45.0037C2.13387 44.167 2.7614 43.5395 3.24947 42.8423C3.87699 42.0753 4.50452 41.0991 4.64397 40.0533C4.64397 39.8441 4.71369 39.4955 4.78342 39.2166C4.85314 38.868 4.92287 38.5891 5.06232 38.2404C5.13204 38.0313 5.27149 37.8918 5.48066 37.6826C5.55039 37.6129 5.62011 37.4735 5.62011 37.4037C5.62011 37.2643 5.62011 37.1946 5.55039 37.0551L2.27332 31.1285L7.01461 36.9854C7.08434 37.0551 7.15406 37.1248 7.22379 37.1248C7.29351 37.1946 7.36323 37.1946 7.50268 37.1946C7.57241 37.1946 7.64213 37.1946 7.78158 37.1248C7.85131 37.0551 7.92103 37.0551 7.99076 36.9854C8.06048 36.9157 8.06048 36.8459 8.06048 36.7065C8.06048 36.6368 8.06048 36.4973 7.99076 36.4276C7.71186 36.0092 7.36324 35.6606 7.01461 35.2423L5.82929 33.778L3.45865 30.8496L0.18158 26.7358L3.73754 30.5707L6.24764 33.3597L7.50268 34.7542C7.92103 35.2423 8.33938 35.6606 8.75773 36.2184L8.82746 36.2881V36.4276C8.82746 36.7065 8.82746 36.9157 8.75773 37.1248Z" fill="#CBCEDA"/>
<path d="M9.87325 50.8607C9.66408 50.6515 9.4549 50.4423 9.24573 50.2332C9.4549 50.5121 9.59435 50.7212 9.87325 50.8607Z" fill="#CBCEDA"/>
<path fill-rule="evenodd" clip-rule="evenodd" d="M71.3008 35.1031C68.9999 35.6609 67.9541 37.4737 68.5816 39.6352C68.8605 40.5416 69.6972 41.5178 70.9522 42.215C73.1137 43.4701 73.8109 43.9582 74.1596 44.7251C74.4385 45.3527 74.5082 45.5618 74.3687 46.1894C74.0201 47.5838 73.044 48.2811 71.6495 48.2811C70.255 48.2811 69.2788 47.5141 68.9999 46.1894C68.9302 45.6316 68.7908 45.4921 68.5816 45.4921C68.3027 45.4921 68.233 45.6316 68.233 46.9563V48.4205L69.1394 48.6994C70.6036 49.1875 72.6256 49.1178 73.8109 48.56C76.1816 47.4444 77.088 45.2829 76.0421 43.2609C75.6238 42.4939 74.6476 41.6572 72.9742 40.6114C71.1614 39.4958 70.3944 38.7288 70.255 37.9618C70.0458 36.7068 71.1614 35.7306 72.6953 35.7306C73.8807 35.7306 74.3687 36.0095 74.7871 36.9159C75.066 37.4737 75.2054 37.6829 75.5541 37.6829C75.9027 37.6829 75.9724 37.6132 75.833 37.2646C75.7632 37.0554 75.6935 36.4976 75.6935 36.0793C75.6935 35.5215 75.6238 35.2426 75.4146 35.1728C74.9265 34.9637 71.9284 34.8939 71.3008 35.1031ZM25.2825 35.5912C25.2825 35.8701 25.4219 35.9398 25.7008 35.9398C26.5375 35.9398 26.6072 36.149 26.677 41.2389C26.7467 45.6316 26.8164 45.9802 27.165 46.6774C27.6531 47.5838 28.3504 48.2114 29.3962 48.6994C30.0935 49.0481 30.5816 49.1178 32.0458 49.1178C33.5797 49.1178 33.9283 49.0481 34.765 48.6297C35.3228 48.3508 36.0201 47.8627 36.299 47.5141C37.2751 46.3288 37.4146 45.7013 37.4843 40.8205C37.6238 36.0793 37.6238 36.0095 38.3907 36.0095C38.5999 36.0095 38.6696 35.8701 38.6696 35.6609C38.6696 35.3123 38.5302 35.3123 36.5779 35.3123C34.6256 35.3123 34.4861 35.3123 34.4861 35.6609C34.4861 35.9398 34.6256 36.0095 35.0439 36.0793C35.9504 36.149 36.0201 36.4976 36.0201 40.8205C36.0201 45.2132 35.8806 46.0499 34.9045 46.9563C34.0678 47.793 33.3705 48.0719 32.1852 48.0719C30.5118 48.0719 29.2568 47.3049 28.9082 45.9105C28.7687 45.4224 28.699 43.749 28.7687 40.7508L28.8384 36.2884L29.466 36.0793C29.8146 35.9398 30.0935 35.7306 30.1632 35.5912C30.2329 35.3123 29.954 35.3123 27.7926 35.3123C25.4219 35.2426 25.2825 35.2426 25.2825 35.5912ZM41.5284 35.5912C41.5284 35.8701 41.6678 35.9398 42.0164 35.9398C42.9229 35.9398 43.4109 36.2884 43.6201 37.0554C43.7595 37.4737 43.7595 39.4958 43.7595 42.3545C43.6898 47.5141 43.6201 47.8627 42.5742 48.0719C42.2256 48.1416 42.0862 48.2811 42.0862 48.4903C42.0862 48.7692 42.2256 48.8389 44.5265 48.8389C46.7577 48.8389 46.9669 48.8389 46.9669 48.56C46.9669 48.3508 46.7577 48.2114 46.1999 48.0719C45.5027 47.8627 45.4329 47.793 45.2238 47.2352C44.9449 46.3985 44.9449 38.5196 45.154 38.5893C45.2238 38.5893 45.921 39.2866 46.688 40.193C47.455 41.0994 49.477 43.4004 51.2898 45.2829C54.0788 48.2811 54.5669 48.8389 54.9852 48.8389H55.4733L55.543 42.7031C55.6128 38.3104 55.6825 36.4976 55.8219 36.3582C55.9614 36.2187 56.31 36.0793 56.5889 36.0095C56.9375 35.9398 57.1467 35.8004 57.1467 35.6609C57.1467 35.4517 56.7284 35.382 54.7761 35.382C52.4751 35.3123 52.4054 35.3123 52.4054 35.6609C52.4054 35.9398 52.5449 36.0095 52.8238 36.0095C53.0329 36.0095 53.4513 36.2187 53.7302 36.4279L54.2183 36.8462L54.288 41.0297C54.288 43.4004 54.288 45.2132 54.2183 45.2132C54.1485 45.2132 53.5907 44.6554 53.0329 44.0279C52.4751 43.4004 50.8715 41.5875 49.477 40.0536C48.0825 38.5196 46.5485 36.8462 46.0605 36.2884L45.2238 35.3123H43.4109C41.5981 35.2426 41.5284 35.2426 41.5284 35.5912ZM59.7963 35.5912C59.7963 35.8701 59.9357 35.9398 60.2843 35.9398C60.5632 35.9398 60.9118 36.0793 61.121 36.2187C61.4696 36.4279 61.4696 36.7765 61.5394 41.5875C61.6091 47.5838 61.5394 47.9325 60.4935 48.0719C60.0054 48.1416 59.7963 48.2811 59.7963 48.4903C59.7963 48.7692 60.0054 48.8389 62.4458 48.8389C64.9559 48.8389 65.0953 48.8389 65.0953 48.4903C65.0953 48.2114 64.9559 48.1416 64.677 48.1416C64.4678 48.1416 64.1192 48.0022 63.91 47.8627C63.5614 47.6536 63.5614 47.3049 63.4917 42.1453C63.4219 36.8462 63.4219 36.6371 63.7706 36.2884C63.9797 36.0793 64.3284 35.9398 64.5375 35.9398C64.8862 35.9398 64.9559 35.8701 64.9559 35.5912C64.9559 35.2426 64.8164 35.2426 62.3063 35.2426C59.9357 35.2426 59.7963 35.2426 59.7963 35.5912ZM78.1339 35.5912C78.2036 35.8004 78.3431 35.9398 78.622 35.9398C78.8311 35.9398 79.1797 36.149 79.3889 36.3582C79.5981 36.5673 80.7834 39.426 82.1082 42.8426L84.4091 48.9086L85.0366 48.9783L85.6641 49.0481L87.2678 44.7251C88.1742 42.3545 89.0109 40.193 89.0807 39.9838C89.2898 39.5655 89.2898 39.6352 89.8476 41.0297C90.1265 41.8664 90.9632 43.9582 91.6605 45.771L92.9155 49.0481H93.4733C93.7522 49.0481 94.0311 48.9783 94.1009 48.8389C94.1706 48.6994 94.9376 46.6774 95.9137 44.3068C96.8201 41.9361 97.866 39.2866 98.2146 38.4499C98.9816 36.4976 99.121 36.2884 99.6788 36.0793C99.9577 36.0095 100.167 35.8004 100.167 35.6609C100.167 35.4517 99.8183 35.382 98.0752 35.382C96.1229 35.382 95.9834 35.382 95.9834 35.7306C95.9834 36.0095 96.1229 36.0793 96.4018 36.0793C97.099 36.0793 97.3779 36.2884 97.3779 36.7068C97.3779 37.0554 94.0311 46.0499 93.822 46.2591C93.6825 46.3985 90.6843 38.0315 90.6146 37.1949C90.4752 36.4279 90.8238 36.0793 91.5908 36.0793C91.8697 36.0793 92.0091 36.0095 92.0091 35.7306C92.0091 35.382 91.8697 35.382 89.2898 35.382C86.71 35.382 86.5706 35.382 86.5706 35.7306C86.5706 35.9398 86.71 36.0793 86.8495 36.0793C87.4073 36.0793 88.1045 36.6371 88.3137 37.1251C88.5926 37.8921 88.3834 38.6591 86.7798 42.8426L85.455 46.3985L85.1761 45.7013C85.0366 45.3527 84.1999 43.1215 83.3632 40.8205C81.6898 36.2884 81.6898 36.0793 82.8054 36.0793C83.2238 36.0793 83.2935 36.0095 83.2935 35.7306C83.2935 35.382 83.1541 35.382 80.7137 35.382C78.0642 35.2426 77.9944 35.2426 78.1339 35.5912ZM113.415 35.7306C113.415 35.7306 113.415 35.9398 113.415 36.0095C113.415 36.0793 113.624 36.0793 113.624 36.0793C113.763 36.0793 113.833 36.149 113.972 36.149C114.53 36.2884 114.879 36.3582 115.018 36.7068C115.088 36.916 115.158 37.7526 115.158 42.1453C115.158 46.7471 115.158 47.3049 115.018 47.5838C114.879 47.9325 114.6 48.1416 113.903 48.3508C113.903 48.3508 113.624 48.4205 113.554 48.4903C113.484 48.56 113.484 48.6994 113.484 48.6994C113.484 48.6994 113.484 48.8389 113.554 48.9086C113.624 48.9783 113.833 48.9783 113.833 48.9783H115.576H118.505C118.505 48.9783 118.644 48.9783 118.714 48.9086C118.783 48.8389 118.783 48.6994 118.783 48.6994C118.783 48.6994 118.783 48.56 118.714 48.4903C118.644 48.4205 118.365 48.3508 118.365 48.3508C117.738 48.2114 117.389 48.0022 117.249 47.6536C117.11 47.3747 117.11 46.7471 117.11 45.2829V43.1912C117.18 43.2609 117.249 43.2609 117.319 43.3306C117.668 43.5398 118.086 43.8884 119.62 43.8884C121.503 43.9582 122.618 43.1215 123.316 42.1453C124.013 41.1692 124.222 39.6352 123.734 37.9618C123.246 36.3582 121.782 35.3123 119.76 35.2426C118.714 35.1728 117.11 35.2426 116.273 35.3123H116.064C115.297 35.3123 114.321 35.4517 113.833 35.4517C113.694 35.4517 113.694 35.4517 113.624 35.5215C113.415 35.6609 113.415 35.7306 113.415 35.7306ZM121.154 42.1453C121.921 41.4481 121.921 40.3325 121.921 39.5655C121.851 38.4499 121.363 36.2884 118.853 36.2884C118.226 36.2884 117.04 36.3582 116.971 37.1949C116.901 37.3343 116.901 38.3802 116.901 39.9141V42.4242L117.18 42.5637C117.319 42.6334 117.528 42.7031 117.807 42.7728C118.853 43.0517 120.387 42.8426 121.154 42.1453ZM105.117 35.4517C105.327 35.382 105.466 35.3123 105.466 35.3123C105.466 35.3123 105.745 35.1728 105.815 35.3123C105.815 35.382 105.954 35.5912 106.233 36.2884C106.303 36.4279 106.372 36.5673 106.372 36.7068C106.721 37.6829 107.279 39.0774 107.558 39.8444C107.837 40.6114 108.394 42.0059 108.813 43.1215C109.231 44.1673 109.719 45.4921 109.998 46.1196C110.207 46.7472 110.556 47.3049 110.626 47.4444C110.695 47.5141 110.695 47.5838 110.765 47.6536C110.974 47.9325 111.183 48.3508 111.672 48.4205C111.672 48.4205 112.02 48.4903 112.09 48.56C112.16 48.6297 112.16 48.6994 112.16 48.6994V48.9086C112.16 48.9086 112.16 48.9783 112.09 48.9783C112.09 49.0481 111.95 48.9783 111.95 48.9783H109.022H106.93C106.93 48.9783 106.86 48.9783 106.791 48.9783C106.721 48.9783 106.721 48.8389 106.721 48.8389V48.6994C106.721 48.6994 106.721 48.56 106.791 48.4903C106.86 48.4205 107.209 48.3508 107.209 48.3508C107.837 48.2811 108.116 47.793 108.185 47.5141V47.4444C108.325 47.1655 108.255 46.9563 107.627 45.4921C107.209 44.516 107.07 44.2371 107 44.1673C106.93 44.1673 105.815 44.1673 104.629 44.1673H102.328L102.189 44.516C101.771 45.6316 101.422 46.6774 101.422 46.9563C101.283 47.5141 101.492 48.2114 102.328 48.3508C102.328 48.3508 102.677 48.4205 102.747 48.4903C102.816 48.56 102.886 48.6994 102.886 48.6994V48.8389C102.886 48.8389 102.886 48.9086 102.816 48.9783C102.747 49.0481 102.607 48.9783 102.607 48.9783H100.446H98.3541C98.3541 48.9783 98.2843 48.9783 98.2146 48.9086C98.1449 48.8389 98.1449 48.7692 98.1449 48.7692V48.6297C98.1449 48.6297 98.1449 48.56 98.2843 48.4205C98.4238 48.2811 98.7027 48.2811 98.7027 48.2811C99.2605 48.2114 99.6091 47.5838 99.8183 47.2352C99.8183 47.2352 99.8183 47.1655 99.888 47.1655C99.9577 47.0261 100.306 46.2591 100.655 45.4224C101.004 44.5857 101.352 43.6095 101.492 43.3306C101.91 42.2848 102.328 41.3086 102.956 39.7747C103.305 38.938 103.793 37.6829 104.072 36.9857L104.56 35.7306L105.117 35.4517ZM104.978 38.4499C105.117 38.7288 105.257 39.1471 105.327 39.3563C105.396 39.5655 105.675 40.193 105.884 40.7508C106.094 41.3086 106.372 41.9361 106.512 42.215C106.651 42.4939 106.721 42.7031 106.721 42.7031C106.721 42.7031 105.884 42.7031 104.838 42.7031C103.653 42.7031 102.956 42.7031 102.956 42.6334C102.956 42.6334 103.026 42.4939 103.026 42.3545C103.095 42.1453 103.514 41.0297 104.35 38.6591C104.49 38.3104 104.629 37.9618 104.629 37.8921C104.699 37.8921 104.769 37.9618 104.978 38.4499Z" fill="#CBCEDA"/>
</svg>
