<svg width="124" height="80" viewBox="0 0 124 80" fill="none" xmlns="http://www.w3.org/2000/svg">
<g clip-path="url(#clip0_57_160)">
<path fill-rule="evenodd" clip-rule="evenodd" d="M42.7789 39.4718L30.6443 27.2808V36.2137L18.5944 45.1523L30.6443 45.158V51.6686L42.7789 39.4718Z" fill="#CBCEDA"/>
<path fill-rule="evenodd" clip-rule="evenodd" d="M0 39.4719L12.1346 51.6686V42.826L24.0998 33.8817L12.1403 33.8761V27.2751L0 39.4719Z" fill="#CBCEDA"/>
<path d="M61.4636 46.6542H52.1523V43.9664L57.4827 37.9866H52.2878V35.344H61.3676V37.8963L55.8791 43.989H61.4636V46.6542Z" fill="#CBCEDA"/>
<path d="M74.1685 35.3441L69.6625 40.1042L74.2588 46.6543H70.532L67.5563 42.3346L66.2971 43.6672V46.6543H63.2535V30.0137H66.2971V39.5565L70.1876 35.3497H74.1685V35.3441Z" fill="#CBCEDA"/>
<path d="M87.4042 34.2429L84.5696 35.1182C84.4623 34.5366 84.1743 34.0058 83.7 33.5315C83.2257 33.0571 82.5312 32.82 81.6164 32.82C80.871 32.82 80.2612 33.0289 79.7869 33.4411C79.3126 33.842 79.0754 34.322 79.0754 34.8867C79.0754 35.8805 79.6627 36.4959 80.8372 36.7275L83.1015 37.1622C84.5357 37.4389 85.6481 38.0149 86.4443 38.8845C87.2404 39.7597 87.6357 40.7874 87.6357 41.9675C87.6357 43.3171 87.1049 44.4972 86.0321 45.508C84.9818 46.5018 83.5588 47.0043 81.7745 47.0043C80.7525 47.0043 79.8321 46.8519 79.0077 46.5469C78.1832 46.242 77.5226 45.8355 77.02 45.3273C76.5175 44.8078 76.1222 44.2601 75.8286 43.6954C75.5519 43.1138 75.3882 42.5152 75.326 41.8998L78.2567 41.1205C78.3301 41.9958 78.6689 42.7242 79.2617 43.3058C79.8716 43.8874 80.7186 44.181 81.8027 44.181C82.6271 44.181 83.2652 43.9947 83.7226 43.6276C84.1969 43.2606 84.4341 42.775 84.4341 42.1821C84.4341 41.7078 84.259 41.3012 83.9089 40.9624C83.5758 40.6123 83.0902 40.3752 82.469 40.2509L80.2047 39.7936C78.8947 39.5169 77.8557 38.9748 77.0934 38.1617C76.3312 37.3486 75.9528 36.3378 75.9528 35.1295C75.9528 33.6896 76.5006 32.4755 77.6016 31.4987C78.714 30.5162 80.0466 30.0249 81.6051 30.0249C82.5368 30.0249 83.3669 30.1548 84.1009 30.4145C84.835 30.6743 85.4222 31.03 85.8627 31.4704C86.3031 31.8996 86.6475 32.3457 86.8904 32.803C87.1219 33.2548 87.2969 33.7347 87.4042 34.2429Z" fill="#CBCEDA"/>
<path d="M92.7572 51.115H89.533L92.1869 45.2312L87.4042 35.344H90.8147L93.8131 41.9618L96.5799 35.344H99.8268L92.7572 51.115Z" fill="#CBCEDA"/>
<path d="M104.028 40.1495V46.6544H100.984V35.3442H103.938V36.7446C104.259 36.1912 104.717 35.7733 105.31 35.4797C105.903 35.1861 106.529 35.0449 107.184 35.0449C108.511 35.0449 109.516 35.4684 110.205 36.3098C110.905 37.1398 111.256 38.2127 111.256 39.5283V46.6544H108.212V40.0591C108.212 39.3872 108.037 38.8395 107.687 38.4273C107.354 38.015 106.834 37.8061 106.128 37.8061C105.49 37.8061 104.977 38.0263 104.598 38.4724C104.22 38.9185 104.028 39.4775 104.028 40.1495Z" fill="#CBCEDA"/>
<path d="M118.715 37.8287C117.907 37.8287 117.23 38.111 116.676 38.6813C116.129 39.246 115.852 40.0196 115.852 41.0021C115.852 41.9846 116.129 42.7638 116.676 43.3454C117.241 43.9101 117.924 44.1981 118.737 44.1981C119.454 44.1981 120.025 44.0117 120.454 43.6447C120.883 43.2607 121.171 42.809 121.324 42.2895L124 43.1873C123.723 44.232 123.13 45.1241 122.216 45.8751C121.301 46.6261 120.143 46.9988 118.737 46.9988C117.06 46.9988 115.649 46.4342 114.502 45.2992C113.373 44.1473 112.808 42.7187 112.808 41.0021C112.808 39.2686 113.367 37.84 114.48 36.705C115.609 35.57 116.998 35.0054 118.641 35.0054C120.076 35.0054 121.25 35.378 122.165 36.1291C123.08 36.8631 123.667 37.7609 123.927 38.8168L121.205 39.7372C120.844 38.4611 120.013 37.8287 118.715 37.8287Z" fill="#CBCEDA"/>
</g>
<defs>
<clipPath id="clip0_57_160">
<rect width="124" height="24.4499" fill="white" transform="translate(0 27.2751)"/>
</clipPath>
</defs>
</svg>
