<svg width="32" height="31" viewBox="0 0 32 31" fill="none" xmlns="http://www.w3.org/2000/svg">
<path d="M24.248 3.82516C24.248 3.82516 25.5394 3.87664 26.8823 4.0311C23.8619 1.65852 20.9959 0.959187 18.6748 0.959187C15.4742 0.959187 13.3076 2.27633 13.1788 2.35356L14.1871 0.753249C14.1871 0.753249 10.1627 0.367115 8.7426 4.62317C8.3822 3.7179 8.04756 2.40504 8.04756 2.40504C8.04756 2.40504 5.94956 4.23703 6.93206 7.2832C4.53374 6.40367 1.09715 5.19379 0.968434 5.16805C0.788238 5.1423 0.736753 5.21953 0.736753 5.21953C0.736753 5.21953 0.685269 5.29676 0.839722 5.42547C1.12289 5.65715 6.54163 9.66007 7.73007 10.4323C7.47265 11.3633 7.47265 11.801 7.73007 12.2386C8.09046 12.8307 8.1162 13.1439 8.06472 13.5815C8.01323 14.0191 7.54987 17.8161 7.4469 18.2794C7.34393 18.7428 6.25847 20.3946 6.30995 20.888C6.36144 21.3771 7.03074 23.4708 7.6271 23.7025C8.06472 23.8569 9.15018 24.1916 9.87097 24.1916C10.1284 24.1916 10.3601 24.1401 10.463 24.0371C10.9007 23.651 11.0294 23.5738 11.3426 23.5738H11.4198C11.5485 23.5738 11.703 23.5995 11.8832 23.5995C12.295 23.5995 12.8399 23.5223 13.226 23.1619C13.7924 22.5956 14.7749 21.819 15.0838 21.4586C15.4699 20.9695 15.6758 20.2959 15.5729 19.6266C15.4957 19.0088 15.8303 18.4639 16.2164 17.9233C16.7055 17.2798 17.6108 16.1171 17.6108 16.1171C19.3956 17.4514 20.5068 19.4893 20.5068 21.7632C20.5068 25.7876 16.9973 29.0397 12.6597 29.0397C11.9904 29.0397 11.3426 28.9625 10.699 28.808C12.6855 29.5031 14.363 29.739 15.7316 29.739C18.6491 29.739 20.1979 28.6793 20.1979 28.6793C20.1979 28.6793 19.6573 29.3743 18.7778 30.1767H18.8035C23.6302 29.5074 25.977 25.5302 25.977 25.5302C25.977 25.5302 25.7968 26.8216 25.5652 27.6968C31.9922 22.8701 30.9067 16.8293 30.8809 16.6234C30.9324 16.7006 31.576 17.4771 31.9149 17.889C32.9489 7.25746 24.248 3.82516 24.248 3.82516Z" fill="#1B314F"/>
<path d="M23.9388 21.1153C23.9903 20.9093 24.222 20.7806 24.4794 20.6519C24.6596 20.5489 24.8912 20.4202 24.917 20.343C25.02 19.7509 25.0714 19.1546 25.0714 18.5625C25.0714 18.4338 24.8655 18.2278 24.6853 18.0734C24.4794 17.8674 24.2734 17.6615 24.2477 17.4556C24.0675 15.778 23.4497 14.152 22.4414 12.8091C22.5187 13.7401 22.4929 14.8728 22.2355 16.1899C24.0932 19.4677 22.9305 23.5994 20.5322 26.1007C22.1583 24.8608 23.3725 23.106 23.9388 21.1153Z" fill="white"/>
<path d="M14.6465 19.6481C14.3633 18.5369 13.2521 17.9448 12.8917 17.9706C12.4798 18.0221 11.9092 18.0993 11.729 18.228C12.0637 17.7132 12.527 17.4557 12.9947 17.3227C13.3808 16.2115 14.2089 13.9419 14.3891 13.7875C14.492 13.7102 14.7495 13.633 15.1871 13.5043C15.4445 13.4528 15.8049 13.3499 15.8564 13.2984C15.9593 13.1439 16.9933 10.6641 17.0705 10.4839C17.0448 10.3037 16.53 8.98654 15.9851 7.72088C14.6722 8.67763 13.2564 8.42021 13.2564 8.42021C13.2564 8.42021 14.2646 8.13705 15.2943 6.61396C16.3026 5.09088 15.3458 3.00146 15.3458 3.00146C15.3458 3.00146 11.8105 8.31724 11.3686 8.42021C10.931 8.52318 10.6221 7.98259 10.6221 7.98259C10.6221 7.98259 9.6911 10.4067 9.43368 11.2862C9.17625 12.1657 9.48516 12.9895 9.71684 13.4013C9.97426 13.8132 10.5149 14.8472 9.76833 15.9069C9.8713 15.4436 9.40793 14.7185 9.07329 14.2809C8.94457 15.4178 8.60992 18.125 8.50696 18.567C8.45547 18.8759 8.27528 19.2105 7.96637 19.8069C7.81192 20.1158 7.50301 20.6607 7.42578 20.9181C7.52875 21.3814 7.91488 22.4926 8.17231 22.8273C8.5327 22.956 9.05183 23.0847 9.48945 23.1619C9.69539 23.1619 9.95281 23.059 10.3175 22.7243C10.9868 22.1065 11.4287 21.7676 11.5574 21.0983C11.6861 20.4547 11.6346 19.4465 11.9435 19.1633C12.2267 18.8802 12.8488 18.7514 13.3379 18.8801C12.9518 18.8801 12.5099 19.0603 12.5099 19.0603C12.5099 19.0603 13.2564 18.9316 13.5439 19.4722C13.827 20.0128 13.5953 20.326 13.132 20.6349C12.7458 20.8923 11.6089 22.0808 11.2228 22.5956H11.4544H11.5574H11.7119H11.995C12.3039 22.5956 12.5099 22.5441 12.6128 22.4412C12.8703 22.1837 13.2049 21.9006 13.5181 21.6131C13.827 21.33 14.2646 20.9438 14.3719 20.8151C14.5778 20.5062 14.7065 20.1201 14.6551 19.7039V19.6481H14.6465ZM13.3594 7.10307L15.0884 4.546C15.0884 4.546 15.3201 5.57998 14.728 6.27502C13.9772 7.12881 13.3336 7.10307 13.3594 7.10307ZM8.58418 21.5316C8.24953 21.5573 8.12082 21.1455 8.19805 20.9138C8.27528 20.7079 9.12906 19.2105 9.12906 19.2105L8.92312 20.2445C8.92312 20.2445 9.335 20.193 9.335 20.6564C9.33071 21.0125 8.91883 21.5059 8.58418 21.5316ZM11.2914 13.8904C11.137 14.4825 9.81981 14.2251 10.3089 12.3416C10.3089 12.3416 10.5406 13.2469 10.7723 13.1654C11.004 13.0881 13.6382 8.95651 13.6382 8.95651C13.6382 8.95651 13.3036 10.042 13.0719 10.5826C13.9772 10.7628 14.2346 11.8225 13.7412 12.3888C13.2564 12.9337 12.0165 13.7102 11.2914 13.8904Z" fill="white"/>
<path d="M17.2032 6.30078C17.023 6.58395 16.8428 6.84137 16.6626 7.04731C17.0487 8.00406 18.057 10.5054 18.057 10.6341C18.057 10.7885 17.5679 12.0542 17.5164 12.1057C17.4649 12.1314 16.8728 12.1829 16.6369 12.1829C16.3794 12.8007 16.122 13.3971 16.0705 13.4743C15.9933 13.5773 15.7616 13.6545 15.2725 13.7832C15.0151 13.8604 14.629 13.9634 14.5775 14.0149C14.4488 14.1693 13.7494 16.0013 13.2861 17.2927C13.9039 17.1898 14.4488 17.3185 14.5775 17.37C15.5857 15.4607 16.3837 14.4268 16.5897 14.4268C16.7956 14.401 19.2497 14.7614 20.2022 12.4661C21.1332 10.1964 19.7903 8.25719 19.7388 8.17997C19.7903 8.20571 21.854 9.16246 22.3731 12.2558C23.5358 13.7274 24.2823 15.5079 24.4882 17.3914C24.4882 17.5201 24.6942 17.7003 24.8229 17.8548C25.0546 18.0864 25.2863 18.3181 25.2863 18.5498C25.2863 19.1676 25.2348 19.7897 25.1318 20.3818C25.0803 20.5877 24.8229 20.7422 24.5655 20.8709C24.411 20.9739 24.1793 21.1026 24.1536 21.1798C23.5873 23.2177 22.2959 25.024 20.6183 26.3154C24.1793 24.6121 26.6334 20.9739 26.6334 16.7908C26.6249 11.3591 22.4932 6.8714 17.2032 6.30078Z" fill="white"/>
<path d="M13.1484 19.8541C13.1484 19.4937 12.6593 19.4165 12.4533 19.468C12.2474 19.5195 12.1959 19.8541 12.1702 20.0343C12.1444 20.2145 12.1702 20.7809 11.9385 21.1198C11.99 21.0683 12.3504 20.6822 12.5305 20.502C12.788 20.266 13.1484 20.1888 13.1484 19.8541Z" fill="white"/>
<path d="M8.97032 9.60443C9.15052 9.26978 8.99606 9.0381 8.84161 8.90939C8.81587 8.88365 8.79013 8.85791 8.79013 8.85791C8.48122 8.70345 6.54626 7.97838 4.63275 7.30908C6.31029 8.42029 8.16802 9.50146 8.47693 9.65592C8.7129 9.76318 8.86735 9.78892 8.97032 9.60443Z" fill="white"/>
<path d="M16.285 8.42432C16.1907 8.19264 16.0877 7.95667 15.989 7.7207C14.7062 8.65171 13.329 8.42861 13.256 8.42003C13.329 8.4372 14.6933 8.86623 16.285 8.42432Z" fill="#94A6C3"/>
<path d="M18.9703 6.6483C18.3997 6.48527 17.8076 6.36943 17.2027 6.30078C17.0225 6.58395 16.8423 6.84137 16.6621 7.04731C16.7694 7.31331 16.9281 7.69944 17.0954 8.12419C17.7347 7.82387 18.3826 7.35621 18.9703 6.6483Z" fill="#94A6C3"/>
<path d="M14.646 19.6481C14.3629 18.5368 13.2517 17.9448 12.8913 17.9705C12.4794 18.022 11.9088 18.0992 11.7286 18.2279C12.0632 17.7131 12.5266 17.4557 12.9943 17.3227C13.1273 16.9451 13.3074 16.4303 13.5005 15.9111C13.0629 16.1428 11.5012 16.9751 11.3682 17.0652C11.2137 17.1682 10.6732 18.2537 10.257 19.3863C10.0253 18.6656 9.51047 18.2236 9.48472 18.1979C9.51047 18.3266 10.0511 20.4675 9.87086 21.1154C9.69066 21.7847 8.55371 22.381 8.55371 22.381L10.2613 22.7586C10.2784 22.7457 10.2913 22.7285 10.3085 22.7157C10.9778 22.0979 11.4197 21.7589 11.5484 21.0896C11.6771 20.4461 11.6256 19.4378 11.9345 19.1547C12.2177 18.8715 12.8398 18.7428 13.3289 18.8715C13.1873 18.8715 13.0414 18.8929 12.9127 18.9273C13.3504 18.9316 13.9381 19.1032 13.9253 19.9827C13.9253 20.652 13.1787 20.7035 12.4279 21.3256C12.2778 21.45 12.1104 21.5959 11.9474 21.746C11.6471 22.0678 11.3725 22.381 11.218 22.587H11.9903C12.2992 22.587 12.5051 22.5355 12.6081 22.4325C12.8655 22.1751 13.2002 21.8919 13.5134 21.6045C13.8223 21.3213 14.2599 20.9352 14.3672 20.8065C14.5731 20.4975 14.7018 20.1071 14.6503 19.6952V19.6481H14.646Z" fill="#94A6C3"/>
<path d="M16.7909 13.7616C15.8856 13.7616 14.6757 14.3536 14.6757 14.3536L13.4873 17.2711C14.015 17.2239 14.4569 17.3312 14.5685 17.3741C15.5767 15.4649 16.3747 14.4309 16.5807 14.4309C16.7866 14.4051 19.2407 14.7655 20.1932 12.4702C21.1242 10.2006 19.7813 8.26131 19.7298 8.18408C20.8153 11.7494 18.4169 13.7358 16.7909 13.7616Z" fill="#94A6C3"/>
<path d="M23.939 21.1155C23.9905 20.9096 24.2221 20.7808 24.4796 20.6521C24.6598 20.5492 24.8914 20.4205 24.9172 20.3432C25.0201 19.7512 25.0716 19.1548 25.0716 18.5627C25.0716 18.434 24.8657 18.2281 24.6855 18.0736C24.4796 17.8677 24.2736 17.6617 24.2479 17.4558C24.0677 15.7783 23.4499 14.1522 22.4416 12.8093C22.5189 13.736 22.4931 14.873 22.2357 16.1901C24.0934 19.468 22.9307 23.5996 20.5324 26.1009C22.1585 24.861 23.3726 23.1062 23.939 21.1155Z" fill="#94A6C3"/>
<path d="M26.3418 16.263C25.4236 11.0502 20.1465 8.36438 19.7432 8.18848C19.9062 8.26999 21.7854 9.21817 22.3346 12.0798C23.6174 13.5772 24.4197 15.4478 24.6385 17.4257C24.6385 17.5544 24.8187 17.7346 24.9989 17.889C25.2306 18.1207 25.4622 18.3524 25.4622 18.5841C25.4622 19.2019 25.4108 19.824 25.3078 20.416C25.2563 20.622 24.9989 20.7507 24.7415 20.9052C24.587 21.0081 24.3553 21.1368 24.3296 21.2141C23.8061 23.0761 22.7035 24.7407 21.2319 26.0021C21.1118 26.1051 20.9917 26.2038 20.8715 26.2982C23.6474 24.7236 25.6124 22.3296 26.2474 19.6052C26.4962 18.5369 26.5391 17.4128 26.3418 16.263Z" fill="#94A6C3"/>
<path d="M11 13.2954L12.3429 11C12.3429 11 13.1152 11.3861 12.729 12.0082C12.2399 12.7247 11 13.2954 11 13.2954Z" fill="#FFD923"/>
<path d="M26.7798 13.1179C26.9085 13.3496 30.0834 19.2103 26.754 25.6115C27.2689 25.0967 27.7108 24.5518 28.0969 24.0369C30.315 20.9393 30.0061 16.6832 27.4534 13.843C27.2431 13.607 27.0115 13.3496 26.7798 13.1179Z" fill="#D82122"/>
<path d="M31.195 15.7995C31.1435 12.4959 30.0323 9.65569 27.8914 7.38608C27.8657 7.36033 27.8657 7.36034 27.8399 7.33459C25.9565 5.34815 23.1935 4.41714 20.4562 4.80327C19.4222 4.93198 18.3925 5.13792 17.5902 5.39534C17.4615 5.42108 17.3328 5.44683 17.2041 5.49831H17.2556C17.4615 5.47257 21.2285 5.29237 24.7423 7.61347C28.3805 10.0204 30.0323 12.6761 31.195 15.7995Z" fill="#D82122"/>
<path d="M23.9133 3.02296C22.21 2.16917 20.4295 1.73155 18.649 1.70581C17.9797 1.70581 17.3576 1.7573 16.7912 1.86026C14.7791 2.22066 13.1273 3.66651 12.5566 5.60147C12.5566 5.60147 12.9685 4.95792 13.951 4.28433C14.3114 3.79522 14.882 3.01867 15.4226 2.37511C15.5771 2.70976 15.7573 3.12163 15.8087 3.33186C17.5893 2.66256 20.0691 2.30217 23.9133 3.02296Z" fill="#D82122"/>
<path d="M7.73054 4.15967C7.67906 4.36561 6.67082 7.87513 9.69124 7.9781C7.93648 6.92267 7.73054 4.18541 7.73054 4.15967Z" fill="#D82122"/>
<path d="M12.6607 1.65845C12.4805 1.73567 8.58485 3.00134 10.803 6.38215C10.803 6.37786 10.3396 3.04853 12.6607 1.65845Z" fill="#D82122"/>
</svg>
