<svg width="26" height="26" viewBox="0 0 26 26" fill="none" xmlns="http://www.w3.org/2000/svg">
<path d="M13 0C20.1797 0 26 5.8203 26 13C26 20.1797 20.1797 26 13 26C5.8203 26 0 20.1797 0 13C0 5.8203 5.8203 0 13 0ZM5.90909 18.8241L7.35559 20.2706L12.189 15.4367C11.5256 15.1819 10.9977 14.6538 10.7429 13.9902L5.90909 18.8241ZM15.4367 13.9902C15.1819 14.6538 14.6538 15.1819 13.9902 15.4367L18.8241 20.2706L20.2706 18.8241L15.4367 13.9902ZM5.90909 7.35559L10.7429 12.189C10.9977 11.5256 11.5256 10.9977 12.189 10.7429L7.35559 5.90909L5.90909 7.35559ZM13.9902 10.7429C14.6538 10.9977 15.1819 11.5256 15.4367 12.189L20.2706 7.35559L18.8241 5.90909L13.9902 10.7429Z" fill="#6CF9D8"/>
</svg>
