<svg width="27" height="22" viewBox="0 0 27 22" fill="none" xmlns="http://www.w3.org/2000/svg">
<path d="M21.803 14.084L13.6409 0.226803C13.6014 0.158379 13.5442 0.101381 13.475 0.0615623C13.4058 0.0217434 13.3272 0.000511542 13.247 9.12849e-06C13.1667 -0.000493285 13.0878 0.0197514 13.0181 0.0587005C12.9484 0.0976496 12.8905 0.153926 12.8501 0.221849L10.4056 4.37407C10.3256 4.50998 10.2834 4.66416 10.2834 4.82111C10.2834 4.97805 10.3256 5.13223 10.4056 5.26815L15.7278 14.3082C15.8079 14.4442 15.9233 14.5572 16.0621 14.6356C16.2009 14.7141 16.3584 14.7554 16.5186 14.7552H21.4076C21.4876 14.755 21.5662 14.7342 21.6354 14.6948C21.7047 14.6555 21.7622 14.5991 21.8023 14.5311C21.8422 14.4632 21.8634 14.3861 21.8636 14.3077C21.8636 14.2292 21.8428 14.1521 21.803 14.084Z" fill="url(#paint0_radial_21_203)"/>
<path d="M0.407786 21.3266L8.56984 7.46933C8.60988 7.40144 8.66746 7.34508 8.73675 7.3059C8.80604 7.26671 8.88461 7.24609 8.96461 7.24609C9.0446 7.24609 9.12321 7.26671 9.1925 7.3059C9.26179 7.34508 9.31934 7.40144 9.35938 7.46933L11.8051 11.6178C11.8851 11.754 11.9273 11.9083 11.9273 12.0655C11.9273 12.2226 11.8851 12.377 11.8051 12.5131L6.48289 21.5532C6.40307 21.6892 6.28803 21.8022 6.1494 21.8807C6.01077 21.9591 5.85345 22.0004 5.69335 22.0002H0.803193C0.722637 22.0007 0.643414 21.98 0.573577 21.9407C0.503739 21.9013 0.445787 21.8445 0.405612 21.7761C0.365437 21.7077 0.34447 21.63 0.344854 21.5511C0.345237 21.4721 0.366948 21.3947 0.407786 21.3266Z" fill="url(#paint1_radial_21_203)"/>
<path d="M9.35892 21.9971H25.683C25.7631 21.9971 25.8417 21.9763 25.9111 21.937C25.9804 21.8977 26.0379 21.8411 26.0778 21.7732C26.1177 21.7052 26.1388 21.628 26.1386 21.5495C26.1385 21.4709 26.1174 21.3938 26.0772 21.326L23.6352 17.175C23.5551 17.0389 23.4398 16.926 23.3009 16.8476C23.1621 16.769 23.0046 16.7279 22.8444 16.728H12.2C12.0398 16.7279 11.8823 16.769 11.7435 16.8476C11.6047 16.926 11.4894 17.0389 11.4092 17.175L8.9648 21.326C8.92464 21.3938 8.90344 21.4709 8.90332 21.5495C8.90321 21.628 8.92417 21.7052 8.96412 21.7732C9.00407 21.8411 9.0616 21.8977 9.13091 21.937C9.20021 21.9763 9.27884 21.9971 9.35892 21.9971Z" fill="url(#paint2_radial_21_203)"/>
<defs>
<radialGradient id="paint0_radial_21_203" cx="0" cy="0" r="1" gradientUnits="userSpaceOnUse" gradientTransform="translate(14.0104) rotate(95.3323) scale(21.24 28.6778)">
<stop stop-color="#05D5FF"/>
<stop offset="0.770833" stop-color="#363FF9"/>
<stop offset="1" stop-color="#5533FF"/>
</radialGradient>
<radialGradient id="paint1_radial_21_203" cx="0" cy="0" r="1" gradientUnits="userSpaceOnUse" gradientTransform="translate(14.0101 0.000224821) rotate(95.3323) scale(21.24 28.6778)">
<stop stop-color="#05D5FF"/>
<stop offset="0.770833" stop-color="#363FF9"/>
<stop offset="1" stop-color="#5533FF"/>
</radialGradient>
<radialGradient id="paint2_radial_21_203" cx="0" cy="0" r="1" gradientUnits="userSpaceOnUse" gradientTransform="translate(14.0108 0.00015021) rotate(95.3323) scale(21.24 28.6778)">
<stop stop-color="#05D5FF"/>
<stop offset="0.770833" stop-color="#363FF9"/>
<stop offset="1" stop-color="#5533FF"/>
</radialGradient>
</defs>
</svg>
