<svg width="22" height="23" viewBox="0 0 22 23" fill="none" xmlns="http://www.w3.org/2000/svg">
<path d="M19.4753 4.17222L12.2713 0.352998C11.3866 -0.117004 10.3321 -0.117004 9.44735 0.349038L2.16832 4.18408C1.07033 4.84365 0.0434464 5.62171 0 7.88877V9.71736H2.83183V7.21734L10.8613 2.93601L18.8316 7.21734V9.71736H21.6634V7.88877C21.616 5.60987 20.5812 4.83575 19.4753 4.17222Z" fill="#356DF3"/>
<path d="M18.8276 15.4126L12.2752 19.0817V16.1195C14.5779 15.5785 16.0945 13.7023 16.0945 11.1944C16.0945 8.15325 13.9933 6.11133 10.8613 6.11133C7.7293 6.11133 5.62813 8.15325 5.62813 11.1944C5.62813 13.7063 7.14081 15.5785 9.44735 16.1195V19.0856L2.83578 15.4126V12.6794H0V14.5042C0.0473951 16.7672 1.07033 17.5493 2.16832 18.2089L9.44735 22.0438C10.3321 22.51 11.3906 22.51 12.2713 22.04L19.4714 18.2207C20.5772 17.5612 21.616 16.7831 21.6594 14.5042V12.6794H18.8276V15.4126ZM8.25858 11.1944C8.25858 9.52764 9.18272 8.61142 10.8613 8.61142C12.5399 8.61142 13.4641 9.52764 13.4641 11.1944C13.4641 12.8098 12.4925 13.7775 10.8613 13.7775C9.23012 13.7775 8.25858 12.8137 8.25858 11.1944Z" fill="#356DF3"/>
</svg>
