<svg width="29" height="16" viewBox="0 0 29 16" fill="none" xmlns="http://www.w3.org/2000/svg">
<g clip-path="url(#clip0_21_182)">
<path d="M8.53227 5.81075C8.53227 6.14 8.56827 6.407 8.63177 6.60275C8.70402 6.7985 8.79427 7.012 8.92077 7.2435C8.96577 7.3145 8.98402 7.38575 8.98402 7.448C8.98402 7.537 8.92977 7.626 8.81227 7.715L8.24302 8.08875C8.16177 8.14225 8.08052 8.16875 8.00802 8.16875C7.91777 8.16875 7.82727 8.12425 7.73702 8.04425C7.61544 7.91559 7.50652 7.77553 7.41177 7.626C7.31089 7.45513 7.21747 7.27997 7.13177 7.101C6.42677 7.91975 5.54127 8.329 4.47502 8.329C3.71577 8.329 3.11052 8.1155 2.66752 7.68825C2.22502 7.26125 1.99902 6.69175 1.99902 5.97975C1.99902 5.2235 2.27002 4.6095 2.82152 4.14675C3.37252 3.684 4.10452 3.4525 5.03527 3.4525C5.34252 3.4525 5.65877 3.47925 5.99302 3.52375C6.32727 3.56825 6.67052 3.6395 7.03227 3.7195V3.07C7.03227 2.39375 6.88752 1.922 6.60727 1.64625C6.31827 1.37025 5.83027 1.23675 5.13477 1.23675C4.81827 1.23675 4.49302 1.2725 4.15877 1.3525C3.82427 1.4325 3.49877 1.5305 3.18277 1.655C3.03827 1.7175 2.92977 1.753 2.86652 1.77075C2.80327 1.7885 2.75802 1.7975 2.72177 1.7975C2.59527 1.7975 2.53202 1.7085 2.53202 1.5215V1.0855C2.53202 0.943 2.55027 0.8365 2.59527 0.774C2.64052 0.71175 2.72177 0.6495 2.84827 0.58725C3.16477 0.42725 3.54427 0.2935 3.98702 0.18675C4.42952 0.07125 4.89952 0.01775 5.39652 0.01775C6.47202 0.01775 7.25802 0.258 7.76402 0.7385C8.26127 1.219 8.51402 1.9485 8.51402 2.9275V5.81075H8.53227ZM4.86352 7.16325C5.16177 7.16325 5.46902 7.11 5.79427 7.00325C6.11952 6.89625 6.40877 6.70075 6.65277 6.4335C6.79727 6.2645 6.90577 6.07775 6.96002 5.864C7.01402 5.6505 7.05027 5.3925 7.05027 5.09V4.71625C6.77619 4.65057 6.49868 4.60008 6.21902 4.565C5.93722 4.52973 5.65352 4.51187 5.36952 4.5115C4.76402 4.5115 4.32127 4.62725 4.02302 4.8675C3.72502 5.1075 3.58052 5.44575 3.58052 5.89075C3.58052 6.309 3.68877 6.6205 3.91477 6.834C4.13152 7.0565 4.44777 7.16325 4.86352 7.16325ZM12.1195 8.12425C11.957 8.12425 11.8485 8.09775 11.7763 8.03525C11.7038 7.982 11.6408 7.8575 11.5865 7.68825L9.46302 0.81C9.40877 0.632 9.38177 0.51625 9.38177 0.454C9.38177 0.3115 9.45402 0.2315 9.59852 0.2315H10.484C10.6558 0.2315 10.7733 0.25825 10.8365 0.3205C10.909 0.374 10.963 0.4985 11.0173 0.6675L12.5353 6.5585L13.945 0.6675C13.99 0.4895 14.0445 0.374 14.1168 0.3205C14.189 0.26725 14.3155 0.2315 14.478 0.2315H15.201C15.3728 0.2315 15.4903 0.25825 15.5625 0.3205C15.6348 0.374 15.698 0.4985 15.7343 0.6675L17.1618 6.62975L18.7253 0.6675C18.7795 0.4895 18.8428 0.374 18.906 0.3205C18.9783 0.26725 19.0958 0.2315 19.2585 0.2315H20.0985C20.2435 0.2315 20.3245 0.30275 20.3245 0.454C20.3245 0.4985 20.3155 0.543 20.3065 0.5965C20.2924 0.672463 20.2712 0.746949 20.2433 0.819L18.0658 7.6975C18.0113 7.8755 17.9483 7.991 17.8758 8.0445C17.8033 8.098 17.686 8.1335 17.5323 8.1335H16.7553C16.5835 8.1335 16.466 8.10675 16.3938 8.0445C16.3215 7.982 16.2583 7.8665 16.222 7.6885L14.8215 1.94875L13.43 7.6795C13.3848 7.8575 13.3305 7.973 13.2583 8.03525C13.1858 8.09775 13.0595 8.12425 12.8968 8.12425H12.1195ZM23.7313 8.3645C23.2613 8.3645 22.7915 8.31125 22.3398 8.2045C21.888 8.09775 21.5355 7.982 21.3005 7.8485C21.156 7.7685 21.0565 7.6795 21.0205 7.59925C20.9854 7.5209 20.9669 7.43611 20.9663 7.35025V6.89625C20.9663 6.7095 21.0385 6.6205 21.174 6.6205C21.2283 6.6205 21.2825 6.62925 21.3365 6.64725C21.391 6.66475 21.4723 6.7005 21.5625 6.73625C21.87 6.86975 22.2043 6.97625 22.5565 7.0475C22.918 7.11875 23.2705 7.15425 23.632 7.15425C24.2013 7.15425 24.644 7.0565 24.9513 6.86075C25.2585 6.665 25.4213 6.38025 25.4213 6.01525C25.4213 5.76625 25.3398 5.5615 25.177 5.3925C25.0145 5.2235 24.707 5.072 24.2645 4.92975L22.9543 4.52925C22.2945 4.32475 21.8068 4.022 21.5083 3.62175C21.2103 3.23025 21.0565 2.79425 21.0565 2.33125C21.0565 1.9575 21.1378 1.6285 21.3005 1.34375C21.4626 1.05656 21.6845 0.807598 21.9513 0.61375C22.2223 0.40925 22.5295 0.258 22.891 0.15125C23.2523 0.0445 23.632 0 24.0295 0C24.2283 0 24.4363 0.00875 24.635 0.0355C24.8428 0.06225 25.0325 0.098 25.2225 0.1335C25.403 0.178 25.5748 0.2225 25.7375 0.276C25.9 0.32925 26.0265 0.3825 26.117 0.436C26.2435 0.50725 26.3338 0.5785 26.388 0.6585C26.4423 0.7295 26.4693 0.8275 26.4693 0.952V1.37025C26.4693 1.55725 26.397 1.65525 26.2615 1.65525C26.1893 1.65525 26.0718 1.6195 25.918 1.54825C25.403 1.317 24.8248 1.20125 24.183 1.20125C23.668 1.20125 23.2615 1.28125 22.9813 1.4505C22.7013 1.6195 22.5565 1.8775 22.5565 2.2425C22.5565 2.4915 22.647 2.705 22.8278 2.87425C23.0085 3.04325 23.3428 3.21225 23.8218 3.3635L25.1048 3.764C25.7555 3.96875 26.2253 4.2535 26.5055 4.61825C26.7855 4.98325 26.921 5.4015 26.921 5.864C26.921 6.2465 26.8398 6.594 26.6863 6.8965C26.5235 7.199 26.3068 7.46575 26.0265 7.6795C25.7465 7.902 25.412 8.062 25.0235 8.17775C24.6168 8.30225 24.1923 8.3645 23.7313 8.3645Z" fill="white"/>
<path d="M25.4385 12.6901C22.4657 14.8521 18.1462 16.0001 14.4325 16.0001C9.22747 16.0001 4.53747 14.1051 0.995221 10.9551C0.715221 10.7058 0.968221 10.3676 1.30272 10.5633C5.13397 12.7523 9.85997 14.0783 14.7487 14.0783C18.047 14.0783 21.6705 13.4021 25.0047 12.0138C25.5017 11.7913 25.9265 12.3343 25.4385 12.6901Z" fill="white"/>
<path d="M26.6745 11.3011C26.2948 10.8206 24.1623 11.0699 23.1955 11.1854C22.9063 11.2211 22.861 10.9719 23.123 10.7851C24.822 9.61039 27.6143 9.94864 27.9395 10.3401C28.2648 10.7406 27.849 13.4901 26.2588 14.8071C26.0148 15.0119 25.7798 14.9051 25.8883 14.6381C26.2498 13.7571 27.054 11.7729 26.6745 11.3011Z" fill="white"/>
<path d="M8.53227 5.81075C8.53227 6.14 8.56827 6.407 8.63177 6.60275C8.70402 6.7985 8.79427 7.012 8.92077 7.2435C8.96577 7.3145 8.98402 7.38575 8.98402 7.448C8.98402 7.537 8.92977 7.626 8.81227 7.715L8.24302 8.08875C8.16177 8.14225 8.08052 8.16875 8.00802 8.16875C7.91777 8.16875 7.82727 8.12425 7.73702 8.04425C7.61543 7.9156 7.50651 7.77553 7.41177 7.626C7.31088 7.45514 7.21746 7.27997 7.13177 7.101C6.42677 7.91975 5.54127 8.329 4.47502 8.329C3.71577 8.329 3.11052 8.1155 2.66752 7.68825C2.22502 7.26125 1.99902 6.69175 1.99902 5.97975C1.99902 5.2235 2.27002 4.6095 2.82152 4.14675C3.37252 3.684 4.10452 3.4525 5.03527 3.4525C5.34252 3.4525 5.65877 3.47925 5.99302 3.52375C6.32727 3.56825 6.67052 3.6395 7.03227 3.7195V3.07C7.03227 2.39375 6.88752 1.922 6.60727 1.64625C6.31827 1.37025 5.83027 1.23675 5.13477 1.23675C4.81827 1.23675 4.49302 1.2725 4.15877 1.3525C3.82427 1.4325 3.49877 1.5305 3.18277 1.655C3.03827 1.7175 2.92977 1.753 2.86652 1.77075C2.80327 1.7885 2.75802 1.7975 2.72177 1.7975C2.59527 1.7975 2.53202 1.7085 2.53202 1.5215V1.0855C2.53202 0.943 2.55027 0.8365 2.59527 0.774C2.64052 0.71175 2.72177 0.6495 2.84827 0.58725C3.16477 0.42725 3.54427 0.2935 3.98702 0.18675C4.42952 0.07125 4.89952 0.01775 5.39652 0.01775C6.47202 0.01775 7.25802 0.258 7.76402 0.7385C8.26127 1.219 8.51402 1.9485 8.51402 2.9275V5.81075H8.53227ZM4.86352 7.16325C5.16177 7.16325 5.46902 7.11 5.79427 7.00325C6.11952 6.89625 6.40877 6.70075 6.65277 6.4335C6.79727 6.2645 6.90577 6.07775 6.96002 5.864C7.01402 5.6505 7.05027 5.3925 7.05027 5.09V4.71625C6.77619 4.65056 6.49868 4.60007 6.21902 4.565C5.93722 4.52973 5.65352 4.51187 5.36952 4.5115C4.76402 4.5115 4.32127 4.62725 4.02302 4.8675C3.72502 5.1075 3.58052 5.44575 3.58052 5.89075C3.58052 6.309 3.68877 6.6205 3.91477 6.834C4.13152 7.0565 4.44777 7.16325 4.86352 7.16325ZM12.1195 8.12425C11.957 8.12425 11.8485 8.09775 11.7763 8.03525C11.7038 7.982 11.6408 7.8575 11.5865 7.68825L9.46302 0.81C9.40877 0.632 9.38177 0.51625 9.38177 0.454C9.38177 0.3115 9.45402 0.2315 9.59852 0.2315H10.484C10.6558 0.2315 10.7733 0.25825 10.8365 0.3205C10.909 0.374 10.963 0.4985 11.0173 0.6675L12.5353 6.5585L13.945 0.6675C13.99 0.4895 14.0445 0.374 14.1168 0.3205C14.189 0.26725 14.3155 0.2315 14.478 0.2315H15.201C15.3728 0.2315 15.4903 0.25825 15.5625 0.3205C15.635 0.374 15.698 0.4985 15.7343 0.6675L17.1618 6.6295L18.7255 0.6675C18.7798 0.4895 18.843 0.374 18.9063 0.3205C18.9785 0.26725 19.096 0.2315 19.2588 0.2315H20.0988C20.2438 0.2315 20.3248 0.30275 20.3248 0.454C20.3248 0.4985 20.3158 0.543 20.3068 0.5965C20.2926 0.67246 20.2714 0.746944 20.2435 0.819L18.066 7.6975C18.0115 7.8755 17.9485 7.991 17.876 8.0445C17.8035 8.098 17.6863 8.1335 17.5328 8.1335H16.7555C16.5838 8.1335 16.4663 8.10675 16.394 8.0445C16.3218 7.982 16.2585 7.8665 16.2223 7.6885L14.8215 1.94875L13.43 7.6795C13.3848 7.8575 13.3305 7.973 13.2583 8.03525C13.1858 8.09775 13.0595 8.12425 12.8968 8.12425H12.1195ZM23.7313 8.3645C23.2613 8.3645 22.7915 8.31125 22.3398 8.2045C21.888 8.09775 21.5355 7.982 21.3005 7.8485C21.156 7.7685 21.0565 7.6795 21.0205 7.59925C20.9854 7.5209 20.9669 7.43611 20.9663 7.35025V6.89625C20.9663 6.7095 21.0385 6.6205 21.174 6.6205C21.2283 6.6205 21.2825 6.62925 21.3365 6.64725C21.391 6.66475 21.4723 6.7005 21.5625 6.73625C21.87 6.86975 22.2043 6.97625 22.5565 7.0475C22.918 7.11875 23.2705 7.15425 23.632 7.15425C24.2013 7.15425 24.644 7.0565 24.9513 6.86075C25.2585 6.665 25.4213 6.38025 25.4213 6.01525C25.4213 5.76625 25.3398 5.5615 25.177 5.3925C25.0145 5.2235 24.707 5.072 24.2645 4.92975L22.9543 4.52925C22.2945 4.32475 21.8068 4.022 21.5083 3.62175C21.2103 3.23025 21.0565 2.79425 21.0565 2.33125C21.0565 1.9575 21.1378 1.6285 21.3005 1.34375C21.4626 1.05657 21.6845 0.807609 21.9513 0.61375C22.2223 0.40925 22.5295 0.258 22.891 0.15125C23.2523 0.0445 23.632 0 24.0295 0C24.2283 0 24.4363 0.00875 24.635 0.0355C24.8428 0.06225 25.0325 0.098 25.2225 0.1335C25.403 0.178 25.5748 0.2225 25.7375 0.276C25.9 0.32925 26.0265 0.3825 26.117 0.436C26.2435 0.50725 26.3338 0.5785 26.388 0.6585C26.4423 0.7295 26.4693 0.8275 26.4693 0.952V1.37025C26.4693 1.55725 26.397 1.65525 26.2615 1.65525C26.1893 1.65525 26.0718 1.6195 25.918 1.54825C25.403 1.317 24.8248 1.20125 24.183 1.20125C23.668 1.20125 23.2615 1.28125 22.9813 1.4505C22.7013 1.6195 22.5565 1.8775 22.5565 2.2425C22.5565 2.4915 22.647 2.705 22.8278 2.87425C23.0085 3.04325 23.3428 3.21225 23.8218 3.3635L25.1048 3.764C25.7555 3.96875 26.2253 4.2535 26.5055 4.61825C26.7855 4.98325 26.9213 5.4015 26.9213 5.864C26.9213 6.2465 26.8398 6.594 26.6863 6.8965C26.5235 7.199 26.3068 7.46575 26.0265 7.6795C25.7465 7.902 25.412 8.062 25.0235 8.17775C24.617 8.30225 24.1923 8.3645 23.7313 8.3645Z" fill="white"/>
<path d="M25.4383 12.6901C22.4655 14.8521 18.146 16.0001 14.4323 16.0001C9.22728 16.0001 4.53728 14.1051 0.995282 10.9551C0.715282 10.7058 0.968282 10.3676 1.30278 10.5633C5.13403 12.7526 9.86003 14.0783 14.7488 14.0783C18.047 14.0783 21.6705 13.4021 25.0048 12.0138C25.5018 11.7913 25.9263 12.3343 25.4383 12.6901Z" fill="white"/>
<path d="M26.6745 11.3011C26.2948 10.8206 24.1623 11.0699 23.1955 11.1854C22.9063 11.2211 22.861 10.9719 23.123 10.7851C24.822 9.61039 27.6143 9.94864 27.9395 10.3401C28.2648 10.7406 27.849 13.4901 26.2588 14.8071C26.0148 15.0119 25.7798 14.9051 25.8883 14.6381C26.2498 13.7571 27.054 11.7729 26.6745 11.3011Z" fill="white"/>
</g>
<defs>
<clipPath id="clip0_21_182">
<rect width="27.25" height="16" fill="white" transform="translate(0.875)"/>
</clipPath>
</defs>
</svg>
