<svg width="29" height="21" viewBox="0 0 29 21" fill="none" xmlns="http://www.w3.org/2000/svg">
<path d="M28.0505 1.76592C27.7553 1.61585 27.6245 1.89662 27.4502 2.04185C27.3922 2.08542 27.3438 2.14836 27.2905 2.2016C26.8597 2.67601 26.3514 2.98583 25.6882 2.9471C24.7249 2.89385 23.897 3.20367 23.1661 3.95402C23.0111 3.02456 22.4932 2.4727 21.7089 2.11447C21.2974 1.93051 20.8859 1.74656 20.5956 1.34476C20.397 1.0543 20.3389 0.734798 20.2421 0.420138C20.1743 0.23134 20.1114 0.0377032 19.8985 0.00381664C19.666 -0.0300699 19.5741 0.168408 19.4821 0.333C19.119 1.01557 18.9738 1.76592 18.9883 2.5211C19.0222 4.22995 19.729 5.59025 21.1328 6.55845C21.2927 6.66494 21.3362 6.77629 21.2829 6.94088C21.191 7.2749 21.0748 7.59441 20.9731 7.92844C20.9101 8.14143 20.8133 8.18985 20.5907 8.09786C19.821 7.76868 19.153 7.28458 18.5623 6.69399C17.5651 5.71128 16.6598 4.62207 15.5319 3.77007C15.2705 3.57158 15.0042 3.38763 14.7283 3.21335C13.5809 2.07574 14.8832 1.14144 15.1834 1.03009C15.498 0.913913 15.2898 0.516956 14.2733 0.516956C13.2567 0.521797 12.3272 0.870344 11.1363 1.33508C10.9669 1.40285 10.7829 1.4561 10.5941 1.49482C9.51943 1.28666 8.40119 1.2431 7.22967 1.3738C5.03189 1.62553 3.27463 2.6857 1.9821 4.49137C0.428158 6.66494 0.0650882 9.13867 0.510453 11.714C0.980024 14.4298 2.34033 16.676 4.43161 18.4333C6.60035 20.2583 9.09828 21.1491 11.9447 20.9796C13.6778 20.8779 15.6045 20.6407 17.7732 18.7673C18.3251 19.0432 18.8963 19.1546 19.8501 19.2417C20.5858 19.3094 21.2927 19.203 21.8445 19.0868C22.7013 18.9028 22.6432 18.0944 22.3285 17.9443C19.8161 16.7535 20.368 17.2375 19.8645 16.8455C21.1426 15.3012 23.0693 13.7037 23.8244 8.51903C23.8825 8.10755 23.8341 7.84614 23.8244 7.51211C23.8195 7.30879 23.8632 7.23134 24.0906 7.20714C24.7249 7.13452 25.3347 6.96024 25.8963 6.64558C27.5228 5.73549 28.1813 4.24931 28.3361 2.46302C28.3603 2.18707 28.3314 1.9063 28.0505 1.76592ZM13.8472 17.833C11.4122 15.8821 10.2311 15.2383 9.74212 15.2672C9.28707 15.2963 9.36453 15.824 9.46619 16.1726C9.57269 16.5163 9.70824 16.7535 9.90187 17.0536C10.0326 17.2521 10.1246 17.5474 9.76633 17.77C8.98209 18.2639 7.61695 17.6006 7.55402 17.5716C5.96619 16.6179 4.63978 15.3593 3.70064 13.6359C2.80021 11.9803 2.27256 10.2037 2.18542 8.31086C2.16605 7.85098 2.29676 7.69122 2.74212 7.60408C3.33272 7.49759 3.93784 7.47339 4.52843 7.56053C7.01668 7.92843 9.13217 9.06121 10.9088 10.8572C11.9254 11.8786 12.6903 13.1035 13.4794 14.2943C14.3217 15.5626 15.222 16.768 16.3742 17.7604C16.7808 18.1089 17.1052 18.3703 17.415 18.5639C16.4807 18.6705 14.9171 18.6947 13.8472 17.833ZM15.0188 10.1795C15.0188 9.97614 15.1785 9.81156 15.377 9.81156C15.4254 9.81156 15.4641 9.82124 15.5028 9.83576C15.5512 9.85513 15.5996 9.88417 15.6335 9.9229C15.6964 9.99067 15.7352 10.0826 15.7352 10.1795C15.7352 10.3828 15.5754 10.5425 15.3721 10.5425C15.1736 10.5425 15.0188 10.3828 15.0188 10.1795ZM18.6446 12.0723C18.4122 12.1739 18.1799 12.2562 17.9571 12.2659C17.6087 12.2804 17.2311 12.14 17.0277 11.9658C16.7082 11.6898 16.4807 11.5398 16.3839 11.0605C16.3404 10.8572 16.3646 10.5425 16.4033 10.3634C16.4856 9.97614 16.3935 9.72442 16.1225 9.4969C15.9047 9.31293 15.6238 9.2597 15.3189 9.2597C15.2076 9.2597 15.101 9.21128 15.0235 9.16771C14.8929 9.10478 14.7912 8.94502 14.888 8.74171C14.922 8.67877 15.0768 8.52387 15.1156 8.49482C15.527 8.25278 16.0064 8.33023 16.4517 8.51419C16.8632 8.68361 17.173 8.99827 17.6183 9.44364C18.0782 9.98098 18.1605 10.1262 18.4171 10.528C18.6253 10.8427 18.8092 11.167 18.9398 11.5398C19.0173 11.7673 18.9156 11.9609 18.6446 12.0723Z" fill="#4D6BFE"/>
</svg>
