<svg width="21" height="24" viewBox="0 0 21 24" fill="none" xmlns="http://www.w3.org/2000/svg">
<path fill-rule="evenodd" clip-rule="evenodd" d="M12.8373 8.41934C13.5603 8.05882 14.4803 7.52813 15.4013 6.80104C15.5955 7.20433 15.6168 7.55626 15.5167 7.84044C15.4458 8.0407 15.3122 8.2149 15.1365 8.35348C14.9463 8.50325 14.7087 8.61228 14.446 8.67121C13.9476 8.78348 13.3657 8.71793 12.8373 8.41934ZM12.9626 12.1132L13.9197 12.666C11.9656 13.7613 11.4343 15.795 10.8032 17.7759C10.1723 15.795 9.64095 13.7613 7.68687 12.666L8.64393 12.1132C8.73652 12.0782 8.81565 12.0148 8.87 11.9321C8.92434 11.8494 8.95111 11.7516 8.94647 11.6527C8.85878 9.79759 9.35969 8.97721 10.0353 8.46212C10.2777 8.27761 10.5422 8.18496 10.8032 8.18496C11.0643 8.18496 11.3288 8.27761 11.5712 8.46212C12.2469 8.97721 12.7478 9.79759 12.6601 11.6527C12.6555 11.7516 12.6822 11.8494 12.7366 11.9321C12.7909 12.0148 12.8701 12.0782 12.9626 12.1132ZM10.8032 0C11.9095 0.0297016 13.0186 0.244467 13.9811 0.662259C14.6476 0.951948 15.2695 1.3346 15.8327 1.79218C16.087 1.99875 16.2964 2.19831 16.5271 2.42805C17.1492 2.44956 18.0585 1.75838 18.4806 1.11164C17.7541 3.49329 14.4391 6.3058 12.144 7.38199C12.1431 7.3816 12.1424 7.38105 12.1417 7.38057C11.7298 7.06607 11.2666 6.90881 10.8032 6.90881C10.3399 6.90881 9.87675 7.06607 9.46486 7.38057C9.46416 7.38097 9.46353 7.38168 9.46258 7.38199C7.16744 6.3058 3.85244 3.49329 3.12598 1.11164C3.54802 1.75838 4.45727 2.44956 5.07943 2.42805C5.31019 2.19839 5.51959 1.99875 5.77383 1.79218C6.33698 1.3346 6.9589 0.951948 7.62541 0.662259C8.588 0.244467 9.69704 0.0297016 10.8032 0ZM8.7692 8.41934C8.04628 8.05882 7.12624 7.52813 6.20525 6.80104C6.01105 7.20433 5.98978 7.55626 6.08975 7.84044C6.16074 8.0407 6.29436 8.2149 6.46997 8.35348C6.66031 8.50325 6.89792 8.61228 7.16059 8.67121C7.65898 8.78348 8.2408 8.71793 8.7692 8.41934Z" fill="white"/>
<path fill-rule="evenodd" clip-rule="evenodd" d="M16.3743 5.91014C16.8813 5.39844 17.3281 4.83206 17.6874 4.32666L17.8698 4.67008C18.4572 5.8453 18.7624 7.0158 18.7624 8.33307L18.7612 10.4234L18.7722 11.507C18.8148 14.1672 19.3904 16.8587 20.6942 19.3218L17.9662 17.122L16.0359 20.2544L14.008 18.3453L10.7674 23.6041L7.52688 18.3454L5.49906 20.2544L3.56877 17.1221L0.840637 19.3219C2.14451 16.8588 2.72011 14.1673 2.76273 11.507L2.77376 10.4234L2.7725 8.33315C2.7725 7.0158 3.07763 5.8453 3.6652 4.67016L3.84759 4.32674C4.20684 4.83214 4.65355 5.39844 5.16068 5.91022L5.00233 6.23914C4.69468 6.878 4.59281 7.59234 4.83247 8.27169C4.98696 8.70926 5.26893 9.08451 5.63244 9.37097C5.9854 9.64916 6.40311 9.83666 6.84044 9.93514C7.12532 9.99927 7.41556 10.0257 7.70391 10.0167C7.63663 10.3981 7.60724 10.7937 7.60535 11.1967L5.03195 12.6831L7.01778 13.7962C7.1765 13.8852 7.3276 13.9871 7.46953 14.101C9.10674 15.571 10.0911 19.9196 10.7675 22.0437C11.444 19.9196 12.4283 15.571 14.0656 14.101C14.2075 13.9871 14.3586 13.8852 14.5173 13.7962L16.5031 12.6831L13.9297 11.1967C13.9278 10.7937 13.8984 10.3981 13.8311 10.0167C14.1195 10.0257 14.4097 9.99927 14.6946 9.93514C15.1319 9.83666 15.5497 9.64916 15.9026 9.37097C16.266 9.08451 16.5481 8.70926 16.7025 8.27169C16.9422 7.59234 16.8403 6.87808 16.5327 6.23914L16.3743 5.91022L16.3743 5.91014Z" fill="white"/>
</svg>
