<svg width="20" height="24" viewBox="0 0 20 24" fill="none" xmlns="http://www.w3.org/2000/svg">
<g clip-path="url(#clip0_21_359)">
<path fill-rule="evenodd" clip-rule="evenodd" d="M7.42986 1.81297C6.06127 2.52589 4.94158 3.12917 4.94182 3.1537C4.94243 3.21703 8.22646 4.8802 8.34303 4.87614C8.39605 4.87437 8.78069 4.69731 9.19774 4.48273L9.95613 4.09266L10.7844 4.5184L11.6126 4.94422L12.969 4.33474C15.0128 3.41635 15.225 3.31571 15.1918 3.2819C15.1476 3.23704 14.4146 2.84323 12.4257 1.79617C11.4645 1.29011 10.5316 0.793941 10.3525 0.693541C10.1734 0.59314 10.0025 0.512375 9.97261 0.513938C9.94275 0.515502 8.79847 1.10007 7.42986 1.81297ZM1.42725 4.92132L0.00257029 5.65722V8.88693C0.00257029 10.6633 0.0212778 12.1166 0.0442249 12.1166C0.0670925 12.1166 0.768039 11.8128 1.60185 11.4414L3.11787 10.7662V7.36185L3.85869 7.76547C4.42956 8.0762 5.00078 8.38631 5.57233 8.69578L6.54512 9.22248L6.97799 9.02674C7.24947 8.90378 7.5204 8.77963 7.79078 8.65428C7.99972 8.55698 8.51261 8.32597 8.93051 8.14083C9.34841 7.95561 9.73525 7.76936 9.7901 7.72691C9.86297 7.67052 8.97444 7.17952 6.50371 5.91075C4.64131 4.95436 3.05777 4.1749 2.98474 4.17864C2.91171 4.18238 2.21085 4.51654 1.42725 4.92132ZM15.4485 5.12798C14.4782 5.56601 13.6837 5.94191 13.6828 5.96335C13.6819 5.98476 14.2108 6.29921 14.858 6.66202C15.5053 7.0249 16.0349 7.34121 16.0349 7.36503C16.0349 7.3888 15.4621 7.66631 14.7622 7.98185C14.0621 8.2973 12.2927 9.09637 10.8301 9.75757L5.92921 11.9728C4.69639 12.5301 3.58516 13.0325 3.45979 13.0892C0.941706 14.2292 0.249583 14.5455 0.154535 14.5998C0.0589577 14.6544 0.0373089 14.972 0.0202973 16.5659L0 18.467L1.27402 19.1161L2.548 19.7652L4.31459 18.968C5.28624 18.5295 6.08117 18.1478 6.08117 18.1197C6.08117 18.0916 5.90162 17.9747 5.68227 17.8596C5.46282 17.7445 5.00981 17.4898 4.67549 17.2935C4.34119 17.0971 4.00785 16.917 3.93466 16.8931C3.8615 16.8692 3.8027 16.8276 3.80389 16.8004C3.80511 16.7733 4.58304 16.4038 5.53251 15.9792C7.37668 15.1546 8.78798 14.5192 11.8178 13.149C13.1727 12.5364 14.5277 11.9242 15.8829 11.3124C17.0739 10.7748 18.4587 10.147 18.9602 9.91717L19.872 9.49938L19.8923 7.57667L19.9126 5.65404L18.6205 4.9908C17.9097 4.62606 17.3023 4.32851 17.2704 4.3296C17.2386 4.33061 16.4187 4.68984 15.4485 5.12798ZM19.5258 12.0644C19.3354 12.1574 18.9593 12.3315 18.69 12.4513C18.4207 12.5711 17.9097 12.8017 17.5545 12.9638L16.9087 13.2583L16.8939 14.9463C16.8858 15.8746 16.8516 16.6301 16.818 16.6252C16.7415 16.6138 15.531 15.993 14.3143 15.341C13.436 14.8705 13.3809 14.8518 13.1745 14.954C13.0552 15.0131 12.3421 15.3329 11.5899 15.6648C10.8377 15.9966 10.1977 16.2898 10.1676 16.3164C10.1376 16.3429 11.6515 17.1634 13.532 18.1399L16.951 19.9154L18.4115 19.1598C19.2147 18.7443 19.8977 18.3653 19.9292 18.3177C20 18.2105 19.9939 11.8806 19.9231 11.8891C19.895 11.8925 19.7162 11.9714 19.5258 12.0644ZM11.4379 19.4941C11.1846 19.603 10.9313 19.7121 10.6781 19.8213C9.9135 20.1521 10.0633 20.1631 9.15367 19.7103C8.5478 19.4087 8.28664 19.3156 8.17328 19.3608C8.08825 19.3946 7.35646 19.7239 6.54695 20.0924C5.73749 20.4609 5.04712 20.7624 5.01278 20.7624C4.67316 20.7624 5.23777 21.0997 7.4165 22.1988L9.97163 23.4875L11.0467 22.9568C11.638 22.6648 12.8306 22.0803 13.697 21.6577C14.5634 21.2351 15.2615 20.8784 15.2485 20.8649C15.2353 20.8515 14.5094 20.4787 13.6352 20.0365L12.0458 19.2326L11.4379 19.4941Z" fill="#05A3C9"/>
</g>
<defs>
<clipPath id="clip0_21_359">
<rect width="20" height="22.9991" fill="white" transform="translate(0 0.500488)"/>
</clipPath>
</defs>
</svg>
