<svg width="22" height="24" viewBox="0 0 22 24" fill="none" xmlns="http://www.w3.org/2000/svg">
<g clip-path="url(#clip0_21_337)">
<path d="M10.2882 0.291012L3.68836 11.1506C3.6366 11.2358 3.51635 11.2453 3.45214 11.1691C2.87111 10.4791 0.706488 7.54417 3.38499 4.86908C5.82914 2.42807 8.9423 0.687679 10.0961 0.0861636C10.227 0.0179186 10.3649 0.164955 10.2882 0.291012Z" fill="#0080BC"/>
<path d="M9.92344 23.9359C10.0552 24.0282 10.2175 23.8709 10.1292 23.7367C8.65503 21.4945 3.75465 14.0342 3.07773 12.9143C2.41005 11.8097 1.09683 9.97397 0.98728 8.4034C0.976346 8.24661 0.759538 8.21477 0.704999 8.36222C0.617041 8.60002 0.523396 8.88384 0.43612 9.20807C-0.665666 13.3009 0.934464 17.6441 4.40961 20.0765L9.92344 23.9361V23.9359Z" fill="#0080BC"/>
<path d="M10.8296 23.7427L17.4295 12.8832C17.4812 12.798 17.6015 12.7885 17.6658 12.8647C18.2467 13.5546 20.4114 16.4896 17.7329 19.1648C15.2887 21.6057 12.1756 23.3462 11.0218 23.9476C10.8909 24.0159 10.753 23.8689 10.8296 23.7427Z" fill="#0080BC"/>
<path d="M11.2016 0.0964552C11.0698 0.00426129 10.9076 0.161488 10.9959 0.295755C12.4701 2.53794 17.3704 9.99823 18.0473 11.1181C18.715 12.2227 20.0282 14.0585 20.1378 15.6291C20.1487 15.7858 20.3655 15.8176 20.4201 15.6702C20.508 15.4324 20.6017 15.1486 20.689 14.8244C21.7907 10.7315 20.1906 6.38838 16.7155 3.95591L11.2016 0.0964552Z" fill="#0080BC"/>
</g>
<defs>
<clipPath id="clip0_21_337">
<rect width="20.987" height="24" fill="white" transform="translate(0.0693359)"/>
</clipPath>
</defs>
</svg>
