<svg width="26" height="26" viewBox="0 0 26 26" fill="none" xmlns="http://www.w3.org/2000/svg">
<mask id="mask0_21_365" style="mask-type:luminance" maskUnits="userSpaceOnUse" x="0" y="0" width="26" height="26">
<path d="M26 0H0V26H26V0Z" fill="white"/>
</mask>
<g mask="url(#mask0_21_365)">
<path d="M6.5 24.375V26H24.375V24.375H22.75V21.125H21.125V19.5H22.75V17.875H24.375V16.25H26V9.75H24.375V3.25H22.75V1.625H17.875V3.25H16.25V6.5H14.625V3.25H13V1.625H8.125V3.25H6.5V9.75H3.25V8.125H0V16.25H1.625V17.875H6.5V19.5H9.75V21.125H8.125V24.375H6.5Z" fill="#9ED455"/>
<path fill-rule="evenodd" clip-rule="evenodd" d="M13 1.625H11.375V3.25H13V4.875V6.5V8.125H14.625H16.25H17.875V6.5V4.875V3.25H16.25V4.875V6.5H14.625V4.875V3.25H13V1.625ZM4.875 16.25H6.5V17.875H4.875H3.25H1.625V16.25H3.25H4.875ZM3.25 9.75H1.625V11.375V13V14.625V16.25H0V14.625V13V11.375V9.75V8.125H1.625H3.25V9.75ZM3.25 9.75V11.375H4.875H6.5V9.75H8.125V8.125V6.5V4.875V3.25H6.5V4.875V6.5V8.125V9.75H4.875H3.25ZM9.75 21.125V19.5H8.125H6.5V17.875H8.125H9.75H11.375V19.5V21.125H9.75ZM8.125 24.375V22.75V21.125H9.75V22.75V24.375H8.125ZM8.125 24.375V26H6.5V24.375H8.125ZM24.375 24.375H22.75V22.75V21.125H21.125V19.5H22.75V17.875H24.375V16.25H26V14.625V13V11.375V9.75H24.375V8.125V6.5V4.875V3.25H22.75V1.625H21.125V3.25H22.75V4.875V6.5V8.125V9.75H24.375V11.375V13V14.625V16.25H22.75V17.875H21.125H19.5V19.5V21.125H21.125V22.75V24.375H22.75V26H24.375V24.375Z" fill="#457F2C"/>
<path d="M11.375 4.875H8.125V9.75H11.375V4.875Z" fill="white"/>
<path d="M9.75 6.5H8.125V9.75H9.75V6.5Z" fill="black"/>
<path d="M9.75 16.25V14.625H4.875V16.25H9.75Z" fill="black"/>
<path fill-rule="evenodd" clip-rule="evenodd" d="M11.375 3.25V4.875H8.125V3.25H11.375ZM3.25 11.375V9.75H1.625V11.375H3.25ZM3.25 11.375H8.125V13H3.25V11.375ZM21.125 4.875V3.25H17.875V4.875H21.125Z" fill="#D5F86B"/>
<path d="M17.875 26V24.375H9.75V26H17.875Z" fill="#D09C4F"/>
<path d="M17.875 24.375V22.75H11.375V24.375H17.875Z" fill="#D09C4F"/>
<path d="M16.25 22.75V21.125H11.375V22.75H16.25Z" fill="#D09C4F"/>
<path d="M16.25 21.125V19.5H13V21.125H16.25Z" fill="#D09C4F"/>
<path fill-rule="evenodd" clip-rule="evenodd" d="M22.75 9.75V4.875H21.125V9.75H22.75ZM8.125 11.375V9.75H6.5V11.375H8.125ZM4.875 14.625V16.25H1.625V14.625H4.875ZM24.375 16.25V14.625V11.375H22.75V14.625H21.125V16.25H17.875V17.875V19.5H16.25V21.125H17.875H19.5V24.375H21.125V26H22.75V24.375H21.125V21.125H19.5V17.875H22.75V16.25H24.375ZM11.375 16.25V17.875H6.5V16.25H11.375ZM11.375 21.125V17.875H13V21.125H11.375ZM9.75 24.375V21.125H11.375V24.375H9.75ZM9.75 24.375H8.125V26H9.75V24.375ZM17.875 8.125V9.75H16.25V8.125H17.875Z" fill="#57A756"/>
<path d="M21.125 4.875H17.875V9.75H21.125V4.875Z" fill="white"/>
<path d="M19.5 6.5H17.875V9.75H19.5V6.5Z" fill="black"/>
</g>
</svg>
