<svg width="26" height="26" viewBox="0 0 26 26" fill="none" xmlns="http://www.w3.org/2000/svg">
<g clip-path="url(#clip0_21_284)">
<path d="M9.57825 3.90614C5.98619 2.87751 1.91922 6.07876 0.4945 11.0561C-0.929812 16.0327 0.827625 20.9004 4.41887 21.929C8.01094 22.9576 12.0779 19.7564 13.5026 14.779C14.9269 9.80245 13.1699 4.93476 9.57825 3.90614ZM8.97294 8.58126C8.9527 8.82615 8.88442 9.06465 8.77199 9.28315C8.65956 9.50164 8.5052 9.69585 8.3177 9.85467C8.13021 10.0135 7.91326 10.1338 7.67925 10.2088C7.44524 10.2838 7.19876 10.3119 6.95388 10.2916C6.70895 10.2714 6.47041 10.2031 6.25186 10.0907C6.03332 9.97833 5.83907 9.82397 5.6802 9.63647C5.52134 9.44897 5.40097 9.23201 5.32598 8.99797C5.25099 8.76394 5.22285 8.51743 5.24316 8.27251C5.26339 8.02762 5.33167 7.78912 5.4441 7.57063C5.55653 7.35213 5.7109 7.15793 5.89839 6.9991C6.08589 6.84028 6.30284 6.71995 6.53684 6.64498C6.77085 6.57002 7.01734 6.54189 7.26222 6.5622C7.50714 6.58238 7.74569 6.65063 7.96423 6.76303C8.18277 6.87544 8.37702 7.0298 8.53589 7.2173C8.69475 7.4048 8.81512 7.62177 8.89011 7.8558C8.9651 8.08983 8.99325 8.33635 8.97294 8.58126ZM22.5498 7.79436C19.7447 6.99201 16.5698 9.49085 15.4575 13.3766C14.3456 17.2628 15.7171 21.0637 18.5218 21.866C21.3266 22.6692 24.5018 20.1695 25.6138 16.2838C26.7261 12.3976 25.3546 8.5967 22.5498 7.79436ZM22.1367 12.2928C22.1164 12.5377 22.0481 12.7762 21.9357 12.9947C21.8232 13.2133 21.6688 13.4075 21.4813 13.5663C21.2937 13.7252 21.0767 13.8455 20.8427 13.9204C20.6086 13.9954 20.3621 14.0234 20.1172 14.0031C19.7484 13.9726 19.3968 13.8334 19.1071 13.6031C18.8174 13.3728 18.6025 13.0618 18.4895 12.7093C18.3766 12.3569 18.3707 11.9789 18.4726 11.6231C18.5745 11.2673 18.7796 10.9497 19.062 10.7105C19.3444 10.4713 19.6914 10.3212 20.0591 10.2792C20.4268 10.2372 20.7987 10.3051 21.1278 10.4745C21.4568 10.6439 21.7283 10.907 21.9078 11.2307C22.0873 11.5543 22.1668 11.9239 22.1362 12.2928H22.1367Z" fill="#4AFB39"/>
</g>
<defs>
<clipPath id="clip0_21_284">
<rect width="26" height="26" fill="white"/>
</clipPath>
</defs>
</svg>
