<svg width="30" height="30" viewBox="0 0 30 30" fill="none" xmlns="http://www.w3.org/2000/svg">
<mask id="mask0_21_254" style="mask-type:luminance" maskUnits="userSpaceOnUse" x="0" y="0" width="29" height="30">
<path d="M28.8713 0.504639H6.10352e-05V29.496H28.8713V0.504639Z" fill="white"/>
</mask>
<g mask="url(#mask0_21_254)">
<mask id="mask1_21_254" style="mask-type:alpha" maskUnits="userSpaceOnUse" x="-6" y="3" width="31" height="31">
<path fill-rule="evenodd" clip-rule="evenodd" d="M20.4614 20.669C23.1052 19.088 24.8753 16.197 24.8753 12.8926C24.8753 7.89194 20.8215 3.83813 15.8208 3.83813C12.2913 3.83813 9.23348 5.85764 7.73981 8.80416L-5.00092 21.5449L7.29232 33.8382L20.4614 20.669Z" fill="#795E5E"/>
</mask>
<g mask="url(#mask1_21_254)">
<path fill-rule="evenodd" clip-rule="evenodd" d="M15.6689 3.18281L15.6736 3.17798C14.2463 3.20473 12.8676 3.58927 11.682 4.34131C10.7928 5.28674 9.92265 6.25121 9.08056 7.24211C8.16377 8.31852 7.27943 9.42423 6.43818 10.5666C6.12519 10.9957 5.81685 11.4311 5.52574 11.8836C5.97831 11.5925 6.41364 11.2841 6.84274 10.9711C7.34898 10.5974 7.84876 10.2155 8.34131 9.8264C10.7486 7.92706 13.0041 5.84745 15.1708 3.68993C15.3371 3.52174 15.5026 3.35267 15.6689 3.18281ZM14.6016 8.83315C16.2075 7.20905 17.7986 5.56537 19.3446 3.88144C18.6991 3.61805 18.0365 3.42798 17.3731 3.31315C15.9421 4.64608 14.5386 6.00791 13.1502 7.38177C11.5528 8.99373 9.97115 10.6262 8.43448 12.2989C6.20614 14.7213 4.06807 17.2277 2.10235 19.881C4.49931 18.1045 6.77776 16.1889 8.98048 14.1911C10.9002 12.4528 12.7643 10.6541 14.6016 8.83315ZM22.101 5.55908C19.8345 8.06865 17.4841 10.5006 15.1054 12.9011C13.6785 14.3172 12.2406 15.7225 10.7817 17.1051C7.59523 20.1265 4.30953 23.0439 0.822327 25.7329C3.57278 22.1661 6.56246 18.8099 9.6579 15.5548C10.9746 14.1711 12.3093 12.8054 13.6541 11.4498C15.9951 9.13056 18.3666 6.83702 20.8095 4.62277C21.256 4.89646 21.6881 5.20812 22.101 5.55908ZM24.2337 8.01617C23.9569 7.57281 23.6412 7.14461 23.2881 6.73588C20.7769 9.0039 18.3425 11.3566 15.9404 13.737C14.5236 15.1647 13.1167 16.6042 11.7325 18.0646C8.7119 21.2503 5.79696 24.5354 3.10867 28.0201C6.66906 25.2742 10.0206 22.2911 13.2701 19.2011C14.6594 17.879 16.0306 16.5386 17.3918 15.1883C19.7166 12.8417 22.0148 10.4655 24.2337 8.01617ZM24.9855 9.47173C25.2541 10.1083 25.4505 10.7628 25.5732 11.4184C24.2262 12.8669 22.8469 14.2862 21.4572 15.6921C19.8295 17.3055 18.1802 18.9021 16.4899 20.4545C14.0833 22.667 11.5927 24.7875 8.95798 26.7401C10.7259 24.3535 12.6329 22.0855 14.6219 19.8915C16.3672 17.9611 18.1755 16.0876 20.0059 14.2408C21.6387 12.6261 23.2911 11.0264 24.9855 9.47173ZM24.7469 16.9202C25.4003 15.7661 25.7257 14.4519 25.7302 13.0959C25.5348 13.2858 25.3404 13.4766 25.1476 13.6676C22.9655 15.8587 20.8639 18.14 18.9471 20.5774C18.58 21.0443 18.22 21.5168 17.8664 21.9956C17.5526 22.4256 17.2451 22.8601 16.9539 23.3126C17.4065 23.0216 17.8418 22.7131 18.2709 22.4002C19.3206 21.6263 20.3407 20.8166 21.3352 19.9781C22.5044 18.994 23.6388 17.9702 24.7469 16.9202Z" fill="url(#paint0_linear_21_254)"/>
</g>
</g>
<defs>
<linearGradient id="paint0_linear_21_254" x1="20.8862" y1="58.5717" x2="50.8073" y2="22.9197" gradientUnits="userSpaceOnUse">
<stop stop-color="#FF2189"/>
<stop offset="1" stop-color="#FF9D00"/>
</linearGradient>
</defs>
</svg>
