<svg width="28" height="22" viewBox="0 0 28 22" fill="none" xmlns="http://www.w3.org/2000/svg">
<path d="M13.8962 3.28634C11.8812 0.300939 7.76153 -0.833325 4.4943 0.678238C2.91082 1.40219 1.59851 2.75341 0.869851 4.29208C0.253194 5.68575 -0.0545426 7.23971 0.0079481 8.76901C0.099915 5.68811 2.48164 2.76637 5.50241 2.5223C7.82521 2.33483 9.87444 3.57638 10.7859 5.79778C11.2197 6.85537 11.5051 8.64641 11.5263 8.76665C11.5227 8.76193 11.5192 8.75607 11.5168 8.75135C11.5487 8.82208 11.5793 8.88812 11.61 8.94472C12.4518 10.6343 15.0281 10.0271 15.1672 8.11228C15.2934 6.42147 14.8666 4.70832 13.8974 3.28634H13.8962Z" fill="url(#paint0_radial_21_322)"/>
<path d="M13.8962 3.28634C11.8812 0.300939 7.76153 -0.833325 4.4943 0.678238C2.91082 1.40219 1.59851 2.75341 0.869851 4.29208C0.253194 5.68575 -0.0545426 7.23971 0.0079481 8.76901C0.099915 5.68811 2.48164 2.76637 5.50241 2.5223C7.82521 2.33483 9.87444 3.57638 10.7859 5.79778C11.2197 6.85537 11.5051 8.64641 11.5263 8.76665C11.5227 8.76193 11.5192 8.75607 11.5168 8.75135C11.5487 8.82208 11.5793 8.88812 11.61 8.94472C12.4518 10.6343 15.0281 10.0271 15.1672 8.11228C15.2934 6.42147 14.8666 4.70832 13.8974 3.28634H13.8962Z" fill="url(#paint1_radial_21_322)"/>
<path d="M24.7415 2.54323C24.0576 1.76151 23.2134 1.1083 22.2713 0.677945C19.2046 -0.740474 15.3879 0.172127 13.2644 2.75665C12.5357 3.57256 11.9828 4.54885 11.688 5.64888C11.4321 6.53557 11.3992 7.46112 11.4794 8.36665C11.7092 10.6128 14.6711 10.7024 15.2276 8.80177C15.2311 8.79469 15.2346 8.78639 15.2382 8.77813C15.3101 8.34186 15.5612 7.02254 15.8041 6.42119C15.9032 6.17711 15.8041 6.42 15.8041 6.42C16.7191 3.87913 18.8025 2.52437 20.6843 2.52437C24.4196 2.35105 27.8035 7.20289 26.8143 11.6669C26.8226 11.661 26.9605 11.0538 26.9675 11.0266C27.0678 10.5208 27.1373 10.002 27.1704 9.4714C27.3036 7.0037 26.4405 4.38022 24.7438 2.54559L24.7415 2.54323Z" fill="url(#paint2_radial_21_322)"/>
<path d="M24.7415 2.54323C24.0576 1.76151 23.2134 1.1083 22.2713 0.677945C19.2046 -0.740474 15.3879 0.172127 13.2644 2.75665C12.5357 3.57256 11.9828 4.54885 11.688 5.64888C11.4321 6.53557 11.3992 7.46112 11.4794 8.36665C11.7092 10.6128 14.6711 10.7024 15.2276 8.80177C15.2311 8.79469 15.2346 8.78639 15.2382 8.77813C15.3101 8.34186 15.5612 7.02254 15.8041 6.42119C15.9032 6.17711 15.8041 6.42 15.8041 6.42C16.7191 3.87913 18.8025 2.52437 20.6843 2.52437C24.4196 2.35105 27.8035 7.20289 26.8143 11.6669C26.8226 11.661 26.9605 11.0538 26.9675 11.0266C27.0678 10.5208 27.1373 10.002 27.1704 9.4714C27.3036 7.0037 26.4405 4.38022 24.7438 2.54559L24.7415 2.54323Z" fill="url(#paint3_radial_21_322)"/>
<path d="M5.50215 2.52195C1.67963 2.83088 -1.12197 7.42457 0.445008 11.2059C1.55215 14.5603 4.26637 17.1779 7.32843 18.8109C8.14667 19.2376 8.92015 18.2036 8.37544 17.4962L8.07241 17.1071C6.91223 15.4883 5.76617 13.7715 5.11057 11.8992C3.84899 8.89605 5.35228 5.51211 7.75757 5.51211C9.80798 5.51211 10.4906 7.18994 11.5884 8.90431C11.5848 8.88661 11.5542 8.78756 11.5377 8.70032C11.441 8.19337 11.1544 6.69947 10.7843 5.79745C9.87288 3.57491 7.82361 2.33454 5.50085 2.52201L5.50215 2.52195Z" fill="url(#paint4_radial_21_322)"/>
<path d="M5.50215 2.52195C1.67963 2.83088 -1.12197 7.42457 0.445008 11.2059C1.55215 14.5603 4.26637 17.1779 7.32843 18.8109C8.14667 19.2376 8.92015 18.2036 8.37544 17.4962L8.07241 17.1071C6.91223 15.4883 5.76617 13.7715 5.11057 11.8992C3.84899 8.89605 5.35228 5.51211 7.75757 5.51211C9.80798 5.51211 10.4906 7.18994 11.5884 8.90431C11.5848 8.88661 11.5542 8.78756 11.5377 8.70032C11.441 8.19337 11.1544 6.69947 10.7843 5.79745C9.87288 3.57491 7.82361 2.33454 5.50085 2.52201L5.50215 2.52195Z" fill="url(#paint5_radial_21_322)"/>
<path d="M20.6834 2.52162C18.8016 2.52162 16.7194 3.87637 15.8032 6.41728C15.8032 6.41728 15.9023 6.17439 15.8032 6.41846C15.5591 7.01981 15.3092 8.33914 15.2373 8.7754C17.5353 2.29407 24.875 6.4314 20.0196 12.8302C19.2226 13.9009 18.2286 14.9348 17.1509 15.7154C16.8278 15.9489 16.5472 16.2377 16.3338 16.575C14.6819 19.1901 17.9609 22.521 20.7365 20.3031C23.2821 18.2717 25.4928 15.6494 26.5599 12.5366C28.2447 7.85925 24.6639 2.33651 20.6834 2.52162Z" fill="url(#paint6_radial_21_322)"/>
<path d="M20.6834 2.52162C18.8016 2.52162 16.7194 3.87637 15.8032 6.41728C15.8032 6.41728 15.9023 6.17439 15.8032 6.41846C15.5591 7.01981 15.3092 8.33914 15.2373 8.7754C17.5353 2.29407 24.875 6.4314 20.0196 12.8302C19.2226 13.9009 18.2286 14.9348 17.1509 15.7154C16.8278 15.9489 16.5472 16.2377 16.3338 16.575C14.6819 19.1901 17.9609 22.521 20.7365 20.3031C23.2821 18.2717 25.4928 15.6494 26.5599 12.5366C28.2447 7.85925 24.6639 2.33651 20.6834 2.52162Z" fill="url(#paint7_radial_21_322)"/>
<path d="M27.1735 9.4613C27.2254 8.32822 27.0733 7.18688 26.7361 6.10682C26.4001 5.02563 25.8777 4.00217 25.1809 3.11317C25.0076 2.89033 24.8177 2.68163 24.6267 2.47294C24.4357 2.26424 24.2353 2.06733 24.023 1.88105C23.5986 1.50964 23.134 1.18539 22.6376 0.922458C22.1413 0.659532 21.6119 0.46027 21.0683 0.318778C20.5235 0.184359 19.9647 0.105367 19.4046 0.0923984C18.2833 0.0629168 17.1561 0.284584 16.128 0.731456C15.8698 0.841106 15.6198 0.968448 15.377 1.1064C15.1316 1.24199 14.897 1.39527 14.6671 1.55562C14.2132 1.88458 13.7923 2.25834 13.4244 2.68517C13.0436 3.10374 12.7004 3.54825 12.4198 4.03758C12.1381 4.5245 11.9152 5.04565 11.7607 5.58686C11.5956 6.12689 11.5108 6.68693 11.4813 7.25056C11.4671 7.53228 11.4671 7.81647 11.4813 8.09945C11.4883 8.24098 11.4955 8.38246 11.5143 8.52277C11.5343 8.6619 11.5509 8.80453 11.6063 8.93661C11.5497 8.80571 11.5296 8.66422 11.5072 8.52395C11.486 8.38364 11.4766 8.24216 11.4671 8.10067C11.4483 7.81765 11.4424 7.5335 11.4518 7.25056C11.4695 6.68339 11.5509 6.11744 11.7136 5.57388C11.8656 5.02681 12.0862 4.49976 12.3667 4.00689C12.645 3.51171 12.9893 3.05776 13.369 2.63565C14.1059 1.77139 15.0527 1.0946 16.0938 0.645383C17.1314 0.19498 18.2715 -0.0278678 19.407 0.00278575C19.9741 0.0157544 20.5401 0.0982948 21.0895 0.238602C21.6378 0.384806 22.1719 0.589965 22.6719 0.858786C23.1718 1.12762 23.6387 1.45776 24.0643 1.83389C24.2766 2.02254 24.4781 2.22297 24.6692 2.43285C24.859 2.6439 25.0489 2.85495 25.2209 3.08134C25.9154 3.98097 26.4319 5.01265 26.7597 6.09856C27.0898 7.18452 27.2337 8.32704 27.1735 9.46012V9.4613Z" fill="url(#paint8_linear_21_322)"/>
<path d="M27.1735 9.4613C27.2254 8.32822 27.0733 7.18688 26.7361 6.10682C26.4001 5.02563 25.8777 4.00217 25.1809 3.11317C25.0076 2.89033 24.8177 2.68163 24.6267 2.47294C24.4357 2.26424 24.2353 2.06733 24.023 1.88105C23.5986 1.50964 23.134 1.18539 22.6376 0.922458C22.1413 0.659532 21.6119 0.46027 21.0683 0.318778C20.5235 0.184359 19.9647 0.105367 19.4046 0.0923984C18.2833 0.0629168 17.1561 0.284584 16.128 0.731456C15.8698 0.841106 15.6198 0.968448 15.377 1.1064C15.1316 1.24199 14.897 1.39527 14.6671 1.55562C14.2132 1.88458 13.7923 2.25834 13.4244 2.68517C13.0436 3.10374 12.7004 3.54825 12.4198 4.03758C12.1381 4.5245 11.9152 5.04565 11.7607 5.58686C11.5956 6.12689 11.5108 6.68693 11.4813 7.25056C11.4671 7.53228 11.4671 7.81647 11.4813 8.09945C11.4883 8.24098 11.4955 8.38246 11.5143 8.52277C11.5343 8.6619 11.5509 8.80453 11.6063 8.93661C11.5497 8.80571 11.5296 8.66422 11.5072 8.52395C11.486 8.38364 11.4766 8.24216 11.4671 8.10067C11.4483 7.81765 11.4424 7.5335 11.4518 7.25056C11.4695 6.68339 11.5509 6.11744 11.7136 5.57388C11.8656 5.02681 12.0862 4.49976 12.3667 4.00689C12.645 3.51171 12.9893 3.05776 13.369 2.63565C14.1059 1.77139 15.0527 1.0946 16.0938 0.645383C17.1314 0.19498 18.2715 -0.0278678 19.407 0.00278575C19.9741 0.0157544 20.5401 0.0982948 21.0895 0.238602C21.6378 0.384806 22.1719 0.589965 22.6719 0.858786C23.1718 1.12762 23.6387 1.45776 24.0643 1.83389C24.2766 2.02254 24.4781 2.22297 24.6692 2.43285C24.859 2.6439 25.0489 2.85495 25.2209 3.08134C25.9154 3.98097 26.4319 5.01265 26.7597 6.09856C27.0898 7.18452 27.2337 8.32704 27.1735 9.46012V9.4613Z" fill="url(#paint9_linear_21_322)"/>
<defs>
<radialGradient id="paint0_radial_21_322" cx="0" cy="0" r="1" gradientUnits="userSpaceOnUse" gradientTransform="translate(24.1895 1.6146) scale(15.8263 18.7397)">
<stop stop-color="#08D7FF"/>
<stop offset="1" stop-color="#3174FF"/>
</radialGradient>
<radialGradient id="paint1_radial_21_322" cx="0" cy="0" r="1" gradientUnits="userSpaceOnUse" gradientTransform="translate(24.1895 1.6146) scale(15.8263 18.7397)">
<stop stop-color="#11D8FF"/>
<stop offset="1" stop-color="#3A7AFF"/>
</radialGradient>
<radialGradient id="paint2_radial_21_322" cx="0" cy="0" r="1" gradientUnits="userSpaceOnUse" gradientTransform="translate(3.42065 1.50971) scale(15.5908 16.2885)">
<stop stop-color="#08D7FF"/>
<stop offset="1" stop-color="#3174FF"/>
</radialGradient>
<radialGradient id="paint3_radial_21_322" cx="0" cy="0" r="1" gradientUnits="userSpaceOnUse" gradientTransform="translate(3.42065 1.50971) scale(15.5908 16.2885)">
<stop stop-color="#11D8FF"/>
<stop offset="1" stop-color="#3A7AFF"/>
</radialGradient>
<radialGradient id="paint4_radial_21_322" cx="0" cy="0" r="1" gradientUnits="userSpaceOnUse" gradientTransform="translate(32.9772 23.6351) scale(51.5804 28.1756)">
<stop stop-color="#FF08FF"/>
<stop offset="0.36" stop-color="#ED0DFF"/>
<stop offset="1" stop-color="#382AFF"/>
</radialGradient>
<radialGradient id="paint5_radial_21_322" cx="0" cy="0" r="1" gradientUnits="userSpaceOnUse" gradientTransform="translate(32.9772 23.6351) scale(51.5804 28.1756)">
<stop stop-color="#FF11FF"/>
<stop offset="0.36" stop-color="#EE16FF"/>
<stop offset="1" stop-color="#4033FF"/>
</radialGradient>
<radialGradient id="paint6_radial_21_322" cx="0" cy="0" r="1" gradientUnits="userSpaceOnUse" gradientTransform="translate(-4.24735 21.0389) scale(50.4887 24.7876)">
<stop stop-color="#FF08FF"/>
<stop offset="0.36" stop-color="#ED0DFF"/>
<stop offset="1" stop-color="#382AFF"/>
</radialGradient>
<radialGradient id="paint7_radial_21_322" cx="0" cy="0" r="1" gradientUnits="userSpaceOnUse" gradientTransform="translate(-4.24735 21.0389) scale(50.4887 24.7876)">
<stop stop-color="#FF11FF"/>
<stop offset="0.36" stop-color="#EE16FF"/>
<stop offset="1" stop-color="#4033FF"/>
</radialGradient>
<linearGradient id="paint8_linear_21_322" x1="11.3929" y1="4.73085" x2="27.2384" y2="4.73085" gradientUnits="userSpaceOnUse">
<stop stop-color="#08FCFF"/>
<stop offset="1" stop-color="#2A69FF"/>
</linearGradient>
<linearGradient id="paint9_linear_21_322" x1="11.3929" y1="4.73085" x2="27.2384" y2="4.73085" gradientUnits="userSpaceOnUse">
<stop stop-color="#2FFCFF"/>
<stop offset="1" stop-color="#336FFF"/>
</linearGradient>
</defs>
</svg>
