<svg width="25" height="24" viewBox="0 0 25 24" fill="none" xmlns="http://www.w3.org/2000/svg">
<path d="M9.27026 8.6697V6.40698C9.27026 6.21641 9.34179 6.07345 9.50843 5.97824L14.0578 3.35831C14.677 3.00106 15.4154 2.83442 16.1775 2.83442C19.0356 2.83442 20.8459 5.04953 20.8459 7.40741C20.8459 7.5741 20.8459 7.76467 20.822 7.95524L16.106 5.1923C15.8202 5.02561 15.5343 5.02561 15.2485 5.1923L9.27026 8.6697ZM19.8931 17.4824V12.0756C19.8931 11.742 19.7501 11.5039 19.4643 11.3372L13.486 7.85983L15.4391 6.74031C15.6058 6.64515 15.7488 6.64515 15.9155 6.74031L20.4648 9.36028C21.7749 10.1225 22.656 11.742 22.656 13.314C22.656 15.1241 21.5843 16.7914 19.8931 17.4822V17.4824ZM7.86501 12.7188L5.91194 11.5756C5.7453 11.4804 5.67377 11.3375 5.67377 11.1469V5.90701C5.67377 3.35851 7.62684 1.42912 10.2707 1.42912C11.2712 1.42912 12.1999 1.7627 12.9861 2.35808L8.29394 5.07346C8.00822 5.2401 7.86526 5.47827 7.86526 5.8118V12.719L7.86501 12.7188ZM12.0689 15.1482L9.27026 13.5763V10.2419L12.0689 8.66995L14.8674 10.2419V13.5763L12.0689 15.1482ZM13.8672 22.389C12.8667 22.389 11.938 22.0555 11.1518 21.46L15.8439 18.7447C16.1297 18.5781 16.2727 18.3399 16.2727 18.0063V11.0991L18.2497 12.2423C18.4163 12.3375 18.4878 12.4804 18.4878 12.671V17.9109C18.4878 20.4594 16.5108 22.3888 13.8672 22.3888V22.389ZM8.22226 17.0776L3.6729 14.4576C2.36281 13.6954 1.48166 12.0759 1.48166 10.5039C1.48166 8.66995 2.5773 7.02653 4.26827 6.33575V11.7662C4.26827 12.0997 4.41129 12.3379 4.69701 12.5046L10.6516 15.9581L8.69856 17.0776C8.53192 17.1728 8.3889 17.1728 8.22226 17.0776ZM7.96042 20.9837C5.26896 20.9837 3.29201 18.9592 3.29201 16.4583C3.29201 16.2677 3.31589 16.0772 3.33957 15.8866L8.0317 18.6019C8.31742 18.7686 8.6034 18.7686 8.88912 18.6019L14.8674 15.1485V17.4111C14.8674 17.6017 14.7959 17.7447 14.6292 17.8399L10.0799 20.4598C9.46062 20.817 8.72223 20.9837 7.96017 20.9837H7.96042ZM13.8672 23.818C16.7492 23.818 19.1547 21.7697 19.7027 19.0543C22.3703 18.3636 24.0852 15.8627 24.0852 13.3142C24.0852 11.6469 23.3707 10.0274 22.0845 8.86026C22.2036 8.36005 22.2751 7.85983 22.2751 7.35986C22.2751 3.95394 19.5121 1.40525 16.3205 1.40525C15.6775 1.40525 15.0582 1.5004 14.4389 1.7149C13.367 0.666857 11.8902 0 10.2707 0C7.38872 0 4.98323 2.04823 4.43521 4.76356C1.76763 5.45434 0.0527344 7.95524 0.0527344 10.5037C0.0527344 12.171 0.767196 13.7905 2.05341 14.9576C1.93432 15.4579 1.86284 15.9581 1.86284 16.458C1.86284 19.864 4.62578 22.4127 7.8174 22.4127C8.46039 22.4127 9.07969 22.3175 9.69899 22.103C10.7707 23.151 12.2474 23.818 13.8672 23.818Z" fill="white"/>
</svg>
