<svg width="21" height="25" viewBox="0 0 21 25" fill="none" xmlns="http://www.w3.org/2000/svg">
<g clip-path="url(#clip0_21_233)">
<g filter="url(#filter0_d_21_233)">
<path d="M7.59737 4.55986C7.56624 4.5596 7.54095 4.53355 7.54095 4.50147C7.54095 4.4786 7.5548 4.45865 7.57166 4.44377C7.57415 4.44153 7.57656 4.43921 7.57896 4.43672L11.1919 0.713761C11.8718 0.0131642 12.8988 -0.226673 13.748 0.237954C14.8982 0.867261 15.962 1.67346 16.8996 2.63969C19.3817 5.19734 20.7762 8.66627 20.7762 12.2834C20.7762 15.9005 19.3817 19.3694 16.8996 21.927C15.9688 22.8864 14.9133 23.6879 13.7727 24.3153C12.923 24.7826 11.8937 24.5432 11.2127 23.8414L7.5511 20.0683C7.54457 20.0616 7.54095 20.0525 7.54095 20.043C7.54095 20.0232 7.55652 20.0071 7.57578 20.007C9.55107 19.9976 11.4436 19.1849 12.8411 17.7449C14.2467 16.2964 15.0365 14.3318 15.0365 12.2834C15.0365 10.2349 14.2467 8.27035 12.8411 6.82186C11.4487 5.38704 9.56492 4.57508 7.59737 4.55986Z" fill="#D9D9D9"/>
<path d="M7.59737 4.55986C7.56624 4.5596 7.54095 4.53355 7.54095 4.50147C7.54095 4.4786 7.5548 4.45865 7.57166 4.44377C7.57415 4.44153 7.57656 4.43921 7.57896 4.43672L11.1919 0.713761C11.8718 0.0131642 12.8988 -0.226673 13.748 0.237954C14.8982 0.867261 15.962 1.67346 16.8996 2.63969C19.3817 5.19734 20.7762 8.66627 20.7762 12.2834C20.7762 15.9005 19.3817 19.3694 16.8996 21.927C15.9688 22.8864 14.9133 23.6879 13.7727 24.3153C12.923 24.7826 11.8937 24.5432 11.2127 23.8414L7.5511 20.0683C7.54457 20.0616 7.54095 20.0525 7.54095 20.043C7.54095 20.0232 7.55652 20.0071 7.57578 20.007C9.55107 19.9976 11.4436 19.1849 12.8411 17.7449C14.2467 16.2964 15.0365 14.3318 15.0365 12.2834C15.0365 10.2349 14.2467 8.27035 12.8411 6.82186C11.4487 5.38704 9.56492 4.57508 7.59737 4.55986Z" fill="url(#paint0_radial_21_233)"/>
<path d="M7.59737 4.55986C7.56624 4.5596 7.54095 4.53355 7.54095 4.50147C7.54095 4.4786 7.5548 4.45865 7.57166 4.44377C7.57415 4.44153 7.57656 4.43921 7.57896 4.43672L11.1919 0.713761C11.8718 0.0131642 12.8988 -0.226673 13.748 0.237954C14.8982 0.867261 15.962 1.67346 16.8996 2.63969C19.3817 5.19734 20.7762 8.66627 20.7762 12.2834C20.7762 15.9005 19.3817 19.3694 16.8996 21.927C15.9688 22.8864 14.9133 23.6879 13.7727 24.3153C12.923 24.7826 11.8937 24.5432 11.2127 23.8414L7.5511 20.0683C7.54457 20.0616 7.54095 20.0525 7.54095 20.043C7.54095 20.0232 7.55652 20.0071 7.57578 20.007C9.55107 19.9976 11.4436 19.1849 12.8411 17.7449C14.2467 16.2964 15.0365 14.3318 15.0365 12.2834C15.0365 10.2349 14.2467 8.27035 12.8411 6.82186C11.4487 5.38704 9.56492 4.57508 7.59737 4.55986Z" fill="url(#paint1_linear_21_233)"/>
<path d="M7.54077 20.0579C5.53977 20.0579 3.62072 19.2388 2.20577 17.7808C0.790902 16.3229 -0.00402832 14.3454 -0.00402832 12.2834C-0.00402832 10.2216 0.790902 8.24412 2.20577 6.78608C3.62072 5.32813 5.53977 4.50903 7.54077 4.50903C7.54077 4.50903 4.82335 7.57267 4.82335 12.2834C4.82335 16.9943 7.54077 20.0579 7.54077 20.0579Z" fill="#D9D9D9"/>
<path d="M7.54077 20.0579C5.53977 20.0579 3.62072 19.2388 2.20577 17.7808C0.790902 16.3229 -0.00402832 14.3454 -0.00402832 12.2834C-0.00402832 10.2216 0.790902 8.24412 2.20577 6.78608C3.62072 5.32813 5.53977 4.50903 7.54077 4.50903C7.54077 4.50903 4.82335 7.57267 4.82335 12.2834C4.82335 16.9943 7.54077 20.0579 7.54077 20.0579Z" fill="url(#paint2_radial_21_233)"/>
<path d="M7.54077 20.0579C5.53977 20.0579 3.62072 19.2388 2.20577 17.7808C0.790902 16.3229 -0.00402832 14.3454 -0.00402832 12.2834C-0.00402832 10.2216 0.790902 8.24412 2.20577 6.78608C3.62072 5.32813 5.53977 4.50903 7.54077 4.50903C7.54077 4.50903 4.82335 7.57267 4.82335 12.2834C4.82335 16.9943 7.54077 20.0579 7.54077 20.0579Z" fill="url(#paint3_linear_21_233)"/>
</g>
</g>
<defs>
<filter id="filter0_d_21_233" x="-43.0012" y="-42.9987" width="106.775" height="110.553" filterUnits="userSpaceOnUse" color-interpolation-filters="sRGB">
<feFlood flood-opacity="0" result="BackgroundImageFix"/>
<feColorMatrix in="SourceAlpha" type="matrix" values="0 0 0 0 0 0 0 0 0 0 0 0 0 0 0 0 0 0 127 0" result="hardAlpha"/>
<feOffset/>
<feGaussianBlur stdDeviation="21.4986"/>
<feComposite in2="hardAlpha" operator="out"/>
<feColorMatrix type="matrix" values="0 0 0 0 0.984679 0 0 0 0 0.777276 0 0 0 0 0.492339 0 0 0 0.2 0"/>
<feBlend mode="normal" in2="BackgroundImageFix" result="effect1_dropShadow_21_233"/>
<feBlend mode="normal" in="SourceGraphic" in2="effect1_dropShadow_21_233" result="shape"/>
</filter>
<radialGradient id="paint0_radial_21_233" cx="0" cy="0" r="1" gradientUnits="userSpaceOnUse" gradientTransform="translate(6.93736 12.0933) rotate(-135.763) scale(18.8164 17.5088)">
<stop offset="0.139677" stop-color="#FF9401"/>
<stop offset="0.928735" stop-color="#DF5F28"/>
</radialGradient>
<linearGradient id="paint1_linear_21_233" x1="4.75955" y1="-10.8423" x2="5.48913" y2="31.8621" gradientUnits="userSpaceOnUse">
<stop offset="0.233724" stop-color="#FBC67E"/>
<stop offset="0.690403" stop-color="#FF9401"/>
</linearGradient>
<radialGradient id="paint2_radial_21_233" cx="0" cy="0" r="1" gradientUnits="userSpaceOnUse" gradientTransform="translate(6.93718 12.0934) rotate(-135.763) scale(18.8164 17.5088)">
<stop offset="0.139677" stop-color="#FF9401"/>
<stop offset="0.928735" stop-color="#DF5F28"/>
</radialGradient>
<linearGradient id="paint3_linear_21_233" x1="4.75937" y1="-10.8423" x2="5.48895" y2="31.8621" gradientUnits="userSpaceOnUse">
<stop offset="0.233724" stop-color="#FBC67E"/>
<stop offset="0.690403" stop-color="#FF9401"/>
</linearGradient>
<clipPath id="clip0_21_233">
<rect width="20.7762" height="24.56" fill="white"/>
</clipPath>
</defs>
</svg>
