<svg width="24" height="24" viewBox="0 0 24 24" fill="none" xmlns="http://www.w3.org/2000/svg">
<g clip-path="url(#clip0_21_174)">
<path d="M12 24C18.6274 24 24 18.6274 24 12C24 5.37258 18.6274 0 12 0C5.37258 0 0 5.37258 0 12C0 18.6274 5.37258 24 12 24Z" fill="url(#paint0_linear_21_174)"/>
<path fill-rule="evenodd" clip-rule="evenodd" d="M5.43195 11.8732C8.9302 10.3491 11.2629 9.34428 12.4301 8.85881C15.7626 7.4727 16.4551 7.23191 16.9064 7.22396C17.0057 7.22221 17.2277 7.24681 17.3714 7.36348C17.4928 7.46199 17.5262 7.59506 17.5422 7.68845C17.5582 7.78185 17.5781 7.99461 17.5623 8.16085C17.3817 10.0583 16.6003 14.663 16.2027 16.7882C16.0345 17.6875 15.7033 17.989 15.3826 18.0185C14.6858 18.0827 14.1566 17.558 13.4817 17.1156C12.4255 16.4232 11.8289 15.9923 10.8037 15.3167C9.6189 14.5359 10.3869 14.1068 11.0621 13.4055C11.2388 13.222 14.3092 10.4292 14.3687 10.1759C14.3761 10.1442 14.383 10.0261 14.3128 9.96373C14.2427 9.90136 14.1391 9.92269 14.0644 9.93965C13.9584 9.96369 12.2712 11.0789 9.0027 13.2852C8.52379 13.6141 8.09 13.7743 7.70135 13.7659C7.27289 13.7567 6.4487 13.5237 5.836 13.3245C5.0845 13.0802 4.48722 12.9511 4.53923 12.5362C4.56632 12.3201 4.86389 12.0991 5.43195 11.8732Z" fill="white"/>
</g>
<defs>
<linearGradient id="paint0_linear_21_174" x1="1200" y1="0" x2="1200" y2="2382.2" gradientUnits="userSpaceOnUse">
<stop stop-color="#2AABEE"/>
<stop offset="1" stop-color="#229ED9"/>
</linearGradient>
<clipPath id="clip0_21_174">
<rect width="24" height="24" fill="white"/>
</clipPath>
</defs>
</svg>
