<svg width="21" height="26" viewBox="0 0 21 26" fill="none" xmlns="http://www.w3.org/2000/svg">
<path fill-rule="evenodd" clip-rule="evenodd" d="M0.560425 8.85717C0.560425 13.5857 4.40804 17.4286 9.13186 17.4286C13.8557 17.4286 17.7033 13.5857 17.7033 8.85717C17.7033 4.12859 13.8557 0.285713 9.13186 0.285713C4.40804 0.285713 0.560425 4.12859 0.560425 8.85717ZM3.41757 8.85717C3.41757 5.70478 5.97947 3.14286 9.13186 3.14286C12.2843 3.14286 14.8462 5.70478 14.8462 8.85717C14.8462 12.0095 12.2843 14.5714 9.13186 14.5714C5.97947 14.5714 3.41757 12.0095 3.41757 8.85717ZM17.2842 19.8667L11.57 25.581C11.2938 25.862 10.9271 26 10.5604 26C10.1938 26 9.83185 25.862 9.55088 25.581C8.99376 25.0239 8.99376 24.1191 9.55088 23.5619L15.2652 17.8476C15.8224 17.2905 16.7271 17.2905 17.2842 17.8476C17.8414 18.4048 17.8414 19.3095 17.2842 19.8667ZM17.4176 1.71429C17.4176 0.771429 18.189 0 19.1319 0C20.0747 0 20.8462 0.771429 20.8462 1.71429C20.8462 2.65715 20.0747 3.42858 19.1319 3.42858C18.189 3.42858 17.4176 2.65715 17.4176 1.71429Z" fill="white"/>
</svg>
