<svg width="28" height="33" viewBox="0 0 28 33" fill="none" xmlns="http://www.w3.org/2000/svg">
<g clip-path="url(#clip0_21_218)">
<path d="M10.9656 7.32736C10.6167 7.27751 10.6 7.2609 10.7662 7.24428C11.0819 7.19444 11.8129 7.2609 12.328 7.3772C13.5243 7.65966 14.6043 8.39072 15.7507 9.67008L16.0498 10.019L16.4818 9.95254C18.326 9.65347 20.2202 9.88608 21.7986 10.6171C22.2306 10.8165 22.9118 11.2153 22.9949 11.315C23.0281 11.3482 23.078 11.5642 23.1112 11.7802C23.2275 12.5611 23.1776 13.1426 22.9284 13.5912C22.7955 13.8405 22.7955 13.9069 22.8786 14.1229C22.945 14.2891 23.1444 14.4054 23.3272 14.4054C23.7259 14.4054 24.1413 13.774 24.3407 12.8934L24.4238 12.5445L24.5733 12.7106C25.4207 13.6577 26.0853 14.9703 26.185 15.9007L26.2182 16.15L26.0687 15.934C25.8194 15.5518 25.5868 15.3026 25.2711 15.0866C24.7062 14.7044 24.1081 14.5881 22.5297 14.5051C21.1008 14.422 20.2866 14.3057 19.4891 14.0398C18.1267 13.5912 17.4288 13.0097 15.8172 10.8664C15.1027 9.91931 14.6541 9.40424 14.2055 8.97225C13.2252 8.02519 12.2449 7.52674 10.9656 7.32736Z" fill="#FF007A"/>
<path d="M23.3446 9.43743C23.3778 8.80605 23.4609 8.39068 23.6437 8.00853C23.7101 7.85899 23.7766 7.72607 23.7932 7.72607C23.8098 7.72607 23.7766 7.84238 23.7267 7.9753C23.5938 8.34083 23.5772 8.8559 23.6603 9.43743C23.7766 10.1851 23.8264 10.2848 24.6239 11.0989C24.9895 11.4811 25.4215 11.9629 25.5876 12.1623L25.8701 12.5278L25.5876 12.262C25.2387 11.9297 24.4412 11.2983 24.2584 11.2152C24.1421 11.1488 24.1255 11.1488 24.0424 11.2319C23.976 11.2983 23.9593 11.398 23.9593 11.8798C23.9427 12.6275 23.843 13.0927 23.5938 13.5746C23.4609 13.8238 23.4443 13.774 23.5606 13.4915C23.6437 13.2755 23.6603 13.1758 23.6603 12.4614C23.6603 11.0159 23.4941 10.6669 22.4806 10.0854C22.2314 9.93588 21.7994 9.71988 21.5502 9.60358C21.2843 9.48727 21.0849 9.38758 21.1016 9.38758C21.1348 9.35435 22.1151 9.63681 22.4972 9.80296C23.0787 10.0356 23.1784 10.0522 23.2449 10.0356C23.2947 9.98572 23.328 9.8528 23.3446 9.43743Z" fill="#FF007A"/>
<path d="M11.6465 11.9129C10.9487 10.9492 10.5001 9.45383 10.5998 8.34062L10.633 7.9917L10.7991 8.02493C11.0982 8.07477 11.6133 8.27416 11.8625 8.42369C12.5271 8.82245 12.8262 9.37075 13.1086 10.7332C13.1917 11.1319 13.308 11.5972 13.3579 11.7467C13.4409 11.9959 13.7566 12.5775 14.0225 12.943C14.2052 13.2088 14.0889 13.3418 13.6736 13.3085C13.0422 13.2421 12.1948 12.6605 11.6465 11.9129Z" fill="#FF007A"/>
<path d="M22.4969 19.1405C19.2071 17.8113 18.0441 16.6648 18.0441 14.7209C18.0441 14.4384 18.0607 14.2058 18.0607 14.2058C18.0773 14.2058 18.1936 14.3055 18.3431 14.4218C19.0077 14.9535 19.7554 15.1861 21.8323 15.4852C23.0452 15.6679 23.743 15.8009 24.3744 16.0169C26.3848 16.6815 27.631 18.0439 27.93 19.8882C28.0131 20.4198 27.9633 21.4334 27.8303 21.965C27.714 22.3804 27.3817 23.1447 27.2987 23.1613C27.282 23.1613 27.2488 23.0783 27.2488 22.9453C27.2156 22.2475 26.8667 21.5829 26.2851 21.0678C25.5873 20.4697 24.6901 20.0211 22.4969 19.1405Z" fill="#FF007A"/>
<path d="M20.1705 19.6888C20.1372 19.4395 20.0542 19.1238 20.0043 18.9909L19.9212 18.7417L20.0708 18.9245C20.2868 19.1737 20.4529 19.4728 20.6025 19.8881C20.7188 20.2038 20.7188 20.3035 20.7188 20.8186C20.7188 21.317 20.7022 21.4333 20.6025 21.7158C20.4363 22.1644 20.2369 22.4801 19.9046 22.829C19.3065 23.4438 18.5256 23.7761 17.4124 23.9256C17.213 23.9422 16.6481 23.9921 16.1496 24.0253C14.9035 24.0918 14.0727 24.2247 13.3251 24.4905C13.2254 24.5237 13.1257 24.557 13.1091 24.5404C13.0758 24.5071 13.5909 24.2081 14.0063 24.0087C14.5878 23.7262 15.186 23.5767 16.4985 23.3441C17.1465 23.2444 17.8111 23.1115 17.9773 23.045C19.6222 22.5299 20.4363 21.2506 20.1705 19.6888Z" fill="#FF007A"/>
<path d="M21.6819 22.3637C21.2499 21.4166 21.1503 20.5194 21.3829 19.672C21.4161 19.5889 21.4493 19.5059 21.4826 19.5059C21.5158 19.5059 21.6155 19.5557 21.7152 19.6222C21.9145 19.7551 22.3299 19.9877 23.3933 20.5692C24.7391 21.3003 25.5034 21.8652 26.0351 22.5132C26.5003 23.0781 26.7828 23.7261 26.9157 24.5236C26.9988 24.9722 26.9489 26.0522 26.8326 26.5008C26.4671 27.9131 25.6363 29.0429 24.4234 29.6909C24.2407 29.7906 24.0911 29.857 24.0745 29.857C24.0579 29.857 24.1243 29.6909 24.224 29.4915C24.6228 28.6441 24.6726 27.83 24.3736 26.9162C24.1908 26.3513 23.8087 25.67 23.0444 24.5236C22.1305 23.1944 21.9145 22.8455 21.6819 22.3637Z" fill="#FF007A"/>
<path d="M9.30412 27.448C10.5336 26.4179 12.0456 25.6868 13.4413 25.4542C14.0394 25.3545 15.0363 25.3877 15.5846 25.5373C16.4652 25.7699 17.2627 26.2683 17.6781 26.8831C18.0769 27.4812 18.2596 27.9963 18.4424 29.1427C18.5089 29.5914 18.5919 30.0566 18.6086 30.1563C18.7415 30.7544 19.0073 31.2196 19.3396 31.4689C19.8547 31.851 20.7519 31.8676 21.6325 31.5353C21.782 31.4855 21.9149 31.4356 21.9149 31.4522C21.9482 31.4855 21.4996 31.7845 21.2005 31.9341C20.7851 32.1501 20.4528 32.2165 20.0042 32.2165C19.2067 32.2165 18.5255 31.8012 17.9772 30.9704C17.8609 30.8043 17.6283 30.3224 17.4289 29.8738C16.8474 28.528 16.5483 28.1292 15.8671 27.6806C15.2689 27.2985 14.5046 27.2154 13.9231 27.4979C13.1588 27.8634 12.9594 28.8437 13.4911 29.4418C13.7071 29.691 14.1059 29.8904 14.4382 29.9403C15.0529 30.0233 15.5846 29.5415 15.5846 28.9268C15.5846 28.528 15.4351 28.2954 15.0363 28.1126C14.5046 27.88 13.9231 28.1458 13.9397 28.6609C13.9397 28.8769 14.0394 29.0098 14.2554 29.1095C14.3883 29.176 14.3883 29.176 14.2886 29.1594C13.8068 29.0597 13.6905 28.4615 14.0726 28.0794C14.5379 27.6142 15.5182 27.8135 15.8505 28.4615C15.9834 28.7274 16 29.2591 15.8837 29.5914C15.6012 30.3224 14.8037 30.7046 13.9896 30.4886C13.4413 30.339 13.2087 30.1895 12.5441 29.5083C11.381 28.312 10.9324 28.0794 9.27089 27.8302L8.9552 27.7803L9.30412 27.448Z" fill="#FF007A"/>
<path fill-rule="evenodd" clip-rule="evenodd" d="M0.564675 0.714448C4.43599 5.41651 10.4008 12.7271 10.6999 13.1259C10.9491 13.4582 10.8494 13.7739 10.434 14.0065C10.2014 14.1394 9.71958 14.2723 9.48697 14.2723C9.22112 14.2723 8.90544 14.1394 8.68944 13.9234C8.53991 13.7739 7.89192 12.8268 6.42979 10.5506C5.31658 8.80598 4.36952 7.36047 4.35291 7.34386C4.28645 7.31063 4.28645 7.31063 6.31349 10.9327C7.59285 13.209 8.00822 14.0231 8.00822 14.1228C8.00822 14.3388 7.94176 14.4551 7.67592 14.7542C7.22732 15.2526 7.02794 15.8175 6.8784 16.9972C6.71225 18.3098 6.26364 19.2402 4.98428 20.8187C4.2366 21.7491 4.1203 21.9153 3.93753 22.2974C3.70492 22.7626 3.63846 23.0285 3.60523 23.6266C3.572 24.258 3.63846 24.6568 3.82123 25.2549C3.98738 25.7866 4.17014 26.1355 4.61875 26.8167C5.0009 27.4149 5.23351 27.8635 5.23351 28.0296C5.23351 28.1625 5.26674 28.1625 5.86488 28.0296C7.29378 27.6973 8.47345 27.1324 9.12143 26.4346C9.5202 26.0026 9.61989 25.77 9.61989 25.1718C9.61989 24.7897 9.60327 24.7066 9.50358 24.474C9.33743 24.1085 9.02174 23.8094 8.34053 23.3442C7.44331 22.7294 7.06117 22.231 6.96148 21.5664C6.8784 21.0014 6.97809 20.6193 7.47654 19.5725C7.99161 18.4926 8.12453 18.044 8.20761 16.9474C8.25745 16.2495 8.34053 15.9671 8.53991 15.7511C8.7559 15.5185 8.93867 15.4354 9.45374 15.3689C10.3011 15.2526 10.8494 15.0366 11.2814 14.6213C11.6635 14.2723 11.8297 13.9234 11.8463 13.4084L11.8629 13.0262L11.6469 12.7936C10.866 11.8964 0.0496077 0 -0.000237516 0C-0.0168526 0 0.248988 0.315686 0.564675 0.714448ZM5.6655 24.3411C5.84827 24.0254 5.74858 23.6266 5.4495 23.4272C5.16705 23.2445 4.73506 23.3276 4.73506 23.5768C4.73506 23.6432 4.76829 23.7097 4.86798 23.7429C5.01751 23.826 5.03413 23.9091 4.91782 24.0918C4.80152 24.2746 4.80152 24.4408 4.95105 24.5571C5.18366 24.7398 5.49935 24.6401 5.6655 24.3411Z" fill="#FF007A"/>
<path fill-rule="evenodd" clip-rule="evenodd" d="M12.395 15.6016C11.9962 15.718 11.614 16.1499 11.4977 16.5819C11.4313 16.8478 11.4645 17.3296 11.5808 17.4792C11.7636 17.7118 11.9297 17.7782 12.395 17.7782C13.3088 17.7782 14.0897 17.3795 14.1728 16.8976C14.2558 16.4989 13.9069 15.9506 13.4251 15.7013C13.1759 15.5684 12.6608 15.5186 12.395 15.6016ZM13.4583 16.4324C13.5912 16.233 13.5414 16.017 13.2922 15.8675C12.8436 15.585 12.1623 15.8176 12.1623 16.2496C12.1623 16.4656 12.5113 16.6982 12.8436 16.6982C13.0596 16.6982 13.3586 16.5653 13.4583 16.4324Z" fill="#FF007A"/>
</g>
<defs>
<clipPath id="clip0_21_218">
<rect width="27.9632" height="32.2" fill="white"/>
</clipPath>
</defs>
</svg>
